<?xml version="1.0" encoding="UTF-8" standalone="no"?><!DOCTYPE svg PUBLIC "-//W3C//DTD SVG 1.1//EN" "http://www.w3.org/Graphics/SVG/1.1/DTD/svg11.dtd"><svg width="100%" height="100%" viewBox="0 0 36 36" version="1.1" xmlns="http://www.w3.org/2000/svg" xmlns:xlink="http://www.w3.org/1999/xlink" xml:space="preserve" xmlns:serif="http://www.serif.com/" style="fill-rule:evenodd;clip-rule:evenodd;stroke-linecap:round;stroke-linejoin:round;stroke-miterlimit:1.5;"><rect id="baby" x="0" y="0" width="36" height="36" style="fill:none;"/><g id="bg-white"><circle cx="18" cy="18" r="18" style="fill:#fff;"/></g><path d="M11,12l6,6" style="fill:none;stroke:#ec1f27;stroke-width:0.8px;"/><path d="M22.866,10.347c1.283,0.483 2.134,1.2 2.134,2.153l0,10c0,3.863 -3.137,7 -7,7c-3.863,0 -7,-3.137 -7,-7l0,-10c0,-0.953 0.851,-1.67 2.134,-2.153c-0.088,0.37 -0.134,0.756 -0.134,1.153c0,2.76 2.24,5 5,5c2.76,0 5,-2.24 5,-5c0,-0.397 -0.046,-0.783 -0.134,-1.153Z" style="fill:none;stroke:#ec1f27;stroke-width:0.8px;"/><circle cx="18" cy="11.5" r="5" style="fill:none;stroke:#ec1f27;stroke-width:0.8px;"/><path d="M11,23l14,-10.5" style="fill:none;stroke:#ec1f27;stroke-width:0.8px;"/><path d="M15.5,11c0.207,-0.616 1.647,-0.733 2,0" style="fill:none;stroke:#ec1f27;stroke-width:0.8px;"/><path d="M18.5,11c0.207,-0.616 1.647,-0.733 2,0" style="fill:none;stroke:#ec1f27;stroke-width:0.8px;"/><path d="M16.5,13.5c0.957,0.862 1.95,1.009 3,0" style="fill:none;stroke:#ec1f27;stroke-width:0.8px;"/><circle cx="20" cy="8" r="1" style="fill:none;stroke:#ec1f27;stroke-width:0.8px;"/><circle cx="18" cy="8" r="1" style="fill:none;stroke:#ec1f27;stroke-width:0.8px;"/><circle cx="16" cy="8" r="1" style="fill:none;stroke:#ec1f27;stroke-width:0.8px;"/></svg>