<?xml version="1.0" encoding="UTF-8" standalone="no"?><!DOCTYPE svg PUBLIC "-//W3C//DTD SVG 1.1//EN" "http://www.w3.org/Graphics/SVG/1.1/DTD/svg11.dtd"><svg width="100%" height="100%" viewBox="0 0 36 36" version="1.1" xmlns="http://www.w3.org/2000/svg" xmlns:xlink="http://www.w3.org/1999/xlink" xml:space="preserve" xmlns:serif="http://www.serif.com/" style="fill-rule:evenodd;clip-rule:evenodd;stroke-linecap:round;stroke-linejoin:round;stroke-miterlimit:1.5;"><rect id="barb-wire-fence" x="0" y="0" width="36" height="36" style="fill:none;"/><g id="bg-white"><circle cx="18" cy="18" r="18" style="fill:#fff;"/></g><rect x="8" y="14" width="20" height="16" style="fill:none;stroke:#ec1f27;stroke-width:0.8px;"/><path d="M15.249,30l-4.382,0l-2.867,-2.867l0,-4.382l7.249,7.249Z" style="fill:none;stroke:#ec1f27;stroke-width:0.8px;"/><path d="M8,23.543l0,-4.381l5.162,-5.162l4.381,0l-9.543,9.543Z" style="fill:none;stroke:#ec1f27;stroke-width:0.8px;"/><path d="M24.543,30l-4.381,0l-12.162,-12.162l0,-3.838l0.543,0l16,16Z" style="fill:none;stroke:#ec1f27;stroke-width:0.8px;"/><path d="M8,28.457l14.457,-14.457l4.381,0l-16,16l-2.838,0l0,-1.543Z" style="fill:none;stroke:#ec1f27;stroke-width:0.8px;"/><path d="M28,24.162l0,4.381l-14.543,-14.543l4.381,0l10.162,10.162Z" style="fill:none;stroke:#ec1f27;stroke-width:0.8px;"/><path d="M28,22.133l-7.867,7.867l-4.382,0l12.249,-12.249l0,4.382Z" style="fill:none;stroke:#ec1f27;stroke-width:0.8px;"/><path d="M28,14.867l0,4.382l-5.249,-5.249l4.382,0l0.867,0.867Z" style="fill:none;stroke:#ec1f27;stroke-width:0.8px;"/><path d="M28,30l-2.954,0l2.954,-2.954l0,2.954Z" style="fill:none;stroke:#ec1f27;stroke-width:0.8px;"/><rect x="8" y="10" width="20" height="4" style="fill:none;stroke:#ec1f27;stroke-width:0.8px;"/><path d="M6,8l2,2" style="fill:none;stroke:#ec1f27;stroke-width:0.8px;"/><path d="M15,8l2,2" style="fill:none;stroke:#ec1f27;stroke-width:0.8px;"/><path d="M24,8l2,2" style="fill:none;stroke:#ec1f27;stroke-width:0.8px;"/><path d="M12,12l-2,-2" style="fill:none;stroke:#ec1f27;stroke-width:0.8px;"/><path d="M21,12l-2,-2" style="fill:none;stroke:#ec1f27;stroke-width:0.8px;"/><path d="M30,12l-2,-2" style="fill:none;stroke:#ec1f27;stroke-width:0.8px;"/><path d="M10,9l-1,1" style="fill:none;stroke:#ec1f27;stroke-width:0.8px;"/><path d="M19,9l-1,1" style="fill:none;stroke:#ec1f27;stroke-width:0.8px;"/><path d="M28,9l-1,1" style="fill:none;stroke:#ec1f27;stroke-width:0.8px;"/><path d="M9,9l-3,3" style="fill:none;stroke:#ec1f27;stroke-width:0.8px;"/><path d="M18,9l-3,3" style="fill:none;stroke:#ec1f27;stroke-width:0.8px;"/><path d="M27,9l-3,3" style="fill:none;stroke:#ec1f27;stroke-width:0.8px;"/><path d="M10,10l2,-2" style="fill:none;stroke:#ec1f27;stroke-width:0.8px;"/><path d="M19,10l2,-2" style="fill:none;stroke:#ec1f27;stroke-width:0.8px;"/><path d="M28,10l2,-2" style="fill:none;stroke:#ec1f27;stroke-width:0.8px;"/></svg>