<?xml version="1.0" encoding="UTF-8" standalone="no"?><!DOCTYPE svg PUBLIC "-//W3C//DTD SVG 1.1//EN" "http://www.w3.org/Graphics/SVG/1.1/DTD/svg11.dtd"><svg width="100%" height="100%" viewBox="0 0 36 36" version="1.1" xmlns="http://www.w3.org/2000/svg" xmlns:xlink="http://www.w3.org/1999/xlink" xml:space="preserve" xmlns:serif="http://www.serif.com/" style="fill-rule:evenodd;clip-rule:evenodd;stroke-linecap:round;stroke-linejoin:round;stroke-miterlimit:1.5;"><rect id="barb-wire-fence" x="0" y="0" width="36" height="36" style="fill:none;"/><g id="bg-white"><circle cx="18" cy="18" r="18" style="fill:#fff;"/></g><rect x="8" y="14" width="20" height="16" style="fill:none;"/><clipPath id="_clip1"><rect x="8" y="14" width="20" height="16"/></clipPath><g clip-path="url(#_clip1)"><path d="M29.763,-7.514l-2.191,-2.191l-40.277,40.277l2.191,2.191l40.277,-40.277Z" style="fill:none;stroke:#ec1f27;stroke-width:0.5px;"/><path d="M-10.514,4.237l-2.191,2.191l40.277,40.277l2.191,-2.191l-40.277,-40.277Z" style="fill:none;stroke:#ec1f27;stroke-width:0.5px;"/><path d="M34.41,-2.867l-2.19,-2.191l-40.278,40.278l2.191,2.19l40.277,-40.277Z" style="fill:none;stroke:#ec1f27;stroke-width:0.5px;"/><path d="M-5.867,-0.41l-2.191,2.19l40.278,40.278l2.19,-2.191l-40.277,-40.277Z" style="fill:none;stroke:#ec1f27;stroke-width:0.5px;"/><path d="M39.058,1.78l-2.191,-2.19l-40.277,40.277l2.19,2.191l40.278,-40.278Z" style="fill:none;stroke:#ec1f27;stroke-width:0.5px;"/><path d="M-1.22,-5.058l-2.19,2.191l40.277,40.277l2.191,-2.19l-40.278,-40.278Z" style="fill:none;stroke:#ec1f27;stroke-width:0.5px;"/><path d="M43.705,6.428l-2.191,-2.191l-40.277,40.277l2.191,2.191l40.277,-40.277Z" style="fill:none;stroke:#ec1f27;stroke-width:0.5px;"/><path d="M3.428,-9.705l-2.191,2.191l40.277,40.277l2.191,-2.191l-40.277,-40.277Z" style="fill:none;stroke:#ec1f27;stroke-width:0.5px;"/><path d="M48.353,11.075l-2.191,-2.191l-40.278,40.278l2.191,2.191l40.278,-40.278Z" style="fill:none;stroke:#ec1f27;stroke-width:0.5px;"/></g><rect x="8" y="14" width="20" height="16" style="fill:none;stroke:#ec1f27;stroke-width:0.8px;"/><rect x="8" y="10" width="20" height="4" style="fill:none;stroke:#ec1f27;stroke-width:0.8px;"/><path d="M6,8l2,2" style="fill:none;stroke:#ec1f27;stroke-width:0.8px;"/><path d="M15,8l2,2" style="fill:none;stroke:#ec1f27;stroke-width:0.8px;"/><path d="M24,8l2,2" style="fill:none;stroke:#ec1f27;stroke-width:0.8px;"/><path d="M12,12l-2,-2" style="fill:none;stroke:#ec1f27;stroke-width:0.8px;"/><path d="M21,12l-2,-2" style="fill:none;stroke:#ec1f27;stroke-width:0.8px;"/><path d="M30,12l-2,-2" style="fill:none;stroke:#ec1f27;stroke-width:0.8px;"/><path d="M10,9l-1,1" style="fill:none;stroke:#ec1f27;stroke-width:0.8px;"/><path d="M19,9l-1,1" style="fill:none;stroke:#ec1f27;stroke-width:0.8px;"/><path d="M28,9l-1,1" style="fill:none;stroke:#ec1f27;stroke-width:0.8px;"/><path d="M9,9l-3,3" style="fill:none;stroke:#ec1f27;stroke-width:0.8px;"/><path d="M18,9l-3,3" style="fill:none;stroke:#ec1f27;stroke-width:0.8px;"/><path d="M27,9l-3,3" style="fill:none;stroke:#ec1f27;stroke-width:0.8px;"/><path d="M10,10l2,-2" style="fill:none;stroke:#ec1f27;stroke-width:0.8px;"/><path d="M19,10l2,-2" style="fill:none;stroke:#ec1f27;stroke-width:0.8px;"/><path d="M28,10l2,-2" style="fill:none;stroke:#ec1f27;stroke-width:0.8px;"/></svg>