<?xml version="1.0" encoding="UTF-8" standalone="no"?><!DOCTYPE svg PUBLIC "-//W3C//DTD SVG 1.1//EN" "http://www.w3.org/Graphics/SVG/1.1/DTD/svg11.dtd"><svg width="100%" height="100%" viewBox="0 0 36 36" version="1.1" xmlns="http://www.w3.org/2000/svg" xmlns:xlink="http://www.w3.org/1999/xlink" xml:space="preserve" xmlns:serif="http://www.serif.com/" style="fill-rule:evenodd;clip-rule:evenodd;stroke-linecap:round;stroke-linejoin:round;stroke-miterlimit:1.5;"><rect id="bike" x="0" y="0" width="36" height="36" style="fill:none;"/><g id="bg-white"><circle cx="18" cy="18" r="18" style="fill:#fff;"/></g><circle cx="11" cy="21" r="4" style="fill:none;stroke:#ec1f27;stroke-width:0.8px;"/><circle cx="25" cy="21" r="4" style="fill:none;stroke:#ec1f27;stroke-width:0.8px;"/><path d="M13,12l3,0l-5,9" style="fill:none;stroke:#ec1f27;stroke-width:0.8px;"/><path d="M23,12l-4.5,8" style="fill:none;stroke:#ec1f27;stroke-width:0.8px;"/><circle cx="18" cy="21" r="1" style="fill:none;stroke:#ec1f27;stroke-width:0.8px;"/><circle cx="18" cy="21" r="1" style="fill:none;stroke:#ec1f27;stroke-width:0.8px;"/><path d="M21,12l4,0" style="fill:none;stroke:#ec1f27;stroke-width:0.8px;"/><path d="M16,24l2,0" style="fill:none;stroke:#ec1f27;stroke-width:0.8px;"/><path d="M25,21l-6,0c0,-0.552 -0.448,-1 -1,-1c-0.14,0 -0.273,0.029 -0.394,0.081l-2.606,-6.081l7,0l3,7Z" style="fill:none;stroke:#ec1f27;stroke-width:0.8px;"/><path d="M18,22l-1,2" style="fill:none;stroke:#ec1f27;stroke-width:0.8px;"/></svg>