<?xml version="1.0" encoding="UTF-8" standalone="no"?><!DOCTYPE svg PUBLIC "-//W3C//DTD SVG 1.1//EN" "http://www.w3.org/Graphics/SVG/1.1/DTD/svg11.dtd"><svg width="100%" height="100%" viewBox="0 0 36 36" version="1.1" xmlns="http://www.w3.org/2000/svg" xmlns:xlink="http://www.w3.org/1999/xlink" xml:space="preserve" xmlns:serif="http://www.serif.com/" style="fill-rule:evenodd;clip-rule:evenodd;stroke-linecap:round;stroke-linejoin:round;stroke-miterlimit:1.5;"><rect id="boiling-pot" x="0" y="0" width="36" height="36" style="fill:none;"/><g id="bg-white"><circle cx="18" cy="18" r="18" style="fill:#fff;"/></g><path d="M24.547,23l0,3c0.012,1.439 -0.584,2.007 -1.881,2" style="fill:none;stroke:#ec1f27;stroke-width:0.8px;"/><path d="M27,21l0,5.5c0,1.932 -1.661,3.5 -3.706,3.5l-10.588,0c-2.045,0 -3.706,-1.568 -3.706,-3.5l0,-5.5l-2,0l0,-2l22,0l0,2l-2,0" style="fill:none;stroke:#ec1f27;stroke-width:0.8px;"/><path d="M12,9c-1.159,1.373 -1.061,2.704 0,4c1.473,1.379 1.321,2.708 0,4" style="fill:none;stroke:#ec1f27;stroke-width:0.8px;"/><path d="M15.833,9c-1.159,1.373 -1.061,2.704 0,4c1.473,1.379 1.32,2.708 0,4" style="fill:none;stroke:#ec1f27;stroke-width:0.8px;"/><path d="M19.666,9c-1.159,1.373 -1.061,2.704 0,4c1.473,1.379 1.32,2.708 0,4" style="fill:none;stroke:#ec1f27;stroke-width:0.8px;"/><path d="M23.498,9c-1.158,1.373 -1.061,2.704 0,4c1.474,1.379 1.321,2.708 0,4" style="fill:none;stroke:#ec1f27;stroke-width:0.8px;"/></svg>