<?xml version="1.0" encoding="UTF-8" standalone="no"?><!DOCTYPE svg PUBLIC "-//W3C//DTD SVG 1.1//EN" "http://www.w3.org/Graphics/SVG/1.1/DTD/svg11.dtd"><svg width="100%" height="100%" viewBox="0 0 36 36" version="1.1" xmlns="http://www.w3.org/2000/svg" xmlns:xlink="http://www.w3.org/1999/xlink" xml:space="preserve" xmlns:serif="http://www.serif.com/" style="fill-rule:evenodd;clip-rule:evenodd;stroke-linecap:round;stroke-linejoin:round;stroke-miterlimit:1.5;"><rect id="bread" x="0" y="0" width="36" height="36" style="fill:none;"/><g id="bg-white"><circle cx="18" cy="18" r="18" style="fill:#fff;"/></g><path d="M22,10c2.208,0 4,1.792 4,4c0,1.013 -0.378,1.939 -1,2.645l0,7.855c0,0.828 -0.672,1.5 -1.5,1.5l-12,0c-0.828,0 -1.5,-0.672 -1.5,-1.5l0,-7.855c-0.622,-0.706 -1,-1.632 -1,-2.645c0,-2.208 1.792,-4 4,-4l2,0c0.946,0 1.815,0.329 2.5,0.878c0.685,-0.549 1.554,-0.878 2.5,-0.878l2,0Z" style="fill:none;stroke:#ec1f27;stroke-width:0.8px;"/><path d="M12,20l0,3c-0.018,0.811 0.385,1.05 1,1l3,0" style="fill:none;stroke:#ec1f27;stroke-width:0.8px;"/><path d="M12,16c-1.994,-3.121 -0.052,-4.441 4,-4" style="fill:none;stroke:#ec1f27;stroke-width:0.8px;"/></svg>