<?xml version="1.0" encoding="UTF-8" standalone="no"?><!DOCTYPE svg PUBLIC "-//W3C//DTD SVG 1.1//EN" "http://www.w3.org/Graphics/SVG/1.1/DTD/svg11.dtd"><svg width="100%" height="100%" viewBox="0 0 36 36" version="1.1" xmlns="http://www.w3.org/2000/svg" xmlns:xlink="http://www.w3.org/1999/xlink" xml:space="preserve" xmlns:serif="http://www.serif.com/" style="fill-rule:evenodd;clip-rule:evenodd;stroke-linecap:round;stroke-linejoin:round;stroke-miterlimit:1.5;"><rect id="broken-chain" x="0" y="0" width="36" height="36" style="fill:none;"/><g id="bg-white"><circle cx="18" cy="18" r="18" style="fill:#fff;"/></g><path d="M19.278,15.035l-4.596,-4.596c-0.586,-0.585 -1.536,-0.585 -2.122,0l-2.121,2.121c-0.585,0.586 -0.585,1.536 0,2.122l4.596,4.596l1.414,-1.414l-3.889,-3.889c-0.195,-0.196 -0.195,-0.512 0,-0.708l0.707,-0.707c0.196,-0.195 0.512,-0.195 0.708,0l3.889,3.889l1.414,-1.414" style="fill:none;stroke:#ec1f27;stroke-width:0.7px;"/><path d="M17,21.243l4.596,4.596c0.586,0.585 1.536,0.585 2.122,0l2.121,-2.121c0.585,-0.586 0.585,-1.536 0,-2.122l-4.596,-4.596l-1.415,1.414l3.89,3.889c0.195,0.195 0.195,0.512 0,0.707l-0.708,0.708c-0.195,0.195 -0.512,0.195 -0.707,0l-3.889,-3.89l-1.414,1.415" style="fill:none;stroke:#ec1f27;stroke-width:0.7px;"/><path d="M21,15l3,-3" style="fill:none;stroke:#ec1f27;stroke-width:0.7px;"/><path d="M12,24l3,-3" style="fill:none;stroke:#ec1f27;stroke-width:0.7px;"/><path d="M20.139,14l0,-3" style="fill:none;stroke:#ec1f27;stroke-width:0.7px;"/><path d="M16,25l0,-3" style="fill:none;stroke:#ec1f27;stroke-width:0.7px;"/><path d="M22,16l3,0" style="fill:none;stroke:#ec1f27;stroke-width:0.7px;"/><path d="M11,20.139l3,0" style="fill:none;stroke:#ec1f27;stroke-width:0.7px;"/></svg>