<?xml version="1.0" encoding="UTF-8" standalone="no"?><!DOCTYPE svg PUBLIC "-//W3C//DTD SVG 1.1//EN" "http://www.w3.org/Graphics/SVG/1.1/DTD/svg11.dtd"><svg width="100%" height="100%" viewBox="0 0 36 36" version="1.1" xmlns="http://www.w3.org/2000/svg" xmlns:xlink="http://www.w3.org/1999/xlink" xml:space="preserve" xmlns:serif="http://www.serif.com/" style="fill-rule:evenodd;clip-rule:evenodd;stroke-linecap:round;stroke-linejoin:round;stroke-miterlimit:1.5;"><rect id="bus" x="0" y="0" width="36" height="36" style="fill:none;"/><g id="bg-white"><circle cx="18" cy="18" r="18" style="fill:#fff;"/></g><circle cx="12" cy="25" r="2" style="fill:#fff;stroke:#ec1f27;stroke-width:0.8px;"/><circle cx="27" cy="25" r="2" style="fill:#fff;stroke:#ec1f27;stroke-width:0.8px;"/><path d="M21,14l8,0l1,1l0,10l-1,0c0,1.104 -0.896,2 -2,2c-1.104,0 -2,-0.896 -2,-2l-11,0c0,1.104 -0.896,2 -2,2c-1.104,0 -2,-0.896 -2,-2l-2,0l-2,-2l0,-8l1,-1l5,0l2,-2l5,0l2,2Z" style="fill:none;stroke:#ec1f27;stroke-width:0.8px;"/><rect x="6" y="17" width="12" height="4" style="fill:none;stroke:#ec1f27;stroke-width:0.8px;"/><rect x="20" y="17" width="4" height="8" style="fill:none;stroke:#ec1f27;stroke-width:0.8px;"/><rect x="26" y="17" width="4" height="4" style="fill:none;stroke:#ec1f27;stroke-width:0.8px;"/><path d="M14,17l0,4" style="fill:none;stroke:#ec1f27;stroke-width:0.8px;"/><path d="M10,17l0,4" style="fill:none;stroke:#ec1f27;stroke-width:0.8px;"/><path d="M22,17l0,8" style="fill:none;stroke:#ec1f27;stroke-width:0.8px;"/><path d="M12,14l9,0" style="fill:none;stroke:#ec1f27;stroke-width:0.8px;"/></svg>