<?xml version="1.0" encoding="UTF-8" standalone="no"?><!DOCTYPE svg PUBLIC "-//W3C//DTD SVG 1.1//EN" "http://www.w3.org/Graphics/SVG/1.1/DTD/svg11.dtd"><svg width="100%" height="100%" viewBox="0 0 36 36" version="1.1" xmlns="http://www.w3.org/2000/svg" xmlns:xlink="http://www.w3.org/1999/xlink" xml:space="preserve" xmlns:serif="http://www.serif.com/" style="fill-rule:evenodd;clip-rule:evenodd;stroke-linecap:round;stroke-linejoin:round;stroke-miterlimit:1.5;"><rect id="calendar" x="0" y="0" width="36" height="36" style="fill:none;"/><g id="bg-white"><circle cx="18" cy="18" r="18" style="fill:#fff;"/></g><path d="M23.25,9l-4.5,0" style="fill:none;stroke:#ec1f27;stroke-width:0.8px;"/><path d="M17.25,9l-4.5,0" style="fill:none;stroke:#ec1f27;stroke-width:0.8px;"/><path d="M11.25,9l-2.506,0c-1.104,0 -2,0.896 -2,2l0,16c0,1.104 0.896,2 2,2l18.506,0c1.104,0 2,-0.896 2,-2l0,-16c0,-1.104 -0.896,-2 -2,-2l-2.5,0" style="fill:none;stroke:#ec1f27;stroke-width:0.8px;"/><path d="M6.744,12.5l22.506,0" style="fill:none;stroke:#ec1f27;stroke-width:0.8px;"/><path d="M9,16l2.5,0" style="fill:none;stroke:#ec1f27;stroke-width:0.8px;"/><path d="M9,19l2.5,0" style="fill:none;stroke:#ec1f27;stroke-width:0.8px;"/><path d="M9,22l2.5,0" style="fill:none;stroke:#ec1f27;stroke-width:0.8px;"/><path d="M9,25l2.5,0" style="fill:none;stroke:#ec1f27;stroke-width:0.8px;"/><path d="M14,16l2.5,0" style="fill:none;stroke:#ec1f27;stroke-width:0.8px;"/><path d="M14,19l2.5,0" style="fill:none;stroke:#ec1f27;stroke-width:0.8px;"/><path d="M14,22l2.5,0" style="fill:none;stroke:#ec1f27;stroke-width:0.8px;"/><path d="M14,25l2.5,0" style="fill:none;stroke:#ec1f27;stroke-width:0.8px;"/><path d="M19,16l2.5,0" style="fill:none;stroke:#ec1f27;stroke-width:0.8px;"/><path d="M19,19l2.5,0" style="fill:none;stroke:#ec1f27;stroke-width:0.8px;"/><path d="M19,25l2.5,0" style="fill:none;stroke:#ec1f27;stroke-width:0.8px;"/><path d="M24,16l2.5,0" style="fill:none;stroke:#ec1f27;stroke-width:0.8px;"/><path d="M24,19l2.5,0" style="fill:none;stroke:#ec1f27;stroke-width:0.8px;"/><path d="M24,22l2.5,0" style="fill:none;stroke:#ec1f27;stroke-width:0.8px;"/><path d="M24,25l2.5,0" style="fill:none;stroke:#ec1f27;stroke-width:0.8px;"/><path d="M21.5,21.375c0,-0.345 -0.28,-0.625 -0.625,-0.625l-1.25,0c-0.345,0 -0.625,0.28 -0.625,0.625l0,1.25c0,0.345 0.28,0.625 0.625,0.625l1.25,0c0.345,0 0.625,-0.28 0.625,-0.625l0,-1.25Z" style="fill:none;stroke:#ec1f27;stroke-width:0.8px;"/><path d="M12.75,7.375c0,-0.207 -0.168,-0.375 -0.375,-0.375l-0.75,0c-0.207,0 -0.375,0.168 -0.375,0.375l0,3.25c0,0.207 0.168,0.375 0.375,0.375l0.75,0c0.207,0 0.375,-0.168 0.375,-0.375l0,-3.25Z" style="fill:none;stroke:#ec1f27;stroke-width:0.8px;"/><path d="M18.75,7.375c0,-0.207 -0.168,-0.375 -0.375,-0.375l-0.75,0c-0.207,0 -0.375,0.168 -0.375,0.375l0,3.25c0,0.207 0.168,0.375 0.375,0.375l0.75,0c0.207,0 0.375,-0.168 0.375,-0.375l0,-3.25Z" style="fill:none;stroke:#ec1f27;stroke-width:0.8px;"/><path d="M24.75,7.375c0,-0.207 -0.168,-0.375 -0.375,-0.375l-0.75,0c-0.207,0 -0.375,0.168 -0.375,0.375l0,3.25c0,0.207 0.168,0.375 0.375,0.375l0.75,0c0.207,0 0.375,-0.168 0.375,-0.375l0,-3.25Z" style="fill:none;stroke:#ec1f27;stroke-width:0.8px;"/></svg>