<?xml version="1.0" encoding="UTF-8" standalone="no"?><!DOCTYPE svg PUBLIC "-//W3C//DTD SVG 1.1//EN" "http://www.w3.org/Graphics/SVG/1.1/DTD/svg11.dtd"><svg width="100%" height="100%" viewBox="0 0 36 36" version="1.1" xmlns="http://www.w3.org/2000/svg" xmlns:xlink="http://www.w3.org/1999/xlink" xml:space="preserve" xmlns:serif="http://www.serif.com/" style="fill-rule:evenodd;clip-rule:evenodd;stroke-linecap:round;stroke-linejoin:round;stroke-miterlimit:1.5;"><rect id="clock" x="0" y="0" width="36" height="36" style="fill:none;"/><g id="bg-white"><circle cx="18" cy="18" r="18" style="fill:#fff;"/></g><circle cx="18" cy="18" r="10.5" style="fill:none;stroke:#ec1f27;stroke-width:0.8px;"/><path d="M18,11.5l0,6.5l3,-2.5" style="fill:none;stroke:#ec1f27;stroke-width:0.8px;"/><circle cx="18" cy="18" r="9" style="fill:none;stroke:#ec1f27;stroke-width:0.8px;"/><path d="M9,18l1,0" style="fill:none;stroke:#ec1f27;stroke-width:0.8px;"/><path d="M10.206,13.5l0.866,0.5" style="fill:none;stroke:#ec1f27;stroke-width:0.8px;"/><path d="M13.5,10.206l0.5,0.866" style="fill:none;stroke:#ec1f27;stroke-width:0.8px;"/><path d="M26,18l1,0" style="fill:none;stroke:#ec1f27;stroke-width:0.8px;"/><path d="M24.928,22l0.866,0.5" style="fill:none;stroke:#ec1f27;stroke-width:0.8px;"/><path d="M22,24.928l0.5,0.866" style="fill:none;stroke:#ec1f27;stroke-width:0.8px;"/><path d="M18,27l0,-1" style="fill:none;stroke:#ec1f27;stroke-width:0.8px;"/><path d="M13.5,25.794l0.5,-0.866" style="fill:none;stroke:#ec1f27;stroke-width:0.8px;"/><path d="M10.206,22.5l0.866,-0.5" style="fill:none;stroke:#ec1f27;stroke-width:0.8px;"/><path d="M18,9l0,1" style="fill:none;stroke:#ec1f27;stroke-width:0.8px;"/><path d="M22.5,10.206l-0.5,0.866" style="fill:none;stroke:#ec1f27;stroke-width:0.8px;"/><path d="M25.794,13.5l-0.866,0.5" style="fill:none;stroke:#ec1f27;stroke-width:0.8px;"/></svg>