<?xml version="1.0" encoding="UTF-8" standalone="no"?><!DOCTYPE svg PUBLIC "-//W3C//DTD SVG 1.1//EN" "http://www.w3.org/Graphics/SVG/1.1/DTD/svg11.dtd"><svg width="100%" height="100%" viewBox="0 0 36 36" version="1.1" xmlns="http://www.w3.org/2000/svg" xmlns:xlink="http://www.w3.org/1999/xlink" xml:space="preserve" xmlns:serif="http://www.serif.com/" style="fill-rule:evenodd;clip-rule:evenodd;stroke-linecap:round;stroke-linejoin:round;stroke-miterlimit:1.5;"><rect id="computer" x="0" y="0" width="36" height="36" style="fill:none;"/><g id="bg-white"><circle cx="18" cy="18" r="18" style="fill:#fff;"/></g><path d="M27.5,11c0,-0.828 -0.672,-1.5 -1.5,-1.5l-16,0c-0.828,0 -1.5,0.672 -1.5,1.5l0,11.5l19,0l0,-11.5Z" style="fill:none;stroke:#ec1f27;stroke-width:0.8px;"/><path d="M25.5,12.1c0,-0.331 -0.269,-0.6 -0.6,-0.6l-13.8,0c-0.331,0 -0.6,0.269 -0.6,0.6l0,8.3c0,0.331 0.269,0.6 0.6,0.6l13.8,0c0.331,0 0.6,-0.269 0.6,-0.6l0,-8.3Z" style="fill:none;stroke:#ec1f27;stroke-width:0.8px;"/><path d="M7,22.5l21.5,0c-0.048,1.425 -0.818,2.45 -2,2.5l-17.5,0c-1.336,-0.049 -1.992,-1.063 -2,-2.5" style="fill:none;stroke:#ec1f27;stroke-width:0.8px;"/><path d="M21.5,22.5l-7,0l0,0.625c0,0.345 0.28,0.625 0.625,0.625l5.75,0c0.345,0 0.625,-0.28 0.625,-0.625l0,-0.625Z" style="fill:none;stroke:#ec1f27;stroke-width:0.8px;"/><path d="M21.5,13.5c1.383,-0.111 2.076,0.526 2,2" style="fill:none;stroke:#ec1f27;stroke-width:0.8px;"/></svg>