<?xml version="1.0" encoding="UTF-8" standalone="no"?><!DOCTYPE svg PUBLIC "-//W3C//DTD SVG 1.1//EN" "http://www.w3.org/Graphics/SVG/1.1/DTD/svg11.dtd"><svg width="100%" height="100%" viewBox="0 0 36 36" version="1.1" xmlns="http://www.w3.org/2000/svg" xmlns:xlink="http://www.w3.org/1999/xlink" xml:space="preserve" xmlns:serif="http://www.serif.com/" style="fill-rule:evenodd;clip-rule:evenodd;stroke-linecap:round;stroke-linejoin:round;stroke-miterlimit:1.5;"><rect id="cops" x="0" y="0" width="36" height="36" style="fill:none;"/><g><circle cx="18" cy="18" r="18" style="fill:#fff;"/></g><path d="M8.078,29.884c0,0 0.001,-4.568 0,-6.269c-0.001,-1.981 0.846,-3.572 2.922,-3.615c1.719,-0.035 4.717,-0.019 6.971,0.009c2.359,0.031 5.337,-0.041 7.029,-0.009c2.228,0.042 2.879,1.469 2.912,3.551c0.023,1.471 0,6.333 0,6.333l-19.834,0Z" style="fill:none;stroke:#ec1f27;stroke-width:0.75px;"/><ellipse cx="17.983" cy="17.98" rx="2.5" ry="2" style="fill:none;stroke:#ec1f27;stroke-width:0.75px;"/><ellipse cx="17.983" cy="17.98" rx="2.5" ry="2" style="fill:none;stroke:#ec1f27;stroke-width:0.75px;"/><circle cx="17" cy="18" r="0.5" style="fill:#ec1f27;"/><circle cx="19" cy="18" r="0.5" style="fill:#ec1f27;"/><path d="M23.947,26.859c0,0 -1.315,-0.518 -1.355,-1.261c-0.019,-0.376 -0.049,-1.801 -0.049,-1.801c0,0 1.08,-0.527 1.383,-0.528c0.303,-0.001 1.445,0.585 1.445,0.585c0,0 0.016,1.179 0.013,1.603c-0.005,0.937 -1.437,1.402 -1.437,1.402Z" style="fill:none;stroke:#ec1f27;stroke-width:0.75px;"/><path d="M14,20l1,3l2.919,-3c0,0 3.069,3 3.081,3c-0.012,0 1,-3 1,-3" style="fill:none;stroke:#ec1f27;stroke-width:0.75px;"/><path d="M17,21l1,2l-1.871,6.884l3.744,0l-1.873,-6.884l1,-2l-1,-1l-1,1Z" style="fill:none;stroke:#ec1f27;stroke-width:0.75px;"/><path d="M13.305,13.278c1.157,0.325 2.932,0.722 4.695,0.722c1.778,0 3.567,-0.355 4.724,-0.642c0.179,0.514 0.276,1.067 0.276,1.642c0,2.76 -2.24,5 -5,5c-2.76,0 -5,-2.24 -5,-5c0,-0.605 0.108,-1.185 0.305,-1.722Z" style="fill:none;stroke:#ec1f27;stroke-width:0.75px;"/><path d="M12,11l0,1.862c0,0 3.017,1.138 6,1.138c2.983,0 6,-1 6,-1l0,-2l1,-2l-7,-2.984l-7,2.984l1,2Z" style="fill:none;stroke:#ec1f27;stroke-width:0.75px;"/><path d="M12,11c0,0 4.003,1.139 6,1.139c1.997,0 6,-1.139 6,-1.139" style="fill:none;stroke:#ec1f27;stroke-width:0.75px;"/><path d="M18,8l-0.914,0l0,2l0.914,1l1,-1l0,-2l-1,0Z" style="fill:none;stroke:#ec1f27;stroke-width:0.75px;"/></svg>