<?xml version="1.0" encoding="UTF-8" standalone="no"?><!DOCTYPE svg PUBLIC "-//W3C//DTD SVG 1.1//EN" "http://www.w3.org/Graphics/SVG/1.1/DTD/svg11.dtd"><svg width="100%" height="100%" viewBox="0 0 36 36" version="1.1" xmlns="http://www.w3.org/2000/svg" xmlns:xlink="http://www.w3.org/1999/xlink" xml:space="preserve" xmlns:serif="http://www.serif.com/" style="fill-rule:evenodd;clip-rule:evenodd;stroke-linecap:round;stroke-linejoin:round;stroke-miterlimit:1.5;"><rect id="eye" x="0" y="0" width="36" height="36" style="fill:none;"/><g id="bg-white"><circle cx="18" cy="18" r="18" style="fill:#fff;"/></g><circle cx="18" cy="19.5" r="6" style="fill:none;stroke:#ec1f27;stroke-width:0.8px;"/><path d="M6,19.5c0,0 7.485,-6 12,-6c4.916,0 12,6 12,6c0,0 -6.569,6 -12,6c-5.431,0 -12,-6 -12,-6Z" style="fill:none;stroke:#ec1f27;stroke-width:0.8px;"/><path d="M17.75,17c0,0 0.079,0 0.25,0c1.38,0 2.5,1.12 2.5,2.5c0,1.38 -1.12,2.5 -2.5,2.5c-1.38,0 -2.5,-1.12 -2.5,-2.5c0,-0.171 0,-0.25 0,-0.25c2.036,0.286 2.51,-0.778 2.25,-2.25Z" style="fill:none;stroke:#ec1f27;stroke-width:0.8px;"/><path d="M28,18.25c-0.774,0.629 -0.618,1.763 0,2.5" style="fill:none;stroke:#ec1f27;stroke-width:0.8px;"/><path d="M18,13.5l0,-4" style="fill:none;stroke:#ec1f27;stroke-width:0.8px;"/><path d="M14.105,14.667l-2.21,-3.334" style="fill:none;stroke:#ec1f27;stroke-width:0.8px;"/><path d="M21.5,14.667l2.21,-3.334" style="fill:none;stroke:#ec1f27;stroke-width:0.8px;"/><path d="M10.185,16.557l-3.685,-1.557" style="fill:none;stroke:#ec1f27;stroke-width:0.8px;"/><path d="M25.921,16.557l3.684,-1.557" style="fill:none;stroke:#ec1f27;stroke-width:0.8px;"/></svg>