<?xml version="1.0" encoding="UTF-8" standalone="no"?><!DOCTYPE svg PUBLIC "-//W3C//DTD SVG 1.1//EN" "http://www.w3.org/Graphics/SVG/1.1/DTD/svg11.dtd"><svg width="100%" height="100%" viewBox="0 0 36 36" version="1.1" xmlns="http://www.w3.org/2000/svg" xmlns:xlink="http://www.w3.org/1999/xlink" xml:space="preserve" xmlns:serif="http://www.serif.com/" style="fill-rule:evenodd;clip-rule:evenodd;stroke-linecap:round;stroke-linejoin:round;stroke-miterlimit:1.5;"><rect id="ferry" x="0" y="0" width="36" height="36" style="fill:none;"/><g id="bg-white"><circle cx="18" cy="18" r="18" style="fill:#fff;"/></g><path d="M8.667,23.1l1.166,-8l16.334,0l1.166,8" style="fill:none;stroke:#ec1f27;stroke-width:0.8px;"/><path d="M8.667,15.1l1.166,0" style="fill:none;stroke:#ec1f27;stroke-width:0.8px;"/><path d="M26.167,15.1l1.166,0" style="fill:none;stroke:#ec1f27;stroke-width:0.8px;"/><path d="M6,26.321c0.886,1.048 1.875,1.115 3,0c1.055,1.035 2.064,1.044 3,0c1.029,1.027 2.022,1.115 3,0c0.948,1.093 1.942,1.099 3,0c0.923,0.981 1.914,1.094 3,0c1.082,1.104 2.078,1.029 3,0c1.026,1.029 2.022,1.104 3,0c1.117,1.031 2.112,0.988 3,0" style="fill:none;stroke:#ec1f27;stroke-width:0.8px;"/><path d="M6,24.1c0.886,1.047 1.875,1.114 3,0c1.055,1.034 2.064,1.044 3,0c1.029,1.026 2.022,1.115 3,0c0.948,1.092 1.942,1.098 3,0c0.923,0.98 1.914,1.093 3,0c1.082,1.104 2.078,1.028 3,0c1.026,1.028 2.022,1.104 3,0c1.117,1.03 2.112,0.987 3,0l-1.418,0.757c-0.021,-0.865 -0.014,-1.738 -0.957,-1.757l-19.25,0c-0.845,0.068 -0.932,0.616 -0.908,1.81" style="fill:#ec1f27;stroke:#ec1f27;stroke-width:0.8px;"/><path d="M23.833,17.699c-0.174,-0.49 -0.385,-0.629 -1.166,-0.599l-9.334,0c-0.885,0 -1.027,0.199 -1.166,0.599l-1.167,5.401l14,0l-1.167,-5.401Z" style="fill:none;stroke:#ec1f27;stroke-width:0.8px;"/><path d="M16.833,21.6c0,-0.276 -0.224,-0.5 -0.5,-0.5l-2.5,0c-0.276,0 -0.5,0.224 -0.5,0.5l0,1c0,0.276 0.224,0.5 0.5,0.5l2.5,0c0.276,0 0.5,-0.224 0.5,-0.5l0,-1Z" style="fill:none;stroke:#ec1f27;stroke-width:0.8px;"/><path d="M22.667,21.6c0,-0.276 -0.224,-0.5 -0.5,-0.5l-2.5,0c-0.276,0 -0.5,0.224 -0.5,0.5l0,1c0,0.276 0.224,0.5 0.5,0.5l2.5,0c0.276,0 0.5,-0.224 0.5,-0.5l0,-1Z" style="fill:none;stroke:#ec1f27;stroke-width:0.8px;"/><path d="M12.167,15.1l1.166,-2l9.334,0l1.166,2l-11.666,0" style="fill:#ec1f27;stroke:#ec1f27;stroke-width:0.8px;"/><path d="M19.167,10.85c0,-0.414 -0.294,-0.75 -0.655,-0.75l-2.19,0c-0.362,0 -0.655,0.336 -0.655,0.75l0,2.5l3.5,0l0,-2.5Z" style="fill:none;stroke:#ec1f27;stroke-width:0.8px;"/><path d="M15.667,11.6l3.5,0" style="fill:none;stroke:#ec1f27;stroke-width:0.8px;"/><path d="M21.5,13.1l0,-2" style="fill:none;stroke:#ec1f27;stroke-width:0.8px;"/><path d="M6.5,11.984c1.268,-1.205 2.189,-0.851 3,0c0.86,-1.114 1.844,-1.243 3,0" style="fill:none;stroke:#ec1f27;stroke-width:0.8px;"/><path d="M8.5,9.384c1.268,-1.205 2.189,-0.851 3,0c0.86,-1.113 1.844,-1.242 3,0" style="fill:none;stroke:#ec1f27;stroke-width:0.8px;"/></svg>