<?xml version="1.0" encoding="UTF-8" standalone="no"?><!DOCTYPE svg PUBLIC "-//W3C//DTD SVG 1.1//EN" "http://www.w3.org/Graphics/SVG/1.1/DTD/svg11.dtd"><svg width="100%" height="100%" viewBox="0 0 36 36" version="1.1" xmlns="http://www.w3.org/2000/svg" xmlns:xlink="http://www.w3.org/1999/xlink" xml:space="preserve" xmlns:serif="http://www.serif.com/" style="fill-rule:evenodd;clip-rule:evenodd;stroke-linecap:round;stroke-linejoin:round;stroke-miterlimit:1.5;"><rect id="flag" x="0" y="0" width="36" height="36" style="fill:none;"/><g id="bg-white"><circle cx="18" cy="18" r="18" style="fill:#fff;"/></g><path d="M9.966,10.448c-0.143,-0.533 -0.692,-0.85 -1.225,-0.707c-0.533,0.143 -0.85,0.692 -0.707,1.225l4.902,18.293c0.143,0.533 0.691,0.85 1.225,0.707c0.533,-0.143 0.849,-0.692 0.707,-1.225l-4.902,-18.293Z" style="fill:none;stroke:#ec1f27;stroke-width:0.7px;"/><path d="M8.706,9.707c2.095,-1.764 3.897,-2.331 6.294,-1.707c2.372,0.941 3.415,1.345 5,1c2.355,-0.513 4.129,-2.419 6,-1l2,8c-1.917,-1.041 -4.01,0.119 -6,1c-2.035,0.901 -3.022,0.105 -5,-1c-2.95,-1.331 -3.572,-0.227 -5,1" style="fill:none;stroke:#ec1f27;stroke-width:0.7px;"/></svg>