<?xml version="1.0" encoding="UTF-8" standalone="no"?><!DOCTYPE svg PUBLIC "-//W3C//DTD SVG 1.1//EN" "http://www.w3.org/Graphics/SVG/1.1/DTD/svg11.dtd"><svg width="100%" height="100%" viewBox="0 0 36 36" version="1.1" xmlns="http://www.w3.org/2000/svg" xmlns:xlink="http://www.w3.org/1999/xlink" xml:space="preserve" xmlns:serif="http://www.serif.com/" style="fill-rule:evenodd;clip-rule:evenodd;stroke-linecap:round;stroke-linejoin:round;stroke-miterlimit:1.5;"><rect id="gas-mask" x="0" y="0" width="36" height="36" style="fill:none;"/><g id="bg-white"><circle cx="18" cy="18" r="18" style="fill:#fff;"/></g><path d="M18.5,15c-1.333,0 -2.788,0.856 -4,2c-1.5,1.417 -5.043,3.098 -5,6.5c0.056,4.418 6.083,5 9,5c2.917,0 8.456,-1.446 8.5,-5c0.04,-3.169 -3.083,-5.083 -4.5,-6.5c-1.179,-1.179 -2.667,-2 -4,-2Z" style="fill:none;stroke:#ec1f27;stroke-width:0.8px;"/><path d="M15.5,19c0,0 0.69,-0.293 1,-0.5c0.5,-0.333 0.774,-1.519 2,-1.5c1.377,0.022 1.5,1.167 2,1.5c0.31,0.207 1,0.5 1,0.5" style="fill:none;stroke:#ec1f27;stroke-width:0.8px;"/><path d="M26.458,19l-2.166,1.25l0.75,1.299l2.166,-1.25l-0.75,-1.299Z" style="fill:none;stroke:#ec1f27;stroke-width:0.8px;"/><path d="M27.708,25.75l-2.166,-1.25l-0.75,1.299l2.166,1.25l0.75,-1.299Z" style="fill:none;stroke:#ec1f27;stroke-width:0.8px;"/><path d="M12.194,20.25l-2.165,-1.25l-0.75,1.299l2.165,1.25l0.75,-1.299Z" style="fill:none;stroke:#ec1f27;stroke-width:0.8px;"/><path d="M10.931,24.5l-2.165,1.25l0.75,1.299l2.165,-1.25l-0.75,-1.299Z" style="fill:none;stroke:#ec1f27;stroke-width:0.8px;"/><path d="M20.5,22.549c0,-0.552 -0.448,-1 -1,-1l-2,0c-0.552,0 -1,0.448 -1,1l0,2.451c0,0.552 0.448,1 1,1l2,0c0.552,0 1,-0.448 1,-1l0,-2.451Z" style="fill:none;stroke:#ec1f27;stroke-width:0.8px;"/><path d="M11.5,19c0,0 -1.59,-1.334 -1.5,-3.5c0.09,-2.166 3.098,-2.157 3.181,-5c0.084,-2.843 3.6,-3 5.319,-3c1.719,0 4.915,0.242 4.996,3c0.084,2.843 3.091,2.834 3.182,5c0.09,2.166 -1.5,3.5 -1.5,3.5" style="fill:none;stroke:#ec1f27;stroke-width:0.8px;"/></svg>