<?xml version="1.0" encoding="UTF-8" standalone="no"?><!DOCTYPE svg PUBLIC "-//W3C//DTD SVG 1.1//EN" "http://www.w3.org/Graphics/SVG/1.1/DTD/svg11.dtd"><svg width="100%" height="100%" viewBox="0 0 36 36" version="1.1" xmlns="http://www.w3.org/2000/svg" xmlns:xlink="http://www.w3.org/1999/xlink" xml:space="preserve" xmlns:serif="http://www.serif.com/" style="fill-rule:evenodd;clip-rule:evenodd;stroke-linecap:round;stroke-linejoin:round;stroke-miterlimit:1.5;"><rect id="handcuffs" x="0" y="0" width="36" height="36" style="fill:none;"/><g><circle cx="18" cy="18" r="18" style="fill:#fff;"/></g><path d="M8.262,16.9c-1.372,-1.001 -2.262,-2.604 -2.262,-4.41c0,-3.03 2.507,-5.49 5.594,-5.49c3.088,0 5.594,2.46 5.594,5.49c0,1.806 -0.89,3.409 -2.262,4.41c0.016,0.083 0.025,1.982 0.025,1.982c0,0.758 -0.627,1.373 -1.399,1.373l-3.916,0c-0.772,0 -1.398,-0.615 -1.398,-1.373c0,0 0.008,-1.899 0.024,-1.982Z" style="fill:none;stroke:#ec1f27;stroke-width:0.75px;"/><path d="M18.999,21.461c-0.264,-1.68 0.237,-3.445 1.511,-4.721c2.137,-2.143 5.645,-2.106 7.828,0.083c2.183,2.188 2.22,5.705 0.083,7.847c-1.274,1.277 -3.034,1.78 -4.71,1.515c-0.047,0.07 -1.381,1.419 -1.381,1.419c-0.535,0.536 -1.411,0.527 -1.957,-0.021l-2.769,-2.775c-0.546,-0.547 -0.555,-1.426 -0.021,-1.962c0,0 1.346,-1.337 1.416,-1.385Z" style="fill:none;stroke:#ec1f27;stroke-width:0.75px;"/><ellipse cx="11.594" cy="12.49" rx="3.356" ry="3.294" style="fill:none;stroke:#ec1f27;stroke-width:0.75px;"/><path d="M26.789,18.376c1.31,1.313 1.332,3.423 0.05,4.708c-1.283,1.286 -3.387,1.264 -4.697,-0.05c-1.31,-1.313 -1.333,-3.423 -0.05,-4.708c1.282,-1.286 3.387,-1.263 4.697,0.05Z" style="fill:none;stroke:#ec1f27;stroke-width:0.75px;"/><ellipse cx="11.594" cy="17.706" rx="0.509" ry="0.51" style="fill:none;stroke:#ec1f27;stroke-width:0.75px;"/><path d="M21.146,24.033c0.198,0.199 0.198,0.522 0,0.721c-0.199,0.199 -0.521,0.199 -0.719,0c-0.199,-0.199 -0.199,-0.522 0,-0.721c0.198,-0.199 0.52,-0.199 0.719,0Z" style="fill:none;stroke:#ec1f27;stroke-width:0.75px;"/><ellipse cx="11.5" cy="22.127" rx="1.5" ry="1.873" style="fill:none;stroke:#ec1f27;stroke-width:0.75px;"/><path d="M19.02,26.372c0.586,0.586 0.468,1.654 -0.263,2.385c-0.731,0.731 -1.799,0.849 -2.385,0.263c-0.585,-0.585 -0.467,-1.654 0.264,-2.384c0.73,-0.731 1.799,-0.849 2.384,-0.264Z" style="fill:none;stroke:#ec1f27;stroke-width:0.75px;"/><path d="M16,28.5c0,0.828 -0.839,1.5 -1.873,1.5c-1.033,0 -1.872,-0.672 -1.872,-1.5c0,-0.828 0.839,-1.5 1.872,-1.5c1.034,0 1.873,0.672 1.873,1.5Z" style="fill:none;stroke:#ec1f27;stroke-width:0.75px;"/><ellipse cx="11.5" cy="26.127" rx="1.5" ry="1.873" style="fill:none;stroke:#ec1f27;stroke-width:0.75px;"/></svg>