<?xml version="1.0" encoding="UTF-8" standalone="no"?><!DOCTYPE svg PUBLIC "-//W3C//DTD SVG 1.1//EN" "http://www.w3.org/Graphics/SVG/1.1/DTD/svg11.dtd"><svg width="100%" height="100%" viewBox="0 0 36 36" version="1.1" xmlns="http://www.w3.org/2000/svg" xmlns:xlink="http://www.w3.org/1999/xlink" xml:space="preserve" xmlns:serif="http://www.serif.com/" style="fill-rule:evenodd;clip-rule:evenodd;stroke-linecap:round;stroke-linejoin:round;stroke-miterlimit:1.5;"><rect id="hand-middle-finger" x="0" y="0" width="36" height="36" style="fill:none;"/><g><circle cx="18" cy="18" r="18" style="fill:#fff;"/></g><path d="M27.983,16.664c0,-1.103 -0.895,-1.999 -1.998,-1.999c-1.103,0 -1.998,0.896 -1.998,1.999l0,2.168c0,1.103 0.895,1.998 1.998,1.998c1.103,0 1.998,-0.895 1.998,-1.998l0,-2.168Z" style="fill:none;stroke:#ec1f27;stroke-width:0.75px;"/><path d="M23.998,14.998c0,-1.103 -0.895,-1.998 -1.998,-1.998c-1.103,0 -1.998,0.895 -1.998,1.998l-0.012,3.834c0,1.103 0.895,1.998 1.998,1.998c1.103,0 1.999,-0.895 1.999,-1.998l0.011,-3.834Z" style="fill:none;stroke:#ec1f27;stroke-width:0.75px;"/><path d="M16.008,14.998c0,-1.103 -0.895,-1.998 -1.998,-1.998c-1.103,0 -1.998,0.895 -1.998,1.998l-0.012,3.834c0,1.103 0.895,1.998 1.998,1.998c1.103,0 1.999,-0.895 1.999,-1.998l0.011,-3.834Z" style="fill:none;stroke:#ec1f27;stroke-width:0.75px;"/><path d="M15.993,17.979l0,-9.981c0,-1.103 0.896,-1.998 1.999,-1.998c1.103,0 1.998,0.895 1.998,1.998l0,10.002" style="fill:none;stroke:#ec1f27;stroke-width:0.75px;"/><path d="M27.983,18c0,0 0.038,5.744 0,7.994c-0.037,2.249 -1.693,3.967 -3.996,3.996c-2.916,0.038 -9.116,-0.048 -11.99,0c-2.372,0.04 -4.003,-1.532 -3.997,-3.996c0.004,-1.75 -0.038,-5.462 0,-6.994c0.031,-1.241 1.006,-2.02 2,-2c0.995,0.02 1.999,0.958 2,1.979c0.001,1.054 -0.003,4.021 -0.003,4.021" style="fill:none;stroke:#ec1f27;stroke-width:0.75px;"/></svg>