<?xml version="1.0" encoding="UTF-8" standalone="no"?><!DOCTYPE svg PUBLIC "-//W3C//DTD SVG 1.1//EN" "http://www.w3.org/Graphics/SVG/1.1/DTD/svg11.dtd"><svg width="100%" height="100%" viewBox="0 0 36 36" version="1.1" xmlns="http://www.w3.org/2000/svg" xmlns:xlink="http://www.w3.org/1999/xlink" xml:space="preserve" xmlns:serif="http://www.serif.com/" style="fill-rule:evenodd;clip-rule:evenodd;stroke-linecap:round;stroke-linejoin:round;stroke-miterlimit:1.5;"><rect id="helmet" x="0" y="0" width="36" height="36" style="fill:none;"/><g><circle cx="18" cy="18" r="18" style="fill:#fff;"/></g><path d="M9.306,15.7l0.996,-1.528c0,0 0.087,-2.66 0.855,-4.151c0.863,-1.675 2.626,-4.02 6.962,-4.021c4.902,-0.001 6.511,3.106 7.139,4.137c0.617,1.014 0.888,3.987 0.888,3.987l1.075,1.544c0,0 -5.051,1.736 -8.989,1.738c-3.39,0.001 -8.926,-1.706 -8.926,-1.706Z" style="fill:none;stroke:#ec1f27;stroke-width:0.75px;"/><path d="M26.134,14.076c0,0 -1.891,0.863 -3.649,1.259c-1.895,0.428 -4.196,0.452 -4.196,0.452" style="fill:none;stroke:#ec1f27;stroke-width:0.75px;"/><path d="M16.515,10.181l1.775,-1.189l1.647,1.228" style="fill:none;stroke:#ec1f27;stroke-width:0.75px;"/><path d="M16.515,12.172l1.775,-1.188l1.647,1.228" style="fill:none;stroke:#ec1f27;stroke-width:0.75px;"/><path d="M10.147,16.102c0,0 0.015,1.435 -0.215,2.067c-0.229,0.631 -1.083,0.832 -1.162,1.722c-0.106,1.186 1.248,1.549 1.248,1.549" style="fill:none;stroke:#ec1f27;stroke-width:0.75px;"/><path d="M25.983,16.059c0,0 0.287,1.392 0.516,2.024c0.23,0.631 0.652,1.176 0.732,2.066c0.106,1.186 -1.507,1.463 -1.507,1.463" style="fill:none;stroke:#ec1f27;stroke-width:0.75px;"/><path d="M15.063,20.95c0,0 1.392,-0.964 3.05,-0.95c1.808,0.016 3.15,1 3.15,1l0,7.95c0,0 -1.583,1.078 -3.15,1.049c-1.517,-0.027 -3.05,-1.049 -3.05,-1.049l0,-8Z" style="fill:none;stroke:#ec1f27;stroke-width:0.75px;"/><path d="M18.163,22.51l0,6.056" style="fill:none;stroke:#ec1f27;stroke-width:0.75px;"/><path d="M16.663,23.097l0,4.94" style="fill:none;stroke:#ec1f27;stroke-width:0.75px;"/><path d="M19.813,23.097l0,4.94" style="fill:none;stroke:#ec1f27;stroke-width:0.75px;"/><circle cx="21.763" cy="19.5" r="0.5" style="fill:#ec1f27;"/><circle cx="23.027" cy="18.35" r="0.5" style="fill:#ec1f27;"/><path d="M13.889,18.247c0,0.276 -0.224,0.5 -0.5,0.5c-0.276,0 -0.5,-0.224 -0.5,-0.5c0,-0.276 0.224,-0.5 0.5,-0.5c0.276,0 0.5,0.224 0.5,0.5Z" style="fill:#ec1f27;"/><path d="M14.889,19.588c0,0.276 -0.224,0.5 -0.5,0.5c-0.276,0 -0.5,-0.224 -0.5,-0.5c0,-0.276 0.224,-0.5 0.5,-0.5c0.276,0 0.5,0.224 0.5,0.5Z" style="fill:#ec1f27;"/><path d="M18.615,21.243c0,0.276 -0.224,0.5 -0.5,0.5c-0.276,0 -0.5,-0.224 -0.5,-0.5c0,-0.276 0.224,-0.5 0.5,-0.5c0.276,0 0.5,0.224 0.5,0.5Z" style="fill:#ec1f27;"/></svg>