<?xml version="1.0" encoding="UTF-8" standalone="no"?><!DOCTYPE svg PUBLIC "-//W3C//DTD SVG 1.1//EN" "http://www.w3.org/Graphics/SVG/1.1/DTD/svg11.dtd"><svg width="100%" height="100%" viewBox="0 0 36 36" version="1.1" xmlns="http://www.w3.org/2000/svg" xmlns:xlink="http://www.w3.org/1999/xlink" xml:space="preserve" xmlns:serif="http://www.serif.com/" style="fill-rule:evenodd;clip-rule:evenodd;stroke-linecap:round;stroke-linejoin:round;stroke-miterlimit:3;"><rect id="hospital-bed" x="0" y="0" width="36" height="36" style="fill:none;"/><g><circle cx="18" cy="18" r="18" style="fill:#fff;"/></g><g id="Hospital-Bed" serif:id="Hospital Bed"><path d="M12,19l18,0l0,2l-18,0l-6,-6l1,-1l5,5Z" style="fill:none;stroke:#ec1f27;stroke-width:0.75px;"/><path d="M14,20.766l0,-1.766l2,0l0,1.766l-2,0Z" style="fill:none;stroke:#ec1f27;stroke-width:0.75px;"/><path d="M12,21l0,6l2,0l0,-4l14,0l0,4l2,0l0,-6l-18,0Z" style="fill:none;stroke:#ec1f27;stroke-width:0.75px;"/><path d="M17,10l0,-1l4,0l0,1" style="fill:none;stroke:#ec1f27;stroke-width:0.75px;"/><path d="M19,8l0,11" style="fill:none;stroke:#ec1f27;stroke-width:0.75px;"/><path d="M19,23l0,3" style="fill:none;stroke:#ec1f27;stroke-width:0.75px;"/><path d="M17,26l4,0" style="fill:none;stroke:#ec1f27;stroke-width:0.75px;"/><path d="M17,26.5c0,0.276 0.224,0.5 0.5,0.5c0.276,0 0.5,-0.224 0.5,-0.5c0,-0.276 -0.224,-0.5 -0.5,-0.5c-0.276,0 -0.5,0.224 -0.5,0.5Z" style="fill:none;stroke:#ec1f27;stroke-width:0.75px;"/><path d="M20,26.538c0,0.297 0.241,0.539 0.538,0.539c0.297,0 0.539,-0.242 0.539,-0.539c0,-0.297 -0.242,-0.538 -0.539,-0.538c-0.297,0 -0.538,0.241 -0.538,0.538Z" style="fill:none;stroke:#ec1f27;stroke-width:0.75px;"/></g><path d="M12.75,18.25c0.414,-0.414 0.414,-1.086 0,-1.5l-3,-3c-0.414,-0.414 -1.086,-0.414 -1.5,0c-0.414,0.414 -0.414,1.086 0,1.5l3.001,3c0.414,0.414 1.086,0.414 1.499,0Z" style="fill:none;stroke:#ec1f27;stroke-width:0.75px;stroke-miterlimit:1.5;"/></svg>