<?xml version="1.0" encoding="UTF-8" standalone="no"?><!DOCTYPE svg PUBLIC "-//W3C//DTD SVG 1.1//EN" "http://www.w3.org/Graphics/SVG/1.1/DTD/svg11.dtd"><svg width="100%" height="100%" viewBox="0 0 36 36" version="1.1" xmlns="http://www.w3.org/2000/svg" xmlns:xlink="http://www.w3.org/1999/xlink" xml:space="preserve" xmlns:serif="http://www.serif.com/" style="fill-rule:evenodd;clip-rule:evenodd;stroke-linecap:round;stroke-linejoin:round;stroke-miterlimit:1.5;"><rect id="housing-tower" x="0" y="0" width="36" height="36" style="fill:none;"/><g id="bg-white"><circle cx="18" cy="18" r="18" style="fill:#fff;"/></g><rect x="9" y="21" width="4" height="9" style="fill:none;stroke:#ec1f27;stroke-width:0.8px;"/><rect x="13" y="17" width="8" height="13" style="fill:none;stroke:#ec1f27;stroke-width:0.8px;"/><path d="M11,21l0,-13l9,0l0,4" style="fill:none;stroke:#ec1f27;stroke-width:0.8px;"/><path d="M12,8l0,-2l7,0l0,2" style="fill:none;stroke:#ec1f27;stroke-width:0.8px;"/><path d="M15,15l2,-1l2,1l0,2l-4,0l0,-2" style="fill:none;stroke:#ec1f27;stroke-width:0.8px;"/><path d="M19,15l-1,-0.5l0,-2.5l9,2l0,16l-6,0l0,-13l-2,0l0,-2Z" style="fill:none;stroke:#ec1f27;stroke-width:0.8px;"/><path d="M24,15l0,13" style="fill:none;stroke:#ec1f27;stroke-width:0.8px;"/><path d="M19,20l-4,0" style="fill:none;stroke:#ec1f27;stroke-width:0.8px;"/><path d="M14,10l-1,0" style="fill:none;stroke:#ec1f27;stroke-width:0.8px;"/><path d="M13,23l-2,0" style="fill:none;stroke:#ec1f27;stroke-width:0.8px;"/><path d="M17,10l1,0" style="fill:none;stroke:#ec1f27;stroke-width:0.8px;"/><path d="M19,23l-4,0" style="fill:none;stroke:#ec1f27;stroke-width:0.8px;"/><path d="M14,14l-1,0" style="fill:none;stroke:#ec1f27;stroke-width:0.8px;"/><path d="M13,27l-2,0" style="fill:none;stroke:#ec1f27;stroke-width:0.8px;"/><path d="M17,14l1,0" style="fill:none;stroke:#ec1f27;stroke-width:0.8px;"/><path d="M19,26l-4,0" style="fill:none;stroke:#ec1f27;stroke-width:0.8px;"/><path d="M14,12l-1,0" style="fill:none;stroke:#ec1f27;stroke-width:0.8px;"/><path d="M13,25l-2,0" style="fill:none;stroke:#ec1f27;stroke-width:0.8px;"/><path d="M17,12l1,0" style="fill:none;stroke:#ec1f27;stroke-width:0.8px;"/><path d="M21,15l0,2" style="fill:none;stroke:#ec1f27;stroke-width:0.8px;"/></svg>