<?xml version="1.0" encoding="UTF-8" standalone="no"?><!DOCTYPE svg PUBLIC "-//W3C//DTD SVG 1.1//EN" "http://www.w3.org/Graphics/SVG/1.1/DTD/svg11.dtd"><svg width="100%" height="100%" viewBox="0 0 36 36" version="1.1" xmlns="http://www.w3.org/2000/svg" xmlns:xlink="http://www.w3.org/1999/xlink" xml:space="preserve" xmlns:serif="http://www.serif.com/" style="fill-rule:evenodd;clip-rule:evenodd;stroke-linecap:round;stroke-linejoin:round;stroke-miterlimit:1.5;"><rect id="jailbars" x="0" y="0" width="36" height="36" style="fill:none;"/><g><circle cx="18" cy="18" r="18" style="fill:#fff;"/></g><path d="M30,12c0,-3.311 -2.689,-6 -6,-6l-12,0c-3.311,0 -6,2.689 -6,6l0,12c0,3.311 2.689,6 6,6l12,0c3.311,0 6,-2.689 6,-6l0,-12Z" style="fill:none;stroke:#ec1f27;stroke-width:0.75px;"/><path d="M13,6l-1,0c0,0 -2.006,0.14 -2,0.5l0,4.5l3,0l0,-5Z" style="fill:none;stroke:#ec1f27;stroke-width:0.75px;"/><path d="M13,23l-3,0l0,6.5c0.358,0.378 1.086,0.5 1.5,0.5l1.5,0l0,-7Z" style="fill:none;stroke:#ec1f27;stroke-width:0.75px;"/><path d="M26,23l-3,0l0,7l1.5,0c0.414,0 0.928,-0.05 1.5,-0.5l0,-6.5Z" style="fill:none;stroke:#ec1f27;stroke-width:0.75px;"/><path d="M26,6.5c-0.21,-0.354 -1.336,-0.5 -1.75,-0.5l-1.25,0l0,5l3,0l0,-4.5Z" style="fill:none;stroke:#ec1f27;stroke-width:0.75px;"/><path d="M19.5,6.75c0,-0.414 -0.336,-0.75 -0.75,-0.75l-1.5,0c-0.414,0 -0.75,0.336 -0.75,0.75l0,22.5c0,0.414 0.336,0.75 0.75,0.75l1.5,0c0.414,0 0.75,-0.336 0.75,-0.75l0,-22.5Z" style="fill:none;stroke:#ec1f27;stroke-width:0.75px;"/><path d="M14,20c0.564,0 1.003,-0.92 1,-1.5c-0.003,-0.569 -0.529,-1.499 -1,-1.5c-0.845,-0.002 -3.825,0 -4,0c0.173,0 3.154,0 4,0c0.712,0 1,-0.983 1,-1.5c0,-0.568 -0.444,-1.5 -1,-1.5l-4,0c0.195,0 2.29,0.001 3,0c0.508,-0.001 0.999,-1.05 1,-1.5c0.001,-0.517 -0.511,-1.503 -1,-1.5c-0.988,0.005 -3.735,-0.013 -5,0c-0.745,0.008 -2,1 -2,1l0,12c0,0 1.255,-0.992 2,-1c1.265,-0.013 5,0 5,0c0.561,0 1.009,-0.905 1,-1.5c-0.009,-0.595 -0.529,-1.497 -1,-1.5c-0.698,-0.005 -1.404,0 -3,0l4,0Z" style="fill:none;stroke:#ec1f27;stroke-width:0.75px;"/><path d="M22,20c-0.564,0 -1.003,-0.92 -1,-1.5c0.003,-0.569 0.529,-1.499 1,-1.5c0.845,-0.002 3.825,0 4,0c-0.173,0 -3.154,0 -4,0c-0.712,0 -1,-0.983 -1,-1.5c0,-0.568 0.444,-1.5 1,-1.5l4,0c-0.195,0 -2.29,0.001 -3,0c-0.508,-0.001 -0.999,-1.05 -1,-1.5c-0.001,-0.517 0.511,-1.503 1,-1.5c0.988,0.005 3.735,-0.013 5,0c0.745,0.008 2,1 2,1l0,12c0,0 -1.255,-0.992 -2,-1c-1.265,-0.013 -5,0 -5,0c-0.561,0 -1.009,-0.905 -1,-1.5c0.009,-0.595 0.529,-1.497 1,-1.5c0.698,-0.005 1.404,0 3,0l-4,0Z" style="fill:none;stroke:#ec1f27;stroke-width:0.75px;"/></svg>