<?xml version="1.0" encoding="UTF-8" standalone="no"?><!DOCTYPE svg PUBLIC "-//W3C//DTD SVG 1.1//EN" "http://www.w3.org/Graphics/SVG/1.1/DTD/svg11.dtd"><svg width="100%" height="100%" viewBox="0 0 36 36" version="1.1" xmlns="http://www.w3.org/2000/svg" xmlns:xlink="http://www.w3.org/1999/xlink" xml:space="preserve" xmlns:serif="http://www.serif.com/" style="fill-rule:evenodd;clip-rule:evenodd;stroke-linecap:round;stroke-linejoin:round;stroke-miterlimit:1.5;"><rect id="light-rail" x="0" y="0" width="36" height="36" style="fill:none;"/><g id="bg-white"><circle cx="18" cy="18" r="18" style="fill:#fff;"/></g><path d="M25,10c0,-2.208 -1.792,-4 -4,-4l-6,0c-2.208,0 -4,1.792 -4,4l-1,12c0,2.208 1.792,4 4,4l8,0c2.208,0 4,-1.792 4,-4l-1,-12Z" style="fill:none;stroke:#ec1f27;stroke-width:0.8px;"/><path d="M23,13.75c0,-0.966 -0.784,-1.75 -1.75,-1.75l-6.5,0c-0.966,0 -1.75,0.784 -1.75,1.75l0,3.5c0,0.966 0.784,1.75 1.75,1.75l6.5,0c0.966,0 1.75,-0.784 1.75,-1.75l0,-3.5Z" style="fill:none;stroke:#ec1f27;stroke-width:0.8px;"/><path d="M21,8.5c0,-0.276 -0.224,-0.5 -0.5,-0.5l-5,0c-0.276,0 -0.5,0.224 -0.5,0.5l0,1c0,0.276 0.224,0.5 0.5,0.5l5,0c0.276,0 0.5,-0.224 0.5,-0.5l0,-1Z" style="fill:none;stroke:#ec1f27;stroke-width:0.8px;"/><path d="M13,26l-2,4l14,0l-2,-4l-10,0" style="fill:none;stroke:#ec1f27;stroke-width:0.8px;"/><path d="M12,28l12,0" style="fill:none;stroke:#ec1f27;stroke-width:0.8px;"/><circle cx="14.5" cy="22.5" r="1.5" style="fill:none;stroke:#ec1f27;stroke-width:0.8px;"/><circle cx="21.5" cy="22.5" r="1.5" style="fill:none;stroke:#ec1f27;stroke-width:0.8px;"/><path d="M20,14c0.656,0.008 1.003,0.328 1,1" style="fill:none;stroke:#ec1f27;stroke-width:0.8px;"/></svg>