<?xml version="1.0" encoding="UTF-8" standalone="no"?><!DOCTYPE svg PUBLIC "-//W3C//DTD SVG 1.1//EN" "http://www.w3.org/Graphics/SVG/1.1/DTD/svg11.dtd"><svg width="100%" height="100%" viewBox="0 0 36 36" version="1.1" xmlns="http://www.w3.org/2000/svg" xmlns:xlink="http://www.w3.org/1999/xlink" xml:space="preserve" xmlns:serif="http://www.serif.com/" style="fill-rule:evenodd;clip-rule:evenodd;stroke-linecap:round;stroke-linejoin:round;stroke-miterlimit:1.5;"><rect id="migrant-family" x="0" y="0" width="36" height="36" style="fill:none;"/><g id="bg-white"><circle cx="18" cy="18" r="18" style="fill:#fff;"/></g><path d="M12.514,12.343c-0.816,-0.492 -1.135,-1.626 -1.086,-2.211c0.085,-1.012 0.973,-2.132 2.171,-2.132c1.199,0 2.108,1.017 2.172,2.132c0.038,0.66 -0.312,1.715 -1.086,2.211l2.171,0c0.616,-0.01 1.418,0.148 1.573,0.727l1.326,6.037c0.156,0.578 -0.188,1.174 -0.767,1.329c-0.579,0.155 -1.175,-0.189 -1.33,-0.767l-0.802,-2.993l0,9.78c0,0.599 -0.486,1.085 -1.085,1.085c-0.599,0 -1.086,-0.486 -1.086,-1.085l0,-3.257l-2.171,0l0,3.257c0,0.599 -0.487,1.085 -1.086,1.085c-0.599,0 -1.085,-0.486 -1.085,-1.085l0,-3.761c0,0 0,-6.01 0,-6.01l-0.468,3.227c-0.156,0.579 -0.751,0.923 -1.33,0.768c-0.579,-0.155 -0.923,-0.751 -0.768,-1.33l1.405,-6.328c0.159,-0.57 0.714,-0.652 1.367,-0.679l1.965,0Zm-1.966,-0.002c0.004,0 0.009,0.001 0.001,0.002c-0.653,0.027 -1.208,0.109 -1.367,0.679l-1.405,6.328c-0.155,0.579 0.189,1.175 0.768,1.33c0.579,0.155 1.174,-0.189 1.33,-0.768l0.468,-3.227l0,9.771c0,0.599 0.486,1.085 1.085,1.085c0.599,0 1.086,-0.486 1.086,-1.085l0,-3.257l2.171,0l0,3.257c0,0.599 0.487,1.085 1.086,1.085c0.599,0 1.085,-0.486 1.085,-1.085l0,-9.78l0.802,2.993c0.155,0.578 0.751,0.922 1.33,0.767c0.579,-0.155 0.923,-0.751 0.767,-1.329l-1.326,-6.037c-0.155,-0.579 -0.957,-0.737 -1.573,-0.727c-0.089,0.001 0,0 0,0" style="fill:none;stroke:#ec1f27;stroke-width:0.8px;"/><path d="M8.171,22.656c0,-0.299 -0.243,-0.543 -0.543,-0.543l-1.085,0c-0.3,0 -0.543,0.244 -0.543,0.543l0,4.343c0,0.299 0.243,0.542 0.543,0.542l1.085,0c0.3,0 0.543,-0.243 0.543,-0.542l0,-4.343Z" style="fill:none;stroke:#ec1f27;stroke-width:0.8px;"/><path d="M7.086,21.028l0,1.085" style="fill:none;stroke:#ec1f27;stroke-width:0.8px;"/><path d="M23.913,18.856c-0.352,-0.398 -0.543,-0.758 -0.543,-1.628c0,-0.899 0.73,-1.629 1.629,-1.629c0.898,0 1.614,0.73 1.628,1.629c0.013,0.808 -0.265,1.393 -0.543,1.628c1.036,0.001 1.122,-0.003 1.629,0c0.282,0.002 0.489,0.327 0.629,0.569l1.535,2.659c0.253,0.44 0.103,1.002 -0.336,1.256c-0.44,0.253 -1.002,0.102 -1.255,-0.337l-0.573,-0.992l0,4.445c0,0.599 -0.487,1.085 -1.086,1.085c-0.599,0 -1.086,-0.486 -1.086,-1.085l0,-2.171c0,0 -1.085,0 -1.085,0c0,0 0,2.171 0,2.171c0,0.599 -0.487,1.085 -1.086,1.085c-0.599,0 -1.085,-0.486 -1.085,-1.085l0,-4.69l-0.45,1.208c-0.177,0.475 -0.706,0.717 -1.181,0.54c-0.476,-0.177 -0.718,-0.706 -0.541,-1.181l1.071,-2.878c0.167,-0.448 0.683,-0.593 1.101,-0.599c0.485,-0.006 0.579,0 1.628,0Z" style="fill:none;stroke:#ec1f27;stroke-width:0.8px;"/></svg>