<?xml version="1.0" encoding="UTF-8" standalone="no"?><!DOCTYPE svg PUBLIC "-//W3C//DTD SVG 1.1//EN" "http://www.w3.org/Graphics/SVG/1.1/DTD/svg11.dtd"><svg width="100%" height="100%" viewBox="0 0 36 36" version="1.1" xmlns="http://www.w3.org/2000/svg" xmlns:xlink="http://www.w3.org/1999/xlink" xml:space="preserve" xmlns:serif="http://www.serif.com/" style="fill-rule:evenodd;clip-rule:evenodd;stroke-linecap:round;stroke-linejoin:round;stroke-miterlimit:1.5;"><rect id="oil-barrel" x="0" y="0" width="36" height="36" style="fill:none;"/><g id="bg-white"><circle cx="18" cy="18" r="18" style="fill:#fff;"/></g><path d="M12,11.5l0,4.5" style="fill:none;stroke:#ec1f27;stroke-width:0.8px;"/><path d="M12,16.5l0,4.5" style="fill:none;stroke:#ec1f27;stroke-width:0.8px;"/><path d="M12,21.5l0,4.5" style="fill:none;stroke:#ec1f27;stroke-width:0.8px;"/><path d="M24,11.5l0,4.5" style="fill:none;stroke:#ec1f27;stroke-width:0.8px;"/><path d="M24,16.5l0,4.5" style="fill:none;stroke:#ec1f27;stroke-width:0.8px;"/><path d="M24,21.5l0,4.5" style="fill:none;stroke:#ec1f27;stroke-width:0.8px;"/><ellipse cx="18" cy="10.5" rx="6.5" ry="2" style="fill:none;stroke:#ec1f27;stroke-width:0.8px;"/><path d="M24.002,14.737c0.335,0.241 0.498,0.485 0.498,0.763c0,1.104 -2.913,2 -6.5,2c-3.587,0 -6.5,-0.896 -6.5,-2c0,-0.279 0.153,-0.506 0.489,-0.747" style="fill:none;stroke:#ec1f27;stroke-width:0.8px;"/><path d="M24.002,19.737c0.335,0.241 0.498,0.485 0.498,0.763c0,1.104 -2.913,2 -6.5,2c-3.587,0 -6.5,-0.896 -6.5,-2c0,-0.279 0.153,-0.506 0.489,-0.747" style="fill:none;stroke:#ec1f27;stroke-width:0.8px;"/><path d="M24.002,24.737c0.335,0.241 0.498,0.485 0.498,0.763c0,1.104 -2.913,2 -6.5,2c-3.587,0 -6.5,-0.896 -6.5,-2c0,-0.279 0.153,-0.506 0.489,-0.747" style="fill:none;stroke:#ec1f27;stroke-width:0.8px;"/><path d="M13.5,13.619l0,1.881" style="fill:none;stroke:#ec1f27;stroke-width:0.8px;"/><path d="M13.5,18.619l0,1.881" style="fill:none;stroke:#ec1f27;stroke-width:0.8px;"/><path d="M13.5,23.619l0,1.881" style="fill:none;stroke:#ec1f27;stroke-width:0.8px;"/><ellipse cx="18" cy="11" rx="1.5" ry="0.5" style="fill:none;stroke:#ec1f27;stroke-width:0.8px;"/></svg>