<?xml version="1.0" encoding="UTF-8" standalone="no"?><!DOCTYPE svg PUBLIC "-//W3C//DTD SVG 1.1//EN" "http://www.w3.org/Graphics/SVG/1.1/DTD/svg11.dtd"><svg width="100%" height="100%" viewBox="0 0 36 36" version="1.1" xmlns="http://www.w3.org/2000/svg" xmlns:xlink="http://www.w3.org/1999/xlink" xml:space="preserve" xmlns:serif="http://www.serif.com/" style="fill-rule:evenodd;clip-rule:evenodd;stroke-linecap:round;stroke-linejoin:round;stroke-miterlimit:1.5;"><rect id="passport" x="0" y="0" width="36" height="36" style="fill:none;"/><g id="bg-white"><circle cx="18" cy="18" r="18" style="fill:#fff;"/></g><path d="M28,8l0,22l-16,0l0,-2l12,0l0,-20l4,0Z" style="fill:none;stroke:#ec1f27;stroke-width:0.8px;"/><rect x="8" y="6" width="16" height="22" style="fill:none;stroke:#ec1f27;stroke-width:0.8px;"/><path d="M24,24l2,0" style="fill:none;stroke:#ec1f27;stroke-width:0.8px;"/><path d="M24,22l2,0" style="fill:none;stroke:#ec1f27;stroke-width:0.8px;"/><path d="M24,20l2,0" style="fill:none;stroke:#ec1f27;stroke-width:0.8px;"/><path d="M24,18l2,0" style="fill:none;stroke:#ec1f27;stroke-width:0.8px;"/><path d="M24,16l2,0" style="fill:none;stroke:#ec1f27;stroke-width:0.8px;"/><path d="M24,14l2,0" style="fill:none;stroke:#ec1f27;stroke-width:0.8px;"/><path d="M24,12l2,0" style="fill:none;stroke:#ec1f27;stroke-width:0.8px;"/><path d="M11,22l10,0" style="fill:none;stroke:#ec1f27;stroke-width:0.8px;"/><path d="M11,24l10,0" style="fill:none;stroke:#ec1f27;stroke-width:0.8px;"/><circle cx="16" cy="14" r="5" style="fill:none;stroke:#ec1f27;stroke-width:0.8px;"/><path d="M16,9l0,10" style="fill:none;stroke:#ec1f27;stroke-width:0.8px;"/><path d="M20.375,12.75l-8.75,0" style="fill:none;stroke:#ec1f27;stroke-width:0.8px;"/><path d="M20.375,15.25l-8.75,0" style="fill:none;stroke:#ec1f27;stroke-width:0.8px;"/><path d="M16,9c3.365,3.337 3.699,6.67 0,10" style="fill:none;stroke:#ec1f27;stroke-width:0.8px;"/><path d="M16,9c-3.403,3.05 -3.666,6.362 0,10" style="fill:none;stroke:#ec1f27;stroke-width:0.8px;"/></svg>