<?xml version="1.0" encoding="UTF-8" standalone="no"?><!DOCTYPE svg PUBLIC "-//W3C//DTD SVG 1.1//EN" "http://www.w3.org/Graphics/SVG/1.1/DTD/svg11.dtd"><svg width="100%" height="100%" viewBox="0 0 36 36" version="1.1" xmlns="http://www.w3.org/2000/svg" xmlns:xlink="http://www.w3.org/1999/xlink" xml:space="preserve" xmlns:serif="http://www.serif.com/" style="fill-rule:evenodd;clip-rule:evenodd;stroke-linecap:round;stroke-linejoin:round;stroke-miterlimit:1.5;"><rect id="picket-line" x="0" y="0" width="36" height="36" style="fill:none;"/><g id="bg-white"><circle cx="18" cy="18" r="18" style="fill:#fff;"/></g><path d="M18.979,13.193l-0.605,-3.897c-0.03,-0.191 -0.209,-0.321 -0.4,-0.292l-10.178,1.581c-0.191,0.029 -0.321,0.208 -0.292,0.399l0.967,6.226c0.03,0.19 0.209,0.321 0.399,0.292l7.557,-1.126" style="fill:none;stroke:#ec1f27;stroke-width:0.8px;"/><path d="M27.896,15.45c0.039,-0.189 -0.083,-0.375 -0.273,-0.414l-10.088,-2.079c-0.189,-0.039 -0.374,0.083 -0.413,0.272l-1.272,6.17c-0.039,0.19 0.083,0.375 0.272,0.414l10.088,2.079c0.189,0.039 0.375,-0.083 0.414,-0.272l1.272,-6.17Z" style="fill:none;stroke:#ec1f27;stroke-width:0.8px;"/><path d="M13.967,16.806l0.99,6.329" style="fill:none;stroke:#ec1f27;stroke-width:0.8px;"/><path d="M21.065,21.342l-1.211,5.877" style="fill:none;stroke:#ec1f27;stroke-width:0.8px;"/><path d="M12.781,9.125l0.104,0.669" style="fill:none;stroke:#ec1f27;stroke-width:0.8px;"/><path d="M22.698,13.421l-0.035,0.172" style="fill:none;stroke:#ec1f27;stroke-width:0.8px;"/></svg>