<?xml version="1.0" encoding="UTF-8" standalone="no"?><!DOCTYPE svg PUBLIC "-//W3C//DTD SVG 1.1//EN" "http://www.w3.org/Graphics/SVG/1.1/DTD/svg11.dtd"><svg width="100%" height="100%" viewBox="0 0 36 36" version="1.1" xmlns="http://www.w3.org/2000/svg" xmlns:xlink="http://www.w3.org/1999/xlink" xml:space="preserve" xmlns:serif="http://www.serif.com/" style="fill-rule:evenodd;clip-rule:evenodd;stroke-linecap:round;stroke-linejoin:round;stroke-miterlimit:1.5;"><rect id="pills" x="0" y="0" width="36" height="36" style="fill:none;"/><g><circle cx="18" cy="18" r="18" style="fill:#fff;"/></g><path d="M25.78,17c2.329,0 4.22,1.891 4.22,4.22c0,2.33 -1.891,4.221 -4.22,4.221l-4.78,0l0,-8.274c0.053,-0.055 0.105,-0.11 0.154,-0.167l4.626,0Z" style="fill:none;stroke:#ec1f27;stroke-width:0.75px;"/><path d="M21,17.167l0,8.274l-4.78,0c-1.009,0 -1.936,-0.355 -2.663,-0.947c0.229,-0.152 0.446,-0.329 0.647,-0.531l3.38,-3.379l3.379,-3.38c0.013,-0.012 0.025,-0.025 0.037,-0.037Z" style="fill:none;stroke:#ec1f27;stroke-width:0.75px;"/><path d="M17.584,20.584l-5.969,-5.969l-3.38,3.38c-1.647,1.647 -1.647,4.321 0,5.968c1.647,1.647 4.322,1.647 5.969,0l3.38,-3.379Z" style="fill:none;stroke:#ec1f27;stroke-width:0.75px;"/><path d="M11.615,14.615l5.969,5.969l3.379,-3.38c1.647,-1.647 1.647,-4.322 0,-5.969c-1.647,-1.647 -4.321,-1.647 -5.968,0l-3.38,3.38Z" style="fill:none;stroke:#ec1f27;stroke-width:0.75px;"/><path d="M26,19c0.66,0.244 1.789,1.267 2,2" style="fill:none;stroke:#ec1f27;stroke-width:0.75px;stroke-linejoin:miter;stroke-miterlimit:3;"/><path d="M20,13c0.645,0.648 0.674,2.138 0,3" style="fill:none;stroke:#ec1f27;stroke-width:0.75px;stroke-linejoin:miter;stroke-miterlimit:3;"/></svg>