<?xml version="1.0" encoding="UTF-8" standalone="no"?><!DOCTYPE svg PUBLIC "-//W3C//DTD SVG 1.1//EN" "http://www.w3.org/Graphics/SVG/1.1/DTD/svg11.dtd"><svg width="100%" height="100%" viewBox="0 0 36 36" version="1.1" xmlns="http://www.w3.org/2000/svg" xmlns:xlink="http://www.w3.org/1999/xlink" xml:space="preserve" xmlns:serif="http://www.serif.com/" style="fill-rule:evenodd;clip-rule:evenodd;stroke-linecap:round;stroke-linejoin:round;stroke-miterlimit:1.5;"><rect id="pizza" x="0" y="0" width="36" height="36" style="fill:none;"/><g id="bg-white"><circle cx="18" cy="18" r="18" style="fill:#fff;"/></g><path d="M9,17c-0.016,-0.628 0.232,-1.285 1,-2" style="fill:none;stroke:#ec1f27;stroke-width:0.8px;"/><path d="M9,19c1.275,4.592 4.068,6.721 8,7" style="fill:none;stroke:#ec1f27;stroke-width:0.8px;"/><path d="M23,11c5.065,1.285 7.035,5.532 5.678,10.329c-1.271,4.495 -5.928,7.281 -10.676,6.557c-4.748,0.724 -9.405,-2.062 -10.676,-6.557c-1.358,-4.797 0.609,-9.044 5.674,-10.329" style="fill:none;stroke:#ec1f27;stroke-width:0.8px;"/><path d="M18.5,8c0.276,0 0.5,0.256 0.5,0.571l0,1.429c1.858,-0.397 3.098,0.066 4,1c-1.107,-0.228 -1.781,0.003 -2,0.714l0,2.286c-0.52,-2.534 -5.345,-2.384 -6,0l0,-2.286c-0.296,-0.852 -1.02,-0.996 -2,-0.714c0.812,-0.982 2.183,-1.269 4,-1l0,-1.429c0,-0.315 0.224,-0.571 0.5,-0.571l1,0Z" style="fill:#fff;stroke:#ec1f27;stroke-width:0.8px;"/></svg>