<?xml version="1.0" encoding="UTF-8" standalone="no"?><!DOCTYPE svg PUBLIC "-//W3C//DTD SVG 1.1//EN" "http://www.w3.org/Graphics/SVG/1.1/DTD/svg11.dtd"><svg width="100%" height="100%" viewBox="0 0 36 36" version="1.1" xmlns="http://www.w3.org/2000/svg" xmlns:xlink="http://www.w3.org/1999/xlink" xml:space="preserve" xmlns:serif="http://www.serif.com/" style="fill-rule:evenodd;clip-rule:evenodd;stroke-linecap:round;stroke-linejoin:round;stroke-miterlimit:1.5;"><rect id="presentation" x="0" y="0" width="36" height="36" style="fill:none;"/><g id="presentation1" serif:id="presentation"><g id="bg-white"><circle cx="18" cy="18" r="18" style="fill:#fff;"/></g><path d="M28.5,7.875c0,-0.207 -0.168,-0.375 -0.375,-0.375l-20.25,0c-0.207,0 -0.375,0.168 -0.375,0.375l0,0.75c0,0.207 0.168,0.375 0.375,0.375l20.25,0c0.207,0 0.375,-0.168 0.375,-0.375l0,-0.75Z" style="fill:none;stroke:#ec1f27;stroke-width:0.8px;"/><rect x="9" y="9" width="18" height="11.5" style="fill:none;stroke:#ec1f27;stroke-width:0.8px;"/><path d="M7.5,20.5l21,0" style="fill:none;stroke:#ec1f27;stroke-width:0.8px;"/><path d="M15,28.5l3,-8l3,8" style="fill:none;stroke:#ec1f27;stroke-width:0.8px;"/><path d="M18,20.5l0,8" style="fill:none;stroke:#ec1f27;stroke-width:0.8px;"/><path d="M25,11.875c0,-0.207 -0.168,-0.375 -0.375,-0.375l-7.75,0c-0.207,0 -0.375,0.168 -0.375,0.375l0,0.75c0,0.207 0.168,0.375 0.375,0.375l7.75,0c0.207,0 0.375,-0.168 0.375,-0.375l0,-0.75Z" style="fill:none;stroke:#ec1f27;stroke-width:0.8px;"/><path d="M25,14.875c0,-0.207 -0.168,-0.375 -0.375,-0.375l-7.75,0c-0.207,0 -0.375,0.168 -0.375,0.375l0,0.75c0,0.207 0.168,0.375 0.375,0.375l7.75,0c0.207,0 0.375,-0.168 0.375,-0.375l0,-0.75Z" style="fill:none;stroke:#ec1f27;stroke-width:0.8px;"/><path d="M25,17.875c0,-0.207 -0.168,-0.375 -0.375,-0.375l-7.75,0c-0.207,0 -0.375,0.168 -0.375,0.375l0,0.75c0,0.207 0.168,0.375 0.375,0.375l7.75,0c0.207,0 0.375,-0.168 0.375,-0.375l0,-0.75Z" style="fill:none;stroke:#ec1f27;stroke-width:0.8px;"/><path d="M14.5,13.25c0,-0.966 -0.784,-1.75 -1.75,-1.75c-0.966,0 -1.75,0.784 -1.75,1.75c0,0.966 0.784,1.75 1.75,1.75c0.966,0 1.75,-0.784 1.75,-1.75Z" style="fill:none;stroke:#ec1f27;stroke-width:0.8px;"/></g></svg>