<?xml version="1.0" encoding="UTF-8" standalone="no"?><!DOCTYPE svg PUBLIC "-//W3C//DTD SVG 1.1//EN" "http://www.w3.org/Graphics/SVG/1.1/DTD/svg11.dtd"><svg width="100%" height="100%" viewBox="0 0 36 36" version="1.1" xmlns="http://www.w3.org/2000/svg" xmlns:xlink="http://www.w3.org/1999/xlink" xml:space="preserve" xmlns:serif="http://www.serif.com/" style="fill-rule:evenodd;clip-rule:evenodd;stroke-linecap:round;stroke-linejoin:round;stroke-miterlimit:1.5;"><rect id="recycle" x="0" y="0" width="36" height="36" style="fill:none;"/><g><circle cx="18" cy="18" r="18" style="fill:#fff;"/></g><path d="M20.835,27.207l3.814,0c4.116,0.005 5.121,-2.589 3.813,-5.587l-4.242,-8.286" style="fill:none;stroke:#ec1f27;stroke-width:0.75px;"/><path d="M22.742,10.447l-0.954,-1.862c-1.907,-3.447 -5.721,-3.447 -7.627,0l-2.86,5.586" style="fill:none;stroke:#ec1f27;stroke-width:0.75px;"/><path d="M10.148,16.965l-2.661,4.655c-1.193,2.867 -0.293,5.426 3.814,5.587l6.674,0" style="fill:none;stroke:#ec1f27;stroke-width:0.75px;"/><path d="M15.114,24.413l2.861,2.794l-2.861,2.793" style="fill:none;stroke:#ec1f27;stroke-width:0.75px;"/><path d="M22.742,16.955l1.376,-3.715l3.803,1.344" style="fill:none;stroke:#ec1f27;stroke-width:0.75px;"/><path d="M15.114,13.219l-3.902,1.039l-1.064,-3.811" style="fill:none;stroke:#ec1f27;stroke-width:0.75px;"/></svg>