<?xml version="1.0" encoding="UTF-8" standalone="no"?><!DOCTYPE svg PUBLIC "-//W3C//DTD SVG 1.1//EN" "http://www.w3.org/Graphics/SVG/1.1/DTD/svg11.dtd"><svg width="100%" height="100%" viewBox="0 0 36 36" version="1.1" xmlns="http://www.w3.org/2000/svg" xmlns:xlink="http://www.w3.org/1999/xlink" xml:space="preserve" xmlns:serif="http://www.serif.com/" style="fill-rule:evenodd;clip-rule:evenodd;stroke-linecap:round;stroke-linejoin:round;stroke-miterlimit:3;"><rect id="sickle" x="0" y="0" width="36" height="36" style="fill:none;"/><g id="bg-white"><circle cx="18" cy="18" r="18" style="fill:#fff;"/></g><g id="Sickle"><path d="M13.074,21.508c-3.243,2.824 -4.882,4.253 -4.917,4.288c-0.386,0.374 0.007,1.231 0.45,1.667c0.453,0.446 1.253,0.714 1.639,0.34c0.033,-0.032 3.037,-2.875 3.053,-2.858c0.643,0.681 2.587,3.028 6.588,3.028c4.001,0 7.019,-3.523 7.938,-7.656c0.738,-3.32 -0.824,-7.724 -5.294,-11.409c-0.8,-0.659 -1.662,-0.626 -3.062,-0.908c5.329,4.918 7.3,9.092 5.913,12.522c-0.976,2.414 -2.495,4.452 -4.981,5.001c-2.047,0.453 -4.49,-0.886 -7.327,-4.015Z" style="fill:none;stroke:#ec1f27;stroke-width:0.8px;"/><path d="M13.299,24.945l-1.832,-1.94" style="fill:none;stroke:#ec1f27;stroke-width:0.8px;stroke-linejoin:miter;"/></g></svg>