<?xml version="1.0" encoding="UTF-8" standalone="no"?><!DOCTYPE svg PUBLIC "-//W3C//DTD SVG 1.1//EN" "http://www.w3.org/Graphics/SVG/1.1/DTD/svg11.dtd"><svg width="100%" height="100%" viewBox="0 0 36 36" version="1.1" xmlns="http://www.w3.org/2000/svg" xmlns:xlink="http://www.w3.org/1999/xlink" xml:space="preserve" xmlns:serif="http://www.serif.com/" style="fill-rule:evenodd;clip-rule:evenodd;stroke-linecap:round;stroke-linejoin:round;stroke-miterlimit:1.5;"><rect id="spaghetti" x="0" y="0" width="36" height="36" style="fill:none;"/><g id="bg-white"><circle cx="18" cy="18" r="18" style="fill:#fff;"/></g><path d="M9,26l0,0.75c0,0.69 0.56,1.25 1.25,1.25l15.5,0c0.69,0 1.25,-0.56 1.25,-1.25l0,-0.75" style="fill:none;stroke:#ec1f27;stroke-width:0.8px;"/><path d="M8,26l20,0" style="fill:none;stroke:#ec1f27;stroke-width:0.8px;"/><path d="M15,20c2.685,0.788 3.011,3.52 1,6" style="fill:none;stroke:#ec1f27;stroke-width:0.8px;"/><path d="M18,26c1.702,-2.932 1.138,-5.775 -1.731,-7.362c-1.602,-0.887 -3.059,0.8 -1.269,1.362" style="fill:none;stroke:#ec1f27;stroke-width:0.8px;"/><path d="M20,26c1.339,-3.636 0.955,-5.648 -2,-8c-1.302,-1.037 -2.094,0.359 -1.178,0.964" style="fill:none;stroke:#ec1f27;stroke-width:0.8px;"/><path d="M19.371,18.971c5.789,-0.188 7.793,3.535 7.629,7.029" style="fill:none;stroke:#ec1f27;stroke-width:0.8px;"/><path d="M20.541,21.042c2.54,-0.084 4.501,1.546 4.459,4.958" style="fill:none;stroke:#ec1f27;stroke-width:0.8px;"/><path d="M20.766,23.206c1.746,0.03 2.36,1.117 2.369,2.769" style="fill:none;stroke:#ec1f27;stroke-width:0.8px;"/><path d="M14.177,19.655c-3.178,0.736 -5.364,2.684 -5.179,6.255" style="fill:none;stroke:#ec1f27;stroke-width:0.8px;"/><path d="M10.751,25.761c-0.245,-2.682 1.588,-4.325 5.666,-4.846" style="fill:none;stroke:#ec1f27;stroke-width:0.8px;"/><path d="M12.764,25.873c-0.04,-1.887 1.33,-3.06 4.362,-3.393" style="fill:none;stroke:#ec1f27;stroke-width:0.8px;"/><path d="M14.404,25.799c0.378,-1.314 1.062,-1.8 2.418,-1.53" style="fill:none;stroke:#ec1f27;stroke-width:0.8px;"/><path d="M14.5,12.976l0,-3.976c0.018,-0.833 1.447,-1.02 1.5,0l0,6c-0.008,0.735 2.979,2.377 3,3l-0.043,0.5" style="fill:none;stroke:#ec1f27;stroke-width:0.8px;"/><path d="M12,12l5,0" style="fill:none;stroke:#ec1f27;stroke-width:0.8px;"/><path d="M12,10l5,0c1.465,-0.004 1.507,1.021 3,1l7,0c1.416,-0.021 1.208,2.03 0,2l-7,0c-1.683,-0.013 -1.627,0.953 -3,1l-5,0" style="fill:none;stroke:#ec1f27;stroke-width:0.8px;"/><path d="M17.177,10l0,3.866" style="fill:none;stroke:#ec1f27;stroke-width:0.8px;"/></svg>