<?xml version="1.0" encoding="UTF-8" standalone="no"?><!DOCTYPE svg PUBLIC "-//W3C//DTD SVG 1.1//EN" "http://www.w3.org/Graphics/SVG/1.1/DTD/svg11.dtd"><svg width="100%" height="100%" viewBox="0 0 36 36" version="1.1" xmlns="http://www.w3.org/2000/svg" xmlns:xlink="http://www.w3.org/1999/xlink" xml:space="preserve" xmlns:serif="http://www.serif.com/" style="fill-rule:evenodd;clip-rule:evenodd;stroke-linecap:round;stroke-linejoin:round;stroke-miterlimit:1.5;"><rect id="spray-can" x="0" y="0" width="36" height="36" style="fill:none;"/><g id="bg-white"><circle cx="18" cy="18" r="18" style="fill:#fff;"/></g><rect x="10" y="15" width="6" height="14" style="fill:none;stroke:#ec1f27;stroke-width:0.8px;"/><path d="M15,13.5c0,-0.276 -0.224,-0.5 -0.5,-0.5l-3,0c-0.276,0 -0.5,0.224 -0.5,0.5l0,1c0,0.276 0.224,0.5 0.5,0.5l3,0c0.276,0 0.5,-0.224 0.5,-0.5l0,-1Z" style="fill:none;stroke:#ec1f27;stroke-width:0.8px;"/><path d="M14,11.5c0,-0.276 -0.224,-0.5 -0.5,-0.5l-1,0c-0.276,0 -0.5,0.224 -0.5,0.5l0,1c0,0.276 0.224,0.5 0.5,0.5l1,0c0.276,0 0.5,-0.224 0.5,-0.5l0,-1Z" style="fill:none;stroke:#ec1f27;stroke-width:0.8px;"/><path d="M14,18l0,9l0,-9Z" style="fill:none;stroke:#ec1f27;stroke-width:0.8px;"/><path d="M16,12.089l4.094,-4.065c0.493,-2.047 3.29,-1.858 4.094,0c2.657,0.295 3.603,1.509 2.046,4.065c1.238,2.083 1.249,3.7 -2.046,4.066c-1.002,1.865 -3.42,1.878 -4.094,0l-4.094,-4.066Z" style="fill:none;stroke:#ec1f27;stroke-width:0.8px;"/><path d="M18,12l4,0" style="fill:none;stroke:#ec1f27;stroke-width:0.8px;"/><path d="M18,12l3,-2" style="fill:none;stroke:#ec1f27;stroke-width:0.8px;"/><path d="M18,12l3,2" style="fill:none;stroke:#ec1f27;stroke-width:0.8px;"/></svg>