<?xml version="1.0" encoding="UTF-8" standalone="no"?><!DOCTYPE svg PUBLIC "-//W3C//DTD SVG 1.1//EN" "http://www.w3.org/Graphics/SVG/1.1/DTD/svg11.dtd"><svg width="100%" height="100%" viewBox="0 0 36 36" version="1.1" xmlns="http://www.w3.org/2000/svg" xmlns:xlink="http://www.w3.org/1999/xlink" xml:space="preserve" xmlns:serif="http://www.serif.com/" style="fill-rule:evenodd;clip-rule:evenodd;stroke-linecap:square;stroke-miterlimit:3;"><rect id="stethescope" x="0" y="0" width="36" height="36" style="fill:none;"/><g><circle cx="18" cy="18" r="18" style="fill:#fff;"/></g><g id="Stethescope"><path d="M12,23c0,1.104 0.896,2 2,2c1.104,0 2,-0.896 2,-2c0,-1.104 -0.896,-2 -2,-2c-1.104,0 -2,0.896 -2,2Z" style="fill:none;stroke:#ec1f27;stroke-width:0.75px;"/><path d="M13,7c0,0.552 0.448,1 1,1c0.552,0 1,-0.448 1,-1c0,-0.552 -0.448,-1 -1,-1c-0.552,0 -1,0.448 -1,1Z" style="fill:none;stroke:#ec1f27;stroke-width:0.75px;"/><path d="M25,7c0,0.552 0.448,1 1,1c0.552,0 1,-0.448 1,-1c0,-0.552 -0.448,-1 -1,-1c-0.552,0 -1,0.448 -1,1Z" style="fill:none;stroke:#ec1f27;stroke-width:0.75px;"/><path d="M14,8c0,2.229 0,3.025 0,3.02c-0.02,1.91 1.537,2.919 3,2.98c0.061,0.003 4.959,0 5,0c1.89,0 4,-1.354 4,-3c0,-0.038 0,-0.803 0,-3" style="fill:none;stroke:#ec1f27;stroke-width:0.75px;stroke-linecap:round;"/><path d="M20,14.001c0,0 0.017,9.168 0,11.999c-0.017,2.831 -1.178,3.981 -3,4c-1.822,0.019 -3.017,-1.516 -3,-4c0.008,-1.188 0,-1 0,-1" style="fill:none;stroke:#ec1f27;stroke-width:0.75px;stroke-linecap:round;"/></g></svg>