<?xml version="1.0" encoding="UTF-8" standalone="no"?><!DOCTYPE svg PUBLIC "-//W3C//DTD SVG 1.1//EN" "http://www.w3.org/Graphics/SVG/1.1/DTD/svg11.dtd"><svg width="100%" height="100%" viewBox="0 0 36 36" version="1.1" xmlns="http://www.w3.org/2000/svg" xmlns:xlink="http://www.w3.org/1999/xlink" xml:space="preserve" xmlns:serif="http://www.serif.com/" style="fill-rule:evenodd;clip-rule:evenodd;stroke-linecap:round;stroke-linejoin:round;stroke-miterlimit:1.5;"><rect id="symbol-equality" x="0" y="0" width="36" height="36" style="fill:none;"/><g id="bg-white"><circle cx="18" cy="18" r="18" style="fill:#fff;"/></g><path d="M29,11.5c0,-0.828 -0.672,-1.5 -1.5,-1.5l-19,0c-0.828,0 -1.5,0.672 -1.5,1.5l0,3c0,0.828 0.672,1.5 1.5,1.5l19,0c0.828,0 1.5,-0.672 1.5,-1.5l0,-3Z" style="fill:none;stroke:#ec1f27;stroke-width:0.7px;"/><path d="M29,21.5c0,-0.828 -0.672,-1.5 -1.5,-1.5l-19,0c-0.828,0 -1.5,0.672 -1.5,1.5l0,3c0,0.828 0.672,1.5 1.5,1.5l19,0c0.828,0 1.5,-0.672 1.5,-1.5l0,-3Z" style="fill:none;stroke:#ec1f27;stroke-width:0.7px;"/></svg>