<?xml version="1.0" encoding="UTF-8" standalone="no"?><!DOCTYPE svg PUBLIC "-//W3C//DTD SVG 1.1//EN" "http://www.w3.org/Graphics/SVG/1.1/DTD/svg11.dtd"><svg width="100%" height="100%" viewBox="0 0 150 150" version="1.1" xmlns="http://www.w3.org/2000/svg" xmlns:xlink="http://www.w3.org/1999/xlink" xml:space="preserve" xmlns:serif="http://www.serif.com/" style="fill-rule:evenodd;clip-rule:evenodd;stroke-linecap:round;stroke-linejoin:round;stroke-miterlimit:1.5;"><rect id="typewriter" x="0" y="0" width="150" height="150" style="fill:none;"/><circle id="bg-white" cx="75" cy="75" r="75" style="fill:#fff;"/><rect x="33.333" y="60.417" width="83.333" height="58.333" style="fill:none;stroke:#ec1f27;stroke-width:3.33px;"/><rect x="54.167" y="29.167" width="41.667" height="25" style="fill:none;stroke:#ec1f27;stroke-width:3.33px;"/><path d="M33.333,112.5l83.334,0" style="fill:none;stroke:#ec1f27;stroke-width:3.33px;"/><circle cx="45.833" cy="70.833" r="4.167" style="fill:none;stroke:#ec1f27;stroke-width:3.33px;"/><circle cx="45.833" cy="85.417" r="4.167" style="fill:none;stroke:#ec1f27;stroke-width:3.33px;"/><circle cx="45.833" cy="100" r="4.167" style="fill:none;stroke:#ec1f27;stroke-width:3.33px;"/><circle cx="60.417" cy="70.833" r="4.167" style="fill:none;stroke:#ec1f27;stroke-width:3.33px;"/><circle cx="60.417" cy="85.417" r="4.167" style="fill:none;stroke:#ec1f27;stroke-width:3.33px;"/><circle cx="75" cy="70.833" r="4.167" style="fill:none;stroke:#ec1f27;stroke-width:3.33px;"/><circle cx="75" cy="85.417" r="4.167" style="fill:none;stroke:#ec1f27;stroke-width:3.33px;"/><circle cx="89.583" cy="70.833" r="4.167" style="fill:none;stroke:#ec1f27;stroke-width:3.33px;"/><circle cx="89.583" cy="85.417" r="4.167" style="fill:none;stroke:#ec1f27;stroke-width:3.33px;"/><circle cx="104.167" cy="70.833" r="4.167" style="fill:none;stroke:#ec1f27;stroke-width:3.33px;"/><circle cx="104.167" cy="85.417" r="4.167" style="fill:none;stroke:#ec1f27;stroke-width:3.33px;"/><circle cx="104.167" cy="100" r="4.167" style="fill:none;stroke:#ec1f27;stroke-width:3.33px;"/><rect x="41.667" y="47.917" width="6.25" height="12.5" style="fill:none;stroke:#ec1f27;stroke-width:3.33px;"/><rect x="102.083" y="47.917" width="6.25" height="12.5" style="fill:none;stroke:#ec1f27;stroke-width:3.33px;"/><path d="M47.917,54.167l54.166,0" style="fill:none;stroke:#ec1f27;stroke-width:3.33px;"/><path d="M62.5,35.417l25,0" style="fill:none;stroke:#ec1f27;stroke-width:3.33px;"/><path d="M62.5,41.667l25,0" style="fill:none;stroke:#ec1f27;stroke-width:3.33px;"/><path d="M62.5,47.917l25,0" style="fill:none;stroke:#ec1f27;stroke-width:3.33px;"/><rect x="33.333" y="41.667" width="8.333" height="12.5" style="fill:none;stroke:#ec1f27;stroke-width:3.33px;"/><rect x="108.333" y="41.667" width="8.333" height="12.5" style="fill:none;stroke:#ec1f27;stroke-width:3.33px;"/><path d="M93.75,100c0,-2.3 -1.867,-4.167 -4.167,-4.167l-29.166,0c-2.3,0 -4.167,1.867 -4.167,4.167c0,2.3 1.867,4.167 4.167,4.167l29.166,0c2.3,0 4.167,-1.867 4.167,-4.167Z" style="fill:none;stroke:#ec1f27;stroke-width:3.33px;"/></svg>