<?xml version="1.0" encoding="UTF-8"?>
<svg width="36px" height="39px" viewBox="0 0 36 39" version="1.1" xmlns="http://www.w3.org/2000/svg" xmlns:xlink="http://www.w3.org/1999/xlink">
    <!-- Generator: Sketch 44 (41411) - http://www.bohemiancoding.com/sketch -->
    <title>announcement-icon</title>
    <desc>Created with Sketch.</desc>
    <defs></defs>
    <g id="Page-1" stroke="none" stroke-width="1" fill="none" fill-rule="evenodd">
        <g id="Announcement" transform="translate(-73.000000, -120.000000)" fill-rule="nonzero" fill="#FFFFFF">
            <g id="announcement-icon" transform="translate(73.000000, 120.000000)">
                <path d="M22.3990714,0.90415 L20.6685,4.2575 C20.286,4.9985 20.5701429,5.9124 21.303,6.2985 C22.0358571,6.68525 22.9397143,6.39795 23.3215714,5.65695 L25.0521429,2.3036 C25.4346429,1.5626 25.1505,0.6487 24.4176429,0.2626 C23.6854286,-0.1235 22.7815714,0.1638 22.3990714,0.90415 Z" id="Shape"></path>
                <path d="M30.3377143,7.52375 L27.2385,9.64145 C26.5538571,10.10945 26.3738571,11.05 26.8367143,11.74225 C27.2995714,12.4345 28.2297857,12.6165 28.9144286,12.1485 L32.0136429,10.0308 C32.6982857,9.5628 32.8782857,8.62225 32.4154286,7.93 C31.9525714,7.23775 31.0223571,7.05575 30.3377143,7.52375 Z" id="Shape"></path>
                <path d="M34.2077143,17.1639 L30.4849286,17.53635 C29.6627143,17.61825 29.0616429,18.35925 29.1432857,19.1906 C29.2249286,20.02195 29.9571429,20.6297 30.7793571,20.54715 L34.5021429,20.1747 C35.3243571,20.0928 35.9254286,19.3518 35.8437857,18.52045 C35.7621429,17.6891 35.0299286,17.082 34.2077143,17.1639 Z" id="Shape"></path>
                <path d="M26.9382857,20.90595 C26.4381429,18.65955 25.2276429,16.11155 23.5317857,13.7319 C20.8825714,10.0178 17.604,7.4607 14.976,7.0603 C13.8812143,6.89325 12.8976429,7.1032 12.132,7.66805 C11.1002143,8.42985 10.6270714,9.6174 10.5820714,11.03765 C10.4920714,13.8957 10.1410714,15.23275 7.72328571,16.98515 C7.51178571,17.13855 7.29964286,17.29195 7.09071429,17.45055 C6.20228571,18.12135 2.20435714,21.2199 1.12757143,22.0922 C0.883285714,22.29175 0.669857143,22.58035 0.527785714,22.90795 C0.154928571,23.7588 0.250071429,24.65125 0.81,25.56515 C0.123428571,26.5161 0.00321428571,27.25645 0.304071429,28.4843 C0.474428571,29.1733 0.779142857,29.8935 1.18478571,30.57015 C1.30242857,30.7645 1.42714286,30.95105 1.55635714,31.12655 C2.81507143,32.83215 4.56492857,33.4997 6.27107143,32.9407 C7.11578571,33.7129 8.09228571,33.92545 9.00385714,33.5361 L14.5568571,38.82125 C14.6745,38.93305 14.8557857,38.9402 14.9817857,38.83815 L15.4105714,38.4904 C16.0727143,37.9548 16.7226429,37.4283 17.3873571,36.89205 L17.3873571,36.89205 C17.5403571,36.7692 17.5519286,36.5391 17.4124286,36.40065 L17.2549286,36.24465 C17.1771429,36.1673 17.1064286,36.0958 17.0350714,36.0295 C17.0350714,36.0295 15.6072857,34.7347 14.8185,33.9937 C14.7304286,33.90985 14.6745,33.86565 14.6635714,33.66545 C14.5967143,32.2855 14.0085,31.09405 13.3990714,30.0937 L13.8567857,29.731 C14.3209286,29.36245 14.7844286,28.99455 15.2466429,28.6234 C17.5622143,26.7631 18.8106429,26.13845 21.6829286,26.9503 C22.0699286,27.0868 22.4492143,27.1882 22.8143571,27.2441 C23.9091429,27.41115 24.8927143,27.2012 25.6583571,26.63635 C27.0732857,25.59115 27.5290714,23.55665 26.9382857,20.90595 Z M24.0280714,24.35095 C23.8204286,24.50435 23.4765,24.4907 23.2251429,24.45235 C22.6452857,24.36395 21.8802857,24.03635 21.0156429,23.46565 C19.6450714,22.5615 18.0257143,21.0483 16.5047143,18.915 C14.9972143,16.80055 14.1255,14.8811 13.6992857,13.36075 C13.1869286,11.53295 13.3180714,10.27975 13.761,9.95345 C13.9686429,9.80005 14.3125714,9.8137 14.5645714,9.85205 C16.0617857,10.08085 18.8029286,11.91125 21.2837143,15.39005 C22.743,17.4369 23.8178571,19.67485 24.2305714,21.5306 C24.5841429,23.114 24.3842143,24.08835 24.0280714,24.35095 Z" id="Shape"></path>
                <path d="M19.836,20.8767 C19.161,20.18315 18.4744286,19.36415 17.8077857,18.4288 C16.9065,17.16455 16.2302143,15.96725 15.7442143,14.8863 C17.1205714,14.4469 18.4120714,14.85315 19.6077857,16.1655 C20.7495,17.5201 20.7713571,19.1009 19.836,20.8767 Z" id="Shape"></path>
            </g>
        </g>
    </g>
</svg>