<?xml version="1.0" encoding="UTF-8" standalone="no"?><!DOCTYPE svg PUBLIC "-//W3C//DTD SVG 1.1//EN" "http://www.w3.org/Graphics/SVG/1.1/DTD/svg11.dtd"><svg width="100%" height="100%" viewBox="0 0 16 16" version="1.1" xmlns="http://www.w3.org/2000/svg" xmlns:xlink="http://www.w3.org/1999/xlink" xml:space="preserve" xmlns:serif="http://www.serif.com/" style="fill-rule:evenodd;clip-rule:evenodd;stroke-linejoin:round;stroke-miterlimit:1.41421;"><rect id="_16px" serif:id="16px" x="0" y="0" width="16" height="16" style="fill:none;"/><g><rect x="0" y="0" width="16" height="16" style="fill:none;"/><clipPath id="_clip1"><rect x="0" y="0" width="16" height="16"/></clipPath><g clip-path="url(#_clip1)"><path d="M15.471,-0.582l-16,16l0.529,0.53l16,-16l-0.529,-0.53Z"/><path d="M11.476,-4.576l-16,16l0.529,0.529l16,-16l-0.529,-0.529Z"/><path d="M19.476,3.424l-16,16l0.53,0.529l16,-16l-0.53,-0.529Z"/><path d="M17.333,1.875l-16,16l0.529,0.529l16,-16l-0.529,-0.529Z"/><path d="M13.473,-2.579l-16,16l0.53,0.529l16,-16l-0.53,-0.529Z"/><path d="M9.63,-6.422l-16,16l0.529,0.529l16,-16l-0.529,-0.529Z"/><path d="M21.501,5.398l-16,16l0.53,0.529l16,-16l-0.53,-0.529Z"/><path d="M23.498,7.391l-16,16l0.529,0.529l16,-16l-0.529,-0.529Z"/></g></g></svg>