<?xml version="1.0" encoding="UTF-8" standalone="no"?><!DOCTYPE svg PUBLIC "-//W3C//DTD SVG 1.1//EN" "http://www.w3.org/Graphics/SVG/1.1/DTD/svg11.dtd"><svg width="100%" height="100%" viewBox="0 0 267 258" version="1.1" xmlns="http://www.w3.org/2000/svg" xmlns:xlink="http://www.w3.org/1999/xlink" xml:space="preserve" style="fill-rule:evenodd;clip-rule:evenodd;stroke-linejoin:round;stroke-miterlimit:1.41421;"><g><path d="M233.428,195.74c-3.249,0.079 -31.912,0.801 -37.813,2.264c-4.188,1.043 -11.8,-0.803 -14.383,-1.601c-1.319,-0.416 -2.727,0.326 -3.136,1.65c-0.412,1.323 0.327,2.728 1.649,3.139c0.346,0.107 6.939,2.131 12.846,2.131c1.493,0 2.94,-0.128 4.234,-0.451c4.539,-1.124 28.047,-1.909 36.726,-2.116c1.382,-0.033 2.48,-1.183 2.445,-2.568c-0.032,-1.387 -1.196,-2.468 -2.568,-2.448Z" style="fill:#241f1f;fill-rule:nonzero;"/><path d="M228.973,112.449l-92.084,4.119" style="fill:#ed1f27;fill-rule:nonzero;"/><path d="M152.344,115.176l12.808,-27.516" style="fill:#ed1f27;fill-rule:nonzero;"/><path d="M165.152,115.303l21.489,-27.02" style="fill:#ed1f27;fill-rule:nonzero;"/><path d="M186.641,114.341l14.879,-21.556" style="fill:#ed1f27;fill-rule:nonzero;"/><path d="M203.893,113.571l8.394,-15.234" style="fill:#ed1f27;fill-rule:nonzero;"/><path d="M203.893,113.571l10.27,13.801" style="fill:#ed1f27;fill-rule:nonzero;"/><path d="M186.641,114.341l13.484,22.01" style="fill:#ed1f27;fill-rule:nonzero;"/><path d="M165.152,115.303l9.789,17.494" style="fill:#ed1f27;fill-rule:nonzero;"/><path d="M152.344,115.176l6.275,19.915" style="fill:#ed1f27;fill-rule:nonzero;"/><path d="M48.548,116.568l80.855,0" style="fill:#ed1f27;fill-rule:nonzero;"/><path d="M111.435,116.568l-9.78,-26.147" style="fill:#ed1f27;fill-rule:nonzero;"/><path d="M94.589,116.568l-5.613,-26.488" style="fill:#ed1f27;fill-rule:nonzero;"/><path d="M78.496,116.568l-12.955,-16.788" style="fill:#ed1f27;fill-rule:nonzero;"/><path d="M78.496,116.568l-12.955,18.861" style="fill:#ed1f27;fill-rule:nonzero;"/><path d="M94.589,116.568l-14.288,21.868" style="fill:#ed1f27;fill-rule:nonzero;"/><path d="M111.435,116.568l-11.004,18.861" style="fill:#ed1f27;fill-rule:nonzero;"/><path d="M156.355,89.771l1.684,0.392" style="fill:#ed1f27;fill-rule:nonzero;"/><path d="M214.6,123.757l-5.871,-7.89l14.715,-0.659c-2.077,2.32 -5.051,5.36 -8.844,8.549Zm-23.596,-7.098l11.673,-0.522l7.991,10.742c-2.868,2.138 -6.092,4.246 -9.629,6.16l-10.035,-16.38Zm-51.607,-8.427l0,-2.633c2.622,-2.326 11.434,-9.76 21.026,-13.716l-10.042,21.572l-10.984,0.49l0,-5.713Zm-6.252,-6.251c-0.776,0 -1.51,0.16 -2.197,0.419c-1.951,-2.384 -10.027,-10.989 -26.231,-13.999c-8.185,-13.11 -10.894,-25.032 -8.037,-35.437c2.343,-8.536 8.027,-14.283 12.041,-17.437c-0.748,7.829 -0.116,14.977 1.787,21.448c0.024,0.154 0.081,0.294 0.135,0.442c1.524,5.003 3.797,9.606 6.913,13.738c9.847,13.054 24.936,18.182 33.004,20.081c-7.856,4.619 -13.867,10.016 -15.135,11.188c-0.709,-0.279 -1.473,-0.443 -2.28,-0.443Zm-10.798,36.516c1.821,-1.316 3.322,-2.676 4.548,-3.982l0,7.209c-0.9,-0.784 -2.406,-1.968 -4.548,-3.227Zm-69.618,-19.42l21,0l-8.842,12.875c-6.279,-4.46 -10.124,-9.575 -12.158,-12.875Zm12.336,-15.808l8.326,10.791l-19.63,0c2.492,-2.889 6.368,-6.952 11.304,-10.791Zm61.83,4.963l0,5.828l-13.72,0l-7.626,-20.388c13.011,2.869 19.602,9.627 21.346,11.691l0,2.869Zm-27.054,-15.501l7.978,21.329l-11.196,0l-4.598,-21.68c0.35,-0.011 0.695,-0.031 1.046,-0.031c2.404,0 4.645,0.147 6.77,0.382Zm-12.837,0.149l4.492,21.18l-11.768,0l-10.587,-13.72c5.176,-3.429 11.223,-6.317 17.863,-7.46Zm-10.956,44.961l-0.677,-0.308c-2.267,-0.856 -4.328,-1.844 -6.234,-2.908l10.679,-15.548l10.139,0l-11.755,17.988c-0.025,0.043 -0.028,0.091 -0.052,0.135c-0.695,0.211 -1.395,0.423 -2.1,0.641Zm9.428,-2.738l10.472,-16.026l11.12,0l-8.105,13.895c-4.568,0.151 -8.964,0.957 -13.487,2.131Zm31.623,0.849c-3.344,-1.321 -7.49,-2.412 -12.416,-2.832l8.192,-14.043l14.02,0l0,6.828c-0.624,1.35 -3.212,6.18 -9.784,10.035c-0.004,0.004 -0.008,0.009 -0.012,0.012Zm-43.207,-67.02c0,-8.92 4.331,-15.896 12.867,-20.736c2.718,-1.541 5.456,-2.617 7.754,-3.355c-1.049,2.047 -1.972,4.27 -2.652,6.724c-3.004,10.862 -0.794,22.955 6.531,35.99c-1.705,-0.135 -3.467,-0.222 -5.321,-0.222c-4.178,0 -8.163,0.648 -11.92,1.746c-4.796,-6.151 -7.259,-12.918 -7.259,-20.147Zm19.464,-45.585c4.085,-5.024 9.459,-7.523 14.387,-6.672c2.356,0.408 4.368,1.549 5.93,3.294c0.023,0.03 0.051,0.05 0.074,0.078c0.597,0.68 1.133,1.442 1.589,2.298c-0.921,0.552 -1.983,1.26 -2.857,2.035c-1.482,1.319 -2.275,3.123 -2.672,4.308c-2.06,1.207 -6.954,4.433 -11.308,9.943c-1.951,0.39 -6.351,1.445 -11.192,3.72c-0.194,-4.296 0.414,-12.074 6.049,-19.004Zm46.716,-14.044c11.473,0 18.101,6.246 21.035,9.961c-5.992,-0.103 -10.623,0.84 -11.015,0.924c-0.061,0.012 -0.108,0.055 -0.168,0.073c-0.088,0.026 -0.176,0.036 -0.263,0.072c-0.052,0.022 -0.09,0.064 -0.141,0.091c-0.024,0.012 -0.044,0.029 -0.065,0.041c-0.15,0.08 -0.29,0.162 -0.416,0.266c-0.05,0.041 -0.112,0.056 -0.16,0.102c-1.376,1.324 -2.726,2.46 -4.055,3.475c-2.101,-5.377 -6.007,-8.421 -11.117,-8.421c-6.888,0 -10.895,3.493 -12.992,6.256c-0.522,-1.359 -1.16,-2.616 -1.924,-3.744c2.218,-2.81 8.589,-9.096 21.281,-9.096Zm46.057,35.345c-0.113,3.465 -1.414,6.665 -3.757,9.451c-2.817,-17.198 -14.476,-24.41 -16.932,-25.744c-0.489,-1.138 -1.159,-2.18 -2.019,-3.126c-0.282,-0.31 -0.577,-0.604 -0.886,-0.878c5.44,0.27 11.738,1.56 16.333,5.493c4.788,4.101 7.436,9.497 7.261,14.804Zm7.582,25.589c0,6.148 -3.656,12.04 -9.323,15.087c-2.711,-0.425 -5.537,-0.724 -8.48,-0.879c3.853,-4.397 7.1,-11.418 7.1,-22.626c0,-0.45 -0.044,-0.858 -0.056,-1.298c1.609,-1.332 3.016,-2.786 4.169,-4.357c2.492,2.34 6.59,7.225 6.59,14.073Zm19.445,31.722c4.507,3.008 7.96,5.984 10.276,8.226l-15.184,0.68l4.908,-8.906Zm-10.789,-5.986c2.329,1.056 4.514,2.174 6.525,3.331l-6.515,11.825l-10.804,0.482l10.794,-15.638Zm-14.73,-4.912c3.57,0.779 6.886,1.796 9.988,2.952l-12.34,17.88l-14.738,0.659l17.09,-21.491Zm-55.31,-25.474c5.198,0 9.581,-1.363 12.984,-3.016c12.505,-6.076 20.129,-19.756 20.982,-27.558c4.487,3.66 11.699,11.86 11.699,26.806c0,10.845 -3.391,18.694 -9.804,22.701c-0.015,0.008 -0.02,0.025 -0.035,0.032c-1.242,0.161 -2.484,0.42 -3.724,0.732c-0.062,0.017 -0.124,0.025 -0.185,0.049c-2.167,0.555 -4.316,1.308 -6.415,2.207l-0.906,-0.211c-0.047,-0.012 -0.091,0.004 -0.135,-0.004c-0.053,-0.01 -0.099,-0.04 -0.151,-0.046c-0.226,-0.026 -22.753,-2.771 -35.1,-19.176c-1.402,-1.864 -2.618,-3.839 -3.66,-5.918c5.312,2.452 10.162,3.402 14.45,3.402Zm-18.886,-24.444c3.872,3.237 10.047,7.376 16.548,7.614c4.228,0.139 7.958,-1.308 11.13,-4.345c8.516,-8.153 11.008,-15.239 11.725,-19.016c2.055,0.349 5.037,1.192 6.865,3.207c1.302,1.432 1.836,3.276 1.634,5.633c-0.482,5.607 -6.984,18.363 -18.226,23.824c-8.664,4.212 -18.078,3.167 -27.989,-3.072c-1.187,-4.269 -1.755,-8.887 -1.687,-13.845Zm10.655,-15.09c1.132,-1.824 3.967,-5.15 9.611,-5.15c3.893,0 5.833,3.062 6.81,6.194c-3.41,1.804 -6.649,2.543 -9.673,2.118c-2.817,-0.396 -5.081,-1.748 -6.748,-3.162Zm-8.287,2.078c0.55,-0.488 1.286,-0.982 1.983,-1.406c1.996,2.515 6.085,6.548 12.285,7.447c0.834,0.12 1.672,0.181 2.519,0.181c4.373,0 8.923,-1.648 13.589,-4.848c-1.458,3.06 -4.016,6.959 -8.533,11.283c-2.185,2.091 -4.645,3.056 -7.467,2.957c-6.956,-0.249 -14.045,-6.733 -16.322,-9.006c0.146,-1.283 0.317,-2.578 0.537,-3.898c0.087,-0.409 0.551,-1.944 1.409,-2.71Zm40.22,85.07l10.874,-23.357c1.556,-0.317 3.102,-0.508 4.612,-0.508c3.677,0 7.173,0.271 10.501,0.732l-18.116,22.78l-7.871,0.353Zm75.306,0.052c0.098,-0.288 0.149,-0.588 0.138,-0.888c0,-0.01 0.007,-0.018 0.004,-0.026c-0.001,-0.048 -0.028,-0.087 -0.032,-0.135c-0.024,-0.247 -0.082,-0.487 -0.18,-0.72c-0.042,-0.1 -0.098,-0.188 -0.154,-0.283c-0.055,-0.096 -0.088,-0.201 -0.158,-0.289c-0.685,-0.883 -14.2,-17.903 -39.829,-24.241c4.724,-4.199 7.605,-10.202 7.605,-16.434c0,-9.594 -6.098,-15.988 -9.072,-18.538c0.899,-2.187 1.407,-4.5 1.486,-6.884c0.224,-6.84 -3.059,-13.684 -9.012,-18.782c-4.298,-3.677 -9.627,-5.46 -14.704,-6.244c-0.024,-0.058 -0.02,-0.118 -0.05,-0.174c-0.328,-0.626 -8.221,-15.328 -27.305,-15.328c-13.944,0 -21.544,6.661 -24.739,10.436c-1.946,-1.51 -4.212,-2.555 -6.74,-2.992c-6.733,-1.168 -13.885,1.998 -19.13,8.452c-7.887,9.701 -7.49,20.63 -6.972,24.813c-7.055,4.512 -13.615,11.931 -13.615,23.936c0,7.859 2.452,15.215 7.292,21.915c-17.569,7.276 -29.061,23.406 -29.675,24.282c-0.084,0.119 -0.14,0.25 -0.201,0.378c-0.02,0.042 -0.045,0.078 -0.064,0.122c-0.111,0.274 -0.16,0.558 -0.171,0.85c-0.001,0.032 -0.017,0.057 -0.017,0.089c0,0.035 0.017,0.065 0.02,0.099c0.009,0.285 0.052,0.568 0.16,0.838c0.003,0.004 0.012,0.024 0.015,0.031c0.001,0.005 0.004,0.012 0.005,0.016c0.369,0.903 6.168,14.451 22.441,22.509c-9.741,2.826 -20.93,5.391 -35.504,5.391c-1.384,0 -2.508,1.124 -2.508,2.509c0,1.386 1.124,2.508 2.508,2.508c18.844,0 32.106,-4.073 43.806,-7.669c8.492,-2.608 15.822,-4.861 23.448,-4.861c15.808,0 23.736,8.085 23.86,8.212l5.266,5.265c0.49,0.489 1.132,0.735 1.772,0.735c0.643,0 1.287,-0.246 1.776,-0.735c0.978,-0.979 0.978,-2.568 -0.002,-3.545l-1.192,-1.192l0,-38.447c0,-0.681 0.554,-1.237 1.234,-1.237c0.683,0 1.235,0.556 1.235,1.237l0,36.583c0,1.386 1.123,2.508 2.509,2.508c1.386,0 2.508,-1.122 2.508,-2.508l0,-10.296c1.694,1.806 3.906,3.722 6.772,5.466c1.187,0.716 2.727,0.344 3.448,-0.841c0.718,-1.184 0.343,-2.725 -0.841,-3.447c-6.201,-3.77 -8.759,-8.484 -9.379,-9.8l0,-6.929l11.354,-0.509l5.476,17.386c0.337,1.072 1.326,1.754 2.392,1.754c0.248,0 0.502,-0.036 0.754,-0.115c1.32,-0.415 2.052,-1.823 1.638,-3.148l-5.074,-16.108l7.784,-0.349l9.03,16.142c0.458,0.822 1.313,1.284 2.193,1.284c0.415,0 0.835,-0.102 1.221,-0.318c1.211,-0.676 1.64,-2.206 0.966,-3.415l-7.802,-13.944l15.95,-0.712l11.242,18.352c-0.636,0.288 -1.264,0.581 -1.916,0.852c-1.28,0.532 -1.886,1.999 -1.354,3.279c0.4,0.962 1.334,1.545 2.317,1.545c0.317,0 0.647,-0.06 0.957,-0.191c1.658,-0.688 3.238,-1.434 4.782,-2.206c0.042,-0.023 0.089,-0.034 0.13,-0.058c0.011,-0.005 0.016,-0.017 0.027,-0.024c18.536,-9.317 29.076,-23.893 29.552,-24.561c0.088,-0.123 0.131,-0.263 0.195,-0.396c0.04,-0.085 0.092,-0.161 0.124,-0.255Z" style="fill:#fff;fill-rule:nonzero;"/><path d="M73.999,210.312c-14.742,-18.979 -40.235,-14.112 -41.312,-13.9c-1.359,0.273 -2.24,1.596 -1.967,2.955c0.272,1.356 1.603,2.234 2.952,1.964c0.236,-0.043 23.509,-4.491 36.365,12.058c1.104,1.422 2.372,2.786 3.763,4.054c0.481,0.44 1.088,0.656 1.689,0.656c0.683,0 1.362,-0.276 1.856,-0.82c0.931,-1.022 0.859,-2.61 -0.164,-3.54c-1.182,-1.079 -2.253,-2.234 -3.182,-3.427Z" style="fill:#fff;fill-rule:nonzero;"/><path d="M180.273,195.021l-0.682,-0.669c-1.628,-1.625 -19.395,-19.392 -32.879,-32.873c-0.98,-0.979 -2.567,-0.979 -3.547,0c-0.98,0.978 -0.98,2.566 0,3.545c13.483,13.487 31.255,31.255 32.88,32.876l0.72,0.708c2.579,2.524 9.431,9.225 9.459,14.267c0.007,1.245 -0.423,2.258 -1.355,3.189c-1.349,1.351 -2.842,1.955 -4.4,1.979c-3.462,-0.038 -6.709,-3.002 -7.406,-3.68c-1.444,-1.507 -2.91,-2.81 -4.04,-3.808c-0.5,-0.442 -0.906,-0.799 -1.159,-1.05l-10.841,-10.841l-3.547,3.548l10.843,10.841c0.302,0.303 0.782,0.732 1.378,1.26c2.336,2.064 7.808,6.9 7.92,10.55c0.024,0.905 -0.313,1.677 -1.065,2.432c-1.159,1.156 -2.341,1.704 -3.611,1.629c-2.581,-0.117 -5.192,-2.611 -5.981,-3.557c-0.004,-0.006 -0.009,-0.007 -0.013,-0.012c-0.696,-0.919 -1.475,-1.848 -2.428,-2.802l-13.046,-13.05l-3.545,3.548l13.045,13.052c2.124,2.121 3.414,4.057 3.827,5.749c0.415,1.697 -0.063,3.115 -1.549,4.599c-2.472,2.472 -6.156,0.688 -7.404,-0.034c-0.604,-1.025 -1.323,-2.006 -2.202,-2.884c-3.03,-3.032 -10.804,-11.782 -10.881,-11.87c-0.921,-1.039 -2.507,-1.134 -3.54,-0.211c-1.037,0.919 -1.132,2.504 -0.211,3.541c0.323,0.364 7.948,8.952 11.087,12.088c1.292,1.292 2.172,2.914 2.413,4.447c0.259,1.637 -0.206,3.021 -1.414,4.233c-0.502,0.502 -1.072,0.682 -1.816,0.716c-1.682,-0.012 -5.644,-1.205 -13.251,-9.056c-0.964,-0.996 -2.551,-1.016 -3.545,-0.056c-0.996,0.966 -1.02,2.554 -0.058,3.548c6.867,7.086 12.367,10.547 16.816,10.58c0.022,0 0.044,0 0.066,0c2.058,0 3.901,-0.753 5.333,-2.186c1.916,-1.915 2.917,-4.32 2.933,-6.895c0.838,0.183 1.708,0.301 2.598,0.301c2.262,0 4.617,-0.706 6.622,-2.714c1.979,-1.979 3.032,-4.235 3.139,-6.632c0.867,0.29 1.772,0.52 2.743,0.568c0.15,0.008 0.301,0.012 0.449,0.012c2.533,0 4.935,-1.068 6.971,-3.107c1.726,-1.723 2.601,-3.845 2.53,-6.132c-0.02,-0.628 -0.12,-1.249 -0.269,-1.868c0.657,0.127 1.331,0.209 2.023,0.219c0.05,0 0.102,0 0.154,0c2.94,0 5.591,-1.159 7.88,-3.448c1.887,-1.886 2.838,-4.163 2.823,-6.764c-0.04,-7.134 -7.696,-14.627 -10.967,-17.826Z" style="fill:#fff;fill-rule:nonzero;"/><path d="M129.407,233.816c-2.712,6.76 -11.506,15.388 -15.679,15.388c-0.529,0 -0.775,-0.159 -0.979,-0.393c-1.918,-2.204 1.288,-8.287 7.798,-14.786c2.918,-2.916 5.798,-4.657 7.697,-4.657c0.648,0 1.147,0.2 1.62,0.656c0.372,0.353 0.385,1.692 -0.457,3.792Zm-31.644,7.955c-3.142,-3.139 2.621,-11.716 9.722,-18.826c1.066,-1.065 2.475,-2.472 4.004,-3.818c0.064,-0.063 0.146,-0.096 0.204,-0.17c0.008,-0.009 0.015,-0.017 0.023,-0.028c2.521,-2.192 5.339,-4.17 7.488,-4.17c0.748,0 1.34,0.258 1.919,0.84c0.926,0.932 1.356,1.936 1.352,3.166c-0.019,4.912 -6.82,11.652 -9.724,14.531l-0.703,0.695c-0.355,0.357 -0.74,0.753 -1.153,1.176c-2.786,2.86 -7.448,7.645 -10.847,7.645c-0.849,-0.003 -1.576,-0.332 -2.285,-1.041Zm-11.536,-9.586c-2.918,-2.917 2.542,-11.004 9.248,-17.72c6.708,-6.697 10.821,-8.646 13.341,-6.314c0.951,0.878 2.9,2.698 -0.807,7.374c-1.376,1.224 -2.737,2.538 -4.07,3.872c-3.028,3.03 -6.756,7.214 -9.272,11.536c-2.104,1.77 -5.715,3.975 -8.44,1.252Zm-9.204,-10.382c-1.279,-1.276 0.158,-4.206 1.129,-5.839c1.887,-3.175 4.793,-6.272 6.355,-7.835l0.644,-0.645c2.113,-2.131 5.657,-5.693 7.8,-5.693c0.27,0 0.605,0.053 1.034,0.462c0.444,0.422 0.644,0.915 0.652,1.6c0.039,3.088 -3.708,8.231 -7.437,11.96l-0.893,0.911c-1.944,1.995 -5.564,5.711 -7.936,5.709c-0.335,0 -0.791,-0.07 -1.348,-0.63Zm51.221,2.549c-0.767,0 -1.529,0.14 -2.288,0.335c0.927,-1.932 1.527,-3.927 1.535,-5.906c0.008,-2.576 -0.938,-4.837 -2.811,-6.72c-1.511,-1.517 -3.403,-2.32 -5.476,-2.32c-1.332,0 -2.669,0.326 -4.001,0.88c-0.075,-2.857 -1.639,-4.914 -2.982,-6.154c-3.997,-3.696 -8.614,-2.488 -12.601,-0.018c0.015,-0.22 0.036,-0.44 0.035,-0.657c-0.024,-2.031 -0.79,-3.82 -2.21,-5.171c-1.27,-1.209 -2.825,-1.848 -4.494,-1.848c-4.232,0 -8.186,3.979 -11.359,7.176l-0.631,0.632c-1.728,1.73 -4.954,5.175 -7.121,8.82c-3.796,6.383 -2.293,10.022 -0.365,11.95c1.374,1.372 3.068,2.098 4.896,2.098c0.842,0 1.673,-0.192 2.49,-0.461c-0.901,3.235 -0.614,6.311 1.82,8.744c1.84,1.84 4.062,2.752 6.455,2.749c0.917,0 1.863,-0.15 2.817,-0.417c-0.361,2.681 0.2,5.193 2.263,7.253c1.664,1.666 3.627,2.508 5.832,2.511c2.529,0 5.025,-1.164 7.333,-2.773c-0.537,2.542 -0.21,4.986 1.582,7.049c1.204,1.384 2.85,2.117 4.765,2.117c7.359,0 17.407,-11.245 20.335,-18.537c2.058,-5.128 0.74,-7.881 -0.73,-9.285c-1.4,-1.342 -3.16,-2.047 -5.089,-2.047Z" style="fill:#241f1f;fill-rule:nonzero;"/><path d="M113.943,176.163c0,-10.938 17.184,-23.404 25.445,-29.394c1.789,-1.301 3.204,-2.324 4.149,-3.108c5.671,-4.693 17.59,-7.494 31.884,-7.494c11.032,0 20.146,5.088 25.846,9.354c7.152,5.362 29.741,5.447 32.228,5.451c1.385,-0.004 2.505,-1.127 2.501,-2.512c-0.004,-1.384 -1.125,-2.504 -2.508,-2.504c-0.1,-0.001 -0.159,0 -0.239,0c-9.008,0 -24.634,-1.196 -28.974,-4.451c-6.312,-4.725 -16.442,-10.356 -28.854,-10.356c-15.657,0 -28.442,3.151 -35.08,8.647c-0.825,0.68 -2.249,1.716 -3.901,2.912c-9.589,6.956 -27.415,19.887 -27.513,33.343c-0.115,1.418 -0.93,13.678 4.609,19.744c2.1,2.301 4.795,3.466 8.005,3.466c2.828,0 5.111,-0.892 6.791,-2.656c3.612,-3.792 3.284,-10.514 3.024,-15.914c-0.103,-2.103 -0.243,-4.98 0.028,-5.606c2.923,-3.758 9.252,-9.324 13.556,-9.324c1.384,0 2.508,-1.124 2.508,-2.509c0,-1.384 -1.124,-2.508 -2.508,-2.508c-7.188,0 -15.084,8.129 -17.515,11.261c-1.425,1.828 -1.281,4.806 -1.08,8.93c0.204,4.209 0.484,9.976 -1.645,12.209c-0.449,0.472 -1.268,1.101 -3.159,1.101c-1.789,0 -3.156,-0.581 -4.297,-1.828c-3.544,-3.874 -3.592,-12.884 -3.311,-16.03c0.006,-0.074 0.01,-0.15 0.01,-0.224Z" style="fill:#241f1f;fill-rule:nonzero;"/></g></svg>