<?xml version="1.0" encoding="UTF-8" standalone="no"?>
<!DOCTYPE svg PUBLIC "-//W3C//DTD SVG 1.1//EN" "http://www.w3.org/Graphics/SVG/1.1/DTD/svg11.dtd">
<svg width="100%" height="100%" viewBox="0 0 900 900" version="1.1" xmlns="http://www.w3.org/2000/svg" xmlns:xlink="http://www.w3.org/1999/xlink" xml:space="preserve" xmlns:serif="http://www.serif.com/" style="fill-rule:evenodd;clip-rule:evenodd;stroke-linejoin:round;stroke-miterlimit:1.41421;">
    <g id="Facebook" transform="matrix(1,0,0,1,2.08007,4.35567)">
        <path d="M810.601,197.109C810.601,175.408 803.006,156.962 787.815,141.771C772.624,126.58 754.177,118.984 732.476,118.984L159.559,118.984C137.858,118.984 119.412,126.58 104.221,141.771C89.03,156.962 81.434,175.408 81.434,197.109L81.434,770.026C81.434,791.727 89.03,810.173 104.221,825.364C119.412,840.555 137.858,848.151 159.559,848.151L480.197,848.151L480.197,560.065L380.914,560.065L380.914,449.388L480.197,449.388L480.197,368.008C480.197,322.435 492.947,286.899 518.446,261.4C543.945,235.9 578.396,223.151 621.799,223.151C655.436,223.151 683.648,224.778 706.434,228.034L706.434,325.69L647.841,325.69C627.224,325.69 612.576,330.573 603.895,340.338C597.385,349.019 594.13,362.04 594.13,379.401L594.13,449.388L706.434,449.388L691.786,560.065L594.13,560.065L594.13,848.151L732.476,848.151C754.177,848.151 772.624,840.555 787.815,825.364C803.006,810.173 810.601,791.727 810.601,770.026L810.601,197.109Z" style="fill:white;fill-rule:nonzero;"/>
    </g>
</svg>
