<?xml version="1.0" encoding="UTF-8" standalone="no"?>
<!DOCTYPE svg PUBLIC "-//W3C//DTD SVG 1.1//EN" "http://www.w3.org/Graphics/SVG/1.1/DTD/svg11.dtd">
<svg width="100%" height="100%" viewBox="0 0 900 900" version="1.1" xmlns="http://www.w3.org/2000/svg" xmlns:xlink="http://www.w3.org/1999/xlink" xml:space="preserve" xmlns:serif="http://www.serif.com/" style="fill-rule:evenodd;clip-rule:evenodd;stroke-linejoin:round;stroke-miterlimit:1.41421;">
    <g transform="matrix(1.41933,0,0,1.41933,449.28,487.653)">
        <g id="globe-americas" transform="matrix(1,0,0,1,-248,-256)">
            <path d="M248,8C111.03,8 0,119.03 0,256C0,392.97 111.03,504 248,504C384.97,504 496,392.97 496,256C496,119.03 384.97,8 248,8ZM330.29,365.6C326.39,369.48 322.3,373.55 318.98,376.88C315.99,379.88 313.88,383.58 312.81,387.59C311.3,393.25 310.08,398.97 308.04,404.46L290.65,451.31C276.89,454.31 262.65,456 248,456L248,428.62C249.69,416 240.36,392.36 225.37,377.37C219.37,371.37 216,363.23 216,354.74L216,322.73C216,311.09 209.73,300.39 199.54,294.76C185.17,286.81 164.73,275.7 150.73,268.65C139.25,262.87 128.63,255.51 119.08,246.9L118.28,246.18C111.451,240.015 105.387,233.052 100.22,225.44C90.84,211.67 75.56,189.02 65.63,174.3C86.1,128.8 122.99,92.26 168.83,72.41L192.84,84.42C203.48,89.74 216,82.01 216,70.11L216,58.81C223.99,57.52 232.12,56.7 240.39,56.39L268.69,84.69C274.94,90.94 274.94,101.07 268.69,107.32L264,112L253.66,122.34C250.54,125.46 250.54,130.53 253.66,133.65L258.35,138.34C261.47,141.46 261.47,146.53 258.35,149.65L250.35,157.65C248.849,159.149 246.811,159.991 244.69,159.99L235.7,159.99C233.62,159.99 231.62,160.8 230.12,162.26L220.2,171.91C217.712,174.333 217.07,178.112 218.62,181.22L234.21,212.41C236.87,217.73 233,223.99 227.06,223.99L221.42,223.99C219.49,223.99 217.63,223.29 216.18,222.03L206.9,213.97C202.633,210.268 196.711,209.087 191.35,210.87L160.18,221.26C155.312,222.883 152.008,227.469 152.01,232.6C152.01,237.13 154.57,241.26 158.62,243.29L169.7,248.83C179.11,253.54 189.49,255.99 200.01,255.99C210.53,255.99 222.6,283.28 232.01,287.99L298.76,287.99C307.25,287.99 315.38,291.36 321.39,297.36L335.08,311.05C340.797,316.769 344.011,324.533 344.01,332.62C344.006,344.996 339.065,356.873 330.29,365.6ZM417,274.25C411.21,272.8 406.16,269.25 402.85,264.28L384.87,237.31C379.501,229.268 379.501,218.732 384.87,210.69L404.46,181.31C406.78,177.84 409.96,175.02 413.7,173.16L426.68,166.67C440.2,193.59 448,223.87 448,256C448,264.67 447.26,273.16 446.18,281.54L417,274.25Z" style="fill:white;fill-rule:nonzero;"/>
        </g>
    </g>
</svg>
