<?xml version="1.0" encoding="UTF-8" standalone="no"?>
<!DOCTYPE svg PUBLIC "-//W3C//DTD SVG 1.1//EN" "http://www.w3.org/Graphics/SVG/1.1/DTD/svg11.dtd">
<svg width="100%" height="100%" viewBox="0 0 900 900" version="1.1" xmlns="http://www.w3.org/2000/svg" xmlns:xlink="http://www.w3.org/1999/xlink" xml:space="preserve" xmlns:serif="http://www.serif.com/" style="fill-rule:evenodd;clip-rule:evenodd;stroke-linejoin:round;stroke-miterlimit:1.41421;">
    <g id="Twitter" transform="matrix(0.872873,0,0,0.872873,58.4021,68.5544)">
        <path d="M776.421,314.297C810.059,289.34 838.813,259.501 862.684,224.778C830.132,238.884 797.58,248.107 765.028,252.448C801.92,229.661 826.877,198.194 839.898,158.047C806.261,177.578 769.911,191.141 730.848,198.737C714.572,182.461 695.855,169.44 674.696,159.674C653.537,149.909 630.479,145.026 605.523,145.026C575.141,145.026 546.929,152.621 520.887,167.812C494.846,183.003 474.229,203.891 459.039,230.475C443.848,257.059 436.252,285.542 436.252,315.924C436.252,328.945 437.337,341.966 439.507,354.987C370.063,351.732 304.687,334.37 243.381,302.903C182.075,271.436 130.262,229.119 87.945,175.95C71.669,203.077 63.531,231.56 63.531,261.4C63.531,291.239 70.584,318.637 84.69,343.594C98.795,368.55 117.242,389.167 140.028,405.443C112.901,404.357 87.402,396.762 63.531,382.656L63.531,385.911C63.531,426.059 76.552,461.866 102.593,493.333C128.635,524.8 161.187,544.874 200.249,553.555C185.059,556.81 169.868,558.437 154.677,558.437C144.911,558.437 134.603,557.895 123.752,556.81C134.603,590.447 154.405,618.387 183.16,640.631C211.914,662.875 245.28,673.997 283.257,673.997C220.323,722.825 149.251,747.239 70.041,747.239C54.85,747.239 41.287,746.697 29.351,745.612C108.561,796.61 195.909,822.109 291.395,822.109C391.222,822.109 479.655,796.61 556.695,745.612C627.224,700.039 682.02,638.732 721.083,561.693C759.06,488.993 778.049,413.581 778.049,335.456C778.049,325.69 777.506,318.637 776.421,314.297Z" style="fill:white;fill-rule:nonzero;"/>
    </g>
</svg>
