<?xml version="1.0" encoding="UTF-8" standalone="no"?><!DOCTYPE svg PUBLIC "-//W3C//DTD SVG 1.1//EN" "http://www.w3.org/Graphics/SVG/1.1/DTD/svg11.dtd"><svg width="100%" height="100%" viewBox="0 0 1005 1005" version="1.1" xmlns="http://www.w3.org/2000/svg" xmlns:xlink="http://www.w3.org/1999/xlink" xml:space="preserve" xmlns:serif="http://www.serif.com/" style="fill-rule:evenodd;clip-rule:evenodd;stroke-linejoin:round;stroke-miterlimit:1.41421;"><g><path d="M976.5,98.7c-7.456,0 -13.5,6.044 -13.5,13.5l27,0c0,-7.456 -6.044,-13.5 -13.5,-13.5Z" style="fill:#fff;fill-rule:nonzero;"/><path d="M920.7,98.7c-7.456,0 -13.5,6.044 -13.5,13.5l27,0c0,-7.456 -6.044,-13.5 -13.5,-13.5Z" style="fill:#fff;fill-rule:nonzero;"/><path d="M1004.4,42.9c-7.456,0 -13.5,6.044 -13.5,13.5c0,7.457 6.044,13.5 13.5,13.5l0,-27Z" style="fill:#fff;fill-rule:nonzero;"/><path d="M962.1,56.4c0,-7.456 -6.044,-13.5 -13.5,-13.5c-7.456,0 -13.5,6.044 -13.5,13.5c0,7.457 6.044,13.5 13.5,13.5c7.456,0 13.5,-6.043 13.5,-13.5Z" style="fill:#fff;fill-rule:nonzero;"/><path d="M892.8,69.9c7.456,0 13.5,-6.043 13.5,-13.5c0,-7.456 -6.044,-13.5 -13.5,-13.5l0,27Z" style="fill:#fff;fill-rule:nonzero;"/><path d="M963,0.601c0,7.455 6.044,13.5 13.5,13.5c7.456,0 13.5,-6.045 13.5,-13.5l-27,0Z" style="fill:#fff;fill-rule:nonzero;"/><path d="M907.2,0.601c0,7.455 6.044,13.5 13.5,13.5c7.456,0 13.5,-6.045 13.5,-13.5l-27,0Z" style="fill:#fff;fill-rule:nonzero;"/><path d="M976.5,210.299c-7.456,0 -13.5,6.045 -13.5,13.5l27,0c0,-7.455 -6.044,-13.5 -13.5,-13.5Z" style="fill:#fff;fill-rule:nonzero;"/><path d="M920.7,210.299c-7.456,0 -13.5,6.045 -13.5,13.5l27,0c0,-7.455 -6.044,-13.5 -13.5,-13.5Z" style="fill:#fff;fill-rule:nonzero;"/><path d="M1004.4,154.501c-7.456,0 -13.5,6.044 -13.5,13.5c0,7.455 6.044,13.5 13.5,13.5l0,-27Z" style="fill:#fff;fill-rule:nonzero;"/><path d="M962.1,168.001c0,-7.456 -6.044,-13.5 -13.5,-13.5c-7.456,0 -13.5,6.044 -13.5,13.5c0,7.455 6.044,13.5 13.5,13.5c7.456,0 13.5,-6.045 13.5,-13.5Z" style="fill:#fff;fill-rule:nonzero;"/><path d="M892.8,154.501l0,27c7.456,0 13.5,-6.045 13.5,-13.5c0,-7.456 -6.044,-13.5 -13.5,-13.5Z" style="fill:#fff;fill-rule:nonzero;"/><path d="M963,112.2c0,7.456 6.044,13.5 13.5,13.5c7.456,0 13.5,-6.044 13.5,-13.5l-27,0Z" style="fill:#fff;fill-rule:nonzero;"/><path d="M907.2,112.2c0,7.456 6.044,13.5 13.5,13.5c7.456,0 13.5,-6.044 13.5,-13.5l-27,0Z" style="fill:#fff;fill-rule:nonzero;"/><path d="M976.5,321.9c-7.456,0 -13.5,6.044 -13.5,13.5l27,0c0,-7.456 -6.044,-13.5 -13.5,-13.5Z" style="fill:#fff;fill-rule:nonzero;"/><path d="M920.7,321.9c-7.456,0 -13.5,6.044 -13.5,13.5l27,0c0,-7.456 -6.044,-13.5 -13.5,-13.5Z" style="fill:#fff;fill-rule:nonzero;"/><path d="M1004.4,266.1c-7.456,0 -13.5,6.044 -13.5,13.5c0,7.455 6.044,13.5 13.5,13.5l0,-27Z" style="fill:#fff;fill-rule:nonzero;"/><path d="M948.6,266.1c-7.456,0 -13.5,6.044 -13.5,13.5c0,7.455 6.044,13.5 13.5,13.5c7.456,0 13.5,-6.045 13.5,-13.5c0,-7.456 -6.044,-13.5 -13.5,-13.5Z" style="fill:#fff;fill-rule:nonzero;"/><path d="M892.8,266.1l0,27c7.456,0 13.5,-6.045 13.5,-13.5c0,-7.456 -6.044,-13.5 -13.5,-13.5Z" style="fill:#fff;fill-rule:nonzero;"/><path d="M963,223.799c0,7.457 6.044,13.5 13.5,13.5c7.456,0 13.5,-6.043 13.5,-13.5l-27,0Z" style="fill:#fff;fill-rule:nonzero;"/><path d="M907.2,223.799c0,7.457 6.044,13.5 13.5,13.5c7.456,0 13.5,-6.043 13.5,-13.5l-27,0Z" style="fill:#fff;fill-rule:nonzero;"/><path d="M976.5,433.501c-7.456,0 -13.5,6.043 -13.5,13.499l27,0c0,-7.456 -6.044,-13.499 -13.5,-13.499Z" style="fill:#fff;fill-rule:nonzero;"/><path d="M920.7,433.501c-7.456,0 -13.5,6.043 -13.5,13.499l27,0c0,-7.456 -6.044,-13.499 -13.5,-13.499Z" style="fill:#fff;fill-rule:nonzero;"/><path d="M1004.4,377.7c-7.456,0 -13.5,6.045 -13.5,13.5c0,7.456 6.044,13.5 13.5,13.5l0,-27Z" style="fill:#fff;fill-rule:nonzero;"/><path d="M948.6,377.7c-7.456,0 -13.5,6.045 -13.5,13.5c0,7.456 6.044,13.5 13.5,13.5c7.456,0 13.5,-6.044 13.5,-13.5c0,-7.455 -6.044,-13.5 -13.5,-13.5Z" style="fill:#fff;fill-rule:nonzero;"/><path d="M892.8,377.7l0,27c7.456,0 13.5,-6.044 13.5,-13.5c0,-7.455 -6.044,-13.5 -13.5,-13.5Z" style="fill:#fff;fill-rule:nonzero;"/><path d="M963,335.4c0,7.456 6.044,13.5 13.5,13.5c7.456,0 13.5,-6.044 13.5,-13.5l-27,0Z" style="fill:#fff;fill-rule:nonzero;"/><path d="M907.2,335.4c0,7.456 6.044,13.5 13.5,13.5c7.456,0 13.5,-6.044 13.5,-13.5l-27,0Z" style="fill:#fff;fill-rule:nonzero;"/><path d="M976.5,545.1c-7.456,0 -13.5,6.044 -13.5,13.5l27,0c0,-7.456 -6.044,-13.5 -13.5,-13.5Z" style="fill:#fff;fill-rule:nonzero;"/><path d="M920.7,545.1c-7.456,0 -13.5,6.044 -13.5,13.5l27,0c0,-7.456 -6.044,-13.5 -13.5,-13.5Z" style="fill:#fff;fill-rule:nonzero;"/><path d="M1004.4,489.299c-7.456,0 -13.5,6.045 -13.5,13.5c0,7.457 6.044,13.5 13.5,13.5l0,-27Z" style="fill:#fff;fill-rule:nonzero;"/><path d="M948.6,489.299c-7.456,0 -13.5,6.045 -13.5,13.5c0,7.457 6.044,13.5 13.5,13.5c7.456,0 13.5,-6.043 13.5,-13.5c0,-7.455 -6.044,-13.5 -13.5,-13.5Z" style="fill:#fff;fill-rule:nonzero;"/><path d="M892.8,489.299l0,27c7.456,0 13.5,-6.043 13.5,-13.5c0,-7.455 -6.044,-13.5 -13.5,-13.5Z" style="fill:#fff;fill-rule:nonzero;"/><path d="M963,447.001c0,7.455 6.044,13.5 13.5,13.5c7.456,0 13.5,-6.045 13.5,-13.5l0,-0.001l-27,0l0,0.001Z" style="fill:#fff;fill-rule:nonzero;"/><path d="M907.2,447.001c0,7.455 6.044,13.5 13.5,13.5c7.456,0 13.5,-6.045 13.5,-13.5l0,-0.001l-27,0l0,0.001Z" style="fill:#fff;fill-rule:nonzero;"/><path d="M976.5,656.7c-7.456,0 -13.5,6.045 -13.5,13.5l27,0c0,-7.455 -6.044,-13.5 -13.5,-13.5Z" style="fill:#fff;fill-rule:nonzero;"/><path d="M920.7,656.7c-7.456,0 -13.5,6.045 -13.5,13.5l27,0c0,-7.455 -6.044,-13.5 -13.5,-13.5Z" style="fill:#fff;fill-rule:nonzero;"/><path d="M1004.4,600.9c-7.456,0 -13.5,6.044 -13.5,13.5c0,7.456 6.044,13.5 13.5,13.5l0,-27Z" style="fill:#fff;fill-rule:nonzero;"/><path d="M948.6,600.9c-7.456,0 -13.5,6.044 -13.5,13.5c0,7.456 6.044,13.5 13.5,13.5c7.456,0 13.5,-6.044 13.5,-13.5c0,-7.456 -6.044,-13.5 -13.5,-13.5Z" style="fill:#fff;fill-rule:nonzero;"/><path d="M906.3,614.4c0,-7.456 -6.044,-13.5 -13.5,-13.5l0,27c7.456,0 13.5,-6.044 13.5,-13.5Z" style="fill:#fff;fill-rule:nonzero;"/><path d="M963,558.6c0,7.455 6.044,13.5 13.5,13.5c7.456,0 13.5,-6.045 13.5,-13.5l-27,0Z" style="fill:#fff;fill-rule:nonzero;"/><path d="M907.2,558.6c0,7.455 6.044,13.5 13.5,13.5c7.456,0 13.5,-6.045 13.5,-13.5l-27,0Z" style="fill:#fff;fill-rule:nonzero;"/><path d="M976.5,768.299c-7.456,0 -13.5,6.045 -13.5,13.5l27,0c0,-7.455 -6.044,-13.5 -13.5,-13.5Z" style="fill:#fff;fill-rule:nonzero;"/><path d="M920.7,768.299c-7.456,0 -13.5,6.045 -13.5,13.5l27,0c0,-7.455 -6.044,-13.5 -13.5,-13.5Z" style="fill:#fff;fill-rule:nonzero;"/><path d="M1004.4,712.501c-7.456,0 -13.5,6.043 -13.5,13.5c0,7.455 6.044,13.5 13.5,13.5l0,-27Z" style="fill:#fff;fill-rule:nonzero;"/><path d="M935.1,726.001c0,7.455 6.044,13.5 13.5,13.5c7.456,0 13.5,-6.045 13.5,-13.5c0,-7.457 -6.044,-13.5 -13.5,-13.5c-7.456,0 -13.5,6.043 -13.5,13.5Z" style="fill:#fff;fill-rule:nonzero;"/><path d="M906.3,726.001c0,-7.457 -6.044,-13.5 -13.5,-13.5l0,27c7.456,0 13.5,-6.045 13.5,-13.5Z" style="fill:#fff;fill-rule:nonzero;"/><path d="M963,670.2c0,7.456 6.044,13.5 13.5,13.5c7.456,0 13.5,-6.044 13.5,-13.5l-27,0Z" style="fill:#fff;fill-rule:nonzero;"/><path d="M907.2,670.2c0,7.456 6.044,13.5 13.5,13.5c7.456,0 13.5,-6.044 13.5,-13.5l-27,0Z" style="fill:#fff;fill-rule:nonzero;"/><path d="M976.5,879.9c-7.456,0 -13.5,6.044 -13.5,13.5l27,0c0,-7.456 -6.044,-13.5 -13.5,-13.5Z" style="fill:#fff;fill-rule:nonzero;"/><path d="M920.7,879.9c-7.456,0 -13.5,6.044 -13.5,13.5l27,0c0,-7.456 -6.044,-13.5 -13.5,-13.5Z" style="fill:#fff;fill-rule:nonzero;"/><path d="M1004.4,824.1c-7.456,0 -13.5,6.044 -13.5,13.5c0,7.455 6.044,13.5 13.5,13.5l0,-27Z" style="fill:#fff;fill-rule:nonzero;"/><path d="M935.1,837.6c0,7.455 6.044,13.5 13.5,13.5c7.456,0 13.5,-6.045 13.5,-13.5c0,-7.456 -6.044,-13.5 -13.5,-13.5c-7.456,0 -13.5,6.044 -13.5,13.5Z" style="fill:#fff;fill-rule:nonzero;"/><path d="M906.3,837.6c0,-7.456 -6.044,-13.5 -13.5,-13.5l0,27c7.456,0 13.5,-6.045 13.5,-13.5Z" style="fill:#fff;fill-rule:nonzero;"/><path d="M963,781.799c0,7.457 6.044,13.5 13.5,13.5c7.456,0 13.5,-6.043 13.5,-13.5l-27,0Z" style="fill:#fff;fill-rule:nonzero;"/><path d="M907.2,781.799c0,7.457 6.044,13.5 13.5,13.5c7.456,0 13.5,-6.043 13.5,-13.5l-27,0Z" style="fill:#fff;fill-rule:nonzero;"/><path d="M976.5,991.501c-7.456,0 -13.5,6.043 -13.5,13.499l27,0c0,-7.456 -6.044,-13.499 -13.5,-13.499Z" style="fill:#fff;fill-rule:nonzero;"/><path d="M920.7,991.501c-7.456,0 -13.5,6.043 -13.5,13.499l27,0c0,-7.456 -6.044,-13.499 -13.5,-13.499Z" style="fill:#fff;fill-rule:nonzero;"/><path d="M1004.4,935.7c-7.456,0 -13.5,6.045 -13.5,13.5c0,7.456 6.044,13.5 13.5,13.5l0,-27Z" style="fill:#fff;fill-rule:nonzero;"/><path d="M935.1,949.2c0,7.456 6.044,13.5 13.5,13.5c7.456,0 13.5,-6.044 13.5,-13.5c0,-7.455 -6.044,-13.5 -13.5,-13.5c-7.456,0 -13.5,6.045 -13.5,13.5Z" style="fill:#fff;fill-rule:nonzero;"/><path d="M906.3,949.2c0,-7.455 -6.044,-13.5 -13.5,-13.5l0,27c7.456,0 13.5,-6.044 13.5,-13.5Z" style="fill:#fff;fill-rule:nonzero;"/><path d="M963,893.4c0,7.456 6.044,13.5 13.5,13.5c7.456,0 13.5,-6.044 13.5,-13.5l-27,0Z" style="fill:#fff;fill-rule:nonzero;"/><path d="M907.2,893.4c0,7.456 6.044,13.5 13.5,13.5c7.456,0 13.5,-6.044 13.5,-13.5l-27,0Z" style="fill:#fff;fill-rule:nonzero;"/><path d="M864.9,98.7c-7.456,0 -13.5,6.044 -13.5,13.5l27,0c0,-7.456 -6.045,-13.5 -13.5,-13.5Z" style="fill:#fff;fill-rule:nonzero;"/><path d="M809.1,98.7c-7.456,0 -13.5,6.044 -13.5,13.5l27,0c0,-7.456 -6.044,-13.5 -13.5,-13.5Z" style="fill:#fff;fill-rule:nonzero;"/><path d="M892.8,42.9c-7.456,0 -13.5,6.044 -13.5,13.5c0,7.457 6.044,13.5 13.5,13.5l0,-27Z" style="fill:#fff;fill-rule:nonzero;"/><path d="M850.5,56.4c0,-7.456 -6.044,-13.5 -13.5,-13.5c-7.456,0 -13.5,6.044 -13.5,13.5c0,7.457 6.044,13.5 13.5,13.5c7.456,0 13.5,-6.043 13.5,-13.5Z" style="fill:#fff;fill-rule:nonzero;"/><path d="M781.2,69.9c7.456,0 13.5,-6.043 13.5,-13.5c0,-7.456 -6.044,-13.5 -13.5,-13.5l0,27Z" style="fill:#fff;fill-rule:nonzero;"/><path d="M864.9,14.101c7.455,0 13.5,-6.045 13.5,-13.5l-27,0c0,7.455 6.044,13.5 13.5,13.5Z" style="fill:#fff;fill-rule:nonzero;"/><path d="M809.1,14.101c7.456,0 13.5,-6.045 13.5,-13.5l-27,0c0,7.455 6.044,13.5 13.5,13.5Z" style="fill:#fff;fill-rule:nonzero;"/><path d="M864.9,210.299c-7.456,0 -13.5,6.045 -13.5,13.5l27,0c0,-7.455 -6.045,-13.5 -13.5,-13.5Z" style="fill:#fff;fill-rule:nonzero;"/><path d="M809.1,210.299c-7.456,0 -13.5,6.045 -13.5,13.5l27,0c0,-7.455 -6.044,-13.5 -13.5,-13.5Z" style="fill:#fff;fill-rule:nonzero;"/><path d="M892.8,154.501c-7.456,0 -13.5,6.044 -13.5,13.5c0,7.455 6.044,13.5 13.5,13.5l0,-27Z" style="fill:#fff;fill-rule:nonzero;"/><path d="M850.5,168.001c0,-7.456 -6.044,-13.5 -13.5,-13.5c-7.456,0 -13.5,6.044 -13.5,13.5c0,7.455 6.044,13.5 13.5,13.5c7.456,0 13.5,-6.045 13.5,-13.5Z" style="fill:#fff;fill-rule:nonzero;"/><path d="M781.2,154.501l0,27c7.456,-0.001 13.5,-6.045 13.5,-13.5c0,-7.456 -6.044,-13.5 -13.5,-13.5Z" style="fill:#fff;fill-rule:nonzero;"/><path d="M851.4,112.2c0,7.456 6.044,13.5 13.5,13.5c7.455,0 13.5,-6.044 13.5,-13.5l-27,0Z" style="fill:#fff;fill-rule:nonzero;"/><path d="M795.6,112.2c0,7.456 6.044,13.5 13.5,13.5c7.456,0 13.5,-6.044 13.5,-13.5l-27,0Z" style="fill:#fff;fill-rule:nonzero;"/><path d="M864.9,321.9c-7.456,0 -13.5,6.044 -13.5,13.5l27,0c0,-7.456 -6.045,-13.5 -13.5,-13.5Z" style="fill:#fff;fill-rule:nonzero;"/><path d="M809.1,321.9c-7.456,0 -13.5,6.044 -13.5,13.5l27,0c0,-7.456 -6.044,-13.5 -13.5,-13.5Z" style="fill:#fff;fill-rule:nonzero;"/><path d="M892.8,266.1c-7.456,0 -13.5,6.044 -13.5,13.5c0,7.455 6.044,13.5 13.5,13.5l0,-27Z" style="fill:#fff;fill-rule:nonzero;"/><path d="M850.5,279.6c0,-7.456 -6.044,-13.5 -13.5,-13.5c-7.456,0 -13.5,6.044 -13.5,13.5c0,7.455 6.044,13.5 13.5,13.5c7.456,0 13.5,-6.045 13.5,-13.5Z" style="fill:#fff;fill-rule:nonzero;"/><path d="M781.2,266.1l0,27c7.456,0 13.5,-6.045 13.5,-13.5c0,-7.456 -6.044,-13.5 -13.5,-13.5Z" style="fill:#fff;fill-rule:nonzero;"/><path d="M851.4,223.799c0,7.457 6.044,13.5 13.5,13.5c7.455,0 13.5,-6.043 13.5,-13.5l-27,0Z" style="fill:#fff;fill-rule:nonzero;"/><path d="M795.6,223.799c0,7.457 6.044,13.5 13.5,13.5c7.456,0 13.5,-6.043 13.5,-13.5l-27,0Z" style="fill:#fff;fill-rule:nonzero;"/><path d="M864.9,433.501c-7.456,0 -13.5,6.043 -13.5,13.499l27,0c0,-7.456 -6.045,-13.499 -13.5,-13.499Z" style="fill:#fff;fill-rule:nonzero;"/><path d="M809.1,433.501c-7.456,0 -13.5,6.043 -13.5,13.499l27,0c0,-7.456 -6.044,-13.499 -13.5,-13.499Z" style="fill:#fff;fill-rule:nonzero;"/><path d="M892.8,377.7c-7.456,0 -13.5,6.045 -13.5,13.5c0,7.456 6.044,13.5 13.5,13.5l0,-27Z" style="fill:#fff;fill-rule:nonzero;"/><path d="M850.5,391.2c0,-7.455 -6.044,-13.5 -13.5,-13.5c-7.456,0 -13.5,6.045 -13.5,13.5c0,7.456 6.044,13.5 13.5,13.5c7.456,0 13.5,-6.044 13.5,-13.5Z" style="fill:#fff;fill-rule:nonzero;"/><path d="M781.2,377.7l0,27c7.456,0 13.5,-6.044 13.5,-13.5c0,-7.455 -6.044,-13.5 -13.5,-13.5Z" style="fill:#fff;fill-rule:nonzero;"/><path d="M851.4,335.4c0,7.456 6.044,13.5 13.5,13.5c7.455,0 13.5,-6.044 13.5,-13.5l-27,0Z" style="fill:#fff;fill-rule:nonzero;"/><path d="M795.6,335.4c0,7.456 6.044,13.5 13.5,13.5c7.456,0 13.5,-6.044 13.5,-13.5l-27,0Z" style="fill:#fff;fill-rule:nonzero;"/><path d="M864.9,545.1c-7.456,0 -13.5,6.044 -13.5,13.5l27,0c0,-7.456 -6.045,-13.5 -13.5,-13.5Z" style="fill:#fff;fill-rule:nonzero;"/><path d="M809.1,545.1c-7.456,0 -13.5,6.044 -13.5,13.5l27,0c0,-7.456 -6.044,-13.5 -13.5,-13.5Z" style="fill:#fff;fill-rule:nonzero;"/><path d="M892.8,489.299c-7.456,0 -13.5,6.045 -13.5,13.5c0,7.457 6.044,13.5 13.5,13.5l0,-27Z" style="fill:#fff;fill-rule:nonzero;"/><path d="M823.5,502.799c0,7.457 6.044,13.5 13.5,13.5c7.456,0 13.5,-6.043 13.5,-13.5c0,-7.455 -6.044,-13.5 -13.5,-13.5c-7.456,0 -13.5,6.045 -13.5,13.5Z" style="fill:#fff;fill-rule:nonzero;"/><path d="M781.2,516.299c7.456,0 13.5,-6.043 13.5,-13.5c0,-7.455 -6.044,-13.499 -13.5,-13.5l0,27Z" style="fill:#fff;fill-rule:nonzero;"/><path d="M851.4,447.001c0,7.455 6.044,13.5 13.5,13.5c7.455,0 13.5,-6.045 13.5,-13.5l0,-0.001l-27,0l0,0.001Z" style="fill:#fff;fill-rule:nonzero;"/><path d="M795.6,447.001c0,7.455 6.044,13.5 13.5,13.5c7.456,0 13.5,-6.045 13.5,-13.5l0,-0.001l-27,0l0,0.001Z" style="fill:#fff;fill-rule:nonzero;"/><path d="M864.9,656.7c-7.456,0 -13.5,6.045 -13.5,13.5l27,0c0,-7.455 -6.045,-13.5 -13.5,-13.5Z" style="fill:#fff;fill-rule:nonzero;"/><path d="M809.1,656.7c-7.456,0 -13.5,6.045 -13.5,13.5l27,0c0,-7.455 -6.044,-13.5 -13.5,-13.5Z" style="fill:#fff;fill-rule:nonzero;"/><path d="M892.8,627.9l0,-27c-7.456,0 -13.5,6.044 -13.5,13.5c0,7.456 6.044,13.5 13.5,13.5Z" style="fill:#fff;fill-rule:nonzero;"/><path d="M823.5,614.4c0,7.456 6.044,13.5 13.5,13.5c7.456,0 13.5,-6.044 13.5,-13.5c0,-7.456 -6.044,-13.5 -13.5,-13.5c-7.456,0 -13.5,6.044 -13.5,13.5Z" style="fill:#fff;fill-rule:nonzero;"/><path d="M794.7,614.4c0,-7.456 -6.044,-13.5 -13.5,-13.5l0,27c7.456,0 13.5,-6.044 13.5,-13.5Z" style="fill:#fff;fill-rule:nonzero;"/><path d="M851.4,558.6c0,7.455 6.044,13.5 13.5,13.5c7.455,0 13.5,-6.045 13.5,-13.5l-27,0Z" style="fill:#fff;fill-rule:nonzero;"/><path d="M795.6,558.6c0,7.455 6.044,13.5 13.5,13.5c7.456,0 13.5,-6.045 13.5,-13.5l-27,0Z" style="fill:#fff;fill-rule:nonzero;"/><path d="M864.9,768.299c-7.456,0 -13.5,6.045 -13.5,13.5l27,0c0,-7.455 -6.045,-13.5 -13.5,-13.5Z" style="fill:#fff;fill-rule:nonzero;"/><path d="M809.1,768.299c-7.456,0 -13.5,6.045 -13.5,13.5l27,0c0,-7.455 -6.044,-13.5 -13.5,-13.5Z" style="fill:#fff;fill-rule:nonzero;"/><path d="M892.8,739.501l0,-27c-7.456,0 -13.5,6.043 -13.5,13.5c0,7.455 6.044,13.5 13.5,13.5Z" style="fill:#fff;fill-rule:nonzero;"/><path d="M823.5,726.001c0,7.455 6.044,13.5 13.5,13.5c7.456,0 13.5,-6.045 13.5,-13.5c0,-7.457 -6.044,-13.5 -13.5,-13.5c-7.456,0 -13.5,6.043 -13.5,13.5Z" style="fill:#fff;fill-rule:nonzero;"/><path d="M794.7,726.001c0,-7.456 -6.044,-13.5 -13.5,-13.5l0,27c7.456,0 13.5,-6.045 13.5,-13.5Z" style="fill:#fff;fill-rule:nonzero;"/><path d="M851.4,670.2c0,7.456 6.044,13.5 13.5,13.5c7.455,0 13.5,-6.044 13.5,-13.5l-27,0Z" style="fill:#fff;fill-rule:nonzero;"/><path d="M795.6,670.2c0,7.456 6.044,13.5 13.5,13.5c7.456,0 13.5,-6.044 13.5,-13.5l-27,0Z" style="fill:#fff;fill-rule:nonzero;"/><path d="M864.9,879.9c-7.456,0 -13.5,6.044 -13.5,13.5l27,0c0,-7.456 -6.045,-13.5 -13.5,-13.5Z" style="fill:#fff;fill-rule:nonzero;"/><path d="M809.1,879.9c-7.456,0 -13.5,6.044 -13.5,13.5l27,0c0,-7.456 -6.044,-13.5 -13.5,-13.5Z" style="fill:#fff;fill-rule:nonzero;"/><path d="M892.8,851.1l0,-27c-7.456,0 -13.5,6.044 -13.5,13.5c0,7.455 6.044,13.5 13.5,13.5Z" style="fill:#fff;fill-rule:nonzero;"/><path d="M823.5,837.6c0,7.455 6.044,13.5 13.5,13.5c7.456,0 13.5,-6.045 13.5,-13.5c0,-7.456 -6.044,-13.5 -13.5,-13.5c-7.456,0 -13.5,6.044 -13.5,13.5Z" style="fill:#fff;fill-rule:nonzero;"/><path d="M794.7,837.6c0,-7.456 -6.044,-13.5 -13.5,-13.5l0,27c7.456,0 13.5,-6.045 13.5,-13.5Z" style="fill:#fff;fill-rule:nonzero;"/><path d="M851.4,781.799c0,7.457 6.044,13.5 13.5,13.5c7.455,0 13.5,-6.043 13.5,-13.5l-27,0Z" style="fill:#fff;fill-rule:nonzero;"/><path d="M795.6,781.799c0,7.457 6.044,13.5 13.5,13.5c7.456,0 13.5,-6.043 13.5,-13.5l-27,0Z" style="fill:#fff;fill-rule:nonzero;"/><path d="M864.9,991.501c-7.456,0 -13.5,6.043 -13.5,13.499l27,0c0,-7.456 -6.045,-13.499 -13.5,-13.499Z" style="fill:#fff;fill-rule:nonzero;"/><path d="M809.1,991.501c-7.456,0 -13.5,6.043 -13.5,13.499l27,0c0,-7.456 -6.044,-13.499 -13.5,-13.499Z" style="fill:#fff;fill-rule:nonzero;"/><path d="M892.8,962.7l0,-27c-7.456,0 -13.5,6.045 -13.5,13.5c0,7.456 6.044,13.5 13.5,13.5Z" style="fill:#fff;fill-rule:nonzero;"/><path d="M823.5,949.2c0,7.456 6.044,13.5 13.5,13.5c7.456,0 13.5,-6.044 13.5,-13.5c0,-7.455 -6.044,-13.5 -13.5,-13.5c-7.456,0 -13.5,6.045 -13.5,13.5Z" style="fill:#fff;fill-rule:nonzero;"/><path d="M794.7,949.2c0,-7.455 -6.044,-13.5 -13.5,-13.5l0,27c7.456,0 13.5,-6.044 13.5,-13.5Z" style="fill:#fff;fill-rule:nonzero;"/><path d="M851.4,893.4c0,7.456 6.044,13.5 13.5,13.5c7.455,0 13.5,-6.044 13.5,-13.5l-27,0Z" style="fill:#fff;fill-rule:nonzero;"/><path d="M795.6,893.4c0,7.456 6.044,13.5 13.5,13.5c7.456,0 13.5,-6.044 13.5,-13.5l-27,0Z" style="fill:#fff;fill-rule:nonzero;"/><path d="M753.3,98.7c-7.456,0 -13.5,6.044 -13.5,13.5l27,0c0,-7.456 -6.044,-13.5 -13.5,-13.5Z" style="fill:#fff;fill-rule:nonzero;"/><path d="M697.5,98.7c-7.456,0 -13.5,6.044 -13.5,13.5l27,0c0,-7.456 -6.044,-13.5 -13.5,-13.5Z" style="fill:#fff;fill-rule:nonzero;"/><path d="M781.2,42.9c-7.456,0 -13.5,6.044 -13.5,13.5c0,7.457 6.044,13.5 13.5,13.5l0,-27Z" style="fill:#fff;fill-rule:nonzero;"/><path d="M738.9,56.4c0,-7.456 -6.044,-13.5 -13.5,-13.5c-7.456,0 -13.5,6.044 -13.5,13.5c0,7.457 6.044,13.5 13.5,13.5c7.456,0 13.5,-6.043 13.5,-13.5Z" style="fill:#fff;fill-rule:nonzero;"/><path d="M669.6,42.9l0,27c7.456,0 13.5,-6.043 13.5,-13.5c0,-7.456 -6.044,-13.5 -13.5,-13.5Z" style="fill:#fff;fill-rule:nonzero;"/><path d="M739.8,0.601c0,7.455 6.044,13.5 13.5,13.5c7.456,0 13.5,-6.045 13.5,-13.5l-27,0Z" style="fill:#fff;fill-rule:nonzero;"/><path d="M684,0.601c0,7.455 6.044,13.5 13.5,13.5c7.456,0 13.5,-6.045 13.5,-13.5l-27,0Z" style="fill:#fff;fill-rule:nonzero;"/><path d="M753.3,210.299c-7.456,0 -13.5,6.045 -13.5,13.5l27,0c0,-7.455 -6.044,-13.5 -13.5,-13.5Z" style="fill:#fff;fill-rule:nonzero;"/><path d="M697.5,210.299c-7.456,0 -13.5,6.045 -13.5,13.5l27,0c0,-7.455 -6.044,-13.5 -13.5,-13.5Z" style="fill:#fff;fill-rule:nonzero;"/><path d="M781.2,154.501c-7.456,0 -13.5,6.044 -13.5,13.5c0,7.455 6.044,13.5 13.5,13.5l0,-27Z" style="fill:#fff;fill-rule:nonzero;"/><path d="M738.9,168.001c0,-7.456 -6.044,-13.5 -13.5,-13.5c-7.456,0 -13.5,6.044 -13.5,13.5c0,7.455 6.044,13.5 13.5,13.5c7.456,0 13.5,-6.045 13.5,-13.5Z" style="fill:#fff;fill-rule:nonzero;"/><path d="M669.6,154.501l0,27c7.456,-0.001 13.5,-6.045 13.5,-13.5c0,-7.456 -6.044,-13.5 -13.5,-13.5Z" style="fill:#fff;fill-rule:nonzero;"/><path d="M739.8,112.2c0,7.456 6.044,13.5 13.5,13.5c7.456,0 13.5,-6.044 13.5,-13.5l-27,0Z" style="fill:#fff;fill-rule:nonzero;"/><path d="M684,112.2c0,7.456 6.044,13.5 13.5,13.5c7.456,0 13.5,-6.044 13.5,-13.5l-27,0Z" style="fill:#fff;fill-rule:nonzero;"/><path d="M753.3,321.9c-7.456,0 -13.5,6.044 -13.5,13.5l27,0c0,-7.456 -6.044,-13.5 -13.5,-13.5Z" style="fill:#fff;fill-rule:nonzero;"/><path d="M697.5,321.9c-7.456,0 -13.5,6.044 -13.5,13.5l27,0c0,-7.456 -6.044,-13.5 -13.5,-13.5Z" style="fill:#fff;fill-rule:nonzero;"/><path d="M781.2,266.1c-7.456,0 -13.5,6.044 -13.5,13.5c0,7.455 6.044,13.5 13.5,13.5l0,-27Z" style="fill:#fff;fill-rule:nonzero;"/><path d="M738.9,279.6c0,-7.456 -6.044,-13.5 -13.5,-13.5c-7.456,0 -13.5,6.044 -13.5,13.5c0,7.455 6.044,13.5 13.5,13.5c7.456,0 13.5,-6.045 13.5,-13.5Z" style="fill:#fff;fill-rule:nonzero;"/><path d="M669.6,266.1l0,27c7.456,0 13.5,-6.045 13.5,-13.5c0,-7.456 -6.044,-13.5 -13.5,-13.5Z" style="fill:#fff;fill-rule:nonzero;"/><path d="M739.8,223.799c0,7.457 6.044,13.5 13.5,13.5c7.456,0 13.5,-6.043 13.5,-13.5l-27,0Z" style="fill:#fff;fill-rule:nonzero;"/><path d="M684,223.799c0,7.457 6.044,13.5 13.5,13.5c7.456,0 13.5,-6.043 13.5,-13.5l-27,0Z" style="fill:#fff;fill-rule:nonzero;"/><path d="M753.3,433.501c-7.456,0 -13.5,6.043 -13.5,13.499l27,0c0,-7.456 -6.044,-13.499 -13.5,-13.499Z" style="fill:#fff;fill-rule:nonzero;"/><path d="M697.5,433.501c-7.456,0 -13.5,6.043 -13.5,13.499l27,0c0,-7.456 -6.044,-13.499 -13.5,-13.499Z" style="fill:#fff;fill-rule:nonzero;"/><path d="M781.2,377.7c-7.456,0 -13.5,6.045 -13.5,13.5c0,7.456 6.044,13.5 13.5,13.5l0,-27Z" style="fill:#fff;fill-rule:nonzero;"/><path d="M738.9,391.2c0,-7.455 -6.044,-13.5 -13.5,-13.5c-7.456,0 -13.5,6.045 -13.5,13.5c0,7.456 6.044,13.5 13.5,13.5c7.456,0 13.5,-6.044 13.5,-13.5Z" style="fill:#fff;fill-rule:nonzero;"/><path d="M669.6,377.7l0,27c7.456,0 13.5,-6.044 13.5,-13.5c0,-7.455 -6.044,-13.5 -13.5,-13.5Z" style="fill:#fff;fill-rule:nonzero;"/><path d="M739.8,335.4c0,7.456 6.044,13.5 13.5,13.5c7.456,0 13.5,-6.044 13.5,-13.5l-27,0Z" style="fill:#fff;fill-rule:nonzero;"/><path d="M684,335.4c0,7.456 6.044,13.5 13.5,13.5c7.456,0 13.5,-6.044 13.5,-13.5l-27,0Z" style="fill:#fff;fill-rule:nonzero;"/><path d="M753.3,545.1c-7.456,0 -13.5,6.044 -13.5,13.5l27,0c0,-7.456 -6.044,-13.5 -13.5,-13.5Z" style="fill:#fff;fill-rule:nonzero;"/><path d="M697.5,545.1c-7.456,0 -13.5,6.044 -13.5,13.5l27,0c0,-7.456 -6.044,-13.5 -13.5,-13.5Z" style="fill:#fff;fill-rule:nonzero;"/><path d="M781.2,489.299c-7.456,0 -13.5,6.045 -13.5,13.5c0,7.457 6.044,13.5 13.5,13.5l0,-27Z" style="fill:#fff;fill-rule:nonzero;"/><path d="M711.9,502.799c0,7.457 6.044,13.5 13.5,13.5c7.456,0 13.5,-6.043 13.5,-13.5c0,-7.455 -6.044,-13.5 -13.5,-13.5c-7.456,0 -13.5,6.045 -13.5,13.5Z" style="fill:#fff;fill-rule:nonzero;"/><path d="M669.6,516.299c7.456,0 13.5,-6.043 13.5,-13.5c0,-7.455 -6.044,-13.499 -13.5,-13.5l0,27Z" style="fill:#fff;fill-rule:nonzero;"/><path d="M739.8,447.001c0,7.455 6.044,13.5 13.5,13.5c7.456,0 13.5,-6.045 13.5,-13.5l0,-0.001l-27,0l0,0.001Z" style="fill:#fff;fill-rule:nonzero;"/><path d="M684,447.001c0,7.455 6.044,13.5 13.5,13.5c7.456,0 13.5,-6.045 13.5,-13.5l0,-0.001l-27,0l0,0.001Z" style="fill:#fff;fill-rule:nonzero;"/><path d="M753.3,656.7c-7.456,0 -13.5,6.045 -13.5,13.5l27,0c0,-7.455 -6.044,-13.5 -13.5,-13.5Z" style="fill:#fff;fill-rule:nonzero;"/><path d="M697.5,656.7c-7.456,0 -13.5,6.045 -13.5,13.5l27,0c0,-7.455 -6.044,-13.5 -13.5,-13.5Z" style="fill:#fff;fill-rule:nonzero;"/><path d="M781.2,627.9l0,-27c-7.456,0 -13.5,6.044 -13.5,13.5c0,7.456 6.044,13.5 13.5,13.5Z" style="fill:#fff;fill-rule:nonzero;"/><path d="M711.9,614.4c0,7.456 6.044,13.5 13.5,13.5c7.456,0 13.5,-6.044 13.5,-13.5c0,-7.456 -6.044,-13.5 -13.5,-13.5c-7.456,0 -13.5,6.044 -13.5,13.5Z" style="fill:#fff;fill-rule:nonzero;"/><path d="M683.1,614.4c0,-7.456 -6.044,-13.5 -13.5,-13.5l0,27c7.456,0 13.5,-6.044 13.5,-13.5Z" style="fill:#fff;fill-rule:nonzero;"/><path d="M739.8,558.6c0,7.455 6.044,13.5 13.5,13.5c7.456,0 13.5,-6.045 13.5,-13.5l-27,0Z" style="fill:#fff;fill-rule:nonzero;"/><path d="M684,558.6c0,7.455 6.044,13.5 13.5,13.5c7.456,0 13.5,-6.045 13.5,-13.5l-27,0Z" style="fill:#fff;fill-rule:nonzero;"/><path d="M753.3,768.299c-7.456,0 -13.5,6.045 -13.5,13.5l27,0c0,-7.455 -6.044,-13.5 -13.5,-13.5Z" style="fill:#fff;fill-rule:nonzero;"/><path d="M697.5,768.299c-7.456,0 -13.5,6.045 -13.5,13.5l27,0c0,-7.455 -6.044,-13.5 -13.5,-13.5Z" style="fill:#fff;fill-rule:nonzero;"/><path d="M781.2,739.501l0,-27c-7.456,0 -13.5,6.043 -13.5,13.5c0,7.455 6.044,13.5 13.5,13.5Z" style="fill:#fff;fill-rule:nonzero;"/><path d="M711.9,726.001c0,7.455 6.044,13.5 13.5,13.5c7.456,0 13.5,-6.045 13.5,-13.5c0,-7.457 -6.044,-13.5 -13.5,-13.5c-7.456,0 -13.5,6.043 -13.5,13.5Z" style="fill:#fff;fill-rule:nonzero;"/><path d="M683.1,726.001c0,-7.456 -6.044,-13.5 -13.5,-13.5l0,27c7.456,0 13.5,-6.045 13.5,-13.5Z" style="fill:#fff;fill-rule:nonzero;"/><path d="M739.8,670.2c0,7.456 6.044,13.5 13.5,13.5c7.456,0 13.5,-6.044 13.5,-13.5l-27,0Z" style="fill:#fff;fill-rule:nonzero;"/><path d="M684,670.2c0,7.456 6.044,13.5 13.5,13.5c7.456,0 13.5,-6.044 13.5,-13.5l-27,0Z" style="fill:#fff;fill-rule:nonzero;"/><path d="M753.3,879.9c-7.456,0 -13.5,6.044 -13.5,13.5l27,0c0,-7.456 -6.044,-13.5 -13.5,-13.5Z" style="fill:#fff;fill-rule:nonzero;"/><path d="M697.5,879.9c-7.456,0 -13.5,6.044 -13.5,13.5l27,0c0,-7.456 -6.044,-13.5 -13.5,-13.5Z" style="fill:#fff;fill-rule:nonzero;"/><path d="M781.2,851.1l0,-27c-7.456,0 -13.5,6.044 -13.5,13.5c0,7.455 6.044,13.5 13.5,13.5Z" style="fill:#fff;fill-rule:nonzero;"/><path d="M711.9,837.6c0,7.455 6.044,13.5 13.5,13.5c7.456,0 13.5,-6.045 13.5,-13.5c0,-7.456 -6.044,-13.5 -13.5,-13.5c-7.456,0 -13.5,6.044 -13.5,13.5Z" style="fill:#fff;fill-rule:nonzero;"/><path d="M683.1,837.6c0,-7.456 -6.044,-13.5 -13.5,-13.5l0,27c7.456,0 13.5,-6.045 13.5,-13.5Z" style="fill:#fff;fill-rule:nonzero;"/><path d="M739.8,781.799c0,7.457 6.044,13.5 13.5,13.5c7.456,0 13.5,-6.043 13.5,-13.5l-27,0Z" style="fill:#fff;fill-rule:nonzero;"/><path d="M684,781.799c0,7.457 6.044,13.5 13.5,13.5c7.456,0 13.5,-6.043 13.5,-13.5l-27,0Z" style="fill:#fff;fill-rule:nonzero;"/><path d="M753.3,991.501c-7.456,0 -13.5,6.043 -13.5,13.499l27,0c0,-7.456 -6.044,-13.499 -13.5,-13.499Z" style="fill:#fff;fill-rule:nonzero;"/><path d="M697.5,991.501c-7.456,0 -13.5,6.043 -13.5,13.499l27,0c0,-7.456 -6.044,-13.499 -13.5,-13.499Z" style="fill:#fff;fill-rule:nonzero;"/><path d="M781.2,962.7l0,-27c-7.456,0 -13.5,6.045 -13.5,13.5c0,7.456 6.044,13.5 13.5,13.5Z" style="fill:#fff;fill-rule:nonzero;"/><path d="M711.9,949.2c0,7.456 6.044,13.5 13.5,13.5c7.456,0 13.5,-6.044 13.5,-13.5c0,-7.455 -6.044,-13.5 -13.5,-13.5c-7.456,0 -13.5,6.045 -13.5,13.5Z" style="fill:#fff;fill-rule:nonzero;"/><path d="M683.1,949.2c0,-7.455 -6.044,-13.5 -13.5,-13.5l0,27c7.456,0 13.5,-6.044 13.5,-13.5Z" style="fill:#fff;fill-rule:nonzero;"/><path d="M739.8,893.4c0,7.456 6.044,13.5 13.5,13.5c7.456,0 13.5,-6.044 13.5,-13.5l-27,0Z" style="fill:#fff;fill-rule:nonzero;"/><path d="M684,893.4c0,7.456 6.044,13.5 13.5,13.5c7.456,0 13.5,-6.044 13.5,-13.5l-27,0Z" style="fill:#fff;fill-rule:nonzero;"/><path d="M641.7,98.7c-7.456,0 -13.5,6.044 -13.5,13.5l27,0c0,-7.456 -6.044,-13.5 -13.5,-13.5Z" style="fill:#fff;fill-rule:nonzero;"/><path d="M585.9,98.7c-7.456,0 -13.5,6.044 -13.5,13.5l27,0c0,-7.456 -6.045,-13.5 -13.5,-13.5Z" style="fill:#fff;fill-rule:nonzero;"/><path d="M669.6,42.9c-7.456,0 -13.5,6.044 -13.5,13.5c0,7.457 6.044,13.5 13.5,13.5l0,-27Z" style="fill:#fff;fill-rule:nonzero;"/><path d="M627.3,56.4c0,-7.456 -6.044,-13.5 -13.5,-13.5c-7.456,0 -13.5,6.044 -13.5,13.5c0,7.457 6.044,13.5 13.5,13.5c7.456,0 13.5,-6.043 13.5,-13.5Z" style="fill:#fff;fill-rule:nonzero;"/><path d="M558,69.9c7.456,0 13.5,-6.043 13.5,-13.5c0,-7.456 -6.044,-13.5 -13.5,-13.5l0,27Z" style="fill:#fff;fill-rule:nonzero;"/><path d="M628.2,0.601c0,7.455 6.044,13.5 13.5,13.5c7.456,0 13.5,-6.045 13.5,-13.5l-27,0Z" style="fill:#fff;fill-rule:nonzero;"/><path d="M585.9,14.101c7.456,0 13.5,-6.045 13.5,-13.5l-27,0c0,7.455 6.044,13.5 13.5,13.5Z" style="fill:#fff;fill-rule:nonzero;"/><path d="M641.7,210.299c-7.456,0 -13.5,6.045 -13.5,13.5l27,0c0,-7.455 -6.044,-13.5 -13.5,-13.5Z" style="fill:#fff;fill-rule:nonzero;"/><path d="M585.9,210.299c-7.456,0 -13.5,6.045 -13.5,13.5l27,0c0,-7.455 -6.045,-13.5 -13.5,-13.5Z" style="fill:#fff;fill-rule:nonzero;"/><path d="M669.6,154.501c-7.456,0 -13.5,6.044 -13.5,13.5c0,7.455 6.044,13.5 13.5,13.5l0,-27Z" style="fill:#fff;fill-rule:nonzero;"/><path d="M627.3,168.001c0,-7.456 -6.044,-13.5 -13.5,-13.5c-7.456,0 -13.5,6.044 -13.5,13.5c0,7.455 6.044,13.5 13.5,13.5c7.456,0 13.5,-6.045 13.5,-13.5Z" style="fill:#fff;fill-rule:nonzero;"/><path d="M558,154.501l0,27c7.456,0 13.5,-6.045 13.5,-13.5c0,-7.456 -6.044,-13.5 -13.5,-13.5Z" style="fill:#fff;fill-rule:nonzero;"/><path d="M628.2,112.2c0,7.456 6.044,13.5 13.5,13.5c7.456,0 13.5,-6.044 13.5,-13.5l-27,0Z" style="fill:#fff;fill-rule:nonzero;"/><path d="M572.4,112.2c0,7.456 6.044,13.5 13.5,13.5c7.456,0 13.5,-6.044 13.5,-13.5l-27,0Z" style="fill:#fff;fill-rule:nonzero;"/><path d="M641.7,321.9c-7.456,0 -13.5,6.044 -13.5,13.5l27,0c0,-7.456 -6.044,-13.5 -13.5,-13.5Z" style="fill:#fff;fill-rule:nonzero;"/><path d="M585.9,321.9c-7.456,0 -13.5,6.044 -13.5,13.5l27,0c0,-7.456 -6.045,-13.5 -13.5,-13.5Z" style="fill:#fff;fill-rule:nonzero;"/><path d="M669.6,266.1c-7.456,0 -13.5,6.044 -13.5,13.5c0,7.455 6.044,13.5 13.5,13.5l0,-27Z" style="fill:#fff;fill-rule:nonzero;"/><path d="M627.3,279.6c0,-7.456 -6.044,-13.5 -13.5,-13.5c-7.456,0 -13.5,6.044 -13.5,13.5c0,7.455 6.044,13.5 13.5,13.5c7.456,0 13.5,-6.045 13.5,-13.5Z" style="fill:#fff;fill-rule:nonzero;"/><path d="M558,266.1l0,27c7.456,0 13.5,-6.045 13.5,-13.5c0,-7.456 -6.044,-13.5 -13.5,-13.5Z" style="fill:#fff;fill-rule:nonzero;"/><path d="M628.2,223.799c0,7.457 6.044,13.5 13.5,13.5c7.456,0 13.5,-6.043 13.5,-13.5l-27,0Z" style="fill:#fff;fill-rule:nonzero;"/><path d="M572.4,223.799c0,7.457 6.044,13.5 13.5,13.5c7.456,0 13.5,-6.043 13.5,-13.5l-27,0Z" style="fill:#fff;fill-rule:nonzero;"/><path d="M641.7,433.501c-7.456,0 -13.5,6.043 -13.5,13.499l27,0c0,-7.456 -6.044,-13.499 -13.5,-13.499Z" style="fill:#fff;fill-rule:nonzero;"/><path d="M585.9,433.501c-7.456,0 -13.5,6.043 -13.5,13.499l27,0c0,-7.456 -6.045,-13.499 -13.5,-13.499Z" style="fill:#fff;fill-rule:nonzero;"/><path d="M669.6,377.7c-7.456,0 -13.5,6.045 -13.5,13.5c0,7.456 6.044,13.5 13.5,13.5l0,-27Z" style="fill:#fff;fill-rule:nonzero;"/><path d="M627.3,391.2c0,-7.455 -6.044,-13.5 -13.5,-13.5c-7.456,0 -13.5,6.045 -13.5,13.5c0,7.456 6.044,13.5 13.5,13.5c7.456,0 13.5,-6.044 13.5,-13.5Z" style="fill:#fff;fill-rule:nonzero;"/><path d="M558,377.7l0,27c7.456,0 13.5,-6.044 13.5,-13.5c0,-7.455 -6.044,-13.5 -13.5,-13.5Z" style="fill:#fff;fill-rule:nonzero;"/><path d="M628.2,335.4c0,7.456 6.044,13.5 13.5,13.5c7.456,0 13.5,-6.044 13.5,-13.5l-27,0Z" style="fill:#fff;fill-rule:nonzero;"/><path d="M572.4,335.4c0,7.456 6.044,13.5 13.5,13.5c7.456,0 13.5,-6.044 13.5,-13.5l-27,0Z" style="fill:#fff;fill-rule:nonzero;"/><path d="M641.7,545.1c-7.456,0 -13.5,6.044 -13.5,13.5l27,0c0,-7.456 -6.044,-13.5 -13.5,-13.5Z" style="fill:#fff;fill-rule:nonzero;"/><path d="M585.9,545.1c-7.456,0 -13.5,6.044 -13.5,13.5l27,0c0,-7.456 -6.045,-13.5 -13.5,-13.5Z" style="fill:#fff;fill-rule:nonzero;"/><path d="M669.6,489.299c-7.456,0 -13.5,6.045 -13.5,13.5c0,7.457 6.044,13.5 13.5,13.5l0,-27Z" style="fill:#fff;fill-rule:nonzero;"/><path d="M600.3,502.799c0,7.457 6.044,13.5 13.5,13.5c7.456,0 13.5,-6.043 13.5,-13.5c0,-7.455 -6.044,-13.5 -13.5,-13.5c-7.456,0 -13.5,6.045 -13.5,13.5Z" style="fill:#fff;fill-rule:nonzero;"/><path d="M558,516.299c7.456,0 13.5,-6.043 13.5,-13.5c0,-7.455 -6.044,-13.5 -13.5,-13.5l0,27Z" style="fill:#fff;fill-rule:nonzero;"/><path d="M628.2,447.001c0,7.455 6.044,13.5 13.5,13.5c7.456,0 13.5,-6.045 13.5,-13.5l0,-0.001l-27,0l0,0.001Z" style="fill:#fff;fill-rule:nonzero;"/><path d="M572.4,447.001c0,7.455 6.044,13.5 13.5,13.5c7.456,0 13.5,-6.045 13.5,-13.5l0,-0.001l-27,0l0,0.001Z" style="fill:#fff;fill-rule:nonzero;"/><path d="M641.7,656.7c-7.456,0 -13.5,6.045 -13.5,13.5l27,0c0,-7.455 -6.044,-13.5 -13.5,-13.5Z" style="fill:#fff;fill-rule:nonzero;"/><path d="M585.9,656.7c-7.456,0 -13.5,6.045 -13.5,13.5l27,0c0,-7.455 -6.045,-13.5 -13.5,-13.5Z" style="fill:#fff;fill-rule:nonzero;"/><path d="M669.6,627.9l0,-27c-7.456,0 -13.5,6.044 -13.5,13.5c0,7.456 6.044,13.5 13.5,13.5Z" style="fill:#fff;fill-rule:nonzero;"/><path d="M600.3,614.4c0,7.456 6.044,13.5 13.5,13.5c7.456,0 13.5,-6.044 13.5,-13.5c0,-7.456 -6.044,-13.5 -13.5,-13.5c-7.456,0 -13.5,6.044 -13.5,13.5Z" style="fill:#fff;fill-rule:nonzero;"/><path d="M571.5,614.4c0,-7.456 -6.044,-13.5 -13.5,-13.5l0,27c7.456,0 13.5,-6.044 13.5,-13.5Z" style="fill:#fff;fill-rule:nonzero;"/><path d="M628.2,558.6c0,7.455 6.044,13.5 13.5,13.5c7.456,0 13.5,-6.045 13.5,-13.5l-27,0Z" style="fill:#fff;fill-rule:nonzero;"/><path d="M572.4,558.6c0,7.455 6.044,13.5 13.5,13.5c7.456,0 13.5,-6.045 13.5,-13.5l-27,0Z" style="fill:#fff;fill-rule:nonzero;"/><path d="M641.7,768.299c-7.456,0 -13.5,6.045 -13.5,13.5l27,0c0,-7.455 -6.044,-13.5 -13.5,-13.5Z" style="fill:#fff;fill-rule:nonzero;"/><path d="M585.9,768.299c-7.456,0 -13.5,6.045 -13.5,13.5l27,0c0,-7.455 -6.045,-13.5 -13.5,-13.5Z" style="fill:#fff;fill-rule:nonzero;"/><path d="M669.6,739.501l0,-27c-7.456,0 -13.5,6.043 -13.5,13.5c0,7.455 6.044,13.5 13.5,13.5Z" style="fill:#fff;fill-rule:nonzero;"/><path d="M600.3,726.001c0,7.455 6.044,13.5 13.5,13.5c7.456,0 13.5,-6.045 13.5,-13.5c0,-7.457 -6.044,-13.5 -13.5,-13.5c-7.456,0 -13.5,6.043 -13.5,13.5Z" style="fill:#fff;fill-rule:nonzero;"/><path d="M571.5,726.001c0,-7.457 -6.044,-13.5 -13.5,-13.5l0,27c7.456,0 13.5,-6.045 13.5,-13.5Z" style="fill:#fff;fill-rule:nonzero;"/><path d="M628.2,670.2c0,7.456 6.044,13.5 13.5,13.5c7.456,0 13.5,-6.044 13.5,-13.5l-27,0Z" style="fill:#fff;fill-rule:nonzero;"/><path d="M572.4,670.2c0,7.456 6.044,13.5 13.5,13.5c7.456,0 13.5,-6.044 13.5,-13.5l-27,0Z" style="fill:#fff;fill-rule:nonzero;"/><path d="M641.7,879.9c-7.456,0 -13.5,6.044 -13.5,13.5l27,0c0,-7.456 -6.044,-13.5 -13.5,-13.5Z" style="fill:#fff;fill-rule:nonzero;"/><path d="M585.9,879.9c-7.456,0 -13.5,6.044 -13.5,13.5l27,0c0,-7.456 -6.045,-13.5 -13.5,-13.5Z" style="fill:#fff;fill-rule:nonzero;"/><path d="M669.6,851.1l0,-27c-7.456,0 -13.5,6.044 -13.5,13.5c0,7.455 6.044,13.5 13.5,13.5Z" style="fill:#fff;fill-rule:nonzero;"/><path d="M600.3,837.6c0,7.455 6.044,13.5 13.5,13.5c7.456,0 13.5,-6.045 13.5,-13.5c0,-7.456 -6.044,-13.5 -13.5,-13.5c-7.456,0 -13.5,6.044 -13.5,13.5Z" style="fill:#fff;fill-rule:nonzero;"/><path d="M571.5,837.6c0,-7.456 -6.044,-13.5 -13.5,-13.5l0,27c7.456,0 13.5,-6.045 13.5,-13.5Z" style="fill:#fff;fill-rule:nonzero;"/><path d="M628.2,781.799c0,7.457 6.044,13.5 13.5,13.5c7.456,0 13.5,-6.043 13.5,-13.5l-27,0Z" style="fill:#fff;fill-rule:nonzero;"/><path d="M572.4,781.799c0,7.457 6.044,13.5 13.5,13.5c7.456,0 13.5,-6.043 13.5,-13.5l-27,0Z" style="fill:#fff;fill-rule:nonzero;"/><path d="M641.7,991.501c-7.456,0 -13.5,6.043 -13.5,13.499l27,0c0,-7.456 -6.044,-13.499 -13.5,-13.499Z" style="fill:#fff;fill-rule:nonzero;"/><path d="M585.9,991.501c-7.456,0 -13.5,6.043 -13.5,13.499l27,0c0,-7.456 -6.045,-13.499 -13.5,-13.499Z" style="fill:#fff;fill-rule:nonzero;"/><path d="M669.6,962.7l0,-27c-7.456,0 -13.5,6.045 -13.5,13.5c0,7.456 6.044,13.5 13.5,13.5Z" style="fill:#fff;fill-rule:nonzero;"/><path d="M600.3,949.2c0,7.456 6.044,13.5 13.5,13.5c7.456,0 13.5,-6.044 13.5,-13.5c0,-7.455 -6.044,-13.5 -13.5,-13.5c-7.456,0 -13.5,6.045 -13.5,13.5Z" style="fill:#fff;fill-rule:nonzero;"/><path d="M571.5,949.2c0,-7.455 -6.044,-13.5 -13.5,-13.5l0,27c7.456,0 13.5,-6.044 13.5,-13.5Z" style="fill:#fff;fill-rule:nonzero;"/><path d="M628.2,893.4c0,7.456 6.044,13.5 13.5,13.5c7.456,0 13.5,-6.044 13.5,-13.5l-27,0Z" style="fill:#fff;fill-rule:nonzero;"/><path d="M572.4,893.4c0,7.456 6.044,13.5 13.5,13.5c7.456,0 13.5,-6.044 13.5,-13.5l-27,0Z" style="fill:#fff;fill-rule:nonzero;"/><path d="M530.1,98.7c-7.457,0 -13.501,6.044 -13.501,13.5l27.001,0c0,-7.456 -6.044,-13.5 -13.5,-13.5Z" style="fill:#fff;fill-rule:nonzero;"/><path d="M474.3,98.7c-7.456,0 -13.5,6.044 -13.5,13.5l27,0c0,-7.456 -6.044,-13.5 -13.5,-13.5Z" style="fill:#fff;fill-rule:nonzero;"/><path d="M558,42.9c-7.456,0 -13.5,6.044 -13.5,13.5c0,7.457 6.044,13.5 13.5,13.5l0,-27Z" style="fill:#fff;fill-rule:nonzero;"/><path d="M515.7,56.4c0,-7.456 -6.044,-13.5 -13.5,-13.5c-7.456,0 -13.5,6.044 -13.5,13.5c0,7.457 6.044,13.5 13.5,13.5c7.456,0 13.5,-6.043 13.5,-13.5Z" style="fill:#fff;fill-rule:nonzero;"/><path d="M446.4,69.9c7.456,0 13.5,-6.043 13.5,-13.5c0,-7.456 -6.044,-13.5 -13.5,-13.5l0,27Z" style="fill:#fff;fill-rule:nonzero;"/><path d="M516.599,0.601c0,7.455 6.044,13.5 13.501,13.5c7.456,0 13.5,-6.045 13.5,-13.5l-27.001,0Z" style="fill:#fff;fill-rule:nonzero;"/><path d="M460.8,0.601c0,7.455 6.044,13.5 13.5,13.5c7.456,0 13.5,-6.045 13.5,-13.5l-27,0Z" style="fill:#fff;fill-rule:nonzero;"/><path d="M530.1,210.299c-7.457,0 -13.501,6.045 -13.501,13.5l27.001,0c0,-7.455 -6.044,-13.5 -13.5,-13.5Z" style="fill:#fff;fill-rule:nonzero;"/><path d="M474.3,210.299c-7.456,0 -13.5,6.045 -13.5,13.5l27,0c0,-7.455 -6.044,-13.5 -13.5,-13.5Z" style="fill:#fff;fill-rule:nonzero;"/><path d="M558,154.501c-7.456,0 -13.5,6.044 -13.5,13.5c0,7.455 6.044,13.5 13.5,13.5l0,-27Z" style="fill:#fff;fill-rule:nonzero;"/><path d="M515.7,168.001c0,-7.456 -6.044,-13.5 -13.5,-13.5c-7.456,0 -13.5,6.044 -13.5,13.5c0,7.455 6.044,13.5 13.5,13.5c7.456,0 13.5,-6.045 13.5,-13.5Z" style="fill:#fff;fill-rule:nonzero;"/><path d="M446.4,154.501l0,27c7.456,-0.001 13.5,-6.045 13.5,-13.5c0,-7.456 -6.044,-13.5 -13.5,-13.5Z" style="fill:#fff;fill-rule:nonzero;"/><path d="M516.599,112.2c0,7.456 6.044,13.5 13.501,13.5c7.456,0 13.5,-6.044 13.5,-13.5l-27.001,0Z" style="fill:#fff;fill-rule:nonzero;"/><path d="M460.8,112.2c0,7.456 6.044,13.5 13.5,13.5c7.456,0 13.5,-6.044 13.5,-13.5l-27,0Z" style="fill:#fff;fill-rule:nonzero;"/><path d="M530.1,321.9c-7.457,0 -13.501,6.044 -13.501,13.5l27.001,0c0,-7.456 -6.044,-13.5 -13.5,-13.5Z" style="fill:#fff;fill-rule:nonzero;"/><path d="M474.3,321.9c-7.456,0 -13.5,6.044 -13.5,13.5l27,0c0,-7.456 -6.044,-13.5 -13.5,-13.5Z" style="fill:#fff;fill-rule:nonzero;"/><path d="M558,266.1c-7.456,0 -13.5,6.044 -13.5,13.5c0,7.455 6.044,13.5 13.5,13.5l0,-27Z" style="fill:#fff;fill-rule:nonzero;"/><path d="M515.7,279.6c0,-7.456 -6.044,-13.5 -13.5,-13.5c-7.456,0 -13.5,6.044 -13.5,13.5c0,7.455 6.044,13.5 13.5,13.5c7.456,0 13.5,-6.045 13.5,-13.5Z" style="fill:#fff;fill-rule:nonzero;"/><path d="M446.4,266.1l0,27c7.456,0 13.5,-6.045 13.5,-13.5c0,-7.456 -6.044,-13.5 -13.5,-13.5Z" style="fill:#fff;fill-rule:nonzero;"/><path d="M516.599,223.799c0,7.457 6.044,13.5 13.501,13.5c7.456,0 13.5,-6.043 13.5,-13.5l-27.001,0Z" style="fill:#fff;fill-rule:nonzero;"/><path d="M460.8,223.799c0,7.457 6.044,13.5 13.5,13.5c7.456,0 13.5,-6.043 13.5,-13.5l-27,0Z" style="fill:#fff;fill-rule:nonzero;"/><path d="M530.1,433.501c-7.457,0 -13.501,6.043 -13.501,13.499l27.001,0c0,-7.456 -6.044,-13.499 -13.5,-13.499Z" style="fill:#fff;fill-rule:nonzero;"/><path d="M474.3,433.501c-7.456,0 -13.5,6.043 -13.5,13.499l27,0c0,-7.456 -6.044,-13.499 -13.5,-13.499Z" style="fill:#fff;fill-rule:nonzero;"/><path d="M558,377.7c-7.456,0 -13.5,6.045 -13.5,13.5c0,7.456 6.044,13.5 13.5,13.5l0,-27Z" style="fill:#fff;fill-rule:nonzero;"/><path d="M515.7,391.2c0,-7.455 -6.044,-13.5 -13.5,-13.5c-7.456,0 -13.5,6.045 -13.5,13.5c0,7.456 6.044,13.5 13.5,13.5c7.456,0 13.5,-6.044 13.5,-13.5Z" style="fill:#fff;fill-rule:nonzero;"/><path d="M446.4,377.7l0,27c7.456,0 13.5,-6.044 13.5,-13.5c0,-7.455 -6.044,-13.5 -13.5,-13.5Z" style="fill:#fff;fill-rule:nonzero;"/><path d="M516.599,335.4c0,7.456 6.044,13.5 13.501,13.5c7.456,0 13.5,-6.044 13.5,-13.5l-27.001,0Z" style="fill:#fff;fill-rule:nonzero;"/><path d="M460.8,335.4c0,7.456 6.044,13.5 13.5,13.5c7.456,0 13.5,-6.044 13.5,-13.5l-27,0Z" style="fill:#fff;fill-rule:nonzero;"/><path d="M530.1,545.1c-7.457,0 -13.501,6.044 -13.501,13.5l27.001,0c0,-7.456 -6.044,-13.5 -13.5,-13.5Z" style="fill:#fff;fill-rule:nonzero;"/><path d="M474.3,545.1c-7.456,0 -13.5,6.044 -13.5,13.5l27,0c0,-7.456 -6.044,-13.5 -13.5,-13.5Z" style="fill:#fff;fill-rule:nonzero;"/><path d="M558,489.299c-7.456,0 -13.5,6.045 -13.5,13.5c0,7.457 6.044,13.5 13.5,13.5l0,-27Z" style="fill:#fff;fill-rule:nonzero;"/><path d="M488.7,502.799c0,7.457 6.044,13.5 13.5,13.5c7.456,0 13.5,-6.043 13.5,-13.5c0,-7.455 -6.044,-13.5 -13.5,-13.5c-7.456,0 -13.5,6.045 -13.5,13.5Z" style="fill:#fff;fill-rule:nonzero;"/><path d="M446.4,516.299c7.456,0 13.5,-6.043 13.5,-13.5c0,-7.455 -6.044,-13.499 -13.5,-13.5l0,27Z" style="fill:#fff;fill-rule:nonzero;"/><path d="M516.599,447.001c0,7.455 6.044,13.5 13.501,13.5c7.456,0 13.5,-6.045 13.5,-13.5l0,-0.001l-27.001,0l0,0.001Z" style="fill:#fff;fill-rule:nonzero;"/><path d="M460.8,447.001c0,7.455 6.044,13.5 13.5,13.5c7.456,0 13.5,-6.045 13.5,-13.5l0,-0.001l-27,0l0,0.001Z" style="fill:#fff;fill-rule:nonzero;"/><path d="M530.1,656.7c-7.457,0 -13.501,6.045 -13.501,13.5l27.001,0c0,-7.455 -6.044,-13.5 -13.5,-13.5Z" style="fill:#fff;fill-rule:nonzero;"/><path d="M474.3,656.7c-7.456,0 -13.5,6.045 -13.5,13.5l27,0c0,-7.455 -6.044,-13.5 -13.5,-13.5Z" style="fill:#fff;fill-rule:nonzero;"/><path d="M558,627.9l0,-27c-7.456,0 -13.5,6.044 -13.5,13.5c0,7.456 6.044,13.5 13.5,13.5Z" style="fill:#fff;fill-rule:nonzero;"/><path d="M488.7,614.4c0,7.456 6.044,13.5 13.5,13.5c7.456,0 13.5,-6.044 13.5,-13.5c0,-7.456 -6.044,-13.5 -13.5,-13.5c-7.456,0 -13.5,6.044 -13.5,13.5Z" style="fill:#fff;fill-rule:nonzero;"/><path d="M459.9,614.4c0,-7.456 -6.044,-13.5 -13.5,-13.5l0,27c7.456,0 13.5,-6.044 13.5,-13.5Z" style="fill:#fff;fill-rule:nonzero;"/><path d="M516.599,558.6c0,7.455 6.044,13.5 13.501,13.5c7.456,0 13.5,-6.045 13.5,-13.5l-27.001,0Z" style="fill:#fff;fill-rule:nonzero;"/><path d="M460.8,558.6c0,7.455 6.044,13.5 13.5,13.5c7.456,0 13.5,-6.045 13.5,-13.5l-27,0Z" style="fill:#fff;fill-rule:nonzero;"/><path d="M530.1,768.299c-7.457,0 -13.501,6.045 -13.501,13.5l27.001,0c0,-7.455 -6.044,-13.5 -13.5,-13.5Z" style="fill:#fff;fill-rule:nonzero;"/><path d="M474.3,768.299c-7.456,0 -13.5,6.045 -13.5,13.5l27,0c0,-7.455 -6.044,-13.5 -13.5,-13.5Z" style="fill:#fff;fill-rule:nonzero;"/><path d="M558,739.501l0,-27c-7.456,0 -13.5,6.043 -13.5,13.5c0,7.455 6.044,13.5 13.5,13.5Z" style="fill:#fff;fill-rule:nonzero;"/><path d="M488.7,726.001c0,7.455 6.044,13.5 13.5,13.5c7.456,0 13.5,-6.045 13.5,-13.5c0,-7.457 -6.044,-13.5 -13.5,-13.5c-7.456,0 -13.5,6.043 -13.5,13.5Z" style="fill:#fff;fill-rule:nonzero;"/><path d="M459.9,726.001c0,-7.456 -6.044,-13.5 -13.5,-13.5l0,27c7.456,0 13.5,-6.045 13.5,-13.5Z" style="fill:#fff;fill-rule:nonzero;"/><path d="M516.599,670.2c0,7.456 6.044,13.5 13.501,13.5c7.456,0 13.5,-6.044 13.5,-13.5l-27.001,0Z" style="fill:#fff;fill-rule:nonzero;"/><path d="M460.8,670.2c0,7.456 6.044,13.5 13.5,13.5c7.456,0 13.5,-6.044 13.5,-13.5l-27,0Z" style="fill:#fff;fill-rule:nonzero;"/><path d="M530.1,879.9c-7.457,0 -13.501,6.044 -13.501,13.5l27.001,0c0,-7.456 -6.044,-13.5 -13.5,-13.5Z" style="fill:#fff;fill-rule:nonzero;"/><path d="M474.3,879.9c-7.456,0 -13.5,6.044 -13.5,13.5l27,0c0,-7.456 -6.044,-13.5 -13.5,-13.5Z" style="fill:#fff;fill-rule:nonzero;"/><path d="M558,851.1l0,-27c-7.456,0 -13.5,6.044 -13.5,13.5c0,7.455 6.044,13.5 13.5,13.5Z" style="fill:#fff;fill-rule:nonzero;"/><path d="M488.7,837.6c0,7.455 6.044,13.5 13.5,13.5c7.456,0 13.5,-6.045 13.5,-13.5c0,-7.456 -6.044,-13.5 -13.5,-13.5c-7.456,0 -13.5,6.044 -13.5,13.5Z" style="fill:#fff;fill-rule:nonzero;"/><path d="M459.9,837.6c0,-7.456 -6.044,-13.5 -13.5,-13.5l0,27c7.456,0 13.5,-6.045 13.5,-13.5Z" style="fill:#fff;fill-rule:nonzero;"/><path d="M516.599,781.799c0,7.457 6.044,13.5 13.501,13.5c7.456,0 13.5,-6.043 13.5,-13.5l-27.001,0Z" style="fill:#fff;fill-rule:nonzero;"/><path d="M460.8,781.799c0,7.457 6.044,13.5 13.5,13.5c7.456,0 13.5,-6.043 13.5,-13.5l-27,0Z" style="fill:#fff;fill-rule:nonzero;"/><path d="M530.1,991.501c-7.457,0 -13.501,6.043 -13.501,13.499l27.001,0c0,-7.456 -6.044,-13.499 -13.5,-13.499Z" style="fill:#fff;fill-rule:nonzero;"/><path d="M474.3,991.501c-7.456,0 -13.5,6.043 -13.5,13.499l27,0c0,-7.456 -6.044,-13.499 -13.5,-13.499Z" style="fill:#fff;fill-rule:nonzero;"/><path d="M558,962.7l0,-27c-7.456,0 -13.5,6.045 -13.5,13.5c0,7.456 6.044,13.5 13.5,13.5Z" style="fill:#fff;fill-rule:nonzero;"/><path d="M488.7,949.2c0,7.456 6.044,13.5 13.5,13.5c7.456,0 13.5,-6.044 13.5,-13.5c0,-7.455 -6.044,-13.5 -13.5,-13.5c-7.456,0 -13.5,6.045 -13.5,13.5Z" style="fill:#fff;fill-rule:nonzero;"/><path d="M459.9,949.2c0,-7.455 -6.044,-13.5 -13.5,-13.5l0,27c7.456,0 13.5,-6.044 13.5,-13.5Z" style="fill:#fff;fill-rule:nonzero;"/><path d="M516.599,893.4c0,7.456 6.044,13.5 13.501,13.5c7.456,0 13.5,-6.044 13.5,-13.5l-27.001,0Z" style="fill:#fff;fill-rule:nonzero;"/><path d="M460.8,893.4c0,7.456 6.044,13.5 13.5,13.5c7.456,0 13.5,-6.044 13.5,-13.5l-27,0Z" style="fill:#fff;fill-rule:nonzero;"/><path d="M418.5,98.7c-7.456,0 -13.5,6.044 -13.5,13.5l27,0c0,-7.456 -6.044,-13.5 -13.5,-13.5Z" style="fill:#fff;fill-rule:nonzero;"/><path d="M362.7,98.7c-7.456,0 -13.5,6.044 -13.5,13.5l27,0c0,-7.456 -6.044,-13.5 -13.5,-13.5Z" style="fill:#fff;fill-rule:nonzero;"/><path d="M446.4,42.9c-7.456,0 -13.5,6.044 -13.5,13.5c0,7.457 6.044,13.5 13.5,13.5l0,-27Z" style="fill:#fff;fill-rule:nonzero;"/><path d="M404.1,56.4c0,-7.456 -6.044,-13.5 -13.5,-13.5c-7.456,0 -13.5,6.044 -13.5,13.5c0,7.457 6.044,13.5 13.5,13.5c7.456,0 13.5,-6.043 13.5,-13.5Z" style="fill:#fff;fill-rule:nonzero;"/><path d="M334.8,69.9c7.456,0 13.5,-6.043 13.5,-13.5c0,-7.456 -6.044,-13.5 -13.5,-13.5l0,27Z" style="fill:#fff;fill-rule:nonzero;"/><path d="M418.5,14.101c7.456,0 13.5,-6.045 13.5,-13.5l-27,0c0,7.455 6.044,13.5 13.5,13.5Z" style="fill:#fff;fill-rule:nonzero;"/><path d="M349.2,0.601c0,7.455 6.044,13.5 13.5,13.5c7.456,0 13.5,-6.045 13.5,-13.5l-27,0Z" style="fill:#fff;fill-rule:nonzero;"/><path d="M418.5,210.299c-7.456,0 -13.5,6.045 -13.5,13.5l27,0c0,-7.455 -6.044,-13.5 -13.5,-13.5Z" style="fill:#fff;fill-rule:nonzero;"/><path d="M362.7,210.299c-7.456,0 -13.5,6.045 -13.5,13.5l27,0c0,-7.455 -6.044,-13.5 -13.5,-13.5Z" style="fill:#fff;fill-rule:nonzero;"/><path d="M446.4,154.501c-7.456,0 -13.5,6.044 -13.5,13.5c0,7.455 6.044,13.5 13.5,13.5l0,-27Z" style="fill:#fff;fill-rule:nonzero;"/><path d="M404.1,168.001c0,-7.456 -6.044,-13.5 -13.5,-13.5c-7.456,0 -13.5,6.044 -13.5,13.5c0,7.455 6.044,13.5 13.5,13.5c7.456,0 13.5,-6.045 13.5,-13.5Z" style="fill:#fff;fill-rule:nonzero;"/><path d="M334.8,154.501l0,27c7.456,0 13.5,-6.045 13.5,-13.5c0,-7.456 -6.044,-13.5 -13.5,-13.5Z" style="fill:#fff;fill-rule:nonzero;"/><path d="M405,112.2c0,7.456 6.044,13.5 13.5,13.5c7.456,0 13.5,-6.044 13.5,-13.5l-27,0Z" style="fill:#fff;fill-rule:nonzero;"/><path d="M349.2,112.2c0,7.456 6.044,13.5 13.5,13.5c7.456,0 13.5,-6.044 13.5,-13.5l-27,0Z" style="fill:#fff;fill-rule:nonzero;"/><path d="M418.5,321.9c-7.456,0 -13.5,6.044 -13.5,13.5l27,0c0,-7.456 -6.044,-13.5 -13.5,-13.5Z" style="fill:#fff;fill-rule:nonzero;"/><path d="M362.7,321.9c-7.456,0 -13.5,6.044 -13.5,13.5l27,0c0,-7.456 -6.044,-13.5 -13.5,-13.5Z" style="fill:#fff;fill-rule:nonzero;"/><path d="M446.4,266.1c-7.456,0 -13.5,6.044 -13.5,13.5c0,7.455 6.044,13.5 13.5,13.5l0,-27Z" style="fill:#fff;fill-rule:nonzero;"/><path d="M404.1,279.6c0,-7.456 -6.044,-13.5 -13.5,-13.5c-7.456,0 -13.5,6.044 -13.5,13.5c0,7.455 6.044,13.5 13.5,13.5c7.456,0 13.5,-6.045 13.5,-13.5Z" style="fill:#fff;fill-rule:nonzero;"/><path d="M334.8,266.1l0,27c7.456,0 13.5,-6.045 13.5,-13.5c0,-7.456 -6.044,-13.5 -13.5,-13.5Z" style="fill:#fff;fill-rule:nonzero;"/><path d="M405,223.799c0,7.457 6.044,13.5 13.5,13.5c7.456,0 13.5,-6.043 13.5,-13.5l-27,0Z" style="fill:#fff;fill-rule:nonzero;"/><path d="M349.2,223.799c0,7.457 6.044,13.5 13.5,13.5c7.456,0 13.5,-6.043 13.5,-13.5l-27,0Z" style="fill:#fff;fill-rule:nonzero;"/><path d="M418.5,433.501c-7.456,0 -13.5,6.043 -13.5,13.499l27,0c0,-7.456 -6.044,-13.499 -13.5,-13.499Z" style="fill:#fff;fill-rule:nonzero;"/><path d="M362.7,433.501c-7.456,0 -13.5,6.043 -13.5,13.499l27,0c0,-7.456 -6.044,-13.499 -13.5,-13.499Z" style="fill:#fff;fill-rule:nonzero;"/><path d="M446.4,377.7c-7.456,0 -13.5,6.045 -13.5,13.5c0,7.456 6.044,13.5 13.5,13.5l0,-27Z" style="fill:#fff;fill-rule:nonzero;"/><path d="M404.1,391.2c0,-7.455 -6.044,-13.5 -13.5,-13.5c-7.456,0 -13.5,6.045 -13.5,13.5c0,7.456 6.044,13.5 13.5,13.5c7.456,0 13.5,-6.044 13.5,-13.5Z" style="fill:#fff;fill-rule:nonzero;"/><path d="M334.8,377.7l0,27c7.456,0 13.5,-6.044 13.5,-13.5c0,-7.455 -6.044,-13.5 -13.5,-13.5Z" style="fill:#fff;fill-rule:nonzero;"/><path d="M405,335.4c0,7.456 6.044,13.5 13.5,13.5c7.456,0 13.5,-6.044 13.5,-13.5l-27,0Z" style="fill:#fff;fill-rule:nonzero;"/><path d="M349.2,335.4c0,7.456 6.044,13.5 13.5,13.5c7.456,0 13.5,-6.044 13.5,-13.5l-27,0Z" style="fill:#fff;fill-rule:nonzero;"/><path d="M418.5,545.1c-7.456,0 -13.5,6.044 -13.5,13.5l27,0c0,-7.456 -6.044,-13.5 -13.5,-13.5Z" style="fill:#fff;fill-rule:nonzero;"/><path d="M362.7,545.1c-7.456,0 -13.5,6.044 -13.5,13.5l27,0c0,-7.456 -6.044,-13.5 -13.5,-13.5Z" style="fill:#fff;fill-rule:nonzero;"/><path d="M446.4,489.299c-7.456,0 -13.5,6.045 -13.5,13.5c0,7.457 6.044,13.5 13.5,13.5l0,-27Z" style="fill:#fff;fill-rule:nonzero;"/><path d="M377.1,502.799c0,7.457 6.044,13.5 13.5,13.5c7.456,0 13.5,-6.043 13.5,-13.5c0,-7.455 -6.044,-13.5 -13.5,-13.5c-7.456,0 -13.5,6.045 -13.5,13.5Z" style="fill:#fff;fill-rule:nonzero;"/><path d="M334.8,516.299c7.456,0 13.5,-6.043 13.5,-13.5c0,-7.455 -6.044,-13.5 -13.5,-13.5l0,27Z" style="fill:#fff;fill-rule:nonzero;"/><path d="M405,447.001c0,7.455 6.044,13.5 13.5,13.5c7.456,0 13.5,-6.045 13.5,-13.5l0,-0.001l-27,0l0,0.001Z" style="fill:#fff;fill-rule:nonzero;"/><path d="M349.2,447.001c0,7.455 6.044,13.5 13.5,13.5c7.456,0 13.5,-6.045 13.5,-13.5l0,-0.001l-27,0l0,0.001Z" style="fill:#fff;fill-rule:nonzero;"/><path d="M418.5,656.7c-7.456,0 -13.5,6.045 -13.5,13.5l27,0c0,-7.455 -6.044,-13.5 -13.5,-13.5Z" style="fill:#fff;fill-rule:nonzero;"/><path d="M362.7,656.7c-7.456,0 -13.5,6.045 -13.5,13.5l27,0c0,-7.455 -6.044,-13.5 -13.5,-13.5Z" style="fill:#fff;fill-rule:nonzero;"/><path d="M446.4,627.9l0,-27c-7.456,0 -13.5,6.044 -13.5,13.5c0,7.456 6.044,13.5 13.5,13.5Z" style="fill:#fff;fill-rule:nonzero;"/><path d="M377.1,614.4c0,7.456 6.044,13.5 13.5,13.5c7.456,0 13.5,-6.044 13.5,-13.5c0,-7.456 -6.044,-13.5 -13.5,-13.5c-7.456,0 -13.5,6.044 -13.5,13.5Z" style="fill:#fff;fill-rule:nonzero;"/><path d="M348.3,614.4c0,-7.456 -6.044,-13.5 -13.5,-13.5l0,27c7.456,0 13.5,-6.044 13.5,-13.5Z" style="fill:#fff;fill-rule:nonzero;"/><path d="M405,558.6c0,7.455 6.044,13.5 13.5,13.5c7.456,0 13.5,-6.045 13.5,-13.5l-27,0Z" style="fill:#fff;fill-rule:nonzero;"/><path d="M349.2,558.6c0,7.455 6.044,13.5 13.5,13.5c7.456,0 13.5,-6.045 13.5,-13.5l-27,0Z" style="fill:#fff;fill-rule:nonzero;"/><path d="M418.5,768.299c-7.456,0 -13.5,6.045 -13.5,13.5l27,0c0,-7.455 -6.044,-13.5 -13.5,-13.5Z" style="fill:#fff;fill-rule:nonzero;"/><path d="M362.7,768.299c-7.456,0 -13.5,6.045 -13.5,13.5l27,0c0,-7.455 -6.044,-13.5 -13.5,-13.5Z" style="fill:#fff;fill-rule:nonzero;"/><path d="M446.4,739.501l0,-27c-7.456,0 -13.5,6.043 -13.5,13.5c0,7.455 6.044,13.5 13.5,13.5Z" style="fill:#fff;fill-rule:nonzero;"/><path d="M377.1,726.001c0,7.455 6.044,13.5 13.5,13.5c7.456,0 13.5,-6.045 13.5,-13.5c0,-7.457 -6.044,-13.5 -13.5,-13.5c-7.456,0 -13.5,6.043 -13.5,13.5Z" style="fill:#fff;fill-rule:nonzero;"/><path d="M348.3,726.001c0,-7.457 -6.044,-13.5 -13.5,-13.5l0,27c7.456,0 13.5,-6.045 13.5,-13.5Z" style="fill:#fff;fill-rule:nonzero;"/><path d="M405,670.2c0,7.456 6.044,13.5 13.5,13.5c7.456,0 13.5,-6.044 13.5,-13.5l-27,0Z" style="fill:#fff;fill-rule:nonzero;"/><path d="M349.2,670.2c0,7.456 6.044,13.5 13.5,13.5c7.456,0 13.5,-6.044 13.5,-13.5l-27,0Z" style="fill:#fff;fill-rule:nonzero;"/><path d="M418.5,879.9c-7.456,0 -13.5,6.044 -13.5,13.5l27,0c0,-7.456 -6.044,-13.5 -13.5,-13.5Z" style="fill:#fff;fill-rule:nonzero;"/><path d="M362.7,879.9c-7.456,0 -13.5,6.044 -13.5,13.5l27,0c0,-7.456 -6.044,-13.5 -13.5,-13.5Z" style="fill:#fff;fill-rule:nonzero;"/><path d="M446.4,851.1l0,-27c-7.456,0 -13.5,6.044 -13.5,13.5c0,7.455 6.044,13.5 13.5,13.5Z" style="fill:#fff;fill-rule:nonzero;"/><path d="M377.1,837.6c0,7.455 6.044,13.5 13.5,13.5c7.456,0 13.5,-6.045 13.5,-13.5c0,-7.456 -6.044,-13.5 -13.5,-13.5c-7.456,0 -13.5,6.044 -13.5,13.5Z" style="fill:#fff;fill-rule:nonzero;"/><path d="M348.3,837.6c0,-7.456 -6.044,-13.5 -13.5,-13.5l0,27c7.456,0 13.5,-6.045 13.5,-13.5Z" style="fill:#fff;fill-rule:nonzero;"/><path d="M405,781.799c0,7.457 6.044,13.5 13.5,13.5c7.456,0 13.5,-6.043 13.5,-13.5l-27,0Z" style="fill:#fff;fill-rule:nonzero;"/><path d="M349.2,781.799c0,7.457 6.044,13.5 13.5,13.5c7.456,0 13.5,-6.043 13.5,-13.5l-27,0Z" style="fill:#fff;fill-rule:nonzero;"/><path d="M418.5,991.501c-7.456,0 -13.5,6.043 -13.5,13.499l27,0c0,-7.456 -6.044,-13.499 -13.5,-13.499Z" style="fill:#fff;fill-rule:nonzero;"/><path d="M362.7,991.501c-7.456,0 -13.5,6.043 -13.5,13.499l27,0c0,-7.456 -6.044,-13.499 -13.5,-13.499Z" style="fill:#fff;fill-rule:nonzero;"/><path d="M446.4,962.7l0,-27c-7.456,0 -13.5,6.045 -13.5,13.5c0,7.456 6.044,13.5 13.5,13.5Z" style="fill:#fff;fill-rule:nonzero;"/><path d="M377.1,949.2c0,7.456 6.044,13.5 13.5,13.5c7.456,0 13.5,-6.044 13.5,-13.5c0,-7.455 -6.044,-13.5 -13.5,-13.5c-7.456,0 -13.5,6.045 -13.5,13.5Z" style="fill:#fff;fill-rule:nonzero;"/><path d="M348.3,949.2c0,-7.455 -6.044,-13.5 -13.5,-13.5l0,27c7.456,0 13.5,-6.044 13.5,-13.5Z" style="fill:#fff;fill-rule:nonzero;"/><path d="M405,893.4c0,7.456 6.044,13.5 13.5,13.5c7.456,0 13.5,-6.044 13.5,-13.5l-27,0Z" style="fill:#fff;fill-rule:nonzero;"/><path d="M349.2,893.4c0,7.456 6.044,13.5 13.5,13.5c7.456,0 13.5,-6.044 13.5,-13.5l-27,0Z" style="fill:#fff;fill-rule:nonzero;"/><path d="M306.9,98.7c-7.456,0 -13.5,6.044 -13.5,13.5l27,0c0,-7.456 -6.045,-13.5 -13.5,-13.5Z" style="fill:#fff;fill-rule:nonzero;"/><path d="M251.1,98.7c-7.456,0 -13.5,6.044 -13.5,13.5l27,0c0,-7.456 -6.044,-13.5 -13.5,-13.5Z" style="fill:#fff;fill-rule:nonzero;"/><path d="M334.8,42.9c-7.456,0 -13.5,6.044 -13.5,13.5c0,7.457 6.044,13.5 13.5,13.5l0,-27Z" style="fill:#fff;fill-rule:nonzero;"/><path d="M292.5,56.4c0,-7.456 -6.044,-13.5 -13.5,-13.5c-7.456,0 -13.5,6.044 -13.5,13.5c0,7.457 6.044,13.5 13.5,13.5c7.456,0 13.5,-6.043 13.5,-13.5Z" style="fill:#fff;fill-rule:nonzero;"/><path d="M223.2,42.9l0,27c7.456,0 13.5,-6.043 13.5,-13.5c0,-7.456 -6.044,-13.5 -13.5,-13.5Z" style="fill:#fff;fill-rule:nonzero;"/><path d="M293.4,0.601c0,7.455 6.044,13.5 13.5,13.5c7.456,0 13.5,-6.045 13.5,-13.5l-27,0Z" style="fill:#fff;fill-rule:nonzero;"/><path d="M237.6,0.601c0,7.455 6.044,13.5 13.5,13.5c7.456,0 13.5,-6.045 13.5,-13.5l-27,0Z" style="fill:#fff;fill-rule:nonzero;"/><path d="M306.9,210.299c-7.456,0 -13.5,6.045 -13.5,13.5l27,0c0,-7.455 -6.045,-13.5 -13.5,-13.5Z" style="fill:#fff;fill-rule:nonzero;"/><path d="M251.1,210.299c-7.456,0 -13.5,6.045 -13.5,13.5l27,0c0,-7.455 -6.044,-13.5 -13.5,-13.5Z" style="fill:#fff;fill-rule:nonzero;"/><path d="M334.8,154.501c-7.456,0 -13.5,6.044 -13.5,13.5c0,7.455 6.044,13.5 13.5,13.5l0,-27Z" style="fill:#fff;fill-rule:nonzero;"/><path d="M292.5,168.001c0,-7.456 -6.044,-13.5 -13.5,-13.5c-7.456,0 -13.5,6.044 -13.5,13.5c0,7.455 6.044,13.5 13.5,13.5c7.456,0 13.5,-6.045 13.5,-13.5Z" style="fill:#fff;fill-rule:nonzero;"/><path d="M223.2,154.501l0,27c7.456,0 13.5,-6.045 13.5,-13.5c0,-7.456 -6.044,-13.5 -13.5,-13.5Z" style="fill:#fff;fill-rule:nonzero;"/><path d="M293.4,112.2c0,7.456 6.044,13.5 13.5,13.5c7.456,0 13.5,-6.044 13.5,-13.5l-27,0Z" style="fill:#fff;fill-rule:nonzero;"/><path d="M237.6,112.2c0,7.456 6.044,13.5 13.5,13.5c7.456,0 13.5,-6.044 13.5,-13.5l-27,0Z" style="fill:#fff;fill-rule:nonzero;"/><path d="M306.9,321.9c-7.456,0 -13.5,6.044 -13.5,13.5l27,0c0,-7.456 -6.045,-13.5 -13.5,-13.5Z" style="fill:#fff;fill-rule:nonzero;"/><path d="M251.1,321.9c-7.456,0 -13.5,6.044 -13.5,13.5l27,0c0,-7.456 -6.044,-13.5 -13.5,-13.5Z" style="fill:#fff;fill-rule:nonzero;"/><path d="M334.8,266.1c-7.456,0 -13.5,6.044 -13.5,13.5c0,7.455 6.044,13.5 13.5,13.5l0,-27Z" style="fill:#fff;fill-rule:nonzero;"/><path d="M292.5,279.6c0,-7.456 -6.044,-13.5 -13.5,-13.5c-7.456,0 -13.5,6.044 -13.5,13.5c0,7.455 6.044,13.5 13.5,13.5c7.456,0 13.5,-6.045 13.5,-13.5Z" style="fill:#fff;fill-rule:nonzero;"/><path d="M223.2,266.1l0,27c7.456,0 13.5,-6.045 13.5,-13.5c0,-7.456 -6.044,-13.5 -13.5,-13.5Z" style="fill:#fff;fill-rule:nonzero;"/><path d="M293.4,223.799c0,7.457 6.044,13.5 13.5,13.5c7.456,0 13.5,-6.043 13.5,-13.5l-27,0Z" style="fill:#fff;fill-rule:nonzero;"/><path d="M237.6,223.799c0,7.457 6.044,13.5 13.5,13.5c7.456,0 13.5,-6.043 13.5,-13.5l-27,0Z" style="fill:#fff;fill-rule:nonzero;"/><path d="M306.9,433.501c-7.456,0 -13.5,6.043 -13.5,13.499l27,0c0,-7.456 -6.045,-13.499 -13.5,-13.499Z" style="fill:#fff;fill-rule:nonzero;"/><path d="M251.1,433.501c-7.456,0 -13.5,6.043 -13.5,13.499l27,0c0,-7.456 -6.044,-13.499 -13.5,-13.499Z" style="fill:#fff;fill-rule:nonzero;"/><path d="M334.8,377.7c-7.456,0 -13.5,6.045 -13.5,13.5c0,7.456 6.044,13.5 13.5,13.5l0,-27Z" style="fill:#fff;fill-rule:nonzero;"/><path d="M292.5,391.2c0,-7.455 -6.044,-13.5 -13.5,-13.5c-7.456,0 -13.5,6.045 -13.5,13.5c0,7.456 6.044,13.5 13.5,13.5c7.456,0 13.5,-6.044 13.5,-13.5Z" style="fill:#fff;fill-rule:nonzero;"/><path d="M223.2,377.7l0,27c7.456,0 13.5,-6.044 13.5,-13.5c0,-7.455 -6.044,-13.5 -13.5,-13.5Z" style="fill:#fff;fill-rule:nonzero;"/><path d="M293.4,335.4c0,7.456 6.044,13.5 13.5,13.5c7.456,0 13.5,-6.044 13.5,-13.5l-27,0Z" style="fill:#fff;fill-rule:nonzero;"/><path d="M237.6,335.4c0,7.456 6.044,13.5 13.5,13.5c7.456,0 13.5,-6.044 13.5,-13.5l-27,0Z" style="fill:#fff;fill-rule:nonzero;"/><path d="M306.9,545.1c-7.456,0 -13.5,6.044 -13.5,13.5l27,0c0,-7.456 -6.045,-13.5 -13.5,-13.5Z" style="fill:#fff;fill-rule:nonzero;"/><path d="M251.1,545.1c-7.456,0 -13.5,6.044 -13.5,13.5l27,0c0,-7.456 -6.044,-13.5 -13.5,-13.5Z" style="fill:#fff;fill-rule:nonzero;"/><path d="M334.8,489.299c-7.456,0 -13.5,6.045 -13.5,13.5c0,7.457 6.044,13.5 13.5,13.5l0,-27Z" style="fill:#fff;fill-rule:nonzero;"/><path d="M265.5,502.799c0,7.457 6.044,13.5 13.5,13.5c7.456,0 13.5,-6.043 13.5,-13.5c0,-7.455 -6.044,-13.5 -13.5,-13.5c-7.456,0 -13.5,6.045 -13.5,13.5Z" style="fill:#fff;fill-rule:nonzero;"/><path d="M223.2,516.299c7.456,0 13.5,-6.043 13.5,-13.5c0,-7.455 -6.044,-13.5 -13.5,-13.5l0,27Z" style="fill:#fff;fill-rule:nonzero;"/><path d="M293.4,447.001c0,7.455 6.044,13.5 13.5,13.5c7.456,0 13.5,-6.045 13.5,-13.5l0,-0.001l-27,0l0,0.001Z" style="fill:#fff;fill-rule:nonzero;"/><path d="M237.6,447.001c0,7.455 6.044,13.5 13.5,13.5c7.456,0 13.5,-6.045 13.5,-13.5l0,-0.001l-27,0l0,0.001Z" style="fill:#fff;fill-rule:nonzero;"/><path d="M306.9,656.7c-7.456,0 -13.5,6.045 -13.5,13.5l27,0c0,-7.455 -6.045,-13.5 -13.5,-13.5Z" style="fill:#fff;fill-rule:nonzero;"/><path d="M251.1,656.7c-7.456,0 -13.5,6.045 -13.5,13.5l27,0c0,-7.455 -6.044,-13.5 -13.5,-13.5Z" style="fill:#fff;fill-rule:nonzero;"/><path d="M334.8,627.9l0,-27c-7.456,0 -13.5,6.044 -13.5,13.5c0,7.456 6.044,13.5 13.5,13.5Z" style="fill:#fff;fill-rule:nonzero;"/><path d="M265.5,614.4c0,7.456 6.044,13.5 13.5,13.5c7.456,0 13.5,-6.044 13.5,-13.5c0,-7.456 -6.044,-13.5 -13.5,-13.5c-7.456,0 -13.5,6.044 -13.5,13.5Z" style="fill:#fff;fill-rule:nonzero;"/><path d="M236.7,614.4c0,-7.456 -6.044,-13.5 -13.5,-13.5l0,27c7.456,0 13.5,-6.044 13.5,-13.5Z" style="fill:#fff;fill-rule:nonzero;"/><path d="M293.4,558.6c0,7.455 6.044,13.5 13.5,13.5c7.456,0 13.5,-6.045 13.5,-13.5l-27,0Z" style="fill:#fff;fill-rule:nonzero;"/><path d="M237.6,558.6c0,7.455 6.044,13.5 13.5,13.5c7.456,0 13.5,-6.045 13.5,-13.5l-27,0Z" style="fill:#fff;fill-rule:nonzero;"/><path d="M306.9,768.299c-7.456,0 -13.5,6.045 -13.5,13.5l27,0c0,-7.455 -6.045,-13.5 -13.5,-13.5Z" style="fill:#fff;fill-rule:nonzero;"/><path d="M251.1,768.299c-7.456,0 -13.5,6.045 -13.5,13.5l27,0c0,-7.455 -6.044,-13.5 -13.5,-13.5Z" style="fill:#fff;fill-rule:nonzero;"/><path d="M334.8,739.501l0,-27c-7.456,0 -13.5,6.043 -13.5,13.5c0,7.455 6.044,13.5 13.5,13.5Z" style="fill:#fff;fill-rule:nonzero;"/><path d="M265.5,726.001c0,7.455 6.044,13.5 13.5,13.5c7.456,0 13.5,-6.045 13.5,-13.5c0,-7.457 -6.044,-13.5 -13.5,-13.5c-7.456,0 -13.5,6.043 -13.5,13.5Z" style="fill:#fff;fill-rule:nonzero;"/><path d="M236.7,726.001c0,-7.457 -6.044,-13.5 -13.5,-13.5l0,27c7.456,0 13.5,-6.045 13.5,-13.5Z" style="fill:#fff;fill-rule:nonzero;"/><path d="M293.4,670.2c0,7.456 6.044,13.5 13.5,13.5c7.456,0 13.5,-6.044 13.5,-13.5l-27,0Z" style="fill:#fff;fill-rule:nonzero;"/><path d="M237.6,670.2c0,7.456 6.044,13.5 13.5,13.5c7.456,0 13.5,-6.044 13.5,-13.5l-27,0Z" style="fill:#fff;fill-rule:nonzero;"/><path d="M306.9,879.9c-7.456,0 -13.5,6.044 -13.5,13.5l27,0c0,-7.456 -6.045,-13.5 -13.5,-13.5Z" style="fill:#fff;fill-rule:nonzero;"/><path d="M251.1,879.9c-7.456,0 -13.5,6.044 -13.5,13.5l27,0c0,-7.456 -6.044,-13.5 -13.5,-13.5Z" style="fill:#fff;fill-rule:nonzero;"/><path d="M334.8,851.1l0,-27c-7.456,0 -13.5,6.044 -13.5,13.5c0,7.455 6.044,13.5 13.5,13.5Z" style="fill:#fff;fill-rule:nonzero;"/><path d="M265.5,837.6c0,7.455 6.044,13.5 13.5,13.5c7.456,0 13.5,-6.045 13.5,-13.5c0,-7.456 -6.044,-13.5 -13.5,-13.5c-7.456,0 -13.5,6.044 -13.5,13.5Z" style="fill:#fff;fill-rule:nonzero;"/><path d="M236.7,837.6c0,-7.456 -6.044,-13.5 -13.5,-13.5l0,27c7.456,0 13.5,-6.045 13.5,-13.5Z" style="fill:#fff;fill-rule:nonzero;"/><path d="M293.4,781.799c0,7.457 6.044,13.5 13.5,13.5c7.456,0 13.5,-6.043 13.5,-13.5l-27,0Z" style="fill:#fff;fill-rule:nonzero;"/><path d="M237.6,781.799c0,7.457 6.044,13.5 13.5,13.5c7.456,0 13.5,-6.043 13.5,-13.5l-27,0Z" style="fill:#fff;fill-rule:nonzero;"/><path d="M306.9,991.501c-7.456,0 -13.5,6.043 -13.5,13.499l27,0c0,-7.456 -6.045,-13.499 -13.5,-13.499Z" style="fill:#fff;fill-rule:nonzero;"/><path d="M251.1,991.501c-7.456,0 -13.5,6.043 -13.5,13.499l27,0c0,-7.456 -6.044,-13.499 -13.5,-13.499Z" style="fill:#fff;fill-rule:nonzero;"/><path d="M334.8,962.7l0,-27c-7.456,0 -13.5,6.045 -13.5,13.5c0,7.456 6.044,13.5 13.5,13.5Z" style="fill:#fff;fill-rule:nonzero;"/><path d="M265.5,949.2c0,7.456 6.044,13.5 13.5,13.5c7.456,0 13.5,-6.044 13.5,-13.5c0,-7.455 -6.044,-13.5 -13.5,-13.5c-7.456,0 -13.5,6.045 -13.5,13.5Z" style="fill:#fff;fill-rule:nonzero;"/><path d="M236.7,949.2c0,-7.455 -6.044,-13.5 -13.5,-13.5l0,27c7.456,0 13.5,-6.044 13.5,-13.5Z" style="fill:#fff;fill-rule:nonzero;"/><path d="M293.4,893.4c0,7.456 6.044,13.5 13.5,13.5c7.456,0 13.5,-6.044 13.5,-13.5l-27,0Z" style="fill:#fff;fill-rule:nonzero;"/><path d="M237.6,893.4c0,7.456 6.044,13.5 13.5,13.5c7.456,0 13.5,-6.044 13.5,-13.5l-27,0Z" style="fill:#fff;fill-rule:nonzero;"/><path d="M195.3,98.7c-7.456,0 -13.5,6.044 -13.5,13.5l27,0c0,-7.456 -6.044,-13.5 -13.5,-13.5Z" style="fill:#fff;fill-rule:nonzero;"/><path d="M139.5,98.7c-7.456,0 -13.5,6.044 -13.5,13.5l27,0c0,-7.456 -6.044,-13.5 -13.5,-13.5Z" style="fill:#fff;fill-rule:nonzero;"/><path d="M223.2,42.9c-7.456,0 -13.5,6.044 -13.5,13.5c0,7.457 6.044,13.5 13.5,13.5l0,-27Z" style="fill:#fff;fill-rule:nonzero;"/><path d="M180.9,56.4c0,-7.456 -6.044,-13.5 -13.5,-13.5c-7.456,0 -13.5,6.044 -13.5,13.5c0,7.457 6.044,13.5 13.5,13.5c7.456,0 13.5,-6.043 13.5,-13.5Z" style="fill:#fff;fill-rule:nonzero;"/><path d="M111.6,69.9c7.456,0 13.5,-6.043 13.5,-13.5c0,-7.456 -6.044,-13.5 -13.5,-13.5l0,27Z" style="fill:#fff;fill-rule:nonzero;"/><path d="M181.8,0.601c0,7.455 6.044,13.5 13.5,13.5c7.456,0 13.5,-6.045 13.5,-13.5l-27,0Z" style="fill:#fff;fill-rule:nonzero;"/><path d="M139.5,14.101c7.456,0 13.5,-6.045 13.5,-13.5l-27,0c0,7.455 6.044,13.5 13.5,13.5Z" style="fill:#fff;fill-rule:nonzero;"/><path d="M195.3,210.299c-7.456,0 -13.5,6.045 -13.5,13.5l27,0c0,-7.455 -6.044,-13.5 -13.5,-13.5Z" style="fill:#fff;fill-rule:nonzero;"/><path d="M139.5,210.299c-7.456,0 -13.5,6.045 -13.5,13.5l27,0c0,-7.455 -6.044,-13.5 -13.5,-13.5Z" style="fill:#fff;fill-rule:nonzero;"/><path d="M223.2,154.501c-7.456,0 -13.5,6.044 -13.5,13.5c0,7.455 6.044,13.5 13.5,13.5l0,-27Z" style="fill:#fff;fill-rule:nonzero;"/><path d="M180.9,168.001c0,-7.456 -6.044,-13.5 -13.5,-13.5c-7.456,0 -13.5,6.044 -13.5,13.5c0,7.455 6.044,13.5 13.5,13.5c7.456,0 13.5,-6.045 13.5,-13.5Z" style="fill:#fff;fill-rule:nonzero;"/><path d="M111.6,154.501l0,27c7.456,-0.001 13.5,-6.045 13.5,-13.5c0,-7.456 -6.044,-13.5 -13.5,-13.5Z" style="fill:#fff;fill-rule:nonzero;"/><path d="M181.8,112.2c0,7.456 6.044,13.5 13.5,13.5c7.456,0 13.5,-6.044 13.5,-13.5l-27,0Z" style="fill:#fff;fill-rule:nonzero;"/><path d="M126,112.2c0,7.456 6.044,13.5 13.5,13.5c7.456,0 13.5,-6.044 13.5,-13.5l-27,0Z" style="fill:#fff;fill-rule:nonzero;"/><path d="M195.3,321.9c-7.456,0 -13.5,6.044 -13.5,13.5l27,0c0,-7.456 -6.044,-13.5 -13.5,-13.5Z" style="fill:#fff;fill-rule:nonzero;"/><path d="M139.5,321.9c-7.456,0 -13.5,6.044 -13.5,13.5l27,0c0,-7.456 -6.044,-13.5 -13.5,-13.5Z" style="fill:#fff;fill-rule:nonzero;"/><path d="M223.2,266.1c-7.456,0 -13.5,6.044 -13.5,13.5c0,7.455 6.044,13.5 13.5,13.5l0,-27Z" style="fill:#fff;fill-rule:nonzero;"/><path d="M180.9,279.6c0,-7.456 -6.044,-13.5 -13.5,-13.5c-7.456,0 -13.5,6.044 -13.5,13.5c0,7.455 6.044,13.5 13.5,13.5c7.456,0 13.5,-6.045 13.5,-13.5Z" style="fill:#fff;fill-rule:nonzero;"/><path d="M111.6,266.1l0,27c7.456,0 13.5,-6.045 13.5,-13.5c0,-7.456 -6.044,-13.5 -13.5,-13.5Z" style="fill:#fff;fill-rule:nonzero;"/><path d="M181.8,223.799c0,7.457 6.044,13.5 13.5,13.5c7.456,0 13.5,-6.043 13.5,-13.5l-27,0Z" style="fill:#fff;fill-rule:nonzero;"/><path d="M126,223.799c0,7.457 6.044,13.5 13.5,13.5c7.456,0 13.5,-6.043 13.5,-13.5l-27,0Z" style="fill:#fff;fill-rule:nonzero;"/><path d="M195.3,433.501c-7.456,0 -13.5,6.043 -13.5,13.499l27,0c0,-7.456 -6.044,-13.499 -13.5,-13.499Z" style="fill:#fff;fill-rule:nonzero;"/><path d="M139.5,433.501c-7.456,0 -13.5,6.043 -13.5,13.499l27,0c0,-7.456 -6.044,-13.499 -13.5,-13.499Z" style="fill:#fff;fill-rule:nonzero;"/><path d="M223.2,377.7c-7.456,0 -13.5,6.045 -13.5,13.5c0,7.456 6.044,13.5 13.5,13.5l0,-27Z" style="fill:#fff;fill-rule:nonzero;"/><path d="M180.9,391.2c0,-7.455 -6.044,-13.5 -13.5,-13.5c-7.456,0 -13.5,6.045 -13.5,13.5c0,7.456 6.044,13.5 13.5,13.5c7.456,0 13.5,-6.044 13.5,-13.5Z" style="fill:#fff;fill-rule:nonzero;"/><path d="M111.6,377.7l0,27c7.456,0 13.5,-6.044 13.5,-13.5c0,-7.455 -6.044,-13.5 -13.5,-13.5Z" style="fill:#fff;fill-rule:nonzero;"/><path d="M181.8,335.4c0,7.456 6.044,13.5 13.5,13.5c7.456,0 13.5,-6.044 13.5,-13.5l-27,0Z" style="fill:#fff;fill-rule:nonzero;"/><path d="M126,335.4c0,7.456 6.044,13.5 13.5,13.5c7.456,0 13.5,-6.044 13.5,-13.5l-27,0Z" style="fill:#fff;fill-rule:nonzero;"/><path d="M195.3,545.1c-7.456,0 -13.5,6.044 -13.5,13.5l27,0c0,-7.456 -6.044,-13.5 -13.5,-13.5Z" style="fill:#fff;fill-rule:nonzero;"/><path d="M139.5,545.1c-7.456,0 -13.5,6.044 -13.5,13.5l27,0c0,-7.456 -6.044,-13.5 -13.5,-13.5Z" style="fill:#fff;fill-rule:nonzero;"/><path d="M223.2,489.299c-7.456,0 -13.5,6.045 -13.5,13.5c0,7.457 6.044,13.5 13.5,13.5l0,-27Z" style="fill:#fff;fill-rule:nonzero;"/><path d="M153.9,502.799c0,7.457 6.044,13.5 13.5,13.5c7.456,0 13.5,-6.043 13.5,-13.5c0,-7.455 -6.044,-13.5 -13.5,-13.5c-7.456,0 -13.5,6.045 -13.5,13.5Z" style="fill:#fff;fill-rule:nonzero;"/><path d="M111.6,516.299c7.456,0 13.5,-6.043 13.5,-13.5c0,-7.455 -6.044,-13.499 -13.5,-13.5l0,27Z" style="fill:#fff;fill-rule:nonzero;"/><path d="M181.8,447.001c0,7.455 6.044,13.5 13.5,13.5c7.456,0 13.5,-6.045 13.5,-13.5l0,-0.001l-27,0l0,0.001Z" style="fill:#fff;fill-rule:nonzero;"/><path d="M126,447.001c0,7.455 6.044,13.5 13.5,13.5c7.456,0 13.5,-6.045 13.5,-13.5l0,-0.001l-27,0l0,0.001Z" style="fill:#fff;fill-rule:nonzero;"/><path d="M195.3,656.7c-7.456,0 -13.5,6.045 -13.5,13.5l27,0c0,-7.455 -6.044,-13.5 -13.5,-13.5Z" style="fill:#fff;fill-rule:nonzero;"/><path d="M139.5,656.7c-7.456,0 -13.5,6.045 -13.5,13.5l27,0c0,-7.455 -6.044,-13.5 -13.5,-13.5Z" style="fill:#fff;fill-rule:nonzero;"/><path d="M223.2,627.9l0,-27c-7.456,0 -13.5,6.044 -13.5,13.5c0,7.456 6.044,13.5 13.5,13.5Z" style="fill:#fff;fill-rule:nonzero;"/><path d="M153.9,614.4c0,7.456 6.044,13.5 13.5,13.5c7.456,0 13.5,-6.044 13.5,-13.5c0,-7.456 -6.044,-13.5 -13.5,-13.5c-7.456,0 -13.5,6.044 -13.5,13.5Z" style="fill:#fff;fill-rule:nonzero;"/><path d="M125.1,614.4c0,-7.456 -6.044,-13.5 -13.5,-13.5l0,27c7.456,0 13.5,-6.044 13.5,-13.5Z" style="fill:#fff;fill-rule:nonzero;"/><path d="M181.8,558.6c0,7.455 6.044,13.5 13.5,13.5c7.456,0 13.5,-6.045 13.5,-13.5l-27,0Z" style="fill:#fff;fill-rule:nonzero;"/><path d="M126,558.6c0,7.455 6.044,13.5 13.5,13.5c7.456,0 13.5,-6.045 13.5,-13.5l-27,0Z" style="fill:#fff;fill-rule:nonzero;"/><path d="M195.3,768.299c-7.456,0 -13.5,6.045 -13.5,13.5l27,0c0,-7.455 -6.044,-13.5 -13.5,-13.5Z" style="fill:#fff;fill-rule:nonzero;"/><path d="M139.5,768.299c-7.456,0 -13.5,6.045 -13.5,13.5l27,0c0,-7.455 -6.044,-13.5 -13.5,-13.5Z" style="fill:#fff;fill-rule:nonzero;"/><path d="M223.2,739.501l0,-27c-7.456,0 -13.5,6.043 -13.5,13.5c0,7.455 6.044,13.5 13.5,13.5Z" style="fill:#fff;fill-rule:nonzero;"/><path d="M153.9,726.001c0,7.455 6.044,13.5 13.5,13.5c7.456,0 13.5,-6.045 13.5,-13.5c0,-7.457 -6.044,-13.5 -13.5,-13.5c-7.456,0 -13.5,6.043 -13.5,13.5Z" style="fill:#fff;fill-rule:nonzero;"/><path d="M125.1,726.001c0,-7.456 -6.044,-13.5 -13.5,-13.5l0,27c7.456,0 13.5,-6.045 13.5,-13.5Z" style="fill:#fff;fill-rule:nonzero;"/><path d="M181.8,670.2c0,7.456 6.044,13.5 13.5,13.5c7.456,0 13.5,-6.044 13.5,-13.5l-27,0Z" style="fill:#fff;fill-rule:nonzero;"/><path d="M126,670.2c0,7.456 6.044,13.5 13.5,13.5c7.456,0 13.5,-6.044 13.5,-13.5l-27,0Z" style="fill:#fff;fill-rule:nonzero;"/><path d="M195.3,879.9c-7.456,0 -13.5,6.044 -13.5,13.5l27,0c0,-7.456 -6.044,-13.5 -13.5,-13.5Z" style="fill:#fff;fill-rule:nonzero;"/><path d="M139.5,879.9c-7.456,0 -13.5,6.044 -13.5,13.5l27,0c0,-7.456 -6.044,-13.5 -13.5,-13.5Z" style="fill:#fff;fill-rule:nonzero;"/><path d="M223.2,851.1l0,-27c-7.456,0 -13.5,6.044 -13.5,13.5c0,7.455 6.044,13.5 13.5,13.5Z" style="fill:#fff;fill-rule:nonzero;"/><path d="M153.9,837.6c0,7.455 6.044,13.5 13.5,13.5c7.456,0 13.5,-6.045 13.5,-13.5c0,-7.456 -6.044,-13.5 -13.5,-13.5c-7.456,0 -13.5,6.044 -13.5,13.5Z" style="fill:#fff;fill-rule:nonzero;"/><path d="M125.1,837.6c0,-7.456 -6.044,-13.5 -13.5,-13.5l0,27c7.456,0 13.5,-6.045 13.5,-13.5Z" style="fill:#fff;fill-rule:nonzero;"/><path d="M181.8,781.799c0,7.457 6.044,13.5 13.5,13.5c7.456,0 13.5,-6.043 13.5,-13.5l-27,0Z" style="fill:#fff;fill-rule:nonzero;"/><path d="M126,781.799c0,7.457 6.044,13.5 13.5,13.5c7.456,0 13.5,-6.043 13.5,-13.5l-27,0Z" style="fill:#fff;fill-rule:nonzero;"/><path d="M195.3,991.501c-7.456,0 -13.5,6.043 -13.5,13.499l27,0c0,-7.456 -6.044,-13.499 -13.5,-13.499Z" style="fill:#fff;fill-rule:nonzero;"/><path d="M139.5,991.501c-7.456,0 -13.5,6.043 -13.5,13.499l27,0c0,-7.456 -6.044,-13.499 -13.5,-13.499Z" style="fill:#fff;fill-rule:nonzero;"/><path d="M223.2,962.7l0,-27c-7.456,0 -13.5,6.045 -13.5,13.5c0,7.456 6.044,13.5 13.5,13.5Z" style="fill:#fff;fill-rule:nonzero;"/><path d="M153.9,949.2c0,7.456 6.044,13.5 13.5,13.5c7.456,0 13.5,-6.044 13.5,-13.5c0,-7.455 -6.044,-13.5 -13.5,-13.5c-7.456,0 -13.5,6.045 -13.5,13.5Z" style="fill:#fff;fill-rule:nonzero;"/><path d="M125.1,949.2c0,-7.455 -6.044,-13.5 -13.5,-13.5l0,27c7.456,0 13.5,-6.044 13.5,-13.5Z" style="fill:#fff;fill-rule:nonzero;"/><path d="M181.8,893.4c0,7.456 6.044,13.5 13.5,13.5c7.456,0 13.5,-6.044 13.5,-13.5l-27,0Z" style="fill:#fff;fill-rule:nonzero;"/><path d="M126,893.4c0,7.456 6.044,13.5 13.5,13.5c7.456,0 13.5,-6.044 13.5,-13.5l-27,0Z" style="fill:#fff;fill-rule:nonzero;"/><path d="M83.7,98.7c-7.456,0 -13.5,6.044 -13.5,13.5l27,0c-0.001,-7.456 -6.045,-13.5 -13.5,-13.5Z" style="fill:#fff;fill-rule:nonzero;"/><path d="M27.899,98.7c-7.455,0 -13.5,6.044 -13.5,13.5l27,0c0,-7.456 -6.044,-13.5 -13.5,-13.5Z" style="fill:#fff;fill-rule:nonzero;"/><path d="M111.6,42.9c-7.456,0 -13.5,6.044 -13.5,13.5c0,7.457 6.044,13.5 13.5,13.5l0,-27Z" style="fill:#fff;fill-rule:nonzero;"/><path d="M69.299,56.4c0,-7.456 -6.044,-13.5 -13.5,-13.5c-7.455,0 -13.5,6.044 -13.5,13.5c0,7.457 6.045,13.5 13.5,13.5c7.456,0 13.5,-6.043 13.5,-13.5Z" style="fill:#fff;fill-rule:nonzero;"/><path d="M0,69.9c7.456,0 13.5,-6.043 13.5,-13.5c0,-7.456 -6.044,-13.5 -13.5,-13.5l0,27Z" style="fill:#fff;fill-rule:nonzero;"/><path d="M83.7,14.101c7.455,0 13.5,-6.045 13.5,-13.5l-27,0c0,7.455 6.044,13.5 13.5,13.5Z" style="fill:#fff;fill-rule:nonzero;"/><path d="M14.399,0.601c0,7.455 6.045,13.5 13.5,13.5c7.457,0 13.5,-6.045 13.5,-13.5l-27,0Z" style="fill:#fff;fill-rule:nonzero;"/><path d="M83.7,210.299c-7.456,0 -13.5,6.045 -13.5,13.5l27,0c-0.001,-7.455 -6.045,-13.5 -13.5,-13.5Z" style="fill:#fff;fill-rule:nonzero;"/><path d="M27.899,210.299c-7.455,0 -13.5,6.045 -13.5,13.5l27,0c0,-7.455 -6.044,-13.5 -13.5,-13.5Z" style="fill:#fff;fill-rule:nonzero;"/><path d="M111.6,154.501c-7.456,0 -13.5,6.044 -13.5,13.5c0,7.455 6.044,13.5 13.5,13.5l0,-27Z" style="fill:#fff;fill-rule:nonzero;"/><path d="M69.299,168.001c0,-7.456 -6.044,-13.5 -13.5,-13.5c-7.455,0 -13.5,6.044 -13.5,13.5c0,7.455 6.045,13.5 13.5,13.5c7.456,0 13.5,-6.045 13.5,-13.5Z" style="fill:#fff;fill-rule:nonzero;"/><path d="M13.5,168.001c0,-7.456 -6.044,-13.5 -13.5,-13.5l0,27c7.456,0 13.5,-6.045 13.5,-13.5Z" style="fill:#fff;fill-rule:nonzero;"/><path d="M70.2,112.2c0,7.456 6.044,13.5 13.5,13.5c7.455,0 13.5,-6.044 13.5,-13.5l-27,0Z" style="fill:#fff;fill-rule:nonzero;"/><path d="M14.399,112.2c0,7.456 6.045,13.5 13.5,13.5c7.457,0 13.5,-6.044 13.5,-13.5l-27,0Z" style="fill:#fff;fill-rule:nonzero;"/><path d="M83.7,321.9c-7.456,0 -13.5,6.044 -13.5,13.5l27,0c-0.001,-7.456 -6.045,-13.5 -13.5,-13.5Z" style="fill:#fff;fill-rule:nonzero;"/><path d="M27.899,321.9c-7.455,0 -13.5,6.044 -13.5,13.5l27,0c0,-7.456 -6.044,-13.5 -13.5,-13.5Z" style="fill:#fff;fill-rule:nonzero;"/><path d="M111.6,266.1c-7.456,0 -13.5,6.044 -13.5,13.5c0,7.455 6.044,13.5 13.5,13.5l0,-27Z" style="fill:#fff;fill-rule:nonzero;"/><path d="M69.299,279.6c0,-7.456 -6.044,-13.5 -13.5,-13.5c-7.455,0 -13.5,6.044 -13.5,13.5c0,7.455 6.045,13.5 13.5,13.5c7.456,0 13.5,-6.045 13.5,-13.5Z" style="fill:#fff;fill-rule:nonzero;"/><path d="M13.5,279.6c0,-7.456 -6.044,-13.5 -13.5,-13.5l0,27c7.456,0 13.5,-6.045 13.5,-13.5Z" style="fill:#fff;fill-rule:nonzero;"/><path d="M70.2,223.799c0,7.457 6.044,13.5 13.5,13.5c7.455,0 13.5,-6.043 13.5,-13.5l-27,0Z" style="fill:#fff;fill-rule:nonzero;"/><path d="M14.399,223.799c0,7.457 6.045,13.5 13.5,13.5c7.457,0 13.5,-6.043 13.5,-13.5l-27,0Z" style="fill:#fff;fill-rule:nonzero;"/><path d="M83.7,433.501c-7.456,0 -13.5,6.043 -13.5,13.499l27,0c-0.001,-7.456 -6.045,-13.499 -13.5,-13.499Z" style="fill:#fff;fill-rule:nonzero;"/><path d="M27.899,433.501c-7.455,0 -13.5,6.043 -13.5,13.499l27,0c0,-7.456 -6.044,-13.499 -13.5,-13.499Z" style="fill:#fff;fill-rule:nonzero;"/><path d="M111.6,377.7c-7.456,0 -13.5,6.045 -13.5,13.5c0,7.456 6.044,13.5 13.5,13.5l0,-27Z" style="fill:#fff;fill-rule:nonzero;"/><path d="M69.299,391.2c0,-7.455 -6.044,-13.5 -13.5,-13.5c-7.455,0 -13.5,6.045 -13.5,13.5c0,7.456 6.045,13.5 13.5,13.5c7.456,0 13.5,-6.044 13.5,-13.5Z" style="fill:#fff;fill-rule:nonzero;"/><path d="M13.5,391.2c0,-7.455 -6.044,-13.5 -13.5,-13.5l0,27c7.456,0 13.5,-6.044 13.5,-13.5Z" style="fill:#fff;fill-rule:nonzero;"/><path d="M70.2,335.4c0,7.456 6.044,13.5 13.5,13.5c7.455,0 13.5,-6.044 13.5,-13.5l-27,0Z" style="fill:#fff;fill-rule:nonzero;"/><path d="M27.899,348.9c7.457,0 13.5,-6.044 13.5,-13.5l-27,0c0,7.456 6.045,13.5 13.5,13.5Z" style="fill:#fff;fill-rule:nonzero;"/><path d="M83.7,545.1c-7.456,0 -13.5,6.044 -13.5,13.5l27,0c-0.001,-7.456 -6.045,-13.5 -13.5,-13.5Z" style="fill:#fff;fill-rule:nonzero;"/><path d="M27.899,545.1c-7.455,0 -13.5,6.044 -13.5,13.5l27,0c0,-7.456 -6.044,-13.5 -13.5,-13.5Z" style="fill:#fff;fill-rule:nonzero;"/><path d="M111.6,489.299c-7.456,0 -13.5,6.045 -13.5,13.5c0,7.457 6.044,13.5 13.5,13.5l0,-27Z" style="fill:#fff;fill-rule:nonzero;"/><path d="M55.799,516.299c7.456,0 13.5,-6.043 13.5,-13.5c0,-7.455 -6.044,-13.5 -13.5,-13.5c-7.455,0 -13.5,6.045 -13.5,13.5c0,7.457 6.045,13.5 13.5,13.5Z" style="fill:#fff;fill-rule:nonzero;"/><path d="M13.5,502.799c0,-7.455 -6.044,-13.5 -13.5,-13.5l0,27c7.456,0 13.5,-6.043 13.5,-13.5Z" style="fill:#fff;fill-rule:nonzero;"/><path d="M70.2,447.001c0,7.455 6.044,13.5 13.5,13.5c7.455,0 13.5,-6.045 13.5,-13.5l0,-0.001l-27,0l0,0.001Z" style="fill:#fff;fill-rule:nonzero;"/><path d="M27.899,460.501c7.457,0 13.5,-6.045 13.5,-13.5l0,-0.001l-27,0l0,0.001c0,7.455 6.045,13.5 13.5,13.5Z" style="fill:#fff;fill-rule:nonzero;"/><path d="M83.7,656.7c-7.456,0 -13.5,6.045 -13.5,13.5l27,0c-0.001,-7.455 -6.045,-13.5 -13.5,-13.5Z" style="fill:#fff;fill-rule:nonzero;"/><path d="M27.899,656.7c-7.455,0 -13.5,6.045 -13.5,13.5l27,0c0,-7.455 -6.044,-13.5 -13.5,-13.5Z" style="fill:#fff;fill-rule:nonzero;"/><path d="M111.6,627.9l0,-27c-7.456,0 -13.5,6.044 -13.5,13.5c0,7.456 6.044,13.5 13.5,13.5Z" style="fill:#fff;fill-rule:nonzero;"/><path d="M42.299,614.4c0,7.456 6.045,13.5 13.5,13.5c7.456,0 13.5,-6.044 13.5,-13.5c0,-7.456 -6.044,-13.5 -13.5,-13.5c-7.455,0 -13.5,6.044 -13.5,13.5Z" style="fill:#fff;fill-rule:nonzero;"/><path d="M13.5,614.4c0,-7.456 -6.044,-13.5 -13.5,-13.5l0,27c7.456,0 13.5,-6.044 13.5,-13.5Z" style="fill:#fff;fill-rule:nonzero;"/><path d="M70.2,558.6c0,7.455 6.044,13.5 13.5,13.5c7.455,0 13.5,-6.045 13.5,-13.5l-27,0Z" style="fill:#fff;fill-rule:nonzero;"/><path d="M27.899,572.1c7.457,0 13.5,-6.045 13.5,-13.5l-27,0c0,7.455 6.045,13.5 13.5,13.5Z" style="fill:#fff;fill-rule:nonzero;"/><path d="M83.7,768.299c-7.456,0 -13.5,6.045 -13.5,13.5l27,0c-0.001,-7.455 -6.045,-13.5 -13.5,-13.5Z" style="fill:#fff;fill-rule:nonzero;"/><path d="M27.899,768.299c-7.455,0 -13.5,6.045 -13.5,13.5l27,0c0,-7.455 -6.044,-13.5 -13.5,-13.5Z" style="fill:#fff;fill-rule:nonzero;"/><path d="M111.6,739.501l0,-27c-7.456,0 -13.5,6.043 -13.5,13.5c0,7.455 6.044,13.5 13.5,13.5Z" style="fill:#fff;fill-rule:nonzero;"/><path d="M42.299,726.001c0,7.455 6.045,13.5 13.5,13.5c7.456,0 13.5,-6.045 13.5,-13.5c0,-7.457 -6.044,-13.5 -13.5,-13.5c-7.455,0 -13.5,6.043 -13.5,13.5Z" style="fill:#fff;fill-rule:nonzero;"/><path d="M13.5,726.001c0,-7.457 -6.044,-13.5 -13.5,-13.5l0,27c7.456,0 13.5,-6.045 13.5,-13.5Z" style="fill:#fff;fill-rule:nonzero;"/><path d="M70.2,670.2c0,7.456 6.044,13.5 13.5,13.5c7.455,0 13.5,-6.044 13.5,-13.5l-27,0Z" style="fill:#fff;fill-rule:nonzero;"/><path d="M14.399,670.2c0,7.456 6.045,13.5 13.5,13.5c7.457,0 13.5,-6.044 13.5,-13.5l-27,0Z" style="fill:#fff;fill-rule:nonzero;"/><path d="M83.7,879.9c-7.456,0 -13.5,6.044 -13.5,13.5l27,0c-0.001,-7.456 -6.045,-13.5 -13.5,-13.5Z" style="fill:#fff;fill-rule:nonzero;"/><path d="M27.899,879.9c-7.455,0 -13.5,6.044 -13.5,13.5l27,0c0,-7.456 -6.044,-13.5 -13.5,-13.5Z" style="fill:#fff;fill-rule:nonzero;"/><path d="M111.6,851.1l0,-27c-7.456,0 -13.5,6.044 -13.5,13.5c0,7.455 6.044,13.5 13.5,13.5Z" style="fill:#fff;fill-rule:nonzero;"/><path d="M42.299,837.6c0,7.455 6.045,13.5 13.5,13.5c7.456,0 13.5,-6.045 13.5,-13.5c0,-7.456 -6.044,-13.5 -13.5,-13.5c-7.455,0 -13.5,6.044 -13.5,13.5Z" style="fill:#fff;fill-rule:nonzero;"/><path d="M13.5,837.6c0,-7.456 -6.044,-13.5 -13.5,-13.5l0,27c7.456,0 13.5,-6.045 13.5,-13.5Z" style="fill:#fff;fill-rule:nonzero;"/><path d="M70.2,781.799c0,7.457 6.044,13.5 13.5,13.5c7.455,0 13.5,-6.043 13.5,-13.5l-27,0Z" style="fill:#fff;fill-rule:nonzero;"/><path d="M14.399,781.799c0,7.457 6.045,13.5 13.5,13.5c7.457,0 13.5,-6.043 13.5,-13.5l-27,0Z" style="fill:#fff;fill-rule:nonzero;"/><path d="M83.7,991.501c-7.456,0 -13.5,6.043 -13.5,13.499l27,0c-0.001,-7.456 -6.045,-13.499 -13.5,-13.499Z" style="fill:#fff;fill-rule:nonzero;"/><path d="M27.899,991.501c-7.455,0 -13.5,6.043 -13.5,13.499l27,0c0,-7.456 -6.044,-13.499 -13.5,-13.499Z" style="fill:#fff;fill-rule:nonzero;"/><path d="M111.6,962.7l0,-27c-7.456,0 -13.5,6.045 -13.5,13.5c0,7.456 6.044,13.5 13.5,13.5Z" style="fill:#fff;fill-rule:nonzero;"/><path d="M42.299,949.2c0,7.456 6.045,13.5 13.5,13.5c7.456,0 13.5,-6.044 13.5,-13.5c0,-7.455 -6.044,-13.5 -13.5,-13.5c-7.455,0 -13.5,6.045 -13.5,13.5Z" style="fill:#fff;fill-rule:nonzero;"/><path d="M13.5,949.2c0,-7.455 -6.044,-13.5 -13.5,-13.5l0,27c7.456,0 13.5,-6.044 13.5,-13.5Z" style="fill:#fff;fill-rule:nonzero;"/><path d="M70.2,893.4c0,7.456 6.044,13.5 13.5,13.5c7.455,0 13.5,-6.044 13.5,-13.5l-27,0Z" style="fill:#fff;fill-rule:nonzero;"/><path d="M14.399,893.4c0,7.456 6.045,13.5 13.5,13.5c7.457,0 13.5,-6.044 13.5,-13.5l-27,0Z" style="fill:#fff;fill-rule:nonzero;"/></g></svg>