<?xml version="1.0" encoding="UTF-8" standalone="no"?><!DOCTYPE svg PUBLIC "-//W3C//DTD SVG 1.1//EN" "http://www.w3.org/Graphics/SVG/1.1/DTD/svg11.dtd"><svg width="100%" height="100%" viewBox="0 0 267 258" version="1.1" xmlns="http://www.w3.org/2000/svg" xmlns:xlink="http://www.w3.org/1999/xlink" xml:space="preserve" xmlns:serif="http://www.serif.com/" style="fill-rule:evenodd;clip-rule:evenodd;stroke-linejoin:round;stroke-miterlimit:2;"><g><ellipse cx="133.5" cy="129" rx="133.5" ry="129" style="fill:#ef1c27;"/><g><path d="M223.609,188.853c-2.924,0.071 -28.728,0.721 -34.04,2.038c-3.771,0.939 -10.623,-0.723 -12.948,-1.441c-1.188,-0.374 -2.455,0.294 -2.824,1.485c-0.37,1.191 0.295,2.456 1.485,2.826c0.311,0.097 6.247,1.919 11.564,1.919c1.344,0 2.647,-0.116 3.812,-0.406c4.086,-1.012 25.249,-1.719 33.062,-1.905c1.244,-0.03 2.233,-1.065 2.201,-2.312c-0.029,-1.249 -1.077,-2.222 -2.312,-2.204Z" style="fill:#241f1f;fill-rule:nonzero;"/><path d="M219.599,113.872l-82.898,3.708" style="fill:none;fill-rule:nonzero;"/><path d="M150.615,116.326l11.53,-24.77" style="fill:none;fill-rule:nonzero;"/><path d="M162.145,116.441l19.345,-24.325" style="fill:none;fill-rule:nonzero;"/><path d="M181.49,115.575l13.395,-19.406" style="fill:none;fill-rule:nonzero;"/><path d="M197.021,114.882l7.556,-13.715" style="fill:none;fill-rule:nonzero;"/><path d="M197.021,114.882l9.245,12.424" style="fill:none;fill-rule:nonzero;"/><path d="M181.49,115.575l12.139,19.814" style="fill:none;fill-rule:nonzero;"/><path d="M162.145,116.441l8.812,15.749" style="fill:none;fill-rule:nonzero;"/><path d="M150.615,116.326l5.648,17.929" style="fill:none;fill-rule:nonzero;"/><path d="M57.173,117.58l72.789,0" style="fill:none;fill-rule:nonzero;"/><path d="M113.787,117.58l-8.805,-23.539" style="fill:none;fill-rule:nonzero;"/><path d="M98.621,117.58l-5.053,-23.846" style="fill:none;fill-rule:nonzero;"/><path d="M84.134,117.58l-11.663,-15.114" style="fill:none;fill-rule:nonzero;"/><path d="M84.134,117.58l-11.663,16.979" style="fill:none;fill-rule:nonzero;"/><path d="M98.621,117.58l-12.862,19.686" style="fill:none;fill-rule:nonzero;"/><path d="M113.787,117.58l-9.907,16.979" style="fill:none;fill-rule:nonzero;"/><path d="M154.225,93.456l1.516,0.353" style="fill:none;fill-rule:nonzero;"/><path d="M206.66,124.051l-5.286,-7.102l13.247,-0.594c-1.869,2.089 -4.547,4.826 -7.961,7.696Zm-21.242,-6.389l10.508,-0.47l7.194,9.67c-2.582,1.925 -5.484,3.822 -8.668,5.545l-9.034,-14.745Zm-46.459,-7.587l0,-2.37c2.361,-2.094 10.293,-8.786 18.929,-12.348l-9.041,19.42l-9.888,0.441l0,-5.143Zm-5.628,-5.627c-0.699,0 -1.36,0.144 -1.978,0.377c-1.756,-2.146 -9.027,-9.893 -23.614,-12.602c-7.369,-11.803 -9.807,-22.535 -7.235,-31.902c2.109,-7.685 7.226,-12.858 10.839,-15.698c-0.673,7.048 -0.104,13.483 1.609,19.309c0.022,0.138 0.073,0.264 0.122,0.398c1.372,4.504 3.418,8.647 6.223,12.367c8.865,11.752 22.448,16.368 29.711,18.078c-7.072,4.158 -12.483,9.017 -13.625,10.072c-0.638,-0.252 -1.326,-0.399 -2.052,-0.399Zm-9.721,32.873c1.639,-1.185 2.991,-2.409 4.094,-3.585l0,6.49c-0.81,-0.706 -2.166,-1.772 -4.094,-2.905Zm-62.673,-17.483l18.905,0l-7.96,11.591c-5.652,-4.015 -9.114,-8.62 -10.945,-11.591Zm11.106,-14.231l7.495,9.715l-17.672,0c2.244,-2.601 5.733,-6.259 10.177,-9.715Zm55.661,4.468l0,5.247l-12.351,0l-6.865,-18.354c11.713,2.583 17.646,8.666 19.216,10.524l0,2.583Zm-24.355,-13.954l7.182,19.201l-10.079,0l-4.139,-19.517c0.315,-0.01 0.626,-0.028 0.942,-0.028c2.164,0 4.181,0.132 6.094,0.344Zm-11.556,0.134l4.044,19.067l-10.594,0l-9.531,-12.351c4.66,-3.087 10.103,-5.687 16.081,-6.716Zm-9.863,40.475l-0.609,-0.277c-2.041,-0.771 -3.897,-1.66 -5.613,-2.618l9.614,-13.997l9.128,0l-10.583,16.194c-0.022,0.038 -0.025,0.082 -0.047,0.121c-0.625,0.19 -1.255,0.381 -1.89,0.577Zm8.487,-2.465l9.428,-14.427l10.01,0l-7.296,12.509c-4.112,0.136 -8.07,0.862 -12.142,1.918Zm28.469,0.765c-3.011,-1.189 -6.743,-2.172 -11.178,-2.55l7.375,-12.642l12.621,0l0,6.147c-0.561,1.215 -2.891,5.564 -8.808,9.034c-0.003,0.004 -0.007,0.008 -0.01,0.011Zm-38.897,-60.334c0,-8.03 3.899,-14.31 11.583,-18.667c2.447,-1.388 4.912,-2.356 6.981,-3.021c-0.944,1.843 -1.775,3.844 -2.388,6.053c-2.704,9.779 -0.714,20.665 5.88,32.4c-1.535,-0.122 -3.121,-0.2 -4.79,-0.2c-3.761,0 -7.349,0.583 -10.731,1.572c-4.318,-5.537 -6.535,-11.629 -6.535,-18.137Zm17.522,-41.037c3.678,-4.523 8.516,-6.773 12.952,-6.007c2.121,0.367 3.932,1.395 5.338,2.966c0.021,0.027 0.046,0.045 0.067,0.07c0.537,0.612 1.02,1.298 1.431,2.068c-0.83,0.497 -1.786,1.135 -2.572,1.832c-1.335,1.188 -2.049,2.812 -2.406,3.879c-1.854,1.086 -6.26,3.99 -10.18,8.951c-1.756,0.351 -5.717,1.301 -10.075,3.349c-0.175,-3.868 0.372,-10.87 5.445,-17.108Zm42.056,-12.643c10.328,0 16.295,5.622 18.936,8.967c-5.394,-0.093 -9.563,0.756 -9.916,0.832c-0.055,0.01 -0.097,0.049 -0.151,0.065c-0.079,0.024 -0.159,0.033 -0.237,0.065c-0.047,0.02 -0.081,0.058 -0.127,0.082c-0.021,0.011 -0.039,0.026 -0.058,0.037c-0.135,0.072 -0.261,0.146 -0.375,0.24c-0.045,0.036 -0.101,0.05 -0.144,0.091c-1.239,1.192 -2.454,2.215 -3.65,3.129c-1.892,-4.841 -5.408,-7.581 -10.008,-7.581c-6.201,0 -9.808,3.144 -11.696,5.632c-0.47,-1.224 -1.044,-2.355 -1.732,-3.371c1.997,-2.53 7.732,-8.188 19.158,-8.188Zm41.462,31.818c-0.102,3.12 -1.273,6.001 -3.382,8.509c-2.536,-15.483 -13.032,-21.975 -15.243,-23.176c-0.44,-1.025 -1.043,-1.963 -1.818,-2.814c-0.253,-0.279 -0.519,-0.544 -0.797,-0.791c4.897,0.243 10.567,1.405 14.703,4.945c4.311,3.692 6.695,8.55 6.537,13.327Zm6.826,23.037c0,5.534 -3.292,10.839 -8.393,13.582c-2.441,-0.383 -4.985,-0.652 -7.634,-0.792c3.468,-3.958 6.391,-10.279 6.391,-20.369c0,-0.405 -0.039,-0.772 -0.05,-1.168c1.448,-1.199 2.715,-2.508 3.753,-3.922c2.243,2.106 5.933,6.504 5.933,12.669Zm17.505,28.557c4.057,2.708 7.166,5.387 9.251,7.405l-13.67,0.613l4.419,-8.018Zm-9.713,-5.389c2.097,0.951 4.064,1.957 5.874,2.999l-5.865,10.645l-9.726,0.434l9.717,-14.078Zm-13.26,-4.422c3.213,0.702 6.199,1.617 8.991,2.658l-11.109,16.096l-13.267,0.593l15.385,-19.347Zm-49.793,-22.932c4.68,0 8.626,-1.227 11.689,-2.716c11.258,-5.469 18.121,-17.785 18.889,-24.808c4.039,3.295 10.532,10.677 10.532,24.131c0,9.764 -3.053,16.83 -8.826,20.437c-0.014,0.007 -0.018,0.022 -0.032,0.029c-1.118,0.145 -2.236,0.378 -3.352,0.659c-0.056,0.015 -0.112,0.022 -0.167,0.044c-1.95,0.499 -3.885,1.177 -5.775,1.986l-0.815,-0.189c-0.043,-0.011 -0.082,0.003 -0.122,-0.004c-0.048,-0.009 -0.089,-0.036 -0.136,-0.041c-0.203,-0.024 -20.483,-2.495 -31.598,-17.263c-1.262,-1.678 -2.357,-3.456 -3.295,-5.328c4.782,2.207 9.148,3.063 13.008,3.063Zm-17.001,-22.006c3.485,2.914 9.044,6.64 14.897,6.855c3.806,0.125 7.164,-1.178 10.019,-3.912c7.667,-7.34 9.91,-13.719 10.556,-17.119c1.85,0.314 4.534,1.073 6.18,2.887c1.172,1.289 1.653,2.949 1.471,5.071c-0.434,5.048 -6.288,16.531 -16.408,21.447c-7.8,3.792 -16.274,2.852 -25.197,-2.765c-1.068,-3.843 -1.58,-8 -1.518,-12.464Zm9.592,-13.584c1.019,-1.642 3.571,-4.637 8.652,-4.637c3.504,0 5.251,2.757 6.13,5.576c-3.069,1.624 -5.985,2.29 -8.708,1.907c-2.536,-0.356 -4.574,-1.573 -6.074,-2.846Zm-7.461,1.87c0.495,-0.439 1.158,-0.884 1.785,-1.265c1.797,2.264 5.478,5.894 11.06,6.704c0.751,0.108 1.505,0.163 2.268,0.163c3.936,0 8.032,-1.484 12.233,-4.365c-1.313,2.755 -3.615,6.265 -7.682,10.158c-1.967,1.882 -4.181,2.751 -6.722,2.662c-6.262,-0.225 -12.644,-6.062 -14.694,-8.108c0.132,-1.155 0.286,-2.321 0.484,-3.509c0.078,-0.368 0.496,-1.75 1.268,-2.44Zm36.208,76.583l9.789,-21.026c1.401,-0.286 2.793,-0.458 4.152,-0.458c3.31,0 6.457,0.244 9.453,0.659l-16.308,20.508l-7.086,0.317Zm67.793,0.047c0.088,-0.259 0.134,-0.529 0.124,-0.799c0,-0.009 0.007,-0.016 0.004,-0.024c-0.001,-0.043 -0.025,-0.078 -0.029,-0.121c-0.021,-0.222 -0.074,-0.438 -0.162,-0.648c-0.038,-0.09 -0.088,-0.169 -0.138,-0.255c-0.05,-0.086 -0.08,-0.181 -0.143,-0.26c-0.616,-0.795 -12.783,-16.117 -35.855,-21.823c4.252,-3.78 6.846,-9.184 6.846,-14.794c0,-8.637 -5.49,-14.393 -8.167,-16.689c0.809,-1.969 1.267,-4.051 1.338,-6.197c0.201,-6.158 -2.754,-12.319 -8.113,-16.908c-3.869,-3.311 -8.667,-4.916 -13.237,-5.622c-0.022,-0.052 -0.018,-0.106 -0.045,-0.156c-0.296,-0.564 -7.401,-13.799 -24.581,-13.799c-12.553,0 -19.395,5.996 -22.271,9.395c-1.752,-1.359 -3.792,-2.3 -6.068,-2.694c-6.061,-1.051 -12.5,1.799 -17.221,7.609c-7.101,8.733 -6.743,18.572 -6.277,22.338c-6.351,4.062 -12.257,10.741 -12.257,21.548c0,7.075 2.208,13.697 6.565,19.729c-15.816,6.55 -26.162,21.071 -26.715,21.859c-0.075,0.107 -0.126,0.225 -0.181,0.34c-0.018,0.038 -0.04,0.071 -0.057,0.11c-0.1,0.247 -0.144,0.503 -0.154,0.765c-0.001,0.029 -0.015,0.052 -0.015,0.081c0,0.031 0.015,0.058 0.018,0.089c0.008,0.256 0.046,0.511 0.144,0.754c0.002,0.004 0.01,0.022 0.013,0.028c0.001,0.005 0.004,0.011 0.005,0.014c0.332,0.813 5.552,13.01 20.202,20.264c-8.769,2.544 -18.842,4.853 -31.962,4.853c-1.246,0 -2.258,1.012 -2.258,2.259c0,1.247 1.012,2.258 2.258,2.258c16.964,0 28.903,-3.667 39.436,-6.904c7.645,-2.348 14.243,-4.376 21.108,-4.376c14.231,0 21.369,7.278 21.48,7.392l4.741,4.74c0.441,0.44 1.019,0.662 1.595,0.662c0.579,0 1.159,-0.222 1.599,-0.662c0.88,-0.881 0.88,-2.312 -0.002,-3.191l-1.073,-1.073l0,-34.612c0,-0.613 0.499,-1.113 1.111,-1.113c0.615,0 1.112,0.5 1.112,1.113l0,32.934c0,1.247 1.011,2.257 2.258,2.257c1.248,0 2.258,-1.01 2.258,-2.257l0,-9.269c1.525,1.626 3.516,3.35 6.097,4.92c1.068,0.645 2.454,0.31 3.104,-0.757c0.646,-1.066 0.308,-2.453 -0.758,-3.103c-5.582,-3.394 -7.885,-7.637 -8.443,-8.822l0,-6.238l10.221,-0.458l4.93,15.651c0.304,0.966 1.194,1.579 2.153,1.579c0.224,0 0.452,-0.032 0.679,-0.103c1.189,-0.374 1.848,-1.641 1.475,-2.834l-4.568,-14.501l7.008,-0.314l8.129,14.531c0.412,0.74 1.182,1.156 1.974,1.156c0.373,0 0.752,-0.091 1.099,-0.286c1.09,-0.608 1.476,-1.986 0.87,-3.074l-7.024,-12.553l14.359,-0.641l10.12,16.521c-0.572,0.259 -1.138,0.523 -1.725,0.767c-1.152,0.479 -1.697,1.8 -1.218,2.952c0.36,0.866 1.2,1.391 2.085,1.391c0.286,0 0.583,-0.054 0.862,-0.172c1.492,-0.62 2.915,-1.291 4.305,-1.986c0.038,-0.021 0.08,-0.031 0.117,-0.052c0.01,-0.005 0.014,-0.016 0.024,-0.022c16.687,-8.387 26.175,-21.509 26.604,-22.111c0.079,-0.11 0.118,-0.236 0.176,-0.356c0.036,-0.077 0.082,-0.145 0.111,-0.23Z" style="fill:#fff;fill-rule:nonzero;"/><path d="M80.085,201.971c-13.271,-17.085 -36.221,-12.704 -37.19,-12.513c-1.224,0.246 -2.017,1.437 -1.771,2.66c0.245,1.221 1.443,2.011 2.657,1.768c0.213,-0.038 21.164,-4.043 32.738,10.855c0.994,1.281 2.135,2.509 3.387,3.65c0.433,0.396 0.98,0.591 1.521,0.591c0.615,0 1.226,-0.249 1.671,-0.739c0.838,-0.92 0.773,-2.349 -0.148,-3.186c-1.064,-0.972 -2.028,-2.012 -2.865,-3.086Z" style="fill:#fff;fill-rule:nonzero;"/><path d="M175.757,188.206l-0.614,-0.602c-1.465,-1.463 -17.46,-17.458 -29.599,-29.594c-0.882,-0.881 -2.311,-0.881 -3.193,0c-0.882,0.881 -0.882,2.31 0,3.192c12.138,12.141 28.137,28.136 29.6,29.596l0.648,0.637c2.322,2.272 8.49,8.305 8.516,12.844c0.006,1.121 -0.381,2.033 -1.22,2.871c-1.215,1.216 -2.559,1.76 -3.961,1.781c-3.117,-0.034 -6.04,-2.702 -6.667,-3.313c-1.3,-1.356 -2.62,-2.529 -3.637,-3.428c-0.451,-0.398 -0.816,-0.719 -1.044,-0.945l-9.759,-9.76l-3.193,3.195l9.761,9.759c0.272,0.273 0.704,0.659 1.24,1.134c2.103,1.858 7.029,6.212 7.13,9.498c0.022,0.815 -0.282,1.51 -0.958,2.189c-1.044,1.041 -2.108,1.534 -3.251,1.467c-2.324,-0.106 -4.674,-2.351 -5.385,-3.202c-0.003,-0.006 -0.008,-0.007 -0.011,-0.011c-0.627,-0.828 -1.328,-1.664 -2.186,-2.523l-11.745,-11.748l-3.191,3.194l11.744,11.75c1.912,1.91 3.073,3.652 3.445,5.176c0.374,1.527 -0.057,2.804 -1.395,4.14c-2.225,2.225 -5.541,0.619 -6.665,-0.031c-0.544,-0.923 -1.191,-1.806 -1.982,-2.596c-2.728,-2.73 -9.726,-10.607 -9.796,-10.686c-0.829,-0.935 -2.257,-1.021 -3.187,-0.19c-0.933,0.827 -1.019,2.254 -0.19,3.188c0.291,0.328 7.156,8.059 9.981,10.882c1.164,1.163 1.956,2.623 2.173,4.003c0.233,1.474 -0.186,2.72 -1.273,3.811c-0.452,0.452 -0.965,0.614 -1.635,0.645c-1.514,-0.011 -5.081,-1.085 -11.929,-8.153c-0.868,-0.897 -2.297,-0.915 -3.191,-0.05c-0.897,0.869 -0.919,2.299 -0.053,3.194c6.182,6.379 11.134,9.494 15.139,9.524l0.059,0c1.853,0 3.512,-0.678 4.801,-1.968c1.725,-1.724 2.626,-3.889 2.64,-6.207c0.755,0.165 1.538,0.271 2.339,0.271c2.037,0 4.157,-0.636 5.962,-2.443c1.781,-1.782 2.729,-3.813 2.826,-5.971c0.78,0.262 1.595,0.469 2.469,0.512c0.135,0.007 0.271,0.011 0.404,0.011c2.28,0 4.443,-0.962 6.276,-2.797c1.553,-1.552 2.341,-3.462 2.277,-5.521c-0.018,-0.565 -0.108,-1.124 -0.242,-1.681c0.592,0.114 1.198,0.188 1.821,0.197l0.139,0c2.647,0 5.033,-1.044 7.094,-3.104c1.699,-1.698 2.555,-3.748 2.541,-6.089c-0.036,-6.423 -6.928,-13.168 -9.873,-16.048Z" style="fill:#fff;fill-rule:nonzero;"/><path d="M129.966,223.131c-2.442,6.085 -10.358,13.853 -14.115,13.853c-0.476,0 -0.698,-0.144 -0.881,-0.354c-1.727,-1.984 1.159,-7.461 7.02,-13.311c2.627,-2.625 5.219,-4.193 6.929,-4.193c0.583,0 1.032,0.18 1.458,0.591c0.335,0.318 0.347,1.523 -0.411,3.414Zm-28.487,7.161c-2.829,-2.826 2.359,-10.547 8.752,-16.948c0.959,-0.959 2.228,-2.225 3.604,-3.437c0.058,-0.057 0.132,-0.086 0.184,-0.153c0.007,-0.008 0.013,-0.015 0.021,-0.025c2.269,-1.974 4.806,-3.754 6.741,-3.754c0.673,0 1.206,0.232 1.727,0.756c0.834,0.839 1.221,1.743 1.217,2.85c-0.017,4.422 -6.139,10.49 -8.754,13.082l-0.632,0.625c-0.32,0.322 -0.667,0.678 -1.038,1.059c-2.509,2.575 -6.705,6.882 -9.765,6.882c-0.765,-0.003 -1.419,-0.299 -2.057,-0.937Zm-10.386,-8.63c-2.626,-2.626 2.289,-9.906 8.326,-15.952c6.039,-6.029 9.741,-7.783 12.01,-5.684c0.856,0.79 2.611,2.429 -0.727,6.638c-1.238,1.102 -2.463,2.285 -3.664,3.486c-2.725,2.728 -6.082,6.494 -8.347,10.385c-1.894,1.594 -5.144,3.579 -7.598,1.127Zm-8.285,-9.346c-1.152,-1.149 0.142,-3.786 1.016,-5.256c1.699,-2.859 4.315,-5.647 5.721,-7.054l0.58,-0.58c1.902,-1.919 5.092,-5.125 7.022,-5.125c0.243,0 0.544,0.047 0.931,0.415c0.399,0.38 0.579,0.824 0.586,1.441c0.036,2.78 -3.338,7.41 -6.695,10.767l-0.803,0.82c-1.751,1.796 -5.009,5.141 -7.145,5.139c-0.301,0 -0.712,-0.063 -1.213,-0.567Zm46.111,2.295c-0.691,0 -1.377,0.126 -2.06,0.301c0.835,-1.739 1.375,-3.535 1.382,-5.316c0.007,-2.319 -0.845,-4.355 -2.531,-6.05c-1.36,-1.366 -3.063,-2.089 -4.929,-2.089c-1.199,0 -2.403,0.294 -3.602,0.793c-0.068,-2.572 -1.476,-4.424 -2.685,-5.54c-3.598,-3.328 -7.754,-2.24 -11.344,-0.017c0.014,-0.198 0.033,-0.396 0.032,-0.591c-0.022,-1.828 -0.711,-3.439 -1.99,-4.655c-1.143,-1.089 -2.543,-1.664 -4.045,-1.664c-3.81,0 -7.37,3.582 -10.226,6.46l-0.568,0.569c-1.556,1.558 -4.46,4.659 -6.411,7.94c-3.417,5.747 -2.064,9.022 -0.328,10.758c1.237,1.235 2.762,1.889 4.407,1.889c0.758,0 1.506,-0.173 2.242,-0.415c-0.811,2.912 -0.553,5.681 1.638,7.872c1.657,1.656 3.657,2.477 5.811,2.474c0.826,0 1.677,-0.135 2.536,-0.375c-0.325,2.413 0.18,4.675 2.037,6.529c1.498,1.5 3.266,2.258 5.251,2.261c2.276,0 4.523,-1.048 6.601,-2.497c-0.483,2.289 -0.189,4.489 1.424,6.346c1.084,1.246 2.566,1.906 4.29,1.906c6.625,0 15.67,-10.123 18.306,-16.688c1.853,-4.616 0.666,-7.094 -0.657,-8.358c-1.26,-1.209 -2.845,-1.843 -4.581,-1.843Z" style="fill:#241f1f;fill-rule:nonzero;"/><path d="M116.044,171.229c0,-9.847 15.47,-21.069 22.907,-26.461c1.611,-1.172 2.884,-2.092 3.735,-2.798c5.105,-4.225 15.835,-6.747 28.703,-6.747c9.932,0 18.136,4.581 23.268,8.421c6.438,4.827 26.774,4.904 29.013,4.907c1.247,-0.003 2.255,-1.014 2.251,-2.261c-0.003,-1.246 -1.013,-2.254 -2.258,-2.254c-0.09,-0.001 -0.143,0 -0.215,0c-8.109,0 -22.176,-1.077 -26.083,-4.007c-5.683,-4.254 -14.802,-9.323 -25.976,-9.323c-14.095,0 -25.604,2.837 -31.58,7.784c-0.743,0.612 -2.025,1.545 -3.512,2.622c-8.632,6.262 -24.68,17.903 -24.768,30.016c-0.104,1.277 -0.837,12.314 4.149,17.775c1.891,2.071 4.317,3.12 7.206,3.12c2.546,0 4.602,-0.803 6.114,-2.391c3.252,-3.414 2.956,-9.465 2.722,-14.326c-0.092,-1.894 -0.218,-4.484 0.026,-5.047c2.631,-3.383 8.329,-8.394 12.203,-8.394c1.246,0 2.258,-1.012 2.258,-2.259c0,-1.246 -1.012,-2.258 -2.258,-2.258c-6.471,0 -13.579,7.319 -15.768,10.138c-1.282,1.646 -1.153,4.327 -0.972,8.039c0.184,3.789 0.436,8.981 -1.481,10.991c-0.404,0.425 -1.141,0.991 -2.844,0.991c-1.61,0 -2.841,-0.523 -3.868,-1.645c-3.19,-3.488 -3.233,-11.599 -2.981,-14.431c0.006,-0.067 0.009,-0.135 0.009,-0.202Z" style="fill:#241f1f;fill-rule:nonzero;"/></g></g></svg>