<?xml version="1.0" encoding="UTF-8"?>
<svg width="18px" height="18px" viewBox="0 0 18 18" version="1.1" xmlns="http://www.w3.org/2000/svg" xmlns:xlink="http://www.w3.org/1999/xlink">
    <!-- Generator: Sketch 44 (41411) - http://www.bohemiancoding.com/sketch -->
    <title>x</title>
    <desc>Created with Sketch.</desc>
    <defs></defs>
    <g id="Page-1" stroke="none" stroke-width="1" fill="none" fill-rule="evenodd">
        <g id="Announcement" transform="translate(-1199.000000, -131.000000)" fill="#FFFFFF">
            <g id="x" transform="translate(1199.000000, 131.000000)">
                <path d="M8.29903011,9.6622931 L15.9567014,17.5333806 C16.3552381,17.9431063 17.0015207,17.9431063 17.4000574,17.5331183 C17.7985942,17.1231303 17.7985942,16.4587032 17.4000574,16.0492398 L10.4639367,8.9202227 L17.4000574,1.79120556 C17.7985942,1.38147988 17.7985942,0.717052751 17.4000574,0.307327063 C17.0015207,-0.102398626 16.3554932,-0.102398626 15.9567014,0.307064754 L8.29903011,8.17788998 C8.10767125,8.37488358 8,8.64191351 8,8.9202227" id="Fill-1"></path>
                <path d="M0.29903011,9.6622931 L7.95670136,17.5333806 C8.35523808,17.9431063 9.00152073,17.9431063 9.40005745,17.5331183 C9.79859416,17.1231303 9.79859416,16.4587032 9.40005745,16.0492398 L2.46393667,8.9202227 L9.40005745,1.79120556 C9.79859416,1.38147988 9.79859416,0.717052751 9.40005745,0.307327063 C9.00152073,-0.102398626 8.35549322,-0.102398626 7.95670136,0.307064754 L0.29903011,8.17788998 C0.107671251,8.37488358 0,8.64191351 0,8.9202227" id="Fill-1" transform="translate(4.849480, 8.920321) scale(-1, 1) translate(-4.849480, -8.920321) "></path>
            </g>
        </g>
    </g>
</svg>