<?xml version="1.0" encoding="UTF-8" standalone="no"?><!DOCTYPE svg PUBLIC "-//W3C//DTD SVG 1.1//EN" "http://www.w3.org/Graphics/SVG/1.1/DTD/svg11.dtd"><svg width="100%" height="100%" viewBox="0 0 36 36" version="1.1" xmlns="http://www.w3.org/2000/svg" xmlns:xlink="http://www.w3.org/1999/xlink" xml:space="preserve" xmlns:serif="http://www.serif.com/" style="fill-rule:evenodd;clip-rule:evenodd;stroke-linecap:round;stroke-linejoin:round;stroke-miterlimit:3;"><rect id="ambulance" x="0" y="0" width="36" height="36" style="fill:none;"/><g><circle cx="18" cy="18" r="18" style="fill:#ec1f27;"/></g><g id="Ambulance"><path d="M17,12c0.026,0 11.965,0 12,0c0.69,0 1.01,0.681 1.01,1.387c0,0.029 0,9.249 0,9.275c0,0.556 -0.366,1.338 -0.942,1.338c-0.013,0 -2.068,0 -2.068,0c0,0 -0.075,-1.97 -2.085,-2c-1.848,-0.028 -1.915,2 -1.915,2l-10,0c0,0 -0.056,-1.966 -2,-2c-2.078,-0.036 -2,2 -2,2c0,0 -1.759,0 -1.763,0c-0.35,0 -1.252,-0.599 -1.237,-1c0.033,-0.864 0,-3.539 0,-3.55c0,-0.442 0.624,-1.45 1,-1.45c0.018,0 1.954,0 2,0c0.129,0 2.639,-3.011 3.048,-3.011c0.024,0 2.528,0.011 3.952,0.011c0,-1.415 0,-1.987 0,-2c0,-0.771 0.355,-1 1,-1Z" style="fill:none;stroke:#fff;stroke-width:0.75px;"/><path d="M9,24c0,1.104 0.896,2 2,2c1.104,0 2,-0.896 2,-2c0,-1.104 -0.896,-2 -2,-2c-1.104,0 -2,0.896 -2,2Z" style="fill:none;stroke:#fff;stroke-width:0.75px;stroke-linecap:square;stroke-linejoin:miter;"/><path d="M17.5,14c0,0.276 0.224,0.5 0.5,0.5c0.276,0 0.5,-0.224 0.5,-0.5c0,-0.276 -0.224,-0.5 -0.5,-0.5c-0.276,0 -0.5,0.224 -0.5,0.5Z" style="fill:#ec1f27;stroke:#fff;stroke-width:0.75px;stroke-linecap:square;stroke-linejoin:miter;"/><path d="M27.5,14c0,0.276 0.224,0.5 0.5,0.5c0.276,0 0.5,-0.224 0.5,-0.5c0,-0.276 -0.224,-0.5 -0.5,-0.5c-0.276,0 -0.5,0.224 -0.5,0.5Z" style="fill:#ec1f27;stroke:#fff;stroke-width:0.75px;stroke-linecap:square;stroke-linejoin:miter;"/><path d="M23,24c0,1.104 0.896,2 2,2c1.104,0 2,-0.896 2,-2c0,-1.104 -0.896,-2 -2,-2c-1.104,0 -2,0.896 -2,2Z" style="fill:none;stroke:#fff;stroke-width:0.75px;stroke-linecap:square;stroke-linejoin:miter;"/><path d="M6.476,20.06l23.534,0" style="fill:none;stroke:#fff;stroke-width:0.75px;stroke-linejoin:miter;"/><path d="M16,20l0,-7" style="fill:none;stroke:#fff;stroke-width:0.75px;stroke-linejoin:miter;"/><path d="M22.087,14.973c0,-0.675 0,-1.013 0,-1.015c0,-0.256 0.164,-0.45 0.458,-0.458c0.018,0 0.911,0 0.919,0c0.237,0 0.458,0.221 0.458,0.458c0,0.006 0,0.344 0,1.015c0.649,0 0.976,0 0.982,0c0.335,0 0.556,0.262 0.556,0.556c0,0.018 0,0.843 0,0.851c0,0.36 -0.196,0.605 -0.556,0.605c-0.008,0 -0.335,0 -0.982,0c0,0.733 0,1.102 0,1.106c0,0.274 -0.209,0.458 -0.458,0.458c0,0 -0.911,0 -0.919,0c-0.262,0 -0.458,-0.176 -0.458,-0.458c0,-0.009 0,-0.377 0,-1.106c-0.677,0 -1.026,0 -1.047,0c-0.284,0 -0.54,-0.244 -0.54,-0.605c0,-0.024 0,-0.845 0,-0.851c0,-0.334 0.223,-0.556 0.54,-0.556c0.008,0 0.357,0 1.047,0Z" style="fill:none;stroke:#fff;stroke-width:0.75px;stroke-linecap:square;stroke-linejoin:miter;"/><path d="M14,14.989c-0.198,-0.303 0.677,-2.197 2,-1.989c0.008,0.001 0,1.989 0,1.989l-2,0Z" style="fill:none;stroke:#fff;stroke-width:0.75px;stroke-linecap:square;stroke-linejoin:miter;"/><path d="M12,18l1,-1l1,0l0,1l-2,0Z" style="fill:none;stroke:#fff;stroke-width:0.75px;"/></g></svg>