<?xml version="1.0" encoding="UTF-8" standalone="no"?><!DOCTYPE svg PUBLIC "-//W3C//DTD SVG 1.1//EN" "http://www.w3.org/Graphics/SVG/1.1/DTD/svg11.dtd"><svg width="100%" height="100%" viewBox="0 0 36 36" version="1.1" xmlns="http://www.w3.org/2000/svg" xmlns:xlink="http://www.w3.org/1999/xlink" xml:space="preserve" xmlns:serif="http://www.serif.com/" style="fill-rule:evenodd;clip-rule:evenodd;stroke-linecap:round;stroke-miterlimit:3;"><rect id="apple" x="0" y="0" width="36" height="36" style="fill:none;"/><g id="bg-white"><circle cx="18" cy="18" r="18" style="fill:#ec1f27;"/></g><g id="Apple"><path d="M14.87,27.998c1.009,0.011 0.759,-0.903 1.721,-0.859c0.962,0.044 0.629,0.814 1.721,0.859c1.066,0.044 0.882,-0.874 1.721,-0.859c0.847,0.015 -0.313,0.859 1.721,0.859c4.028,-0.001 8.058,-16.132 2.582,-16.565c-2.753,-0.218 -3.693,0.789 -6.024,0.872c-1.859,0.066 -3.871,-1.024 -6.024,-0.87c-7.178,0.516 -0.871,16.527 2.582,16.563Z" style="fill:none;stroke:#fff;stroke-width:0.8px;"/><path d="M18.312,12.305c0.115,-1.53 1.922,-4.151 3.063,-4.506" style="fill:none;stroke:#fff;stroke-width:0.8px;stroke-linejoin:round;"/><path d="M18.312,12.305c-1.732,-0.814 -2.714,-1.418 -3.141,-2.342c-0.347,-0.748 -0.42,-1.889 -0.22,-3.425c1.213,0.587 1.953,1.051 2.5,2.279c0.373,0.836 0.733,1.778 0.861,3.488Z" style="fill:none;stroke:#fff;stroke-width:0.8px;stroke-linejoin:round;"/><path d="M21.49,14.399c2.107,-0.8 3.662,0.635 3.26,3.178" style="fill:none;stroke:#fff;stroke-width:0.8px;"/></g></svg>