<?xml version="1.0" encoding="UTF-8" standalone="no"?><!DOCTYPE svg PUBLIC "-//W3C//DTD SVG 1.1//EN" "http://www.w3.org/Graphics/SVG/1.1/DTD/svg11.dtd"><svg width="100%" height="100%" viewBox="0 0 36 36" version="1.1" xmlns="http://www.w3.org/2000/svg" xmlns:xlink="http://www.w3.org/1999/xlink" xml:space="preserve" xmlns:serif="http://www.serif.com/" style="fill-rule:evenodd;clip-rule:evenodd;stroke-linecap:round;stroke-linejoin:round;stroke-miterlimit:1.5;"><rect id="ballot" x="0" y="0" width="36" height="36" style="fill:none;"/><g id="bg-white"><circle cx="18" cy="18" r="18" style="fill:#ec1f27;"/></g><path d="M24,11.8c-0.197,-0.477 -0.358,-0.8 -0.8,-0.8l-10.4,0c-0.442,0 -0.652,0.387 -0.8,0.8l-2.5,5.9c-0.251,0.644 0.358,0.8 0.8,0.8l15.4,0c0.442,0 0.943,-0.447 0.8,-0.8l-2.5,-5.9Z" style="fill:none;stroke:#fff;stroke-width:0.8px;"/><path d="M14,15l-1,0c-0.276,0 -0.545,0.185 -0.635,0.472l-0.365,1.028c-0.147,0.293 0.224,0.5 0.5,0.5l11,0c0.276,0 0.585,-0.252 0.5,-0.5l-0.393,-1.034c-0.158,-0.338 -0.331,-0.466 -0.607,-0.466l-1,0" style="fill:none;stroke:#fff;stroke-width:0.8px;"/><path d="M22,13.3c0,-0.442 -0.358,-0.8 -0.8,-0.8l-6.4,0c-0.442,0 -0.8,0.358 -0.8,0.8l0,3.7l8,0l0,-3.7Z" style="fill:none;stroke:#fff;stroke-width:0.8px;"/><path d="M15.5,14l2,0" style="fill:none;stroke:#fff;stroke-width:0.8px;"/><path d="M15.5,15.5l2,0" style="fill:none;stroke:#fff;stroke-width:0.8px;"/><path d="M26.525,18.15c0.004,-0.318 -0.156,0.355 -0.65,0.35l-15.788,0c-0.647,-0.005 -0.668,-0.578 -0.65,-0.35l0,6.2c0,0.359 0.291,0.65 0.65,0.65l15.788,0c0.359,0 0.65,-0.291 0.65,-0.65l0,-6.2Z" style="fill:none;stroke:#fff;stroke-width:0.8px;"/><path d="M19,14l1.5,1.5" style="fill:none;stroke:#fff;stroke-width:0.8px;"/><path d="M20.5,14l-1.5,1.5" style="fill:none;stroke:#fff;stroke-width:0.8px;"/></svg>