<?xml version="1.0" encoding="UTF-8" standalone="no"?><!DOCTYPE svg PUBLIC "-//W3C//DTD SVG 1.1//EN" "http://www.w3.org/Graphics/SVG/1.1/DTD/svg11.dtd"><svg width="100%" height="100%" viewBox="0 0 36 36" version="1.1" xmlns="http://www.w3.org/2000/svg" xmlns:xlink="http://www.w3.org/1999/xlink" xml:space="preserve" xmlns:serif="http://www.serif.com/" style="fill-rule:evenodd;clip-rule:evenodd;stroke-linecap:round;stroke-linejoin:round;stroke-miterlimit:1.5;"><rect id="bomb" x="0" y="0" width="36" height="36" style="fill:none;"/><g><circle cx="18" cy="18" r="18" style="fill:#ec1f27;"/></g><path d="M7.441,28.661c1.667,1.841 4.287,1.581 6.24,0.438c2.773,-1.624 9.8,-9.795 9.853,-9.853c0.885,-0.976 0,-2.846 0,-2.846l2.736,0l3.394,-3.394l-6.459,-0.109l-0.766,-6.897l-3.065,2.956l0.328,3.612c0,0 -1.91,-0.672 -3,0.263c-0.492,0.422 -7.637,6.58 -9.316,9.316c-1.195,1.95 -1.612,4.673 0.055,6.514Z" style="fill:none;stroke:#fff;stroke-width:0.75px;"/><path d="M7.779,21.879c0,0 3.229,0.144 4.992,1.642c1.83,1.555 2.087,4.449 2.087,4.449" style="fill:none;stroke:#fff;stroke-width:0.75px;"/><path d="M13.164,16.192c0,0 3.335,0.145 5.158,1.661c1.89,1.572 2.156,4.497 2.156,4.497" style="fill:none;stroke:#fff;stroke-width:0.75px;"/><path d="M9.236,27.528c0,0 1.125,0.359 2.085,0.235c0.924,-0.12 1.648,-0.673 1.648,-0.673" style="fill:none;stroke:#fff;stroke-width:0.75px;"/><path d="M20.627,15.499l6.043,-6.043" style="fill:none;stroke:#fff;stroke-width:0.75px;"/><path d="M16,25c0,0 3.014,-3.136 3,-3.121" style="fill:none;stroke:#fff;stroke-width:0.75px;"/></svg>