<?xml version="1.0" encoding="UTF-8" standalone="no"?><!DOCTYPE svg PUBLIC "-//W3C//DTD SVG 1.1//EN" "http://www.w3.org/Graphics/SVG/1.1/DTD/svg11.dtd"><svg width="100%" height="100%" viewBox="0 0 36 36" version="1.1" xmlns="http://www.w3.org/2000/svg" xmlns:xlink="http://www.w3.org/1999/xlink" xml:space="preserve" xmlns:serif="http://www.serif.com/" style="fill-rule:evenodd;clip-rule:evenodd;stroke-linecap:round;stroke-linejoin:round;stroke-miterlimit:1.5;"><rect id="books" x="0" y="0" width="36" height="36" style="fill:none;"/><g id="bg-white"><circle cx="18" cy="18" r="18" style="fill:#ec1f27;"/></g><path d="M12,22l5,0" style="fill:none;stroke:#fff;stroke-width:0.8px;"/><path d="M12,25l5,0" style="fill:none;stroke:#fff;stroke-width:0.8px;"/><rect x="12" y="17" width="5" height="2" style="fill:none;stroke:#fff;stroke-width:0.8px;"/><path d="M22,26l0,-14l-11,0c-1.288,0.113 -1.995,0.744 -2,2l0,14l11,0l0,-14l-9,0" style="fill:none;stroke:#fff;stroke-width:0.8px;"/><path d="M27,21l0,-14l-11,0c-1.288,0.113 -1.995,0.744 -2,2l0,3" style="fill:none;stroke:#fff;stroke-width:0.8px;"/><path d="M22,23l3,0l0,-14l-9,0" style="fill:none;stroke:#fff;stroke-width:0.8px;"/></svg>