<?xml version="1.0" encoding="UTF-8" standalone="no"?><!DOCTYPE svg PUBLIC "-//W3C//DTD SVG 1.1//EN" "http://www.w3.org/Graphics/SVG/1.1/DTD/svg11.dtd"><svg width="100%" height="100%" viewBox="0 0 36 36" version="1.1" xmlns="http://www.w3.org/2000/svg" xmlns:xlink="http://www.w3.org/1999/xlink" xml:space="preserve" xmlns:serif="http://www.serif.com/" style="fill-rule:evenodd;clip-rule:evenodd;stroke-linecap:round;stroke-linejoin:round;stroke-miterlimit:1.5;"><rect id="brain" x="0" y="0" width="36" height="36" style="fill:none;"/><g id="bg-white"><circle cx="18" cy="18" r="18" style="fill:#ec1f27;"/></g><path d="M19,8.75c0.325,-0.667 0.709,-0.75 1.5,-0.75c1.104,0 2,0.896 2,2l0.013,0c1.098,0.007 1.987,0.9 1.987,2l0.013,0c1.098,0.007 1.987,0.9 1.987,2c0,0.088 -0.006,0.174 -0.017,0.258c0.607,0.344 1.017,0.996 1.017,1.742c0,0.49 -0.176,0.938 -0.469,1.286c0.581,0.35 0.969,0.987 0.969,1.714c0,0.867 -0.552,1.605 -1.324,1.883c0.499,0.363 0.824,0.953 0.824,1.617c0,0.746 -0.41,1.398 -1.017,1.742c0.011,0.084 0.017,0.17 0.017,0.258c0,1.1 -0.889,1.993 -1.987,2l-0.013,0c0,1.104 -0.896,2 -2,2c-0.872,0 -1.614,-0.559 -1.888,-1.338c-0.338,0.32 -1.038,0.468 -1.612,0.088l0,-18.5" style="fill:none;stroke:#fff;stroke-width:0.8px;"/><path d="M17,27.25c-0.111,0.733 -1.424,0.811 -1.701,0.124c-0.324,0.666 -1.008,1.126 -1.799,1.126c-1.104,0 -2,-0.896 -2,-2l-0.013,0c-1.098,-0.007 -1.987,-0.9 -1.987,-2c0,-0.088 0.006,-0.174 0.017,-0.258c-0.607,-0.344 -1.017,-0.996 -1.017,-1.742c0,-0.664 0.325,-1.254 0.824,-1.617c-0.772,-0.278 -1.324,-1.016 -1.324,-1.883c0,-0.727 0.388,-1.364 0.969,-1.714c-0.293,-0.348 -0.469,-0.796 -0.469,-1.286c0,-0.746 0.41,-1.398 1.017,-1.742c-0.011,-0.084 -0.017,-0.17 -0.017,-0.258c0,-1.104 0.896,-2 2,-2l0,-0.013c0.007,-1.098 0.9,-1.987 2,-1.987l0,-0.013c0.007,-1.098 0.9,-1.987 2,-1.987c0.791,0 1.175,0.083 1.5,0.75l0,18.5" style="fill:none;stroke:#fff;stroke-width:0.8px;"/><path d="M11,17c2.692,0.207 3.917,-1.249 4,-4" style="fill:none;stroke:#fff;stroke-width:0.8px;"/><path d="M25,17c-2.692,0.207 -3.917,-1.249 -4,-4" style="fill:none;stroke:#fff;stroke-width:0.8px;"/><path d="M11.5,22c0.12,-1.822 1.183,-2.763 3,-3" style="fill:none;stroke:#fff;stroke-width:0.8px;"/><path d="M24.5,22c-0.12,-1.822 -1.183,-2.763 -3,-3" style="fill:none;stroke:#fff;stroke-width:0.8px;"/><path d="M14.5,23.5c0.978,0.947 0.828,1.763 0,2.5" style="fill:none;stroke:#fff;stroke-width:0.8px;"/><path d="M21.5,23.5c-0.978,0.947 -0.828,1.763 0,2.5" style="fill:none;stroke:#fff;stroke-width:0.8px;"/><path d="M17,13c-0.015,-1.037 -0.508,-1.546 -1.5,-1.5" style="fill:none;stroke:#fff;stroke-width:0.8px;"/><path d="M19,13c0.015,-1.037 0.508,-1.546 1.5,-1.5" style="fill:none;stroke:#fff;stroke-width:0.8px;"/><path d="M17,20.5c-0.004,1.163 -0.609,1.523 -1.5,1.5" style="fill:none;stroke:#fff;stroke-width:0.8px;"/><path d="M19,20.5c0.004,1.163 0.609,1.523 1.5,1.5" style="fill:none;stroke:#fff;stroke-width:0.8px;"/></svg>