<?xml version="1.0" encoding="UTF-8" standalone="no"?><!DOCTYPE svg PUBLIC "-//W3C//DTD SVG 1.1//EN" "http://www.w3.org/Graphics/SVG/1.1/DTD/svg11.dtd"><svg width="100%" height="100%" viewBox="0 0 36 36" version="1.1" xmlns="http://www.w3.org/2000/svg" xmlns:xlink="http://www.w3.org/1999/xlink" xml:space="preserve" xmlns:serif="http://www.serif.com/" style="fill-rule:evenodd;clip-rule:evenodd;stroke-linecap:round;stroke-linejoin:round;stroke-miterlimit:1.5;"><rect id="brake-light" x="0" y="0" width="36" height="36" style="fill:none;"/><g id="bg-white"><circle cx="18" cy="18" r="18" style="fill:#ec1f27;"/></g><path d="M17.5,23.5l2,1" style="fill:none;stroke:#fff;stroke-width:0.8px;"/><path d="M18,21.5l2,0" style="fill:none;stroke:#fff;stroke-width:0.8px;"/><circle cx="13.5" cy="21.5" r="3" style="fill:none;stroke:#fff;stroke-width:0.8px;"/><path d="M11,20l5,0" style="fill:none;stroke:#fff;stroke-width:0.8px;"/><path d="M11,21.5l5,0" style="fill:none;stroke:#fff;stroke-width:0.8px;"/><path d="M11,23l5,0" style="fill:none;stroke:#fff;stroke-width:0.8px;"/><path d="M8,26l0,-3.5c0.217,-2.538 1.28,-4.596 3.5,-6c0,0 0.604,-10.104 6,-10l10.5,0" style="fill:none;stroke:#fff;stroke-width:0.8px;"/><path d="M28,26l-20.125,0c-0.483,0 -0.875,0.392 -0.875,0.875l0,1.75c0,0.483 0.392,0.875 0.875,0.875l20.125,0" style="fill:none;stroke:#fff;stroke-width:0.8px;"/><path d="M28,8.5l-10.25,0c-1.242,0 -2.435,1.483 -2.75,3.25l-0.5,2.5c0,1.242 1.008,2.25 2.25,2.25l11.25,0" style="fill:none;stroke:#fff;stroke-width:0.8px;"/><path d="M17,12.5c0.22,-1.452 1.019,-2.32 2.5,-2.5" style="fill:none;stroke:#fff;stroke-width:0.8px;"/><path d="M28,19.5l-5.25,0c-0.69,0 -1.25,0.56 -1.25,1.25l0,2.5c0,0.69 0.56,1.25 1.25,1.25l5.25,0" style="fill:none;stroke:#fff;stroke-width:0.8px;"/><path d="M17.5,19.5l2,-1" style="fill:none;stroke:#fff;stroke-width:0.8px;"/></svg>