<?xml version="1.0" encoding="UTF-8" standalone="no"?><!DOCTYPE svg PUBLIC "-//W3C//DTD SVG 1.1//EN" "http://www.w3.org/Graphics/SVG/1.1/DTD/svg11.dtd"><svg width="100%" height="100%" viewBox="0 0 36 36" version="1.1" xmlns="http://www.w3.org/2000/svg" xmlns:xlink="http://www.w3.org/1999/xlink" xml:space="preserve" xmlns:serif="http://www.serif.com/" style="fill-rule:evenodd;clip-rule:evenodd;stroke-linecap:round;stroke-linejoin:round;stroke-miterlimit:3;"><rect id="bullhorn" x="0" y="0" width="36" height="36" style="fill:none;"/><g id="bg-white"><circle cx="18" cy="18" r="18" style="fill:#ec1f27;"/></g><g id="Bullhorn"><path d="M24.378,24.187c2.37,0 4.625,-2.836 4.622,-7.72c-0.003,-4.883 -2.116,-8.4 -4.622,-8.493" style="fill:none;stroke:#fff;stroke-width:0.8px;"/><path d="M24.297,7.974c-2.37,0 -4.625,2.837 -4.622,7.72c0.003,4.884 2.116,8.401 4.622,8.493" style="fill:none;stroke:#fff;stroke-width:0.8px;"/><path d="M9.931,18.718c-0.383,-0.447 -0.591,-0.825 -0.624,-1.134c-0.045,-0.423 0.199,-0.946 0.733,-1.57" style="fill:none;stroke:#fff;stroke-width:0.8px;"/><path d="M22.912,16.194c0,0.552 0.336,1 0.75,1c0.414,0 0.75,-0.448 0.75,-1c0,-0.552 -0.336,-1 -0.75,-1c-0.414,0 -0.75,0.448 -0.75,1Z" style="fill:none;stroke:#fff;stroke-width:0.8px;"/><path d="M23.759,15.189l-4.081,-0.563" style="fill:none;stroke:#fff;stroke-width:0.8px;"/><path d="M23.718,17.294l-3.699,1.322" style="fill:none;stroke:#fff;stroke-width:0.8px;"/><path d="M11.424,19.754c0.03,0.796 0.03,1.41 0,1.84c-0.109,1.565 -1.411,2.743 -1.048,4.32c0.097,0.426 0.346,0.993 0.745,1.7l3.104,0.36c0.504,-0.478 0.773,-0.898 0.806,-1.26c0.071,-0.769 -0.953,-0.992 -1.128,-1.7c-0.224,-0.905 0.226,-1.658 0.504,-2.52c0.119,-0.371 0.327,-0.884 0.624,-1.54" style="fill:none;stroke:#fff;stroke-width:0.8px;"/><path d="M22.915,23.79l-3.977,-1.481l-9.007,-3.49l-1.704,0.406c-0.884,0.153 -1.227,-0.902 -1.227,-1.691c0,-0.789 0.291,-2.141 1.363,-1.894l1.636,0.338l12.61,-7.507" style="fill:none;stroke:#fff;stroke-width:0.8px;"/></g></svg>