<?xml version="1.0" encoding="UTF-8" standalone="no"?><!DOCTYPE svg PUBLIC "-//W3C//DTD SVG 1.1//EN" "http://www.w3.org/Graphics/SVG/1.1/DTD/svg11.dtd"><svg width="100%" height="100%" viewBox="0 0 36 36" version="1.1" xmlns="http://www.w3.org/2000/svg" xmlns:xlink="http://www.w3.org/1999/xlink" xml:space="preserve" xmlns:serif="http://www.serif.com/" style="fill-rule:evenodd;clip-rule:evenodd;stroke-linecap:round;stroke-linejoin:round;stroke-miterlimit:1.5;"><rect id="butterfly" x="0" y="0" width="36" height="36" style="fill:none;"/><g id="bg-white"><circle cx="18" cy="18" r="18" style="fill:#ec1f27;"/></g><path d="M19,16.5c-0.01,-1.61 -2.01,-1.615 -2,0l0.5,7c-0.012,1.134 0.988,1.172 1,0l0.5,-7Z" style="fill:none;stroke:#fff;stroke-width:0.8px;"/><path d="M17,16.5c-3.565,-3.751 -8.355,-6.271 -9,-6.5c-1.181,-0.42 -3.013,1.18 -1.356,2.083c1.476,0.803 1.168,3.342 2.356,5.917l2,0c-1.395,0.925 -1.918,1.94 -2,3c-0.036,3.431 1.984,4.805 5,5c1.876,0.121 2.893,-2.988 3.25,-4" style="fill:none;stroke:#fff;stroke-width:0.8px;"/><path d="M18.982,16.5c3.564,-3.751 8.355,-6.271 9,-6.5c1.181,-0.42 3.013,1.18 1.356,2.083c-1.476,0.803 -1.168,3.342 -2.356,5.917l-2,0c1.394,0.925 1.918,1.94 2,3c0.036,3.431 -1.984,4.805 -5,5c-1.876,0.121 -2.893,-2.988 -3.25,-4" style="fill:none;stroke:#fff;stroke-width:0.8px;"/></svg>