<?xml version="1.0" encoding="UTF-8" standalone="no"?><!DOCTYPE svg PUBLIC "-//W3C//DTD SVG 1.1//EN" "http://www.w3.org/Graphics/SVG/1.1/DTD/svg11.dtd"><svg width="100%" height="100%" viewBox="0 0 36 36" version="1.1" xmlns="http://www.w3.org/2000/svg" xmlns:xlink="http://www.w3.org/1999/xlink" xml:space="preserve" xmlns:serif="http://www.serif.com/" style="fill-rule:evenodd;clip-rule:evenodd;stroke-linecap:round;stroke-linejoin:round;stroke-miterlimit:1.5;"><rect id="coin-stacks" x="0" y="0" width="36" height="36" style="fill:none;"/><g id="bg-white"><circle cx="18" cy="18" r="18" style="fill:#ec1f27;"/></g><ellipse cx="22" cy="12.3" rx="3" ry="1.5" style="fill:none;stroke:#fff;stroke-width:0.8px;"/><path d="M25,24.25c0,0.828 -1.344,1.5 -3,1.5c-1.656,0 -3,-0.672 -3,-1.5" style="fill:none;stroke:#fff;stroke-width:0.8px;"/><path d="M17,24.25c0,0.828 -1.344,1.5 -3,1.5c-1.656,0 -3,-0.672 -3,-1.5" style="fill:none;stroke:#fff;stroke-width:0.8px;"/><path d="M17,22.25c0,0.828 -1.344,1.5 -3,1.5c-1.656,0 -3,-0.672 -3,-1.5" style="fill:none;stroke:#fff;stroke-width:0.8px;"/><path d="M25,22.25c0,0.828 -1.344,1.5 -3,1.5c-1.656,0 -3,-0.672 -3,-1.5" style="fill:none;stroke:#fff;stroke-width:0.8px;"/><path d="M25,18.25c0,0.828 -1.344,1.5 -3,1.5c-1.656,0 -3,-0.672 -3,-1.5" style="fill:none;stroke:#fff;stroke-width:0.8px;"/><path d="M25,14.25c0,0.828 -1.344,1.5 -3,1.5c-1.656,0 -3,-0.672 -3,-1.5" style="fill:none;stroke:#fff;stroke-width:0.8px;"/><path d="M17,20.25c0,0.828 -1.344,1.5 -3,1.5c-1.656,0 -3,-0.672 -3,-1.5" style="fill:none;stroke:#fff;stroke-width:0.8px;"/><path d="M25,20.25c0,0.828 -1.344,1.5 -3,1.5c-1.656,0 -3,-0.672 -3,-1.5" style="fill:none;stroke:#fff;stroke-width:0.8px;"/><path d="M25,16.25c0,0.828 -1.344,1.5 -3,1.5c-1.656,0 -3,-0.672 -3,-1.5" style="fill:none;stroke:#fff;stroke-width:0.8px;"/><ellipse cx="14" cy="18.3" rx="3" ry="1.5" style="fill:none;stroke:#fff;stroke-width:0.8px;"/><path d="M11,18l0,6.25" style="fill:none;stroke:#fff;stroke-width:0.8px;"/><path d="M17,18l0,6.25" style="fill:none;stroke:#fff;stroke-width:0.8px;"/><path d="M19,12l0,12.25" style="fill:none;stroke:#fff;stroke-width:0.8px;"/><path d="M25,12l0,12.25" style="fill:none;stroke:#fff;stroke-width:0.8px;"/></svg>