<?xml version="1.0" encoding="UTF-8" standalone="no"?><!DOCTYPE svg PUBLIC "-//W3C//DTD SVG 1.1//EN" "http://www.w3.org/Graphics/SVG/1.1/DTD/svg11.dtd"><svg width="100%" height="100%" viewBox="0 0 36 36" version="1.1" xmlns="http://www.w3.org/2000/svg" xmlns:xlink="http://www.w3.org/1999/xlink" xml:space="preserve" xmlns:serif="http://www.serif.com/" style="fill-rule:evenodd;clip-rule:evenodd;stroke-linecap:round;stroke-linejoin:round;stroke-miterlimit:1.5;"><rect id="condom" x="0" y="0" width="36" height="36" style="fill:none;"/><g id="condom1" serif:id="condom"><g id="bg-white"><circle cx="18" cy="18" r="18" style="fill:#ec1f27;"/></g><rect x="9" y="8" width="18" height="20" style="fill:none;stroke:#fff;stroke-width:0.8px;"/><path d="M10.5,8l0,20" style="fill:none;stroke:#fff;stroke-width:0.8px;"/><path d="M25.5,8l0,20" style="fill:none;stroke:#fff;stroke-width:0.8px;"/><circle cx="18" cy="18" r="5" style="fill:none;stroke:#fff;stroke-width:0.8px;"/><circle cx="18" cy="18" r="3.5" style="fill:none;stroke:#fff;stroke-width:0.8px;"/><path d="M27,28l1.5,-1.25c0,0 -1.5,-0.75 -1.5,-1.25c0,-0.5 1.5,-1.25 1.5,-1.25c0,0 -1.5,-0.75 -1.5,-1.25c0,-0.5 1.5,-1.5 1.5,-1.5c0,0 -1.5,-0.5 -1.5,-1c0,-0.5 1.5,-1.25 1.5,-1.25c0,0 -1.5,-0.75 -1.5,-1.25c0,-0.5 1.5,-1.25 1.5,-1.25c0,0 -1.5,-0.75 -1.5,-1.25c0,-0.5 1.5,-1.25 1.5,-1.25c0,0 -1.5,-0.75 -1.5,-1.25c0,-0.5 1.5,-1.25 1.5,-1.25c0,0 -1.5,-0.833 -1.5,-1.25c0,-0.417 1.5,-1.25 1.5,-1.25l-1.5,-1.25" style="fill:none;stroke:#fff;stroke-width:0.8px;"/><path d="M9,28l-1.5,-1.25c0,0 1.5,-0.75 1.5,-1.25c0,-0.5 -1.5,-1.25 -1.5,-1.25c0,0 1.5,-0.75 1.5,-1.25c0,-0.5 -1.5,-1.5 -1.5,-1.5c0,0 1.5,-0.5 1.5,-1c0,-0.5 -1.5,-1.25 -1.5,-1.25c0,0 1.5,-0.75 1.5,-1.25c0,-0.5 -1.5,-1.25 -1.5,-1.25c0,0 1.5,-0.75 1.5,-1.25c0,-0.5 -1.5,-1.25 -1.5,-1.25c0,0 1.5,-0.75 1.5,-1.25c0,-0.5 -1.5,-1.25 -1.5,-1.25c0,0 1.5,-0.833 1.5,-1.25c0,-0.417 -1.5,-1.25 -1.5,-1.25l1.5,-1.25" style="fill:none;stroke:#fff;stroke-width:0.8px;"/></g></svg>