<?xml version="1.0" encoding="UTF-8" standalone="no"?><!DOCTYPE svg PUBLIC "-//W3C//DTD SVG 1.1//EN" "http://www.w3.org/Graphics/SVG/1.1/DTD/svg11.dtd"><svg width="100%" height="100%" viewBox="0 0 36 36" version="1.1" xmlns="http://www.w3.org/2000/svg" xmlns:xlink="http://www.w3.org/1999/xlink" xml:space="preserve" xmlns:serif="http://www.serif.com/" style="fill-rule:evenodd;clip-rule:evenodd;stroke-linecap:round;stroke-linejoin:round;stroke-miterlimit:1.5;"><rect id="course" x="0" y="0" width="36" height="36" style="fill:none;"/><g id="bg-white"><circle cx="18" cy="18" r="18" style="fill:#ec1f27;"/></g><path d="M24,9.5l0,4.5l-12,0l0,5l12,0l0,5l-9.5,0" style="fill:none;stroke:#fff;stroke-width:0.8px;"/><path d="M12,21.336c1.38,0 2.5,1.089 2.5,2.43c0,1.342 -2.5,5.07 -2.5,5.07c0,0 -2.5,-3.728 -2.5,-5.07c0,-1.341 1.12,-2.43 2.5,-2.43Z" style="fill:none;stroke:#fff;stroke-width:0.8px;"/><path d="M22,11.5l4,-4" style="fill:none;stroke:#fff;stroke-width:0.8px;"/><path d="M22,7.5l3.984,3.984" style="fill:none;stroke:#fff;stroke-width:0.8px;"/><circle cx="12" cy="24" r="1" style="fill:#ec1f27;stroke:#fff;stroke-width:0.7px;"/></svg>