<?xml version="1.0" encoding="UTF-8" standalone="no"?><!DOCTYPE svg PUBLIC "-//W3C//DTD SVG 1.1//EN" "http://www.w3.org/Graphics/SVG/1.1/DTD/svg11.dtd"><svg width="100%" height="100%" viewBox="0 0 36 36" version="1.1" xmlns="http://www.w3.org/2000/svg" xmlns:xlink="http://www.w3.org/1999/xlink" xml:space="preserve" xmlns:serif="http://www.serif.com/" style="fill-rule:evenodd;clip-rule:evenodd;stroke-linecap:round;stroke-linejoin:round;stroke-miterlimit:1.5;"><rect id="ear" x="0" y="0" width="36" height="36" style="fill:none;"/><g id="bg-white"><circle cx="18" cy="18" r="18" style="fill:#ec1f27;"/></g><path d="M12,13.5c-0.131,-1.971 2.247,-4.01 6,-4c3.422,0.009 5.797,2.858 6,6c0.102,2.672 -1.176,5.062 -4,5l0,2.5c-0.367,2.06 -1.328,3.456 -3.5,3.5c-2.657,0.123 -4.148,-0.886 -4.5,-3" style="fill:none;stroke:#fff;stroke-width:0.8px;"/><path d="M13,20.5c0,0 1.522,-0.864 1.5,-2.5c-0.023,-1.67 -0.004,-2.377 0,-3c0.004,-0.634 0.294,-2.89 3.5,-3c2.311,-0.08 3.465,1.987 3.5,3.5" style="fill:none;stroke:#fff;stroke-width:0.8px;"/><path d="M14.5,15c2.563,-0.244 4.012,3.944 3.5,5" style="fill:none;stroke:#fff;stroke-width:0.8px;"/><path d="M15.5,24.5c1.635,-0.026 2.396,-0.932 2.5,-2.5" style="fill:none;stroke:#fff;stroke-width:0.8px;"/></svg>