<?xml version="1.0" encoding="UTF-8" standalone="no"?><!DOCTYPE svg PUBLIC "-//W3C//DTD SVG 1.1//EN" "http://www.w3.org/Graphics/SVG/1.1/DTD/svg11.dtd"><svg width="100%" height="100%" viewBox="0 0 36 36" version="1.1" xmlns="http://www.w3.org/2000/svg" xmlns:xlink="http://www.w3.org/1999/xlink" xml:space="preserve" xmlns:serif="http://www.serif.com/" style="fill-rule:evenodd;clip-rule:evenodd;stroke-linecap:round;stroke-linejoin:round;stroke-miterlimit:1.5;"><rect id="envelope" x="0" y="0" width="36" height="36" style="fill:none;"/><g id="bg-white"><circle cx="18" cy="18" r="18" style="fill:#ec1f27;"/></g><path d="M30,11.3c0,-0.993 -0.807,-1.8 -1.8,-1.8l-20.4,0c-0.993,0 -1.8,0.807 -1.8,1.8l0,14.4c0,0.993 0.807,1.8 1.8,1.8l20.4,0c0.993,0 1.8,-0.807 1.8,-1.8l0,-14.4Z" style="fill:none;stroke:#fff;stroke-width:0.8px;"/><path d="M6.5,10l9.934,7.775c0.976,0.82 2.024,0.838 3.152,-0.028l9.803,-7.747" style="fill:none;stroke:#fff;stroke-width:0.8px;"/><path d="M6.5,26.5l9.126,-9.126" style="fill:none;stroke:#fff;stroke-width:0.8px;"/><path d="M29.389,26.5l-9.126,-9.126" style="fill:none;stroke:#fff;stroke-width:0.8px;"/></svg>