<?xml version="1.0" encoding="UTF-8" standalone="no"?><!DOCTYPE svg PUBLIC "-//W3C//DTD SVG 1.1//EN" "http://www.w3.org/Graphics/SVG/1.1/DTD/svg11.dtd"><svg width="100%" height="100%" viewBox="0 0 36 36" version="1.1" xmlns="http://www.w3.org/2000/svg" xmlns:xlink="http://www.w3.org/1999/xlink" xml:space="preserve" xmlns:serif="http://www.serif.com/" style="fill-rule:evenodd;clip-rule:evenodd;stroke-linecap:round;stroke-linejoin:round;stroke-miterlimit:1.5;"><rect id="fighter" x="0" y="0" width="36" height="36" style="fill:none;"/><g><circle cx="18" cy="18" r="18" style="fill:#ec1f27;"/></g><g id="FIghter-Jet" serif:id="FIghter Jet"><path d="M30,5.882c0,0 -1.425,3.591 -3.443,5.908c-0.66,0.758 -2.844,3.319 -2.844,3.319c0,0 0.267,0.497 -0.108,0.979c-0.806,1.037 -3.936,4.132 -3.936,4.132l2.111,5.779l-1.359,1.359l-3.906,-4.133l-1.854,1.628l0,3.509c0,0 -1.925,1.585 -1.755,1.755c0.065,0.065 -1.508,-3.039 -1.508,-3.039l-2.4,-2.539l-2.998,-1.328l2.095,-2.095l2.717,0l1.967,-1.514l-4.363,-3.84l1.751,-1.768l5.16,2.216c0,0 2.874,-2.955 3.969,-3.814c0.49,-0.384 0.909,-0.035 0.909,-0.035c0,0 2.97,-2.359 3.778,-3.065c2.067,-1.807 6.017,-3.414 6.017,-3.414Z" style="fill:none;stroke:#fff;stroke-width:0.75px;"/><path d="M7.958,16.193l5.434,-5.434" style="fill:none;stroke:#fff;stroke-width:0.75px;"/><path d="M19.846,27.942l5.434,-5.434" style="fill:none;stroke:#fff;stroke-width:0.75px;"/><path d="M21.005,13.588c1.124,-1.123 2.301,-1.769 2.627,-1.443c0.327,0.327 -0.32,1.504 -1.443,2.627c-1.123,1.123 -2.3,1.77 -2.627,1.443c-0.326,-0.327 0.32,-1.504 1.443,-2.627Z" style="fill:none;stroke:#fff;stroke-width:0.75px;"/><path d="M12.748,23.039l-3.961,3.96" style="fill:none;stroke:#fff;stroke-width:0.75px;"/></g></svg>