<?xml version="1.0" encoding="UTF-8" standalone="no"?><!DOCTYPE svg PUBLIC "-//W3C//DTD SVG 1.1//EN" "http://www.w3.org/Graphics/SVG/1.1/DTD/svg11.dtd"><svg width="100%" height="100%" viewBox="0 0 36 36" version="1.1" xmlns="http://www.w3.org/2000/svg" xmlns:xlink="http://www.w3.org/1999/xlink" xml:space="preserve" xmlns:serif="http://www.serif.com/" style="fill-rule:evenodd;clip-rule:evenodd;stroke-linecap:round;stroke-linejoin:round;stroke-miterlimit:1.5;"><rect id="flame" x="0" y="0" width="36" height="36" style="fill:none;"/><g id="bg-white"><circle cx="18" cy="18" r="18" style="fill:#ec1f27;"/></g><path d="M15,27.5c-2.288,-0.759 -3.446,-2.769 -3.5,-6c0.103,-2.493 1.18,-4.451 3,-6c-0.151,0.957 0.169,1.794 1,2.5c1.789,-3.128 3.098,-6.279 3,-9.5c1.549,1.163 2.469,2.915 2.5,5.5c0.797,-0.774 1.05,-1.601 1.5,-2.5c1.103,2.387 2.453,5.081 3,8c0.492,2.622 -1.088,6.889 -5,8c0.896,-2.073 1.599,-3.414 1.5,-4.5c-0.149,-1.915 -0.713,-2.944 -1.5,-3.5c-0.222,1.659 -0.879,3 -2,4c-0.035,-1.33 -0.387,-2.133 -1,-2.5c-0.303,1.172 -1.121,2.001 -2,3c-0.767,0.871 -0.951,2.17 -0.5,3.5Z" style="fill:none;stroke:#fff;stroke-width:0.8px;"/></svg>