<?xml version="1.0" encoding="UTF-8" standalone="no"?><!DOCTYPE svg PUBLIC "-//W3C//DTD SVG 1.1//EN" "http://www.w3.org/Graphics/SVG/1.1/DTD/svg11.dtd"><svg width="100%" height="100%" viewBox="0 0 36 36" version="1.1" xmlns="http://www.w3.org/2000/svg" xmlns:xlink="http://www.w3.org/1999/xlink" xml:space="preserve" xmlns:serif="http://www.serif.com/" style="fill-rule:evenodd;clip-rule:evenodd;stroke-linecap:round;stroke-linejoin:round;stroke-miterlimit:1.5;"><rect id="foot" x="0" y="0" width="36" height="36" style="fill:none;"/><g id="bg-white"><circle cx="18" cy="18" r="18" style="fill:#ec1f27;"/></g><path d="M25.5,7.5c-0.332,3.538 0.252,7.547 1.5,9.761c0.527,0.935 1.782,2.299 1.924,3.583c0.063,1.108 -0.415,1.945 -1.483,2.349c-0.921,0.349 -2.164,0.721 -3.281,1.148c-1.245,0.474 -2.849,0.854 -4.045,2.045c-2.049,2.039 -3.778,2.582 -5.529,2.612c-0.964,0.017 -4.086,0.002 -4.086,0.002c-1.104,0 -2,-0.396 -2,-1.5c0,-1.104 0.822,-1.518 2.75,-1.5c0,0 2.177,-0.591 3.75,-2.5c0.806,-0.979 5.931,-11.566 1.5,-16" style="fill:none;stroke:#fff;stroke-width:0.8px;"/><path d="M25,18.5c0.027,1.655 -0.806,2.488 -2.5,2.5" style="fill:none;stroke:#fff;stroke-width:0.8px;"/><path d="M9.5,26.5c0,0 0.088,0.997 1,1c0.48,0.001 0.75,0 0.75,0l0,-1.5" style="fill:none;stroke:#fff;stroke-width:0.8px;"/></svg>