<?xml version="1.0" encoding="UTF-8" standalone="no"?><!DOCTYPE svg PUBLIC "-//W3C//DTD SVG 1.1//EN" "http://www.w3.org/Graphics/SVG/1.1/DTD/svg11.dtd"><svg width="100%" height="100%" viewBox="0 0 36 36" version="1.1" xmlns="http://www.w3.org/2000/svg" xmlns:xlink="http://www.w3.org/1999/xlink" xml:space="preserve" xmlns:serif="http://www.serif.com/" style="fill-rule:evenodd;clip-rule:evenodd;stroke-linecap:round;stroke-miterlimit:3;"><rect id="gavel" x="0" y="0" width="36" height="36" style="fill:none;"/><g><circle cx="18" cy="18" r="18" style="fill:#ec1f27;"/></g><g id="Gavel"><path d="M19.162,12.285l-5.776,5.775l-4.663,-4.663l5.775,-5.776l4.664,4.664Z" style="fill:none;stroke:#fff;stroke-width:0.75px;"/><path d="M6.565,13.568l0.655,-0.655c0.165,-0.165 0.433,-0.165 0.598,0l5.71,5.71c0.165,0.165 0.165,0.433 0,0.598l-0.655,0.655c-0.165,0.165 -0.433,0.165 -0.598,0l-5.71,-5.71c-0.165,-0.165 -0.165,-0.433 0,-0.598Z" style="fill:none;stroke:#fff;stroke-width:0.75px;"/><path d="M14.005,6.12l0.639,-0.639c0.17,-0.17 0.446,-0.17 0.616,0l5.701,5.701c0.169,0.17 0.169,0.445 0,0.615l-0.64,0.639c-0.169,0.17 -0.445,0.17 -0.615,0l-5.701,-5.701c-0.17,-0.17 -0.17,-0.445 0,-0.615Z" style="fill:none;stroke:#fff;stroke-width:0.75px;"/><path d="M7,27.386l0,-0.789c0,-0.33 0.185,-0.597 0.412,-0.597l9.561,0c0.228,0 0.412,0.267 0.412,0.597l0,0.789c0,0.329 -0.184,0.596 -0.412,0.596l-9.561,0c-0.227,0 -0.412,-0.267 -0.412,-0.596Z" style="fill:none;stroke:#fff;stroke-width:0.75px;"/><path d="M8.462,25.476l0,-0.935c0,-0.288 0.157,-0.523 0.349,-0.523l7.019,0c0.193,0 0.349,0.235 0.349,0.523l0,0.935c0,0.289 -0.156,0.524 -0.349,0.524l-7.019,0c-0.192,0 -0.349,-0.235 -0.349,-0.524Z" style="fill:none;stroke:#fff;stroke-width:0.75px;"/><path d="M28.642,27.675c-0.371,0.372 -1.018,0.45 -1.368,0.1c-0.008,-0.008 -3.934,-3.933 -11.776,-11.776l1.527,-1.511c7.837,7.927 11.76,11.893 11.767,11.901c0.334,0.334 0.196,0.938 -0.15,1.286Z" style="fill:none;stroke:#fff;stroke-width:0.75px;"/></g></svg>