<?xml version="1.0" encoding="UTF-8" standalone="no"?><!DOCTYPE svg PUBLIC "-//W3C//DTD SVG 1.1//EN" "http://www.w3.org/Graphics/SVG/1.1/DTD/svg11.dtd"><svg width="100%" height="100%" viewBox="0 0 36 36" version="1.1" xmlns="http://www.w3.org/2000/svg" xmlns:xlink="http://www.w3.org/1999/xlink" xml:space="preserve" xmlns:serif="http://www.serif.com/" style="fill-rule:evenodd;clip-rule:evenodd;stroke-linecap:round;stroke-linejoin:round;stroke-miterlimit:1.5;"><rect id="gear" x="0" y="0" width="36" height="36" style="fill:none;"/><g id="bg-white"><circle cx="18" cy="18" r="18" style="fill:#ec1f27;"/></g><circle cx="18" cy="18" r="5" style="fill:none;stroke:#fff;stroke-width:0.8px;"/><path d="M19,8c0.552,0 1,0.448 1,1l0,1.252c0.734,0.19 1.427,0.48 2.063,0.857l1.23,-1.23c0.39,-0.391 1.024,-0.391 1.414,0l1.414,1.414c0.391,0.39 0.391,1.024 0,1.414l-1.23,1.23c0.377,0.636 0.667,1.329 0.857,2.063l1.252,0c0.552,0 1,0.448 1,1l0,2c0,0.552 -0.448,1 -1,1l-1.252,0c-0.19,0.734 -0.48,1.427 -0.857,2.063l1.23,1.23c0.391,0.39 0.391,1.024 0,1.414l-1.414,1.414c-0.39,0.391 -1.024,0.391 -1.414,0l-1.23,-1.23c-0.636,0.377 -1.329,0.667 -2.063,0.857l0,1.252c0,0.552 -0.448,1 -1,1l-2,0c-0.552,0 -1,-0.448 -1,-1l0,-1.252c-0.734,-0.19 -1.427,-0.48 -2.063,-0.857l-1.23,1.23c-0.39,0.391 -1.024,0.391 -1.414,0l-1.414,-1.414c-0.391,-0.39 -0.391,-1.024 0,-1.414l1.23,-1.23c-0.377,-0.636 -0.667,-1.329 -0.857,-2.063l-1.252,0c-0.552,0 -1,-0.448 -1,-1l0,-2c0,-0.552 0.448,-1 1,-1l1.252,0c0.19,-0.734 0.48,-1.427 0.857,-2.063l-1.23,-1.23c-0.391,-0.39 -0.391,-1.024 0,-1.414l1.414,-1.414c0.39,-0.391 1.024,-0.391 1.414,0l1.23,1.23c0.636,-0.377 1.329,-0.667 2.063,-0.857l0,-1.252c0,-0.552 0.448,-1 1,-1l2,0Z" style="fill:none;stroke:#fff;stroke-width:0.8px;"/></svg>