<?xml version="1.0" encoding="UTF-8" standalone="no"?><!DOCTYPE svg PUBLIC "-//W3C//DTD SVG 1.1//EN" "http://www.w3.org/Graphics/SVG/1.1/DTD/svg11.dtd"><svg width="100%" height="100%" viewBox="0 0 36 36" version="1.1" xmlns="http://www.w3.org/2000/svg" xmlns:xlink="http://www.w3.org/1999/xlink" xml:space="preserve" xmlns:serif="http://www.serif.com/" style="fill-rule:evenodd;clip-rule:evenodd;stroke-linecap:round;stroke-linejoin:round;stroke-miterlimit:1.5;"><rect id="hand-added" x="0" y="0" width="36" height="36" style="fill:none;"/><g id="bg-white"><circle cx="18" cy="18" r="18" style="fill:#ec1f27;"/></g><path d="M22.375,13c0.345,0 0.625,0.28 0.625,0.625l0,1.125l1.125,0c0.345,0 0.625,0.28 0.625,0.625l0,1.25c0,0.345 -0.28,0.625 -0.625,0.625l-1.125,0l0,1.125c0,0.345 -0.28,0.625 -0.625,0.625l-1.25,0c-0.345,0 -0.625,-0.28 -0.625,-0.625l0,-1.125l-1.125,0c-0.345,0 -0.625,-0.28 -0.625,-0.625l0,-1.25c0,-0.345 0.28,-0.625 0.625,-0.625l1.125,0l0,-1.125c0,-0.345 0.28,-0.625 0.625,-0.625l1.25,0Z" style="fill:none;stroke:#fff;stroke-width:0.8px;"/><path d="M15.375,9.5c0.345,0 0.625,0.28 0.625,0.625l0,1.125l1.125,0c0.345,0 0.625,0.28 0.625,0.625l0,1.25c0,0.345 -0.28,0.625 -0.625,0.625l-1.125,0l0,1.125c0,0.345 -0.28,0.625 -0.625,0.625l-1.25,0c-0.345,0 -0.625,-0.28 -0.625,-0.625l0,-1.125l-1.125,0c-0.345,0 -0.625,-0.28 -0.625,-0.625l0,-1.25c0,-0.345 0.28,-0.625 0.625,-0.625l1.125,0l0,-1.125c0,-0.345 0.28,-0.625 0.625,-0.625l1.25,0Z" style="fill:none;stroke:#fff;stroke-width:0.8px;"/><path d="M14.261,23.493l5.478,0c0.834,0 1.511,-0.677 1.511,-1.511c0,-0.834 -0.677,-1.51 -1.511,-1.51l-6.478,0c-0.834,0 -2.634,-0.495 -3.761,-0.49c-1.015,0.004 -3,0.518 -3,0.518l0,5c0,0 2.151,-0.484 2.984,-0.479c0.724,0.005 0.99,0.444 2.016,0.515c1.609,-0.012 6.642,-0.014 9.654,-0.069c1.557,-0.028 7.227,-3.07 7.227,-3.07c1.637,-0.966 0.433,-2.845 -1.035,-2.364c0,0 -6.113,2.444 -6.179,2.444" style="fill:none;stroke:#fff;stroke-width:0.8px;"/></svg>