<?xml version="1.0" encoding="UTF-8" standalone="no"?><!DOCTYPE svg PUBLIC "-//W3C//DTD SVG 1.1//EN" "http://www.w3.org/Graphics/SVG/1.1/DTD/svg11.dtd"><svg width="100%" height="100%" viewBox="0 0 36 36" version="1.1" xmlns="http://www.w3.org/2000/svg" xmlns:xlink="http://www.w3.org/1999/xlink" xml:space="preserve" xmlns:serif="http://www.serif.com/" style="fill-rule:evenodd;clip-rule:evenodd;stroke-linecap:round;stroke-linejoin:round;stroke-miterlimit:1.5;"><rect id="hand-thumsb-up" x="0" y="0" width="36" height="36" style="fill:none;"/><g><circle cx="18" cy="18" r="18" style="fill:#ec1f27;"/></g><path d="M22,29.997c1.103,0 1.998,-0.896 1.998,-1.999c0,-1.103 -0.895,-1.998 -1.998,-1.998l-2.999,0.003c-1.103,0 -1.998,0.896 -1.998,1.999c0,1.103 0.895,1.998 1.998,1.998l2.999,-0.003Z" style="fill:none;stroke:#fff;stroke-width:0.75px;"/><path d="M23.665,26c1.103,0 1.999,-0.895 1.999,-1.998c0,-1.103 -0.896,-1.999 -1.999,-1.999l-4.664,0.004c-1.103,0 -1.998,0.895 -1.998,1.998c0,1.103 0.895,1.998 1.998,1.998l4.664,-0.003Z" style="fill:none;stroke:#fff;stroke-width:0.75px;"/><path d="M23.506,17.998c1.103,0 1.998,-0.895 1.998,-1.998c0,-1.103 -0.895,-1.998 -1.998,-1.998l-4.505,-0.005c-1.103,0 -1.998,0.895 -1.998,1.998c0,1.103 0.895,1.998 1.998,1.998l4.505,0.005Z" style="fill:none;stroke:#fff;stroke-width:0.75px;"/><path d="M25.332,22.003c1.103,0 1.999,-0.895 1.999,-1.998c0,-1.103 -0.896,-1.998 -1.999,-1.998l-6.331,0.003c-1.103,0 -1.998,0.895 -1.998,1.998c0,1.103 0.895,1.999 1.998,1.999l6.331,-0.004Z" style="fill:none;stroke:#fff;stroke-width:0.75px;"/><path d="M19.001,30.008c0,0 -3.74,0.013 -5.99,-0.025c-2.25,-0.037 -3.967,-1.693 -3.997,-3.996c-0.037,-2.916 0.035,-6.113 -0.013,-8.987c-0.04,-2.371 1.956,-3.221 2.986,-3.993c1.4,-1.049 2.909,-2.583 3.014,-5.007c0.041,-0.962 0.964,-2 2,-2c1.035,0 1.946,0.808 2,2c0.057,1.275 -0.467,3.939 -1,5c-0.727,1.445 -3,3 -3,3" style="fill:none;stroke:#fff;stroke-width:0.75px;"/><path d="M18.001,13c-0.007,0.616 0.247,1.004 1,0.997" style="fill:none;stroke:#fff;stroke-width:0.75px;"/></svg>