<?xml version="1.0" encoding="UTF-8" standalone="no"?><!DOCTYPE svg PUBLIC "-//W3C//DTD SVG 1.1//EN" "http://www.w3.org/Graphics/SVG/1.1/DTD/svg11.dtd"><svg width="100%" height="100%" viewBox="0 0 36 36" version="1.1" xmlns="http://www.w3.org/2000/svg" xmlns:xlink="http://www.w3.org/1999/xlink" xml:space="preserve" xmlns:serif="http://www.serif.com/" style="fill-rule:evenodd;clip-rule:evenodd;stroke-linecap:round;stroke-linejoin:round;stroke-miterlimit:1.5;"><rect id="hand-stop" x="0" y="0" width="36" height="36" style="fill:none;"/><g><circle cx="18" cy="18" r="18" style="fill:#ec1f27;"/></g><path d="M27.983,19l0,-7.671c0,-1.103 -0.895,-1.998 -1.998,-1.998c-1.103,0 -1.998,0.895 -1.998,1.998l0,7.671" style="fill:none;stroke:#fff;stroke-width:0.75px;"/><path d="M23.987,19l0,-9.336c0,-1.103 -0.896,-1.999 -1.999,-1.999c-1.103,0 -1.998,0.896 -1.998,1.999l0,9.336" style="fill:none;stroke:#fff;stroke-width:0.75px;"/><path d="M16,17.963l-0.007,-9.965c0,-1.103 0.896,-1.998 1.999,-1.998c1.103,0 1.998,0.895 1.998,1.998l0.007,9.986" style="fill:none;stroke:#fff;stroke-width:0.75px;"/><path d="M12,19l-0.003,-9.336c0,-1.103 0.895,-1.999 1.998,-1.999c1.103,0 1.998,0.896 1.998,1.999l0,9.336" style="fill:none;stroke:#fff;stroke-width:0.75px;"/><path d="M27.983,18c0,0 0.038,5.744 0,7.994c-0.037,2.249 -1.693,3.967 -3.996,3.996c-2.916,0.038 -9.116,-0.048 -11.99,0c-2.372,0.04 -4.003,-1.532 -3.997,-3.996c0.004,-1.75 -0.005,-7.495 0,-9.031c0.003,-1.019 0.915,-1.965 2,-1.963c1.085,0.002 2.008,0.7 1.997,1.963c-0.011,1.213 0,4.037 0,4.037" style="fill:none;stroke:#fff;stroke-width:0.75px;"/></svg>