<?xml version="1.0" encoding="UTF-8" standalone="no"?><!DOCTYPE svg PUBLIC "-//W3C//DTD SVG 1.1//EN" "http://www.w3.org/Graphics/SVG/1.1/DTD/svg11.dtd"><svg width="100%" height="100%" viewBox="0 0 36 36" version="1.1" xmlns="http://www.w3.org/2000/svg" xmlns:xlink="http://www.w3.org/1999/xlink" xml:space="preserve" xmlns:serif="http://www.serif.com/" style="fill-rule:evenodd;clip-rule:evenodd;stroke-linecap:round;stroke-linejoin:round;stroke-miterlimit:1.5;"><rect id="handshake" x="0" y="0" width="36" height="36" style="fill:none;"/><g id="bg-white"><circle cx="18" cy="18" r="18" style="fill:#ec1f27;"/></g><g><path d="M17.521,27.971c-0.609,0.609 -1.598,0.609 -2.208,0c-0.609,-0.609 -0.609,-1.599 0,-2.208l1.659,-1.655c0.609,-0.609 1.598,-0.609 2.208,0c0.609,0.61 0.609,1.599 0,2.208l-1.659,1.655Z" style="fill:none;stroke:#fff;stroke-width:0.8px;"/><path d="M14.393,26.683c-0.609,0.609 -1.598,0.609 -2.207,0c-0.61,-0.609 -0.61,-1.599 0,-2.208l2.578,-2.575c0.609,-0.609 1.599,-0.609 2.208,0c0.609,0.61 0.609,1.599 0,2.208l-2.579,2.575Z" style="fill:none;stroke:#fff;stroke-width:0.8px;"/><path d="M10.061,22.174c-0.609,0.61 -1.598,0.61 -2.208,0c-0.609,-0.609 -0.609,-1.598 0,-2.207l2.486,-2.492c0.609,-0.609 1.599,-0.609 2.208,0c0.609,0.61 0.609,1.599 0,2.208l-2.486,2.491Z" style="fill:none;stroke:#fff;stroke-width:0.8px;"/><path d="M11.265,25.396c-0.61,0.609 -1.599,0.609 -2.208,0c-0.61,-0.609 -0.61,-1.599 0,-2.208l3.499,-3.496c0.609,-0.609 1.599,-0.609 2.208,0c0.609,0.61 0.609,1.599 0,2.208l-3.499,3.496Z" style="fill:none;stroke:#fff;stroke-width:0.8px;"/><path d="M27.134,20.453c0,0 -0.019,0.03 1.06,-0.988c1.278,-1.207 1.256,-3.127 0,-4.416c-1.59,-1.631 -3.396,-3.357 -4.957,-4.972c-1.288,-1.332 -2.86,-0.699 -3.856,-0.556c-1.353,0.194 -3.034,0.181 -4.431,-1.101c-0.554,-0.509 -1.637,-0.572 -2.209,0c-0.572,0.572 -0.63,1.521 0,2.21c0.673,0.735 2.434,1.918 3.314,2.209c1.2,0.397 3.315,0 3.315,0" style="fill:none;stroke:#fff;stroke-width:0.8px;"/></g><path d="M19.286,26.565c0.094,0.087 0.159,0.101 0.71,0.61c0.979,0.903 1.72,0.494 2.214,0c0.61,-0.61 0.61,-1.599 0,-2.208l-4.208,-4.399" style="fill:none;stroke:#fff;stroke-width:0.8px;"/><path d="M16.887,28.517c0.979,0.903 1.72,0.494 2.214,0c0.61,-0.61 0.694,-1.514 0.085,-2.124" style="fill:none;stroke:#fff;stroke-width:0.8px;"/><path d="M20.224,18.36l5.111,5.044c0.61,0.61 0.61,1.599 0,2.208c-0.609,0.61 -1.598,0.61 -2.208,0l-5.123,-5.055" style="fill:none;stroke:#fff;stroke-width:0.8px;"/><path d="M19.286,13.025l7.067,7.063c0.609,0.609 0.609,1.599 0,2.208c-0.61,0.609 -1.599,0.609 -2.208,0l-3.936,-3.936" style="fill:none;stroke:#fff;stroke-width:0.8px;"/><path d="M8.148,19.546c0,0 -0.395,-0.387 -0.634,-0.633c-1.222,-1.264 -1.255,-3.127 0,-4.416c1.591,-1.632 3.133,-3.079 4.694,-4.693" style="fill:none;stroke:#fff;stroke-width:0.8px;"/><path d="M14.138,7.873c1.288,-1.332 3.058,-1.364 4.416,0c0.964,0.969 5.723,1.447 5.723,1.447c3.482,-0.048 2.698,2.987 1.051,2.68" style="fill:none;stroke:#fff;stroke-width:0.8px;"/></svg>