<?xml version="1.0" encoding="UTF-8" standalone="no"?><!DOCTYPE svg PUBLIC "-//W3C//DTD SVG 1.1//EN" "http://www.w3.org/Graphics/SVG/1.1/DTD/svg11.dtd"><svg width="100%" height="100%" viewBox="0 0 36 36" version="1.1" xmlns="http://www.w3.org/2000/svg" xmlns:xlink="http://www.w3.org/1999/xlink" xml:space="preserve" xmlns:serif="http://www.serif.com/" style="fill-rule:evenodd;clip-rule:evenodd;stroke-linecap:round;stroke-linejoin:round;stroke-miterlimit:1.5;"><rect id="hand-fist" x="0" y="0" width="36" height="36" style="fill:none;"/><g><circle cx="18" cy="18" r="18" style="fill:#ec1f27;"/></g><path d="M27.983,13.329c0,-1.103 -0.895,-1.998 -1.998,-1.998c-1.103,0 -1.998,0.895 -1.998,1.998l0,3.496c0,1.103 0.895,1.998 1.998,1.998c1.103,0 1.998,-0.895 1.998,-1.998l0,-3.496Z" style="fill:none;stroke:#fff;stroke-width:0.75px;"/><path d="M23.987,11.664c0,-1.103 -0.896,-1.999 -1.999,-1.999c-1.103,0 -1.998,0.896 -1.998,1.999l0,5.161c0,1.103 0.895,1.998 1.998,1.998c1.103,0 1.999,-0.895 1.999,-1.998l0,-5.161Z" style="fill:none;stroke:#fff;stroke-width:0.75px;"/><path d="M15.993,15.972l0,-5.974c0,-1.103 0.896,-1.998 1.999,-1.998c1.103,0 1.998,0.895 1.998,1.998l0,5.995c0,0.356 -0.093,0.69 -0.256,0.979c-0.328,-0.583 -0.95,-0.962 -1.742,-0.979c-0.437,-0.009 -1.157,-0.016 -1.999,-0.021Z" style="fill:none;stroke:#fff;stroke-width:0.75px;"/><path d="M11.997,15.971l0,-4.307c0,-1.103 0.895,-1.999 1.998,-1.999c1.103,0 1.998,0.896 1.998,1.999l0,4.308c-1.238,-0.006 -2.741,-0.008 -3.996,-0.001Z" style="fill:none;stroke:#fff;stroke-width:0.75px;"/><path d="M27.983,15.993c0,0 0.038,5.744 0,7.994c-0.037,2.249 -1.693,3.967 -3.996,3.996c-2.916,0.038 -9.116,-0.048 -11.99,0c-2.372,0.04 -4.003,-1.532 -3.997,-3.996c0.004,-1.749 1.433,-4.58 1.998,-5.995c0.464,-1.16 1.057,-1.997 1.999,-2.02c1.665,-0.039 4.495,-0.01 5.995,0.021c1.193,0.025 1.998,0.872 1.998,1.999c0,1.127 -0.835,1.994 -1.998,1.998c-0.931,0.003 -2.536,0.002 -3.325,0c-0.79,-0.002 -1.667,2.167 -1.667,2.167" style="fill:none;stroke:#fff;stroke-width:0.75px;"/></svg>