<?xml version="1.0" encoding="UTF-8" standalone="no"?><!DOCTYPE svg PUBLIC "-//W3C//DTD SVG 1.1//EN" "http://www.w3.org/Graphics/SVG/1.1/DTD/svg11.dtd"><svg width="100%" height="100%" viewBox="0 0 36 36" version="1.1" xmlns="http://www.w3.org/2000/svg" xmlns:xlink="http://www.w3.org/1999/xlink" xml:space="preserve" xmlns:serif="http://www.serif.com/" style="fill-rule:evenodd;clip-rule:evenodd;stroke-linecap:round;stroke-linejoin:round;stroke-miterlimit:1.5;"><rect id="heart" x="0" y="0" width="36" height="36" style="fill:none;"/><g id="bg-white"><circle cx="18" cy="18" r="18" style="fill:#ec1f27;"/></g><path d="M7.517,13.683c-0.003,-0.082 -0.005,-0.165 -0.005,-0.247c0,-3.27 2.655,-5.925 5.924,-5.925c1.837,0 3.48,0.838 4.567,2.152c1.087,-1.314 2.73,-2.152 4.567,-2.152c3.27,0 5.924,2.655 5.924,5.925c0,0.082 -0.001,0.165 -0.005,0.247l0.005,0c0.167,3.449 -3.338,8.151 -10.367,14.317c-6.926,-5.838 -10.873,-10.739 -10.615,-14.317l0.005,0Z" style="fill:none;stroke:#fff;stroke-width:0.8px;"/><path d="M22.57,10.227c2.13,0.229 3.181,1.477 3.456,3.456" style="fill:none;stroke:#fff;stroke-width:0.8px;"/></svg>