<?xml version="1.0" encoding="UTF-8" standalone="no"?><!DOCTYPE svg PUBLIC "-//W3C//DTD SVG 1.1//EN" "http://www.w3.org/Graphics/SVG/1.1/DTD/svg11.dtd"><svg width="100%" height="100%" viewBox="0 0 36 36" version="1.1" xmlns="http://www.w3.org/2000/svg" xmlns:xlink="http://www.w3.org/1999/xlink" xml:space="preserve" xmlns:serif="http://www.serif.com/" style="fill-rule:evenodd;clip-rule:evenodd;stroke-linecap:round;stroke-linejoin:round;stroke-miterlimit:1.5;"><rect id="housing-apartment" x="0" y="0" width="36" height="36" style="fill:none;"/><g id="bg-white"><circle cx="18" cy="18" r="18" style="fill:#ec1f27;"/></g><rect x="6" y="8" width="14" height="20" style="fill:none;stroke:#fff;stroke-width:0.8px;"/><rect x="8.5" y="10" width="2" height="2" style="fill:none;stroke:#fff;stroke-width:0.8px;"/><rect x="8.5" y="14" width="2" height="2" style="fill:none;stroke:#fff;stroke-width:0.8px;"/><rect x="8.5" y="18" width="2" height="2" style="fill:none;stroke:#fff;stroke-width:0.8px;"/><rect x="8.5" y="22" width="2" height="2" style="fill:none;stroke:#fff;stroke-width:0.8px;"/><rect x="12" y="25" width="2" height="3" style="fill:none;stroke:#fff;stroke-width:0.8px;"/><rect x="15.5" y="10" width="2" height="2" style="fill:none;stroke:#fff;stroke-width:0.8px;"/><rect x="15.5" y="14" width="2" height="2" style="fill:none;stroke:#fff;stroke-width:0.8px;"/><rect x="23" y="14" width="2" height="2" style="fill:none;stroke:#fff;stroke-width:0.8px;"/><rect x="23" y="18" width="2" height="2" style="fill:none;stroke:#fff;stroke-width:0.8px;"/><rect x="15.5" y="18" width="2" height="2" style="fill:none;stroke:#fff;stroke-width:0.8px;"/><rect x="15.5" y="22" width="2" height="2" style="fill:none;stroke:#fff;stroke-width:0.8px;"/><rect x="23" y="22" width="2" height="2" style="fill:none;stroke:#fff;stroke-width:0.8px;"/><path d="M20,12l8,0l0,7" style="fill:none;stroke:#fff;stroke-width:0.8px;"/><path d="M20,28l8,0l0,-2" style="fill:none;stroke:#fff;stroke-width:0.8px;"/><path d="M26,26l4,0l-1,-2l1,0l-2,-5l-2,5l1,0l-1,2" style="fill:none;stroke:#fff;stroke-width:0.8px;"/></svg>