<?xml version="1.0" encoding="UTF-8" standalone="no"?><!DOCTYPE svg PUBLIC "-//W3C//DTD SVG 1.1//EN" "http://www.w3.org/Graphics/SVG/1.1/DTD/svg11.dtd"><svg width="100%" height="100%" viewBox="0 0 36 36" version="1.1" xmlns="http://www.w3.org/2000/svg" xmlns:xlink="http://www.w3.org/1999/xlink" xml:space="preserve" xmlns:serif="http://www.serif.com/" style="fill-rule:evenodd;clip-rule:evenodd;stroke-linecap:round;stroke-linejoin:round;stroke-miterlimit:1.5;"><rect id="housing-single-family" x="0" y="0" width="36" height="36" style="fill:none;"/><g id="bg-white"><circle cx="18" cy="18" r="18" style="fill:#ec1f27;"/></g><path d="M7,15l7,-3.183l7,3.183" style="fill:none;stroke:#fff;stroke-width:0.8px;"/><path d="M8,15l0,7l2,0l0,-7" style="fill:none;stroke:#fff;stroke-width:0.8px;"/><path d="M20,15l0,7l-2,0l0,-7" style="fill:none;stroke:#fff;stroke-width:0.8px;"/><path d="M8,15l20,0" style="fill:none;stroke:#fff;stroke-width:0.8px;"/><path d="M20,22l2,0l0,4l-2,0l0,-4" style="fill:none;stroke:#fff;stroke-width:0.8px;"/><path d="M26,22l2,0l0,4l-2,0l0,-4" style="fill:none;stroke:#fff;stroke-width:0.8px;"/><rect x="22" y="22" width="4" height="2" style="fill:none;stroke:#fff;stroke-width:0.8px;"/><rect x="22" y="24" width="4" height="2" style="fill:none;stroke:#fff;stroke-width:0.8px;"/><rect x="8" y="22" width="12" height="4" style="fill:none;stroke:#fff;stroke-width:0.8px;"/><rect x="24" y="17" width="2" height="2" style="fill:none;stroke:#fff;stroke-width:0.8px;"/><rect x="20" y="17" width="2" height="2" style="fill:none;stroke:#fff;stroke-width:0.8px;"/><rect x="12" y="17" width="4" height="5" style="fill:none;stroke:#fff;stroke-width:0.8px;"/><path d="M14,17l0,5" style="fill:none;stroke:#fff;stroke-width:0.8px;"/><path d="M7,15l11,-5l11,5" style="fill:none;stroke:#fff;stroke-width:0.8px;"/><path d="M28,15l0,7" style="fill:none;stroke:#fff;stroke-width:0.8px;"/></svg>