<?xml version="1.0" encoding="UTF-8" standalone="no"?><!DOCTYPE svg PUBLIC "-//W3C//DTD SVG 1.1//EN" "http://www.w3.org/Graphics/SVG/1.1/DTD/svg11.dtd"><svg width="100%" height="100%" viewBox="0 0 36 36" version="1.1" xmlns="http://www.w3.org/2000/svg" xmlns:xlink="http://www.w3.org/1999/xlink" xml:space="preserve" xmlns:serif="http://www.serif.com/" style="fill-rule:evenodd;clip-rule:evenodd;stroke-linecap:round;stroke-linejoin:round;stroke-miterlimit:1.5;"><rect id="migrant-boat" x="0" y="0" width="36" height="36" style="fill:none;"/><g id="bg-white"><circle cx="18" cy="18" r="18" style="fill:#ec1f27;"/></g><path d="M8,22l0,6l15,0c3.185,-0.028 4.805,-2.962 5,-6l-20,0Z" style="fill:none;stroke:#fff;stroke-width:0.8px;"/><circle cx="23" cy="25" r="1" style="fill:none;stroke:#fff;stroke-width:0.8px;"/><circle cx="18" cy="25" r="1" style="fill:none;stroke:#fff;stroke-width:0.8px;"/><circle cx="13" cy="25" r="1" style="fill:none;stroke:#fff;stroke-width:0.8px;"/><path d="M18,15l0,-7" style="fill:none;stroke:#fff;stroke-width:0.8px;"/><path d="M12.75,17.799l0,0.201c-0.414,0 -0.75,0.336 -0.75,0.75l0,0.793c-0.924,0.918 -1.925,1.736 -3,2.457m9,-13c-0.786,2.641 -1.826,4.949 -3.106,6.945" style="fill:none;stroke:#fff;stroke-width:0.8px;"/><path d="M12.75,17.799c-0.448,-0.259 -0.75,-0.744 -0.75,-1.299c0,-0.828 0.672,-1.5 1.5,-1.5c0.828,0 1.5,0.672 1.5,1.5c0,0.555 -0.302,1.04 -0.75,1.299l0,0.201c0.414,0 0.75,0.336 0.75,0.75l0,2.5c0,0.414 -0.336,0.75 -0.75,0.75l-1.5,0c-0.414,0 -0.75,-0.336 -0.75,-0.75l0,-2.5c0,-0.414 0.336,-0.75 0.75,-0.75l0,-0.201Z" style="fill:none;stroke:#fff;stroke-width:0.8px;"/><path d="M18,9c10.082,0.032 10.057,13.008 7,13" style="fill:none;stroke:#fff;stroke-width:0.8px;"/><path d="M17.75,17.799c-0.448,-0.259 -0.75,-0.744 -0.75,-1.299c0,-0.828 0.672,-1.5 1.5,-1.5c0.828,0 1.5,0.672 1.5,1.5c0,0.555 -0.302,1.04 -0.75,1.299l0,0.201c0.414,0 0.75,0.336 0.75,0.75l0,2.5c0,0.414 -0.336,0.75 -0.75,0.75l-1.5,0c-0.414,0 -0.75,-0.336 -0.75,-0.75l0,-2.5c0,-0.414 0.336,-0.75 0.75,-0.75l0,-0.201Z" style="fill:none;stroke:#fff;stroke-width:0.8px;"/><path d="M22.75,17.799c-0.448,-0.259 -0.75,-0.744 -0.75,-1.299c0,-0.828 0.672,-1.5 1.5,-1.5c0.828,0 1.5,0.672 1.5,1.5c0,0.555 -0.302,1.04 -0.75,1.299l0,0.201c0.414,0 0.75,0.336 0.75,0.75l0,2.5c0,0.414 -0.336,0.75 -0.75,0.75l-1.5,0c-0.414,0 -0.75,-0.336 -0.75,-0.75l0,-2.5c0,-0.414 0.336,-0.75 0.75,-0.75l0,-0.201Z" style="fill:none;stroke:#fff;stroke-width:0.8px;"/></svg>