<?xml version="1.0" encoding="UTF-8" standalone="no"?><!DOCTYPE svg PUBLIC "-//W3C//DTD SVG 1.1//EN" "http://www.w3.org/Graphics/SVG/1.1/DTD/svg11.dtd"><svg width="100%" height="100%" viewBox="0 0 36 36" version="1.1" xmlns="http://www.w3.org/2000/svg" xmlns:xlink="http://www.w3.org/1999/xlink" xml:space="preserve" xmlns:serif="http://www.serif.com/" style="fill-rule:evenodd;clip-rule:evenodd;stroke-linecap:round;stroke-linejoin:round;stroke-miterlimit:1.5;"><rect id="oil-pumpjack" x="0" y="0" width="36" height="36" style="fill:none;"/><g id="bg-white"><circle cx="18" cy="18" r="18" style="fill:#ec1f27;"/></g><path d="M10,20l0,5" style="fill:none;stroke:#fff;stroke-width:0.8px;"/><path d="M12,25.3c0,-0.166 -0.134,-0.3 -0.3,-0.3l-3.4,0c-0.166,0 -0.3,0.134 -0.3,0.3l0,2.4c0,0.166 0.134,0.3 0.3,0.3l3.4,0c0.166,0 0.3,-0.134 0.3,-0.3l0,-2.4Z" style="fill:none;stroke:#fff;stroke-width:0.8px;"/><path d="M26.549,13.44c0.478,-0.276 0.642,-0.888 0.366,-1.366l-2.25,-3.898c-0.276,-0.478 -0.888,-0.642 -1.366,-0.366l-1.299,0.75l3.25,5.63l1.299,-0.75Z" style="fill:none;stroke:#fff;stroke-width:0.8px;"/><path d="M19.499,14.74l3.996,-2.307c0.239,-0.138 0.321,-0.444 0.183,-0.683l-0.5,-0.866c-0.138,-0.239 -0.444,-0.321 -0.683,-0.183l-3.982,2.299" style="fill:none;stroke:#fff;stroke-width:0.8px;"/><path d="M16.509,14.157l-7.004,4.044c-0.239,0.138 -0.321,0.444 -0.183,0.683l0.5,0.866c0.138,0.239 0.444,0.321 0.683,0.183l6.812,-3.933" style="fill:none;stroke:#fff;stroke-width:0.8px;"/><circle cx="18" cy="14.5" r="1.5" style="fill:none;stroke:#fff;stroke-width:0.8px;"/><path d="M17.556,16l-3.556,12l8,0l-3.556,-12" style="fill:none;stroke:#fff;stroke-width:0.8px;"/><path d="M14,28l5.5,-8" style="fill:none;stroke:#fff;stroke-width:0.8px;"/><path d="M22,28l-5.5,-8" style="fill:none;stroke:#fff;stroke-width:0.8px;"/></svg>