<?xml version="1.0" encoding="UTF-8" standalone="no"?><!DOCTYPE svg PUBLIC "-//W3C//DTD SVG 1.1//EN" "http://www.w3.org/Graphics/SVG/1.1/DTD/svg11.dtd"><svg width="100%" height="100%" viewBox="0 0 36 36" version="1.1" xmlns="http://www.w3.org/2000/svg" xmlns:xlink="http://www.w3.org/1999/xlink" xml:space="preserve" xmlns:serif="http://www.serif.com/" style="fill-rule:evenodd;clip-rule:evenodd;stroke-linecap:round;stroke-linejoin:round;stroke-miterlimit:1.5;"><rect id="pencil" x="0" y="0" width="36" height="36" style="fill:none;"/><g id="bg-white"><circle cx="18" cy="18" r="18" style="fill:#ec1f27;"/></g><path d="M11.197,6.954c-0.586,-0.585 -1.536,-0.585 -2.122,0l-2.121,2.121c-0.585,0.586 -0.585,1.536 0,2.122l14.849,14.849c0.586,0.585 6.148,1.973 6.148,1.973c0,0 -1.32,-5.63 -1.905,-6.216l-14.849,-14.849Z" style="fill:none;stroke:#fff;stroke-width:0.8px;"/><path d="M25.496,27.359l1.792,-1.878l0.663,2.538l-2.455,-0.66Z" style="fill:none;stroke:#fff;stroke-width:0.8px;"/><path d="M22,26l4,-4" style="fill:none;stroke:#fff;stroke-width:0.8px;"/><path d="M9,13l4,-4" style="fill:none;stroke:#fff;stroke-width:0.8px;"/><path d="M10,14l4,-4" style="fill:none;stroke:#fff;stroke-width:0.8px;"/><path d="M11,15l4,-4" style="fill:none;stroke:#fff;stroke-width:0.8px;"/><path d="M15,13.5l8.5,8.5" style="fill:none;stroke:#fff;stroke-width:0.8px;"/><path d="M13.5,15l8.5,8.5" style="fill:none;stroke:#fff;stroke-width:0.8px;"/></svg>