<?xml version="1.0" encoding="UTF-8" standalone="no"?><!DOCTYPE svg PUBLIC "-//W3C//DTD SVG 1.1//EN" "http://www.w3.org/Graphics/SVG/1.1/DTD/svg11.dtd"><svg width="100%" height="100%" viewBox="0 0 36 36" version="1.1" xmlns="http://www.w3.org/2000/svg" xmlns:xlink="http://www.w3.org/1999/xlink" xml:space="preserve" xmlns:serif="http://www.serif.com/" style="fill-rule:evenodd;clip-rule:evenodd;stroke-linecap:round;stroke-linejoin:round;stroke-miterlimit:1.5;"><rect id="rifle" x="0" y="0" width="36" height="36" style="fill:none;"/><g><circle cx="18" cy="18" r="18" style="fill:#ec1f27;"/></g><path d="M6,25.064c0,0 0.404,2.131 1,2.936c0.846,1.143 2,2 2,2l4,-5l3,3l2.338,-2c0,0 -1.015,-0.725 -1.321,-1c-0.354,-0.318 -2.017,-2 -2.017,-2l2,-2c1.95,2.089 4.116,3.754 7,4l1,-2.95c-2.116,-0.609 -4.033,-1.783 -5.735,-3.568l0.913,-1.033l0.457,0.244l7.365,-7.705l-2,-1.988l-7.881,7.076l0.197,0.481l-0.605,0.644l-2.711,0l-4,3.799l0,1.532l-5,3.532Z" style="fill:none;stroke:#fff;stroke-width:0.75px;"/><path d="M27,9l2,-2" style="fill:none;stroke:#fff;stroke-width:0.75px;"/><path d="M27.047,9l-0.047,-2.181l2.022,2.181" style="fill:none;stroke:#fff;stroke-width:0.75px;"/><path d="M11,20.936l0,-2.936l2,-1.799l3,0" style="fill:none;stroke:#fff;stroke-width:0.75px;"/><path d="M20.143,20l-1.143,2l-2,3" style="fill:none;stroke:#fff;stroke-width:0.75px;"/><path d="M15,23c0,0 1.03,0.614 2,0" style="fill:none;stroke:#fff;stroke-width:0.75px;"/><path d="M10,29l1,1" style="fill:none;stroke:#fff;stroke-width:0.75px;"/><path d="M28,10l1,1" style="fill:none;stroke:#fff;stroke-width:0.75px;"/><path d="M19.642,21c1.292,1.312 2.662,1.973 4.358,2.273" style="fill:none;stroke:#fff;stroke-width:0.75px;"/><path d="M18.338,15.625l1.805,1.755" style="fill:none;stroke:#fff;stroke-width:0.75px;"/><path d="M17.711,16.201l1.931,1.856" style="fill:none;stroke:#fff;stroke-width:0.75px;"/><path d="M29,6.599l0.351,0.401l0.627,-0.602l-0.326,-0.376l-0.652,0.577Z" style="stroke:#fff;stroke-width:0.75px;"/></svg>