<?xml version="1.0" encoding="UTF-8" standalone="no"?><!DOCTYPE svg PUBLIC "-//W3C//DTD SVG 1.1//EN" "http://www.w3.org/Graphics/SVG/1.1/DTD/svg11.dtd"><svg width="100%" height="100%" viewBox="0 0 36 36" version="1.1" xmlns="http://www.w3.org/2000/svg" xmlns:xlink="http://www.w3.org/1999/xlink" xml:space="preserve" xmlns:serif="http://www.serif.com/" style="fill-rule:evenodd;clip-rule:evenodd;stroke-linecap:round;stroke-linejoin:round;stroke-miterlimit:1.5;"><rect id="rose" x="0" y="0" width="36" height="36" style="fill:none;"/><g><circle cx="18" cy="18" r="18" style="fill:#ec1f27;"/></g><path d="M10,8.87c1.123,0.468 1.682,1.081 1.875,3.85l0,3.84c0.114,3.104 3.867,4.763 5.625,4.8c1.798,0.038 2.813,-0.96 2.813,-0.96c-0.664,-6.248 -3.907,-10.216 -10.313,-11.53Z" style="fill:none;stroke:#fff;stroke-width:0.75px;"/><path d="M23.125,12.72c0.053,-1.476 0.467,-3.132 1.875,-3.84c-2.212,-0.12 -5.648,0.816 -8.51,2.469c1.826,2.404 3.431,5.642 3.823,9.051c2.098,-1.113 2.693,-4.364 2.812,-7.68Z" style="fill:none;stroke:#fff;stroke-width:0.75px;"/><path d="M13.75,9.84l0,-3.84c0,0 4.128,3.141 4.904,4.251l-2.164,1.509c-1.754,-1.154 -1.639,-1.133 -2.74,-1.92Z" style="fill:none;stroke:#fff;stroke-width:0.75px;"/><path d="M17.5,8.87c0.598,-0.599 2.813,-2.87 2.813,-2.87c0,0 1.348,2.344 1.875,2.87l-3.534,1.381c-1.353,-1.442 -0.322,-0.454 -1.154,-1.381Z" style="fill:none;stroke:#fff;stroke-width:0.75px;"/><path d="M17.5,26c0.114,0.655 4.764,1.154 5.481,-2.583c-2.677,-1.212 -4.974,0.365 -5.481,2.583Z" style="fill:none;stroke:#fff;stroke-width:0.75px;"/><path d="M15.625,30c1.454,-2.6 2.652,-5.415 1.875,-8.64" style="fill:none;stroke:#fff;stroke-width:0.75px;"/><path d="M17.5,26.16c-0.541,-0.439 -2.026,-0.586 -2.813,-0.96l1.876,1.92" style="fill:none;stroke:#fff;stroke-width:0.75px;"/></svg>