<?xml version="1.0" encoding="UTF-8" standalone="no"?><!DOCTYPE svg PUBLIC "-//W3C//DTD SVG 1.1//EN" "http://www.w3.org/Graphics/SVG/1.1/DTD/svg11.dtd"><svg width="100%" height="100%" viewBox="0 0 36 36" version="1.1" xmlns="http://www.w3.org/2000/svg" xmlns:xlink="http://www.w3.org/1999/xlink" xml:space="preserve" xmlns:serif="http://www.serif.com/" style="fill-rule:evenodd;clip-rule:evenodd;stroke-linecap:round;stroke-linejoin:round;stroke-miterlimit:1.5;"><rect id="scales" x="0" y="0" width="36" height="36" style="fill:none;"/><g><circle cx="18" cy="18" r="18" style="fill:#ec1f27;"/></g><path d="M13,16.5l-7,0c0,1.932 1.568,3.5 3.5,3.5c1.932,0 3.5,-1.568 3.5,-3.5Z" style="fill:none;stroke:#fff;stroke-width:0.75px;"/><path d="M30,16.5l-7,0c0,1.932 1.568,3.5 3.5,3.5c1.932,0 3.5,-1.568 3.5,-3.5Z" style="fill:none;stroke:#fff;stroke-width:0.75px;"/><path d="M18,6l0,24" style="fill:none;stroke:#fff;stroke-width:0.75px;"/><path d="M7,16.5l2.5,-7.5l2.5,7.5l-5,0Z" style="fill:none;stroke:#fff;stroke-width:0.75px;"/><path d="M24,16.5l2.5,-7.5l2.5,7.5l-5,0Z" style="fill:none;stroke:#fff;stroke-width:0.75px;"/><path d="M6,9l24,0" style="fill:none;stroke:#fff;stroke-width:0.75px;"/><path d="M10,30l16,0" style="fill:none;stroke:#fff;stroke-width:0.75px;"/></svg>