<?xml version="1.0" encoding="UTF-8" standalone="no"?><!DOCTYPE svg PUBLIC "-//W3C//DTD SVG 1.1//EN" "http://www.w3.org/Graphics/SVG/1.1/DTD/svg11.dtd"><svg width="100%" height="100%" viewBox="0 0 36 36" version="1.1" xmlns="http://www.w3.org/2000/svg" xmlns:xlink="http://www.w3.org/1999/xlink" xml:space="preserve" xmlns:serif="http://www.serif.com/" style="fill-rule:evenodd;clip-rule:evenodd;stroke-linecap:round;stroke-linejoin:round;stroke-miterlimit:1.5;"><rect id="skull" x="0" y="0" width="36" height="36" style="fill:none;"/><g><circle cx="18" cy="18" r="18" style="fill:#ec1f27;"/></g><path d="M18,26.728l0,3.272" style="fill:none;stroke:#fff;stroke-width:0.75px;"/><path d="M16.001,27l0,2.998" style="fill:none;stroke:#fff;stroke-width:0.75px;"/><path d="M19.999,27l0,2.998" style="fill:none;stroke:#fff;stroke-width:0.75px;"/><path d="M22.18,27.816l0,2.182" style="fill:none;stroke:#fff;stroke-width:0.75px;"/><path d="M14,27.816l0,2.182" style="fill:none;stroke:#fff;stroke-width:0.75px;"/><path d="M8.362,18.441c-0.236,-0.836 -0.362,-1.715 -0.362,-2.624c0,-5.418 4.481,-9.817 10,-9.817c5.519,0 10,4.399 10,9.817c0,0.909 -0.126,1.788 -0.362,2.624c0.234,0.567 0.362,1.186 0.362,1.835c0,2.135 -1.392,3.954 -3.333,4.628l0,2.912c-0.114,1.359 -0.952,2.182 -2.223,2.182l-8.888,0c-1.214,0.056 -2.166,-0.934 -2.223,-2.182l0,-2.912c-1.941,-0.674 -3.333,-2.493 -3.333,-4.628c0,-0.649 0.128,-1.268 0.362,-1.835Z" style="fill:none;stroke:#fff;stroke-width:0.75px;"/><path d="M18.091,20.349l-1.091,3.273l2.182,0l-1.091,-3.273Z" style="fill:none;stroke:#fff;stroke-width:0.75px;"/><path d="M15.773,19.324c1.025,-0.592 1.376,-1.904 0.785,-2.929c-0.592,-1.025 -1.905,-1.377 -2.929,-0.785l-1.01,0.583c-1.025,0.592 -1.376,1.904 -0.785,2.929c0.592,1.025 1.904,1.377 2.929,0.785l1.01,-0.583Z" style="fill:none;stroke:#fff;stroke-width:0.75px;"/><path d="M21.467,19.935c0.998,0.576 2.276,0.234 2.852,-0.764c0.576,-0.997 0.234,-2.275 -0.764,-2.851l-1.108,-0.64c-0.998,-0.576 -2.275,-0.233 -2.851,0.764c-0.576,0.998 -0.234,2.276 0.764,2.852l1.107,0.639Z" style="fill:none;stroke:#fff;stroke-width:0.75px;"/><path d="M16.001,8.517c0,0 -1.753,0.392 -3.001,1.483c-1.38,1.206 -2,3 -2,3" style="fill:none;stroke:#fff;stroke-width:0.75px;"/></svg>