<?xml version="1.0" encoding="UTF-8" standalone="no"?><!DOCTYPE svg PUBLIC "-//W3C//DTD SVG 1.1//EN" "http://www.w3.org/Graphics/SVG/1.1/DTD/svg11.dtd"><svg width="100%" height="100%" viewBox="0 0 36 36" version="1.1" xmlns="http://www.w3.org/2000/svg" xmlns:xlink="http://www.w3.org/1999/xlink" xml:space="preserve" xmlns:serif="http://www.serif.com/" style="fill-rule:evenodd;clip-rule:evenodd;stroke-linecap:round;stroke-linejoin:round;stroke-miterlimit:1.5;"><rect id="smoke" x="0" y="0" width="36" height="36" style="fill:none;"/><g id="bg-white"><circle cx="18" cy="18" r="18" style="fill:#ec1f27;"/></g><path d="M7.5,20.5l4,0" style="fill:none;stroke:#fff;stroke-width:0.8px;"/><path d="M7.5,18.5l4,0" style="fill:none;stroke:#fff;stroke-width:0.8px;"/><path d="M7.5,16.5l3.5,0" style="fill:none;stroke:#fff;stroke-width:0.8px;"/><path d="M7.5,14.5l3.5,0" style="fill:none;stroke:#fff;stroke-width:0.8px;"/><path d="M7.5,12.5l4.5,0" style="fill:none;stroke:#fff;stroke-width:0.8px;"/><path d="M7.5,10.5l10.286,0" style="fill:none;stroke:#fff;stroke-width:0.8px;"/><path d="M7.5,8.5l21,0" style="fill:none;stroke:#fff;stroke-width:0.8px;"/><path d="M23.5,10.5l5,0" style="fill:none;stroke:#fff;stroke-width:0.8px;"/><path d="M25.5,12.5l3,0" style="fill:none;stroke:#fff;stroke-width:0.8px;"/><path d="M27.2,14.5l1.3,0" style="fill:none;stroke:#fff;stroke-width:0.8px;"/><path d="M27.937,16.5l0.563,0" style="fill:none;stroke:#fff;stroke-width:0.8px;"/><path d="M28,18.5l0.5,0" style="fill:none;stroke:#fff;stroke-width:0.8px;"/><path d="M28,20.5l0.5,0" style="fill:none;stroke:#fff;stroke-width:0.8px;"/><path d="M28.25,22.5l0.25,0" style="fill:none;stroke:#fff;stroke-width:0.8px;"/><path d="M16,16c0.823,-1.374 2.83,-1.321 3.5,0" style="fill:none;stroke:#fff;stroke-width:0.8px;"/><path d="M20.5,19.5c0.823,-1.374 2.83,-1.321 3.5,0" style="fill:none;stroke:#fff;stroke-width:0.8px;"/><path d="M18,23.5c0.823,-1.374 2.83,-1.321 3.5,0" style="fill:none;stroke:#fff;stroke-width:0.8px;"/><path d="M17.679,12.929c0.637,-0.866 1.664,-1.429 2.821,-1.429c1.625,0 2.994,1.11 3.387,2.613c1.503,0.393 2.613,1.762 2.613,3.387c0,0.743 -0.232,1.433 -0.628,2c0.483,0.417 0.71,2.185 0.59,2.514c0.641,0.634 1.038,1.514 1.038,2.486c0,1.932 -1.568,3.5 -3.5,3.5c-0.856,0 -1.641,-0.308 -2.25,-0.82c-0.609,0.512 -1.394,0.82 -2.25,0.82c-0.979,0 -1.865,-0.403 -2.5,-1.052c-0.635,0.649 -1.521,1.052 -2.5,1.052c-1.932,0 -3.5,-1.568 -3.5,-3.5c0,-1.591 1.064,-2.935 2.518,-3.36c0.08,-0.773 0.411,-1.472 0.91,-2.013c-1.143,-0.576 -1.928,-1.761 -1.928,-3.127c0,-1.932 1.568,-3.5 3.5,-3.5c0.608,0 1.181,0.156 1.679,0.429Z" style="fill:none;stroke:#fff;stroke-width:0.8px;"/></svg>