<?xml version="1.0" encoding="UTF-8" standalone="no"?><!DOCTYPE svg PUBLIC "-//W3C//DTD SVG 1.1//EN" "http://www.w3.org/Graphics/SVG/1.1/DTD/svg11.dtd"><svg width="100%" height="100%" viewBox="0 0 36 36" version="1.1" xmlns="http://www.w3.org/2000/svg" xmlns:xlink="http://www.w3.org/1999/xlink" xml:space="preserve" xmlns:serif="http://www.serif.com/" style="fill-rule:evenodd;clip-rule:evenodd;stroke-linecap:round;stroke-linejoin:round;stroke-miterlimit:1.5;"><rect id="testify" x="0" y="0" width="36" height="36" style="fill:none;"/><g id="bg-white"><circle cx="18" cy="18" r="18" style="fill:#ec1f27;"/></g><path d="M29,20.2c0,-0.11 -0.09,-0.2 -0.2,-0.2l-21.6,0c-0.11,0 -0.2,0.09 -0.2,0.2l0,1.6c0,0.11 0.09,0.2 0.2,0.2l21.6,0c0.11,0 0.2,-0.09 0.2,-0.2l0,-1.6Z" style="fill:none;stroke:#fff;stroke-width:0.8px;"/><path d="M11.3,25c0.11,0 0.2,-0.09 0.2,-0.2l0,-2.6c0,-0.11 -0.09,-0.2 -0.2,-0.2l-1.6,0c-0.11,0 -0.2,0.09 -0.2,0.2l0,2.6c0,0.11 0.09,0.2 0.2,0.2l1.6,0Z" style="fill:none;stroke:#fff;stroke-width:0.8px;"/><path d="M26.3,25c0.11,0 0.2,-0.09 0.2,-0.2l0,-2.6c0,-0.11 -0.09,-0.2 -0.2,-0.2l-1.6,0c-0.11,0 -0.2,0.09 -0.2,0.2l0,2.6c0,0.11 0.09,0.2 0.2,0.2l1.6,0Z" style="fill:none;stroke:#fff;stroke-width:0.8px;"/><path d="M16.5,15.75c0,-0.69 -0.56,-1.25 -1.25,-1.25l-3.5,0c-0.69,0 -1.25,0.56 -1.25,1.25l0,4.25l6,0l0,-4.25Z" style="fill:none;stroke:#fff;stroke-width:0.8px;"/><path d="M25.5,15.75c0,-0.69 -0.56,-1.25 -1.25,-1.25l-3.5,0c-0.69,0 -1.25,0.56 -1.25,1.25l0,4.25l6,0l0,-4.25Z" style="fill:none;stroke:#fff;stroke-width:0.8px;"/><circle cx="13.5" cy="12.5" r="2" style="fill:none;stroke:#fff;stroke-width:0.8px;"/><circle cx="22.5" cy="12.5" r="2" style="fill:none;stroke:#fff;stroke-width:0.8px;"/><path d="M13.5,19l0,-1.75" style="fill:none;stroke:#fff;stroke-width:0.8px;"/><circle cx="13.5" cy="16.75" r="0.5" style="fill:none;stroke:#fff;stroke-width:0.8px;"/><path d="M15,19.25c0,-0.138 -0.112,-0.25 -0.25,-0.25l-2.5,0c-0.138,0 -0.25,0.112 -0.25,0.25l0,0.5c0,0.138 0.112,0.25 0.25,0.25l2.5,0c0.138,0 0.25,-0.112 0.25,-0.25l0,-0.5Z" style="fill:none;stroke:#fff;stroke-width:0.8px;"/></svg>