<?xml version="1.0" encoding="UTF-8" standalone="no"?><!DOCTYPE svg PUBLIC "-//W3C//DTD SVG 1.1//EN" "http://www.w3.org/Graphics/SVG/1.1/DTD/svg11.dtd"><svg width="100%" height="100%" viewBox="0 0 36 36" version="1.1" xmlns="http://www.w3.org/2000/svg" xmlns:xlink="http://www.w3.org/1999/xlink" xml:space="preserve" xmlns:serif="http://www.serif.com/" style="fill-rule:evenodd;clip-rule:evenodd;stroke-linecap:round;stroke-linejoin:round;stroke-miterlimit:1.5;"><rect id="windmill" x="0" y="0" width="36" height="36" style="fill:none;"/><g><circle cx="18" cy="18" r="18" style="fill:#ec1f27;"/></g><circle cx="18.784" cy="16.857" r="0.571" style="fill:#ec1f27;stroke:#fff;stroke-width:0.75px;"/><path d="M18.784,18.444c-2.572,0 -6.243,2.723 -7.717,3.401c-0.403,0.186 -0.879,0.336 -1.27,-0.368c-0.341,-0.613 -0.075,-0.999 0.34,-1.374c1.198,-1.085 5.615,-3.001 6.901,-5.183c1.287,-2.183 0.67,-6.618 0.816,-7.914c0.053,-0.47 0.171,-0.991 0.93,-1.006c0.661,-0.012 0.837,0.43 0.931,1.006c0.202,1.253 -0.462,5.713 0.824,7.896c1.286,2.182 5.612,4.16 6.892,5.201c0.351,0.285 0.709,0.656 0.341,1.374c-0.321,0.626 -0.763,0.569 -1.271,0.368c-1.468,-0.58 -5.145,-3.401 -7.717,-3.401Z" style="fill:none;stroke:#fff;stroke-width:0.75px;"/><path d="M18.049,18.638c0.252,-0.043 0.498,-0.067 0.735,-0.067c0.237,0 0.483,0.025 0.735,0.07l0.408,11.359l-2.286,0l0.408,-11.362Z" style="fill:none;stroke:#fff;stroke-width:0.75px;"/><path d="M8.513,16.857c0.688,-4.177 3.097,-7.079 6.842,-8" style="fill:none;stroke:#fff;stroke-width:0.75px;"/></svg>