<?xml version="1.0" encoding="UTF-8" standalone="no"?><!DOCTYPE svg PUBLIC "-//W3C//DTD SVG 1.1//EN" "http://www.w3.org/Graphics/SVG/1.1/DTD/svg11.dtd"><svg width="100%" height="100%" viewBox="0 0 36 36" version="1.1" xmlns="http://www.w3.org/2000/svg" xmlns:xlink="http://www.w3.org/1999/xlink" xml:space="preserve" xmlns:serif="http://www.serif.com/" style="fill-rule:evenodd;clip-rule:evenodd;stroke-linecap:round;stroke-linejoin:round;stroke-miterlimit:1.5;"><rect id="wrench" x="0" y="0" width="36" height="36" style="fill:none;"/><g id="bg-white"><circle cx="18" cy="18" r="18" style="fill:#ec1f27;"/></g><path d="M18.645,13.102c-0.658,-1.854 -0.247,-4.005 1.236,-5.488c1.664,-1.664 5.065,-2.358 6.909,-0.532c0.003,0.004 -4.252,4.252 -4.252,4.252l2.126,2.126c0,0 4.247,-4.256 4.251,-4.252c1.839,1.94 1.123,5.255 -0.531,6.909c-1.483,1.483 -3.633,1.895 -5.487,1.236l-12.316,12.317c-0.44,0.44 -1.154,0.44 -1.594,0l-2.657,-2.657c-0.44,-0.44 -0.44,-1.155 0,-1.595l12.315,-12.316Z" style="fill:none;stroke:#fff;stroke-width:0.8px;"/><path d="M10.847,25.152c0.293,0.294 0.293,0.77 0,1.063c-0.293,0.294 -0.77,0.294 -1.063,0c-0.293,-0.293 -0.293,-0.769 0,-1.063c0.293,-0.293 0.77,-0.293 1.063,0Z" style="fill:none;stroke:#fff;stroke-width:0.8px;"/><path d="M18.507,16.74l0.752,0.752" style="fill:none;stroke:#fff;stroke-width:0.8px;"/><path d="M20.01,15.237l0.752,0.751" style="fill:none;stroke:#fff;stroke-width:0.8px;"/></svg>