<?xml version="1.0" encoding="UTF-8" standalone="no"?><!DOCTYPE svg PUBLIC "-//W3C//DTD SVG 1.1//EN" "http://www.w3.org/Graphics/SVG/1.1/DTD/svg11.dtd"><svg width="100%" height="100%" viewBox="0 0 36 36" version="1.1" xmlns="http://www.w3.org/2000/svg" xmlns:xlink="http://www.w3.org/1999/xlink" xml:space="preserve" xmlns:serif="http://www.serif.com/" style="fill-rule:evenodd;clip-rule:evenodd;stroke-linecap:round;stroke-linejoin:round;stroke-miterlimit:1.5;"><rect id="x-ray" x="0" y="0" width="36" height="36" style="fill:none;"/><g><circle cx="18" cy="18" r="18" style="fill:#ec1f27;"/></g><path d="M27,10.5c0,-2.484 -2.016,-4.5 -4.5,-4.5l-9,0c-2.484,0 -4.5,2.016 -4.5,4.5l0,15c0,2.484 2.016,4.5 4.5,4.5l9,0c2.484,0 4.5,-2.016 4.5,-4.5l0,-15Z" style="fill:none;stroke:#fff;stroke-width:0.75px;"/><path d="M25,11.5c0,-1.932 -1.568,-3.5 -3.5,-3.5l-7,0c-1.932,0 -3.5,1.568 -3.5,3.5l0,13c0,1.932 1.568,3.5 3.5,3.5l7,0c1.932,0 3.5,-1.568 3.5,-3.5l0,-13Z" style="fill:none;stroke:#fff;stroke-width:0.75px;"/><path d="M16,8l4,0l0,4c0,0 1.975,0.515 2,2c0.018,1.077 -1.088,1.956 -2,2c-0.686,0.033 -2,-1 -2,-1c0,0 -1.313,1.002 -2,1c-0.953,-0.003 -2,-0.596 -2,-2c0,-1.404 2,-2 2,-2l0,-4Z" style="fill:none;stroke:#fff;stroke-width:0.75px;"/><path d="M20,28l-4,0l0,-4c0,0 -1.974,-0.515 -2,-2c-0.018,-1.077 1.088,-1.956 2,-2c0.687,-0.033 2,1 2,1c0,0 1.313,-1.002 2,-1c0.954,0.003 2,0.596 2,2c0,1.404 -2,2 -2,2l0,4Z" style="fill:none;stroke:#fff;stroke-width:0.75px;"/><path d="M23,18l-1,0" style="fill:none;stroke:#fff;stroke-width:0.75px;"/><path d="M23,20l-0.707,-0.707" style="fill:none;stroke:#fff;stroke-width:0.75px;"/><path d="M23,16l-0.707,0.414" style="fill:none;stroke:#fff;stroke-width:0.75px;"/><path d="M13,18l1,0" style="fill:none;stroke:#fff;stroke-width:0.75px;"/><path d="M13,16l1,0.707" style="fill:none;stroke:#fff;stroke-width:0.75px;"/><path d="M13,20l1,-0.707" style="fill:none;stroke:#fff;stroke-width:0.75px;"/></svg>