<?xml version="1.0" encoding="UTF-8" standalone="no"?><!DOCTYPE svg PUBLIC "-//W3C//DTD SVG 1.1//EN" "http://www.w3.org/Graphics/SVG/1.1/DTD/svg11.dtd"><svg width="100%" height="100%" viewBox="0 0 50 90" version="1.1" xmlns="http://www.w3.org/2000/svg" xmlns:xlink="http://www.w3.org/1999/xlink" xml:space="preserve" xmlns:serif="http://www.serif.com/" style="fill-rule:evenodd;clip-rule:evenodd;stroke-linejoin:round;stroke-miterlimit:1.41421;"><path d="M47.732,1.938c-2.584,-2.584 -6.78,-2.584 -9.364,0l-36.43,36.43c-2.584,2.584 -2.584,6.78 0,9.364c2.584,2.584 6.78,2.584 9.364,0l36.43,-36.43c2.584,-2.584 2.584,-6.78 0,-9.364Z" style="fill:#fff;"/><path d="M1.938,39.268c-2.584,2.584 -2.584,6.78 0,9.364l36.43,36.43c2.584,2.584 6.78,2.584 9.364,0c2.584,-2.584 2.584,-6.78 0,-9.364l-36.43,-36.43c-2.584,-2.584 -6.78,-2.584 -9.364,0Z" style="fill:#fff;"/></svg>