<?xml version="1.0" encoding="UTF-8" standalone="no"?><!DOCTYPE svg PUBLIC "-//W3C//DTD SVG 1.1//EN" "http://www.w3.org/Graphics/SVG/1.1/DTD/svg11.dtd"><svg width="100%" height="100%" viewBox="0 0 1440 810" version="1.1" xmlns="http://www.w3.org/2000/svg" xmlns:xlink="http://www.w3.org/1999/xlink" xml:space="preserve" xmlns:serif="http://www.serif.com/" style="fill-rule:evenodd;clip-rule:evenodd;stroke-linejoin:round;stroke-miterlimit:1.41421;"><rect id="Artboard1" x="0" y="0" width="1440" height="810" style="fill:none;"/><path id="cloud" d="M1139.37,150.198l32.55,0c-7.795,0 -14.125,-6.329 -14.125,-14.125c0,-7.796 6.33,-14.125 14.125,-14.125l35.028,0c-5.548,-1.906 -9.54,-7.172 -9.54,-13.363c0,-7.795 6.329,-14.125 14.125,-14.125l43.337,0c7.796,0 14.125,6.33 14.125,14.125c0,6.191 -3.991,11.457 -9.539,13.363l8.414,0c7.796,0 14.125,6.329 14.125,14.125c0,7.796 -6.329,14.125 -14.125,14.125l2.25,0c7.796,0 14.125,6.329 14.125,14.125c0,7.796 -6.329,14.125 -14.125,14.125l-130.75,0c-7.795,0 -14.125,-6.329 -14.125,-14.125c0,-7.796 6.33,-14.125 14.125,-14.125Z" style="fill:#c2c3c5;"/></svg>