<?xml version="1.0" encoding="UTF-8" standalone="no"?><!DOCTYPE svg PUBLIC "-//W3C//DTD SVG 1.1//EN" "http://www.w3.org/Graphics/SVG/1.1/DTD/svg11.dtd"><svg width="100%" height="100%" viewBox="0 0 960 415" version="1.1" xmlns="http://www.w3.org/2000/svg" xmlns:xlink="http://www.w3.org/1999/xlink" xml:space="preserve" xmlns:serif="http://www.serif.com/" style="fill-rule:evenodd;clip-rule:evenodd;stroke-linejoin:round;stroke-miterlimit:1.41421;"><path d="M67,312l36,-59l-24,0l39,-40l-18,0l48,-49l50,48l-21,0l16,17l22,-36l-23,0l38,-40l-19,0l49,-49l48,49l-18,0l16,17l21,-35l-23,0l38,-41l-18,0l48,-49l48,49c0,0 -18.157,-0.157 -18,0c0.157,0.157 18,20 18,20l23,-36l-21,0l35,-36l-18,0l41,-42l41,41l-17,0l36,37l-23,0l23,36l19,-19l-20,0l49,-50l49,49l-19,0l39,40l-24,0l21,35l16,-17l-18,0l49,-49l48,50l-19,0l39,40l-24,0l22,36l15,-16l-17,0l48,-49l48,49l-18,0l38,39l-23,0l35,61c-277.018,8.899 -552.295,8.255 -826,-1Z" style="fill:#ec1f27;"/></svg>