<?xml version="1.0" encoding="UTF-8" standalone="no"?><!DOCTYPE svg PUBLIC "-//W3C//DTD SVG 1.1//EN" "http://www.w3.org/Graphics/SVG/1.1/DTD/svg11.dtd"><svg width="100%" height="100%" viewBox="0 0 252 132" version="1.1" xmlns="http://www.w3.org/2000/svg" xmlns:xlink="http://www.w3.org/1999/xlink" xml:space="preserve" xmlns:serif="http://www.serif.com/" style="fill-rule:evenodd;clip-rule:evenodd;stroke-linejoin:round;stroke-miterlimit:1.41421;"><path d="M252,109.072c0,-12.654 -10.274,-22.928 -22.928,-22.928l-206.144,0c-12.654,0 -22.928,10.274 -22.928,22.928c0,12.654 10.274,22.928 22.928,22.928l206.144,0c12.654,0 22.928,-10.274 22.928,-22.928Z" style="fill:#cfcfcf;"/><path d="M248,63.216c0,-12.655 -10.274,-22.928 -22.928,-22.928l-148.144,0c-12.654,0 -22.928,10.273 -22.928,22.928c0,12.654 10.274,22.928 22.928,22.928l148.144,0c12.654,0 22.928,-10.274 22.928,-22.928Z" style="fill:#cfcfcf;"/><path d="M190.921,20.144c0,-11.118 -9.027,-20.144 -20.144,-20.144l-36.062,0c-11.117,0 -20.144,9.026 -20.144,20.144c0,11.118 9.027,20.144 20.144,20.144l36.062,0c11.117,0 20.144,-9.026 20.144,-20.144Z" style="fill:#cfcfcf;"/></svg>