<?xml version="1.0" encoding="UTF-8" standalone="no"?><!DOCTYPE svg PUBLIC "-//W3C//DTD SVG 1.1//EN" "http://www.w3.org/Graphics/SVG/1.1/DTD/svg11.dtd"><svg width="100%" height="100%" viewBox="0 0 408 190" version="1.1" xmlns="http://www.w3.org/2000/svg" xmlns:xlink="http://www.w3.org/1999/xlink" xml:space="preserve" xmlns:serif="http://www.serif.com/" style="fill-rule:evenodd;clip-rule:evenodd;stroke-linecap:round;stroke-linejoin:round;stroke-miterlimit:1.5;"><path d="M-6,60c93.439,-3.485 111.428,-56.817 210,-57c98.572,-0.183 114.159,56.001 208,57l0,25c-106.105,-2.473 -106.495,-57.72 -208,-57c-109.507,0.777 -108.044,55.883 -210,57l0,-25" style="stroke:#fff;stroke-width:3px;"/><path d="M-6,85c93.439,-3.485 111.428,-56.817 210,-57c98.572,-0.183 114.159,56.001 208,57l0,25c-106.105,-2.473 -106.495,-57.72 -208,-57c-109.507,0.777 -108.044,55.883 -210,57l0,-25" style="stroke:#fff;stroke-width:3px;"/><path d="M-6,110c93.439,-3.485 111.428,-56.817 210,-57c98.572,-0.183 114.159,56.001 208,57l0,25c-106.105,-2.473 -106.495,-57.72 -208,-57c-109.507,0.777 -108.044,55.883 -210,57l0,-25" style="stroke:#fff;stroke-width:3px;"/><path d="M-6,135c93.439,-3.485 111.428,-56.817 210,-57c98.572,-0.183 114.159,56.001 208,57l0,25c-106.105,-2.473 -106.495,-57.72 -208,-57c-109.507,0.777 -108.044,55.883 -210,57l0,-25" style="stroke:#fff;stroke-width:3px;"/><path d="M-6,160c93.439,-3.485 111.428,-56.817 210,-57c98.572,-0.183 114.159,56.001 208,57l0,25c-106.105,-2.473 -106.495,-57.72 -208,-57c-109.507,0.777 -108.044,55.883 -210,57l0,-25" style="stroke:#fff;stroke-width:3px;"/><path d="M-6,185c93.439,-3.485 111.428,-56.817 210,-57c98.572,-0.183 114.159,56.001 208,57l0,25c-106.105,-2.473 -106.495,-57.72 -208,-57c-109.507,0.777 -108.044,55.883 -210,57l0,-25" style="stroke:#fff;stroke-width:3px;"/><path d="M-6,210c93.439,-3.485 111.428,-56.817 210,-57c98.572,-0.183 114.159,56.001 208,57l0,25c-106.105,-2.473 -106.495,-57.72 -208,-57c-109.507,0.777 -108.044,55.883 -210,57l0,-25" style="stroke:#fff;stroke-width:3px;"/><path d="M-6,235c93.439,-3.485 111.428,-56.817 210,-57c98.572,-0.183 114.159,56.001 208,57l0,25c-106.105,-2.473 -106.495,-57.72 -208,-57c-109.507,0.777 -108.044,55.883 -210,57l0,-25" style="stroke:#fff;stroke-width:3px;"/></svg>