<?xml version="1.0" encoding="UTF-8" standalone="no"?><!DOCTYPE svg PUBLIC "-//W3C//DTD SVG 1.1//EN" "http://www.w3.org/Graphics/SVG/1.1/DTD/svg11.dtd"><svg width="100%" height="100%" viewBox="0 0 296 128" version="1.1" xmlns="http://www.w3.org/2000/svg" xmlns:xlink="http://www.w3.org/1999/xlink" xml:space="preserve" xmlns:serif="http://www.serif.com/" style="fill-rule:evenodd;clip-rule:evenodd;stroke-linejoin:round;stroke-miterlimit:1.41421;"><path d="M295,105.072c0,-12.654 -10.274,-22.928 -22.928,-22.928l-249.144,0c-12.654,0 -22.928,10.274 -22.928,22.928c0,12.654 10.274,22.928 22.928,22.928l249.144,0c12.654,0 22.928,-10.274 22.928,-22.928Z" style="fill:#cfcfcf;"/><path d="M293,62.216c0,-10.999 -8.929,-19.928 -19.928,-19.928l-155.144,0c-10.999,0 -19.928,8.929 -19.928,19.928c0,10.998 8.929,19.928 19.928,19.928l155.144,0c10.999,0 19.928,-8.93 19.928,-19.928Z" style="fill:#cfcfcf;"/><path d="M239.678,21.144c0,-11.67 -9.474,-21.144 -21.144,-21.144l-34.61,0c-11.67,0 -21.144,9.474 -21.144,21.144c0,11.67 9.474,21.144 21.144,21.144l34.61,0c11.67,0 21.144,-9.474 21.144,-21.144Z" style="fill:#cfcfcf;"/></svg>