<?xml version="1.0" encoding="UTF-8" standalone="no"?><!DOCTYPE svg PUBLIC "-//W3C//DTD SVG 1.1//EN" "http://www.w3.org/Graphics/SVG/1.1/DTD/svg11.dtd"><svg width="100%" height="100%" viewBox="0 0 1116 485" version="1.1" xmlns="http://www.w3.org/2000/svg" xmlns:xlink="http://www.w3.org/1999/xlink" xml:space="preserve" xmlns:serif="http://www.serif.com/" style="fill-rule:evenodd;clip-rule:evenodd;stroke-linejoin:round;stroke-miterlimit:1.41421;"><path id="mountain2" d="M636.072,0l479.928,484l-1054.37,0l475.894,-484l98.547,0Z" style="fill:#fff;"/><g><clipPath id="_clip1"><path d="M635.072,3.072l480.928,480.928l-1054.37,0l469.894,-478.593l103.547,-2.335Z"/></clipPath><g clip-path="url(#_clip1)"><path d="M529.041,20.032l-660.56,660.56l2.477,2.477l660.561,-660.56l-2.478,-2.477Z" style="fill:#ec1f27;"/><path d="M504.519,64.405l-660.56,660.56l2.477,2.478l660.56,-660.561l-2.477,-2.477Z" style="fill:#ec1f27;"/><path d="M481.749,107.027l-660.561,660.56l2.477,2.477l660.561,-660.56l-2.477,-2.477Z" style="fill:#ec1f27;"/><path d="M450.22,158.406l-660.56,660.561l2.477,2.477l660.561,-660.561l-2.478,-2.477Z" style="fill:#ec1f27;"/></g></g><path id="mountain1" d="M367.658,116.34l-367.658,367.66l737.825,0l-370.167,-367.66Z" style="fill:#fff;"/><g><clipPath id="_clip2"><path d="M367.658,116.34l-367.658,367.66l737.825,0l-370.167,-367.66Z"/></clipPath><g clip-path="url(#_clip2)"><path d="M356.311,142.642l-660.561,660.561l2.478,2.477l660.56,-660.561l-2.477,-2.477Z" style="fill:#ec1f27;"/><path d="M331.789,187.015l-660.561,660.561l2.477,2.477l660.561,-660.561l-2.477,-2.477Z" style="fill:#ec1f27;"/><path d="M309.019,229.637l-660.561,660.561l2.477,2.477l660.561,-660.561l-2.477,-2.477Z" style="fill:#ec1f27;"/><path d="M277.49,281.016l-660.56,660.561l2.477,2.477l660.56,-660.56l-2.477,-2.478Z" style="fill:#ec1f27;"/></g></g></svg>