<?xml version="1.0" encoding="UTF-8" standalone="no"?><!DOCTYPE svg PUBLIC "-//W3C//DTD SVG 1.1//EN" "http://www.w3.org/Graphics/SVG/1.1/DTD/svg11.dtd"><svg width="100%" height="100%" viewBox="0 0 304 1208" version="1.1" xmlns="http://www.w3.org/2000/svg" xmlns:xlink="http://www.w3.org/1999/xlink" xml:space="preserve" xmlns:serif="http://www.serif.com/" style="fill-rule:evenodd;clip-rule:evenodd;stroke-linejoin:round;stroke-miterlimit:1.41421;"><path d="M84.164,441.046l17.803,0l0.244,120.639c0,0 2.118,23.53 21.12,23.369c17.068,-0.144 20.798,-23.287 20.798,-23.287l0.565,-120.721l17.012,0l2.77,340.633l37.98,425.321l-13.452,0l-45.641,-393.071c0,0 -2.525,-30.862 -20.032,-31.458c-18.544,-0.632 -22.769,33.319 -22.769,33.319l-42.51,391.21l-16.22,0l41.145,-426.903l1.187,-339.051Zm59.658,280.206c0.167,-10.86 -8.515,-19.813 -19.374,-19.98c-10.861,-0.167 -19.813,8.514 -19.981,19.375l-0.369,24.021c-0.167,10.859 8.514,19.811 19.375,19.979c10.859,0.168 19.813,-8.514 19.979,-19.375l0.37,-24.02Zm-6.721,-59.871c0.111,-7.186 -5.633,-13.11 -12.818,-13.22c-7.186,-0.11 -13.109,5.633 -13.22,12.819l-0.244,15.893c-0.11,7.185 5.632,13.108 12.819,13.219c7.186,0.111 13.109,-5.632 13.218,-12.818l0.245,-15.893Zm-2.261,-45.271c0,-6.004 -4.876,-10.879 -10.88,-10.879c-6.005,0 -10.879,4.875 -10.879,10.879l0,9.891c0,6.005 4.874,10.88 10.879,10.88c6.004,0 10.88,-4.875 10.88,-10.88l0,-9.891Z" style="fill:#ec1f27;"/><path d="M182.336,441.046l0,461.81c4.132,0.475 13.843,-0.237 13.843,-0.237c0,0 -6.82,10.444 -13.843,13.53l0,103.021c0.02,0.005 12.961,3.082 18.179,-1.424c5.223,-4.51 -12.148,11.393 -18.179,14.005l0,175.249l-67.977,0l0,-342.124l-11.973,-13.53c0,0 4.15,1.899 11.973,1.661l0,-112.753l-11.607,-11.736c-0.378,-0.2 -0.366,-0.37 -0.366,-0.37l0.366,0.37c0.806,0.426 3.38,0.988 11.607,0.342l0,-51.887c-2.15,0.323 -11.673,1.803 -18.591,3.627c-7.843,2.069 -24.88,2.85 -24.88,2.85c0,0 9.872,-5.087 16.654,-9.806c6.783,-4.718 13.841,-11.63 13.95,-11.559c4.456,2.939 10.419,4.428 12.867,4.948l0,-2.699c-3.409,-1.626 -9.58,-4.83 -11.773,-7.667c-3.49,-4.511 -6.818,-18.323 -6.818,-18.323c0,0 11.51,6.542 18.591,11.624l0,-208.922l67.977,0Zm-86.568,217.758c0,0 -20.615,-5.366 -22.069,-4.858c-1.455,0.51 -27.302,19.077 -35.573,18.997c-0.132,-0.002 16.937,10.161 22.39,10.503c5.454,0.343 29.273,-18.596 35.252,-24.642Zm-52.642,-17.719c7.168,6.292 23.875,9.619 23.836,10.79c-0.168,5.065 -30.493,17.675 -34.733,17.456c-4.239,-0.217 -16.277,-18.941 -14.581,-20.889c1.694,-1.947 25.45,-7.35 25.478,-7.357Zm17.394,-20.067c-0.004,-0.001 -0.005,-0.002 -0.004,-0.002c0.001,0 0.002,0.001 0.004,0.002c0.358,0.125 22.288,5.505 27.022,9.493c4.786,4.033 8.222,24.662 8.226,24.687c-5.738,-5.222 -25.834,-4.748 -25.834,-7.833c0,-3.069 -9.154,-26.088 -9.414,-26.347Zm-4.829,-1.901l-17.565,-1.899c0,0 4.51,18.515 7.358,20.889c2.849,2.374 11.184,8.071 18.53,8.308c7.344,0.237 -1.046,-2.518 -3.498,-13.84c-2.451,-11.322 -4.825,-13.458 -4.825,-13.458Zm-36.226,0.533c0.023,0.021 19.957,17.558 17.537,17.827c-2.621,0.293 -16.939,2.225 -21.546,3.588c-3.094,0.914 -8.382,-20.049 -8.382,-20.049l12.391,-1.366Zm18.661,11.158c-0.018,-0.012 -10.972,-7.883 -13.059,-11.583c-2.089,-3.703 -3.418,-10.825 -1.322,-10.73c2.099,0.095 10.627,4.178 10.342,8.723c-0.285,4.546 4.039,13.59 4.039,13.59Zm-23.978,-16.679c-0.013,0.005 -5.986,2.466 -9.111,0c-3.665,-2.891 -5.037,-20.921 -5.037,-20.921c0,0 6.362,7.881 8.261,12.439c1.899,4.557 5.887,8.482 5.887,8.482Zm5.317,-1.836c-0.009,-0.008 -4.179,-3.989 -5.412,-5.507c-1.235,-1.519 -6.742,-10.16 -6.742,-10.16c0,0 9.21,6.742 10.255,8.356c1.044,1.614 1.899,7.311 1.899,7.311Z"/><path d="M284.511,426.606c0,-7.97 -6.47,-14.441 -14.44,-14.441l-238.562,0c-7.971,0 -14.44,6.471 -14.44,14.441c0,7.971 6.469,14.44 14.44,14.44l238.562,0c7.97,0 14.44,-6.469 14.44,-14.44Z" style="fill:#fff;"/><g><clipPath id="_clip1"><path d="M284.511,426.606c0,-7.97 -6.47,-14.441 -14.44,-14.441l-238.562,0c-7.971,0 -14.44,6.471 -14.44,14.441c0,7.971 6.469,14.44 14.44,14.44l238.562,0c7.97,0 14.44,-6.469 14.44,-14.44Z"/></clipPath><g clip-path="url(#_clip1)"><path d="M45.04,398.491l-53.712,53.712l2.518,2.517l53.711,-53.711l-2.517,-2.518Z" style="fill:#ec1f27;"/><path d="M63.139,398.491l-53.712,53.712l2.518,2.517l53.711,-53.711l-2.517,-2.518Z" style="fill:#ec1f27;"/><path d="M81.239,398.491l-53.711,53.712l2.517,2.517l53.712,-53.711l-2.518,-2.518Z" style="fill:#ec1f27;"/><path d="M99.338,398.491l-53.711,53.712l2.517,2.517l53.712,-53.711l-2.518,-2.518Z" style="fill:#ec1f27;"/><path d="M117.439,398.491l-53.712,53.712l2.518,2.517l53.712,-53.711l-2.518,-2.518Z" style="fill:#ec1f27;"/><path d="M135.538,398.491l-53.712,53.712l2.518,2.517l53.712,-53.711l-2.518,-2.518Z" style="fill:#ec1f27;"/><path d="M153.639,398.491l-53.712,53.712l2.518,2.517l53.711,-53.711l-2.517,-2.518Z" style="fill:#ec1f27;"/><path d="M171.738,398.491l-53.712,53.712l2.518,2.517l53.711,-53.711l-2.517,-2.518Z" style="fill:#ec1f27;"/><path d="M189.838,398.491l-53.711,53.712l2.517,2.517l53.712,-53.711l-2.518,-2.518Z" style="fill:#ec1f27;"/><path d="M207.937,398.491l-53.711,53.712l2.517,2.517l53.712,-53.711l-2.518,-2.518Z" style="fill:#ec1f27;"/><path d="M226.038,398.491l-53.712,53.712l2.518,2.517l53.712,-53.711l-2.518,-2.518Z" style="fill:#ec1f27;"/><path d="M244.137,398.491l-53.712,53.712l2.518,2.517l53.712,-53.711l-2.518,-2.518Z" style="fill:#ec1f27;"/><path d="M262.238,398.491l-53.712,53.712l2.518,2.517l53.711,-53.711l-2.517,-2.518Z" style="fill:#ec1f27;"/><path d="M280.337,398.491l-53.712,53.712l2.518,2.517l53.712,-53.711l-2.518,-2.518Z" style="fill:#ec1f27;"/><path d="M298.437,398.491l-53.711,53.712l2.518,2.517l53.711,-53.711l-2.518,-2.518Z" style="fill:#ec1f27;"/><path d="M316.536,398.491l-53.711,53.712l2.518,2.517l53.711,-53.711l-2.518,-2.518Z" style="fill:#ec1f27;"/></g></g><rect x="49.431" y="334.702" width="200.107" height="78.096"/><rect x="53.177" y="338.31" width="24.323" height="24.046" style="fill:#ec1f27;"/><clipPath id="_clip2"><rect x="53.177" y="338.31" width="24.323" height="24.046"/></clipPath><g clip-path="url(#_clip2)"><path d="M77.275,328.434l-34.484,34.482l2.525,2.525l34.483,-34.483l-2.524,-2.524Z" style="fill:#fff;"/><path d="M86.504,337.663l-34.484,34.483l2.526,2.524l34.482,-34.483l-2.524,-2.524Z" style="fill:#fff;"/></g><rect x="81.282" y="338.31" width="24.323" height="24.046" style="fill:#ec1f27;"/><clipPath id="_clip3"><rect x="81.282" y="338.31" width="24.323" height="24.046"/></clipPath><g clip-path="url(#_clip3)"><path d="M105.38,328.434l-34.484,34.482l2.526,2.525l34.482,-34.483l-2.524,-2.524Z" style="fill:#fff;"/><path d="M114.609,337.663l-34.484,34.483l2.526,2.524l34.483,-34.483l-2.525,-2.524Z" style="fill:#fff;"/></g><rect x="109.387" y="338.31" width="24.323" height="24.046" style="fill:#ec1f27;"/><clipPath id="_clip4"><rect x="109.387" y="338.31" width="24.323" height="24.046"/></clipPath><g clip-path="url(#_clip4)"><path d="M133.485,328.434l-34.484,34.482l2.526,2.525l34.483,-34.483l-2.525,-2.524Z" style="fill:#fff;"/><path d="M142.715,337.663l-34.485,34.483l2.526,2.524l34.483,-34.483l-2.524,-2.524Z" style="fill:#fff;"/></g><rect x="137.492" y="338.31" width="24.323" height="24.046" style="fill:#ec1f27;"/><clipPath id="_clip5"><rect x="137.492" y="338.31" width="24.323" height="24.046"/></clipPath><g clip-path="url(#_clip5)"><path d="M161.591,328.434l-34.485,34.482l2.526,2.525l34.483,-34.483l-2.524,-2.524Z" style="fill:#fff;"/><path d="M170.82,337.663l-34.484,34.483l2.525,2.524l34.483,-34.483l-2.524,-2.524Z" style="fill:#fff;"/></g><rect x="165.598" y="338.31" width="24.323" height="24.046" style="fill:#ec1f27;"/><clipPath id="_clip6"><rect x="165.598" y="338.31" width="24.323" height="24.046"/></clipPath><g clip-path="url(#_clip6)"><path d="M189.696,328.434l-34.484,34.482l2.525,2.525l34.483,-34.483l-2.524,-2.524Z" style="fill:#fff;"/><path d="M198.925,337.663l-34.484,34.483l2.525,2.524l34.483,-34.483l-2.524,-2.524Z" style="fill:#fff;"/></g><rect x="193.703" y="338.31" width="24.323" height="24.046" style="fill:#ec1f27;"/><clipPath id="_clip7"><rect x="193.703" y="338.31" width="24.323" height="24.046"/></clipPath><g clip-path="url(#_clip7)"><path d="M217.801,328.434l-34.484,34.482l2.526,2.525l34.482,-34.483l-2.524,-2.524Z" style="fill:#fff;"/><path d="M227.03,337.663l-34.484,34.483l2.526,2.524l34.482,-34.483l-2.524,-2.524Z" style="fill:#fff;"/></g><rect x="221.808" y="338.31" width="24.323" height="24.046" style="fill:#ec1f27;"/><clipPath id="_clip8"><rect x="221.808" y="338.31" width="24.323" height="24.046"/></clipPath><g clip-path="url(#_clip8)"><path d="M245.906,328.434l-34.484,34.482l2.526,2.525l34.482,-34.483l-2.524,-2.524Z" style="fill:#fff;"/><path d="M255.135,337.663l-34.484,34.483l2.526,2.524l34.483,-34.483l-2.525,-2.524Z" style="fill:#fff;"/></g><path d="M297.369,380.368c0,-7.369 -5.983,-13.353 -13.353,-13.353l-268.234,0c-7.369,0 -13.351,5.984 -13.351,13.353c0,7.368 5.982,13.352 13.351,13.352l268.234,0c7.37,0 13.353,-5.984 13.353,-13.352Z" style="fill:#ec1f27;"/><path d="M49.426,334.417c0,0 4.273,-18.04 17.329,-17.803c13.055,0.237 26.412,-0.712 38.85,-0.712c12.438,0 28.105,-23.738 28.105,-23.738l31.888,0c0,0 6.947,23.026 31.191,23.501c16.407,0.321 26.871,0.117 33.992,0.237c14.005,0.237 18.757,18.8 18.757,18.8l-200.112,-0.285Z" style="fill:#fff;"/><path d="M144.535,165.485c-11.474,0.396 -40.305,-24.924 -58.727,-33.232c-17.775,-8.017 -38.93,-45.497 -32.631,-43.519c6.298,1.978 21.727,13.847 35.179,13.847c13.451,0 23.262,-4.352 33.193,-5.143c9.93,-0.791 12.462,-2.374 15.943,1.582c3.482,3.957 -3.527,6.726 -3.782,13.056c-0.253,6.33 5.435,43.519 7.017,43.914c1.583,0.396 4.338,0.018 3.205,-4.598c-0.986,-4.009 -2.499,-9.935 -3.749,-16.468c-1.285,-6.708 -2.376,-10.954 -1.504,-21.611c0.861,-10.534 6.181,-13.402 9.109,-16.171c2.928,-2.769 7.028,-9.842 12.692,-9.842c5.665,0 13.234,3.773 19.059,5.441c9.32,2.666 23.898,0.328 27.661,-0.495c4.645,-1.016 1.426,2.323 -6.083,15.478c-11.535,20.209 -43.922,58.157 -56.582,57.761Zm-52.801,-98.51c0.016,0.024 10.098,15.429 21.364,15.666c3.76,0.078 20.968,-0.435 24.394,0c3.426,0.434 7.652,2.928 8.443,1.053c0.791,-1.877 -1.978,-3.664 -8.443,-5.199c-6.464,-1.536 -19.053,0.151 -24.592,0c-5.538,-0.152 -18.776,-12.017 -19.102,-17.752c-0.317,-5.537 8.816,-14.539 11.807,-17.704c2.993,-3.165 9.614,-8.11 15.944,-9.495c3.869,-0.846 20.232,-1.187 20.232,-1.187c0,0 -10.088,1.583 -15.208,3.759c-5.119,2.176 -13.277,5.341 -13.277,15.825c0,10.484 8.902,19.188 22.551,19.386c13.649,0.197 22.55,-6.133 22.55,-6.133c0,0 2.374,17.012 0.198,17.447c-3.493,0.697 -17.803,14.995 -17.803,14.995c0,0 -4.154,-4.154 -14.219,-4.302c-10.065,-0.148 -20.968,4.302 -20.968,4.302c0,0 -9.519,0.395 -11.807,0c-2.288,-0.396 -2.261,-4.302 -2.261,-4.302l0.197,-26.359Zm-3.956,30.661c0,0 -39.167,-5.935 -44.706,-41.739c-1.633,-10.555 14.469,-23.68 22.266,-25.518c11.886,-2.799 23.88,2.374 25.534,1.385c1.654,-0.989 22.815,-7.726 39.828,-7.912c19.983,-0.219 31.115,9.692 31.115,9.692c0,0 -32.381,-10.939 -49.907,1.187c-16.695,11.554 -23.339,21.661 -23.734,34.124c-0.181,5.66 -0.396,28.781 -0.396,28.781Zm82.472,-14.995c0.025,0 15.737,-0.369 30.265,-11.042c14.539,-10.682 19.88,-26.26 19.88,-26.26c0,0 2.575,20.004 1.413,25.964c-0.823,4.217 -4.38,7.862 -7.643,10.682c-3.265,2.818 -7.657,4.244 -11.72,5.315c-6.603,1.741 -23.144,2.971 -32.195,-4.659Zm0,0m-6.314,-3.204c0,0 17.79,3.928 18.397,-18.694c0.167,-6.3 -6.172,-17.506 -16.735,-21.66c-10.564,-4.154 -21.443,-4.747 -21.443,-4.747c0,0 15.413,10.761 17.66,20.651c1.895,8.337 2.121,24.45 2.121,24.45Zm18.974,-4.55c0.014,-0.014 6.525,-6.54 3.363,-17.803c-3.165,-11.275 -9.812,-14.638 -14.599,-18.792c-4.787,-4.154 -17.644,-15.232 -31.887,-17.803c-13.856,-2.502 -39.162,5.143 -45.989,6.33c-6.827,1.187 -9.596,-0.396 -9.596,-0.396c0,0 1.582,-0.396 6.132,-2.967c4.55,-2.572 18.379,-17.099 49.453,-22.946c16.782,-3.157 41.033,9.248 45.695,12.66c8.11,5.934 8.221,13.723 8.221,13.723c0,0 21.509,1.236 24.323,13.787c0.623,2.777 -7.193,18.976 -14.132,23.427c-7.212,4.625 -20.962,10.77 -20.984,10.78Zm-28.195,-23.47c0,0 3.986,6.272 2.722,8.702c-1.263,2.431 -5.86,6.028 -19.945,6.077c-14.085,0.048 -20.55,-6.224 -20.113,-14.002c0.437,-7.778 4.765,-10.209 9.772,-12.104c3.772,-1.429 12.104,-1.216 12.104,-1.216c0,0 -5.061,1.117 -5.545,5.446c-0.482,4.326 -0.262,14.195 10.445,14.049c10.705,-0.147 10.56,-6.952 10.56,-6.952Zm-10.56,-11.278c0,0 6.893,6.562 6.977,8.895c0.082,2.334 -3.197,5.008 -6.977,5.056c-3.781,0.049 -7.962,-5.202 -7.962,-6.952c0,-1.75 1.361,-2.867 3.013,-3.013c1.654,-0.146 2.383,1.847 4.132,1.943c1.75,0.098 2.48,-0.437 1.994,-2.187c-0.485,-1.747 -1.175,-3.735 -1.177,-3.742Z" style="fill:#ec1f27;"/><path d="M136.13,441.046l17.803,0l0.244,120.639c0,0 2.119,23.53 21.12,23.369c17.069,-0.144 20.799,-23.287 20.799,-23.287l0.564,-120.721l17.012,0l2.77,340.633l37.98,425.321l-13.452,0l-45.642,-393.071c0,0 -2.524,-30.862 -20.031,-31.458c-18.544,-0.632 -22.769,33.319 -22.769,33.319l-42.509,391.21l-16.221,0l41.145,-426.903l1.187,-339.051Zm59.659,280.206c0.166,-10.86 -8.516,-19.813 -19.375,-19.98c-10.861,-0.167 -19.813,8.514 -19.981,19.375l-0.368,24.021c-0.168,10.859 8.513,19.811 19.374,19.979c10.859,0.168 19.813,-8.514 19.979,-19.375l0.371,-24.02Zm-6.721,-59.871c0.11,-7.186 -5.634,-13.11 -12.819,-13.22c-7.186,-0.11 -13.109,5.633 -13.22,12.819l-0.244,15.893c-0.11,7.185 5.633,13.108 12.819,13.219c7.186,0.111 13.109,-5.632 13.218,-12.818l0.246,-15.893Zm-2.262,-45.271c0,-6.004 -4.875,-10.879 -10.879,-10.879c-6.006,0 -10.88,4.875 -10.88,10.879l0,9.891c0,6.005 4.874,10.88 10.88,10.88c6.004,0 10.879,-4.875 10.879,-10.88l0,-9.891Z" style="fill:#fff;"/><path d="M137.492,191.949l0,-31.29l19.228,0l0,39.823c7.107,-4.932 17.39,-10.777 17.39,-10.777c0,0 -3.33,13.813 -6.818,18.323c-1.955,2.528 -7.069,5.348 -10.572,7.083l0,3.011c2.863,-0.687 7.823,-2.143 11.664,-4.676c0.111,-0.071 7.169,6.841 13.952,11.559c6.782,4.719 16.654,9.806 16.654,9.806c0,0 -17.037,-0.781 -24.88,-2.85c-6.012,-1.585 -13.993,-2.91 -17.39,-3.443l0,52.252l12.106,0c1.571,0.001 2.848,1.278 2.848,2.849l0,5.697c0,1.573 -1.277,2.848 -2.848,2.848l-39.404,0c-1.573,0 -2.849,-1.275 -2.849,-2.848l0,-5.697c0,-1.571 1.276,-2.848 2.849,-2.849l8.07,0l0,-54.052c-5.213,3.91 -25.38,2.145 -28.833,1.988c0,0 12.83,-10.585 14.594,-11.493c2.451,-1.262 11.277,4.237 14.239,7.033l0,-8.889c-3.067,-0.808 -9.414,-2.583 -10.161,-3.628c-0.989,-1.385 -0.035,-26.667 0.063,-28.543c0.008,-0.133 3.179,6.267 10.098,8.763Zm36.618,18.217c0,0 20.615,-5.367 22.069,-4.859c1.455,0.51 27.302,19.077 35.572,18.997c0.133,-0.002 -16.938,10.161 -22.391,10.503c-5.453,0.343 -29.273,-18.596 -35.25,-24.641Zm-70.179,-1.455l14.252,6.501c0,0 -12.744,14.045 -17.832,13.515c-5.086,-0.529 -12.207,-4.699 -13.733,-5.751c-1.525,-1.051 13.752,-9.687 17.313,-14.265Zm-24.179,12.662l-14.308,-8.451c0,0 17.023,-10.976 20.157,-10.932c3.133,0.045 12.818,4.856 12.818,4.856l-18.667,14.527Zm147,-28.927c0,0 23.783,5.409 25.478,7.357c1.695,1.948 -10.343,20.673 -14.581,20.889c-4.24,0.219 -34.567,-12.391 -34.734,-17.456c-0.038,-1.171 16.67,-4.498 23.837,-10.79Zm-103.497,-12.12c0,0 0.246,30.172 -0.152,30.08c-8.103,-1.848 -15.482,-5.472 -15.42,-6.532c0.323,-5.474 0.421,-20.798 0.228,-27.498c-0.003,-0.136 5.013,-1.823 15.344,3.95Zm-60.537,27.697c0,0 17.129,-8.944 17.034,-9.039c-0.095,-0.095 -15.458,-10.578 -15.458,-10.578c0,0 -10.293,0.665 -12.875,2.526c-1.906,1.374 6.266,16.236 11.299,17.091Zm146.638,-35.644c0.002,-0.001 0.003,-0.002 0.004,-0.002c0.002,0 0.001,0.001 -0.004,0.002c-0.26,0.259 -9.413,23.278 -9.413,26.347c0,3.086 -20.096,2.611 -25.833,7.833c0.004,-0.024 3.438,-20.654 8.226,-24.687c4.732,-3.988 26.663,-9.367 27.02,-9.493Zm-106.096,29.611c0.185,0.029 2.179,-27.087 1.769,-27.226c-11.222,-3.836 -21.13,-3.762 -21.137,-3.692c-0.554,5.227 1.875,17.44 3.168,22.188c1.291,4.747 10.159,7.814 16.2,8.73Zm110.925,-31.512l17.566,-1.899c0,0 -4.51,18.515 -7.359,20.889c-2.848,2.374 -11.183,8.071 -18.528,8.308c-7.346,0.238 1.045,-2.518 3.496,-13.84c2.451,-11.322 4.825,-13.458 4.825,-13.458Zm-133.009,21.953c1.459,0.121 -15.192,-6.259 -15.374,-11.121c-0.182,-4.861 -0.502,-12.872 -0.304,-13.005c1.116,-0.747 13.787,1.977 13.795,2.249c0.095,3.323 4.01,22.91 4.01,22.91l-2.127,-1.033Zm169.236,-21.42l12.391,1.366c0,0 -5.287,20.963 -8.381,20.049c-4.607,-1.363 -18.927,-3.295 -21.546,-3.588c-2.421,-0.269 17.512,-17.806 17.536,-17.827Zm-192.632,12.23l-7.976,3.281c0,0 -4.003,-6.611 -4.557,-19.201c-0.048,-1.086 7.216,13.166 12.533,15.92Zm173.971,-1.071c0,0 4.323,-9.044 4.038,-13.591c-0.284,-4.545 8.245,-8.628 10.342,-8.723c2.097,-0.095 0.768,7.027 -1.321,10.73c-2.089,3.703 -13.059,11.584 -13.059,11.584Zm-171.692,-3.866l-11.394,-14.338c0,0 8.735,3.323 10.634,3.039c1.899,-0.285 2.944,9.874 0.76,11.299Zm195.67,-12.814c0,0 3.988,-3.925 5.887,-8.482c1.899,-4.558 8.26,-12.439 8.26,-12.439c0,0 -1.37,18.03 -5.035,20.921c-3.13,2.469 -9.112,0 -9.112,0Zm-5.317,-1.836c0,0 0.854,-5.697 1.899,-7.311c1.044,-1.614 10.254,-8.355 10.254,-8.355c0,0 -5.507,8.64 -6.741,10.159c-1.233,1.518 -5.403,5.499 -5.412,5.507Z"/></svg>