<?xml version="1.0" encoding="UTF-8" standalone="no"?><!DOCTYPE svg PUBLIC "-//W3C//DTD SVG 1.1//EN" "http://www.w3.org/Graphics/SVG/1.1/DTD/svg11.dtd"><svg width="100%" height="100%" viewBox="0 0 1440 810" version="1.1" xmlns="http://www.w3.org/2000/svg" xmlns:xlink="http://www.w3.org/1999/xlink" xml:space="preserve" xmlns:serif="http://www.serif.com/" style="fill-rule:evenodd;clip-rule:evenodd;stroke-linejoin:round;stroke-miterlimit:1.41421;"><rect id="Artboard1" x="0" y="0" width="1440" height="810" style="fill:none;"/><path id="mountain2" d="M1059.25,501.11l308.89,308.89l-677.199,0l301.803,-307.39l66.506,-1.5Z" style="fill:#fff;"/><clipPath id="_clip1"><path d="M1059.25,501.11l308.89,308.89l-677.199,0l301.803,-307.39l66.506,-1.5Z"/></clipPath><g clip-path="url(#_clip1)"><path d="M991.149,512.003l-424.264,424.264l1.591,1.591l424.264,-424.264l-1.591,-1.591Z" style="fill:#ec1f27;"/><path d="M975.399,540.503l-424.264,424.264l1.591,1.591l424.264,-424.264l-1.591,-1.591Z" style="fill:#ec1f27;"/><path d="M960.774,567.878l-424.264,424.264l1.591,1.591l424.264,-424.264l-1.591,-1.591Z" style="fill:#ec1f27;"/><path d="M940.524,600.878l-424.264,424.264l1.591,1.591l424.264,-424.264l-1.591,-1.591Z" style="fill:#ec1f27;"/></g><path id="mountain1" d="M887.496,573.86l-236.139,236.14l473.889,0l-237.75,-236.14Z" style="fill:#fff;"/><clipPath id="_clip2"><path d="M887.496,573.86l-236.139,236.14l473.889,0l-237.75,-236.14Z"/></clipPath><g clip-path="url(#_clip2)"><path d="M880.208,590.753l-424.264,424.264l1.591,1.591l424.264,-424.264l-1.591,-1.591Z" style="fill:#ec1f27;"/><path d="M864.458,619.253l-424.264,424.264l1.591,1.591l424.264,-424.264l-1.591,-1.591Z" style="fill:#ec1f27;"/><path d="M849.833,646.628l-424.264,424.264l1.591,1.591l424.264,-424.264l-1.591,-1.591Z" style="fill:#ec1f27;"/><path d="M829.583,679.628l-424.264,424.264l1.591,1.591l424.264,-424.264l-1.591,-1.591Z" style="fill:#ec1f27;"/></g></svg>