<?xml version="1.0" encoding="UTF-8" standalone="no"?><!DOCTYPE svg PUBLIC "-//W3C//DTD SVG 1.1//EN" "http://www.w3.org/Graphics/SVG/1.1/DTD/svg11.dtd"><svg width="100%" height="100%" viewBox="0 0 1920 800" version="1.1" xmlns="http://www.w3.org/2000/svg" xmlns:xlink="http://www.w3.org/1999/xlink" xml:space="preserve" xmlns:serif="http://www.serif.com/" style="fill-rule:evenodd;clip-rule:evenodd;stroke-linecap:round;stroke-linejoin:round;stroke-miterlimit:1.5;"><rect id="Artboard1" x="0" y="0" width="1920" height="800" style="fill:none;"/><clipPath id="_clip1"><rect x="0" y="0" width="1920" height="800"/></clipPath><g clip-path="url(#_clip1)"><rect x="0.686" y="0" width="1919.31" height="802.188" style="fill:#d5d7d9;"/><g id="trees"><path d="M131.539,587.59l41,42.167l-14.716,-0.459l32.25,34.5l-20.25,0l25,39.25l-12.5,-0.25l24,35c0,0 -140.75,-1 -142,-0.5c1.25,-0.5 26.25,-37.75 26.25,-37.75l-18.75,-0.25l28.75,-40.5l-18,-0.75l23.75,-28.25l-14.5,-0.25l39.716,-41.958Z" style="fill:#ec1f27;"/><path d="M37.539,535.34l41,42.167l-14.716,-0.459l32.25,34.5l-20.25,0l25,39.25l-12,0.25l23.5,34.5c0,0 -141,-1.25 -142.25,-0.75c1.25,-0.5 26.5,-37.5 26.5,-37.5l-18.75,-0.25l28.75,-40.5l-18,-0.75l23.75,-28.25l-14.5,-0.25l39.716,-41.958Z" style="fill:#ec1f27;"/></g><path id="mountain2" d="M1304.21,530l329.975,270l-723.424,0l322.403,-268.689l71.046,-1.311Z" style="fill:#fff;"/><clipPath id="_clip2"><path d="M1304.21,530l329.975,270l-723.424,0l322.403,-268.689l71.046,-1.311Z"/></clipPath><g clip-path="url(#_clip2)"><path d="M1231.46,539.521l-453.224,370.849l1.7,1.39l453.223,-370.848l-1.699,-1.391Z" style="fill:#ec1f27;"/><path d="M1214.64,564.433l-453.224,370.848l1.699,1.391l453.224,-370.849l-1.699,-1.39Z" style="fill:#ec1f27;"/><path d="M1199.01,588.361l-453.223,370.849l1.699,1.39l453.224,-370.848l-1.7,-1.391Z" style="fill:#ec1f27;"/><path d="M1177.38,617.206l-453.224,370.849l1.7,1.391l453.224,-370.849l-1.7,-1.391Z" style="fill:#ec1f27;"/></g><path id="mountain1" d="M1120.73,593.591l-252.258,206.409l506.237,0l-253.979,-206.409Z" style="fill:#fff;"/><clipPath id="_clip3"><path d="M1120.73,593.591l-252.258,206.409l506.237,0l-253.979,-206.409Z"/></clipPath><g clip-path="url(#_clip3)"><path d="M1112.95,608.356l-453.224,370.849l1.7,1.39l453.224,-370.848l-1.7,-1.391Z" style="fill:#ec1f27;"/><path d="M1096.12,633.268l-453.224,370.849l1.7,1.39l453.224,-370.848l-1.7,-1.391Z" style="fill:#ec1f27;"/><path d="M1080.5,657.196l-453.224,370.849l1.699,1.391l453.224,-370.849l-1.699,-1.391Z" style="fill:#ec1f27;"/><path d="M1058.87,686.042l-453.223,370.848l1.699,1.391l453.224,-370.849l-1.7,-1.39Z" style="fill:#ec1f27;"/></g><g id="spaceneedle"><path d="M541.275,457.32l7.965,0l0.109,53.972c0,0 0.949,10.527 9.449,10.455c7.637,-0.064 9.305,-10.418 9.305,-10.418l0.253,-54.009l7.611,0l1.239,152.396l16.992,190.284l-6.018,0l-20.419,-175.856c0,0 -1.13,-13.807 -8.963,-14.074c-8.296,-0.283 -10.187,14.907 -10.187,14.907l-19.018,175.023l-7.256,0l18.407,-190.992l0.531,-151.688Zm26.691,125.361c0.075,-4.859 -3.809,-8.864 -8.668,-8.939c-4.859,-0.075 -8.864,3.809 -8.939,8.668l-0.165,10.747c-0.075,4.858 3.809,8.864 8.668,8.938c4.859,0.075 8.864,-3.809 8.939,-8.667l0.165,-10.747Zm-3.007,-26.786c0.05,-3.215 -2.52,-5.865 -5.735,-5.914c-3.214,-0.05 -5.864,2.52 -5.914,5.735l-0.109,7.11c-0.05,3.215 2.52,5.865 5.735,5.915c3.214,0.049 5.865,-2.521 5.914,-5.735l0.109,-7.111Zm-1.011,-20.253c0,-2.687 -2.182,-4.868 -4.868,-4.868c-2.686,0 -4.867,2.181 -4.867,4.868l0,4.425c0,2.686 2.181,4.867 4.867,4.867c2.686,0 4.868,-2.181 4.868,-4.867l0,-4.425Z" style="fill:#ec1f27;"/><path d="M550.119,353.375l6.377,2.909c0,0 -5.702,6.283 -7.978,6.046c-2.276,-0.237 -5.462,-2.102 -6.145,-2.573c-0.682,-0.47 6.153,-4.334 7.746,-6.382Z"/><path d="M549.819,350.369c0.083,0.012 0.975,-12.119 0.791,-12.182c-5.02,-1.716 -9.453,-1.682 -9.456,-1.652c-0.248,2.339 0.838,7.804 1.417,9.928c0.578,2.124 4.545,3.496 7.248,3.906Z"/><path d="M539.939,346.091c0.652,0.055 -6.797,-2.8 -6.879,-4.975c-0.081,-2.175 -0.224,-5.759 -0.135,-5.818c0.499,-0.334 6.167,0.884 6.171,1.006c0.043,1.487 1.794,10.25 1.794,10.25"/><path d="M552.235,362.321c0,0 5.74,-4.736 6.529,-5.143c1.357,-0.698 7.084,3.238 6.797,3.778c-1.251,2.356 -11.657,1.441 -13.326,1.365Z"/><path d="M546.467,554.743c0,0 -9.223,-2.401 -9.874,-2.174c-0.65,0.228 -12.214,8.535 -15.914,8.498c-0.059,0 7.577,4.547 10.017,4.7c2.44,0.153 13.097,-8.32 15.771,-11.024Z"/><path d="M512.33,537.226l-5.544,0.611c0,0 2.366,9.379 3.75,8.969c2.061,-0.609 8.468,-1.474 9.64,-1.605c1.083,-0.121 -7.846,-7.975 -7.846,-7.975Z"/><path d="M522.916,546.815c0,0 -10.641,2.42 -11.399,3.292c-0.759,0.871 4.627,9.248 6.523,9.346c1.897,0.097 15.465,-5.544 15.54,-7.811c0.017,-0.524 -7.458,-2.012 -10.664,-4.827Z"/><path d="M555.831,557.696c0,0 -4.929,-2.119 -6.314,-3.91c-1.561,-2.018 -3.05,-8.197 -3.05,-8.197c0,0 8.222,4.673 10.28,6.797c2.057,2.124 -0.916,5.31 -0.916,5.31Z"/><path d="M555.286,558.522c0,0 -3.688,-0.618 -6.258,-2.311c-0.049,-0.033 -3.207,3.06 -6.241,5.171c-3.034,2.111 -7.451,4.387 -7.451,4.387c0,0 7.622,-0.35 11.131,-1.275c3.509,-0.925 8.516,-1.652 8.516,-1.652l0.303,-4.32Z"/><path d="M546.467,553.129c0,0 -1.537,-9.239 -3.68,-11.044c-2.143,-1.806 -12.162,-4.248 -12.091,-4.248c0.072,0 4.213,10.407 4.213,11.788c0,1.38 8.991,1.168 11.558,3.504Z"/><path d="M528.537,536.987l-7.858,-0.85c0,0 2.018,8.284 3.292,9.346c1.274,1.062 5.003,3.611 8.289,3.717c3.287,0.106 -0.467,-1.127 -1.564,-6.192c-1.097,-5.065 -2.159,-6.021 -2.159,-6.021Z"/><path d="M520.679,542.217c0,0 -1.935,-4.046 -1.807,-6.08c0.127,-2.033 -3.688,-3.86 -4.627,-3.902c-0.938,-0.043 -0.343,3.143 0.591,4.8c0.935,1.656 5.843,5.182 5.843,5.182Z"/><path d="M512.33,533.934c0,0 -0.382,-2.549 -0.85,-3.271c-0.467,-0.722 -4.587,-3.738 -4.587,-3.738c0,0 2.463,3.865 3.016,4.545c0.552,0.68 2.421,2.464 2.421,2.464"/><path d="M509.951,534.755c0,0 -1.784,-1.756 -2.634,-3.795c-0.849,-2.039 -3.695,-5.565 -3.695,-5.565c0,0 0.613,8.066 2.253,9.36c1.4,1.105 4.076,0 4.076,0Z"/><path d="M558.764,340.676c0,0 0.111,13.498 -0.067,13.458c-3.625,-0.827 -6.927,-2.449 -6.899,-2.923c0.144,-2.449 0.188,-9.305 0.102,-12.302c-0.002,-0.061 2.243,-0.816 6.864,1.767Z"/><path d="M581.516,354.026c0,0 9.224,-2.401 9.874,-2.173c0.651,0.227 12.214,8.534 15.915,8.498c0.059,-0.001 -7.578,4.546 -10.018,4.699c-2.439,0.154 -13.096,-8.319 -15.771,-11.024Z"/><path d="M615.654,336.509l5.543,0.611c0,0 -2.366,9.379 -3.75,8.969c-2.061,-0.609 -8.467,-1.474 -9.639,-1.605c-1.084,-0.12 7.846,-7.975 7.846,-7.975Z"/><path d="M605.068,346.098c0,0 10.64,2.421 11.399,3.292c0.758,0.872 -4.628,9.248 -6.524,9.346c-1.896,0.097 -15.464,-5.544 -15.539,-7.81c-0.018,-0.524 7.458,-2.012 10.664,-4.828Z"/><path d="M554.784,591.182l-5.356,-5.416c0,0 -0.055,0.744 5.356,0.319c5.412,-0.425 1.173,4.779 0,5.097Z"/><path d="M585.197,715.966c0,0 5.797,1.381 8.133,-0.637c2.337,-2.018 -5.435,5.098 -8.133,6.266c-2.699,1.168 0,-5.629 0,-5.629Z"/><path d="M554.784,646.937l-5.356,-6.053c0,0 1.856,0.849 5.356,0.743c3.044,-0.092 0,5.31 0,5.31Z"/><path d="M585.197,669.876c3.142,-1.381 6.193,-6.053 6.193,-6.053c0,0 -4.345,0.318 -6.193,0.106c-1.849,-0.213 0,5.947 0,5.947"/><rect x="554.784" y="457.32" width="30.412" height="342.68"/><path d="M572.153,356.979c0,0 4.928,-2.118 6.314,-3.909c1.56,-2.018 3.049,-8.198 3.049,-8.198c0,0 -8.222,4.673 -10.279,6.797c-2.058,2.124 0.916,5.31 0.916,5.31Z"/><path d="M572.697,357.805c0,0 3.689,-0.617 6.258,-2.311c0.049,-0.032 3.207,3.06 6.242,5.171c3.034,2.111 7.451,4.387 7.451,4.387c0,0 -7.623,-0.349 -11.132,-1.275c-3.509,-0.925 -8.515,-1.652 -8.515,-1.652l-0.304,-4.32Z"/><path d="M581.516,352.413c0,0 1.538,-9.24 3.681,-11.045c2.142,-1.806 12.162,-4.248 12.09,-4.248c-0.071,0 -4.213,10.407 -4.213,11.788c0,1.381 -8.991,1.168 -11.558,3.505Z"/><path d="M599.446,336.27l7.859,-0.849c0,0 -2.018,8.283 -3.292,9.345c-1.275,1.062 -5.004,3.611 -8.29,3.717c-3.286,0.106 0.468,-1.127 1.564,-6.192c1.097,-5.065 2.159,-6.021 2.159,-6.021Z"/><path d="M607.305,341.501c0,0 1.934,-4.047 1.807,-6.08c-0.128,-2.034 3.688,-3.861 4.626,-3.903c0.939,-0.043 0.344,3.143 -0.591,4.8c-0.934,1.657 -5.842,5.183 -5.842,5.183Z"/><path d="M615.654,333.217c0,0 0.382,-2.549 0.849,-3.271c0.467,-0.722 4.588,-3.738 4.588,-3.738c0,0 -2.464,3.866 -3.016,4.545c-0.552,0.68 -2.421,2.464 -2.421,2.464"/><path d="M618.032,334.039c0,0 1.785,-1.757 2.634,-3.796c0.85,-2.039 3.696,-5.564 3.696,-5.564c0,0 -0.614,8.066 -2.254,9.36c-1.399,1.104 -4.076,0 -4.076,0Z"/><path d="M630.909,450.859c0,-3.565 -2.895,-6.46 -6.461,-6.46l-106.73,0c-3.565,0 -6.46,2.895 -6.46,6.46c0,3.566 2.895,6.461 6.46,6.461l106.73,0c3.566,0 6.461,-2.895 6.461,-6.461Z" style="fill:#fff;"/><clipPath id="_clip4"><path d="M630.909,450.859c0,-3.565 -2.895,-6.46 -6.461,-6.46l-106.73,0c-3.565,0 -6.46,2.895 -6.46,6.46c0,3.566 2.895,6.461 6.46,6.461l106.73,0c3.566,0 6.461,-2.895 6.461,-6.461Z"/></clipPath><g clip-path="url(#_clip4)"><path d="M523.772,438.281l-24.031,24.03l1.127,1.127l24.03,-24.03l-1.126,-1.127Z" style="fill:#ec1f27;"/><path d="M531.869,438.281l-24.03,24.03l1.127,1.127l24.03,-24.03l-1.127,-1.127Z" style="fill:#ec1f27;"/><path d="M539.967,438.281l-24.03,24.03l1.126,1.127l24.03,-24.03l-1.126,-1.127Z" style="fill:#ec1f27;"/><path d="M548.065,438.281l-24.031,24.03l1.127,1.127l24.03,-24.03l-1.126,-1.127Z" style="fill:#ec1f27;"/><path d="M556.162,438.281l-24.03,24.03l1.127,1.127l24.03,-24.03l-1.127,-1.127Z" style="fill:#ec1f27;"/><path d="M564.26,438.281l-24.03,24.03l1.126,1.127l24.03,-24.03l-1.126,-1.127Z" style="fill:#ec1f27;"/><path d="M572.358,438.281l-24.03,24.03l1.126,1.127l24.03,-24.03l-1.126,-1.127Z" style="fill:#ec1f27;"/><path d="M580.455,438.281l-24.03,24.03l1.127,1.127l24.03,-24.03l-1.127,-1.127Z" style="fill:#ec1f27;"/><path d="M588.553,438.281l-24.03,24.03l1.126,1.127l24.031,-24.03l-1.127,-1.127Z" style="fill:#ec1f27;"/><path d="M596.651,438.281l-24.03,24.03l1.126,1.127l24.03,-24.03l-1.126,-1.127Z" style="fill:#ec1f27;"/><path d="M604.749,438.281l-24.031,24.03l1.127,1.127l24.03,-24.03l-1.126,-1.127Z" style="fill:#ec1f27;"/><path d="M612.846,438.281l-24.03,24.03l1.126,1.127l24.031,-24.03l-1.127,-1.127Z" style="fill:#ec1f27;"/><path d="M620.944,438.281l-24.03,24.03l1.126,1.127l24.03,-24.03l-1.126,-1.127Z" style="fill:#ec1f27;"/><path d="M629.042,438.281l-24.031,24.03l1.127,1.127l24.03,-24.03l-1.126,-1.127Z" style="fill:#ec1f27;"/><path d="M637.139,438.281l-24.03,24.03l1.127,1.127l24.03,-24.03l-1.127,-1.127Z" style="fill:#ec1f27;"/><path d="M645.237,438.281l-24.03,24.03l1.126,1.127l24.03,-24.03l-1.126,-1.127Z" style="fill:#ec1f27;"/></g><rect x="525.736" y="409.743" width="89.526" height="34.94"/><path d="M580.427,386.888c0,-0.703 -0.571,-1.274 -1.275,-1.274l-17.629,0c-0.703,0 -1.274,0.571 -1.274,1.274l0,2.549c0,0.704 0.571,1.275 1.274,1.275l17.629,0c0.704,0 1.275,-0.571 1.275,-1.275l0,-2.549Z"/><rect x="565.134" y="331.877" width="8.602" height="54.586"/><path d="M636.661,430.173c0,-3.297 -2.676,-5.974 -5.973,-5.974l-120.006,0c-3.297,0 -5.973,2.677 -5.973,5.974c0,3.297 2.676,5.973 5.973,5.973l120.006,0c3.297,0 5.973,-2.676 5.973,-5.973Z" style="fill:#ec1f27;"/><path d="M525.734,409.615c0,0 1.912,-8.071 7.753,-7.965c5.841,0.106 11.816,-0.318 17.381,-0.318c5.565,0 12.574,-10.62 12.574,-10.62l14.266,0c0,0 3.108,10.301 13.955,10.513c7.341,0.144 12.022,0.053 15.207,0.107c6.266,0.106 8.392,8.411 8.392,8.411l-89.528,-0.128Z" style="fill:#fff;"/><path d="M544.662,289.964l-0.088,11.792c0,0 -0.012,1.748 1.012,1.925c1.023,0.177 5.282,0 5.282,0c0,0 4.878,-1.991 9.381,-1.925c4.503,0.067 6.361,1.925 6.361,1.925c0,0 6.403,-6.397 7.965,-6.708c0.974,-0.195 -0.088,-7.806 -0.088,-7.806c0,0 -3.983,2.832 -10.089,2.744c-6.107,-0.089 -10.089,-3.983 -10.089,-8.673c0,-4.691 3.65,-6.107 5.94,-7.08c2.29,-0.974 6.804,-1.682 6.804,-1.682c0,0 -7.321,0.153 -9.052,0.531c-2.832,0.62 -5.794,2.832 -7.133,4.248c-1.338,1.416 -5.423,5.443 -5.282,7.92c0.146,2.566 6.068,7.875 8.546,7.943c2.478,0.067 8.11,-0.688 11.002,0c2.892,0.687 4.131,1.486 3.777,2.326c-0.354,0.839 -2.244,-0.277 -3.777,-0.471c-1.533,-0.195 -9.231,0.035 -10.914,0c-5.044,-0.106 -9.558,-7.009 -9.558,-7.009Z" style="fill:#ec1f27;"/><path d="M542.892,303.681c0,0 -17.522,-2.655 -20,-18.673c-0.731,-4.723 6.473,-10.595 9.961,-11.417c5.318,-1.252 10.684,1.062 11.424,0.62c0.739,-0.443 10.207,-3.457 17.819,-3.54c8.939,-0.098 13.92,4.336 13.92,4.336c0,0 -14.487,-4.894 -22.328,0.531c-7.469,5.169 -10.442,9.691 -10.619,15.267c-0.08,2.533 -0.177,12.876 -0.177,12.876Z" style="fill:#ec1f27;"/><path d="M579.79,296.973c0,0 7.035,-0.161 13.54,-4.94c6.505,-4.779 8.894,-11.749 8.894,-11.749c0,0 1.152,8.95 0.632,11.616c-0.368,1.887 -1.959,3.518 -3.42,4.779c-1.46,1.261 -3.425,1.899 -5.243,2.378c-2.954,0.779 -10.355,1.329 -14.403,-2.084Z" style="fill:#ec1f27;"/><path d="M568.285,334.037c-5.133,0.177 -18.032,-11.151 -26.274,-14.868c-7.952,-3.587 -17.417,-20.355 -14.599,-19.47c2.818,0.885 9.721,6.195 15.739,6.195c6.018,0 10.408,-1.947 14.85,-2.301c4.443,-0.354 5.575,-1.062 7.133,0.708c1.558,1.77 -1.578,3.009 -1.692,5.841c-0.113,2.832 2.431,19.47 3.139,19.647c0.708,0.177 1.941,0.007 1.434,-2.058c-0.441,-1.793 -1.118,-4.445 -1.677,-7.368c-0.575,-3.001 -1.063,-4.9 -0.673,-9.668c0.385,-4.713 2.766,-5.996 4.076,-7.235c1.309,-1.239 3.144,-4.403 5.678,-4.403c2.534,0 5.92,1.688 8.527,2.434c4.169,1.193 10.691,0.147 12.375,-0.221c2.078,-0.455 0.638,1.039 -2.722,6.925c-5.16,9.04 -19.65,26.019 -25.314,25.842" style="fill:#ec1f27;"/><path d="M585.454,293.504c0,0 2.92,-2.921 1.504,-7.965c-1.416,-5.045 -4.39,-6.549 -6.531,-8.408c-2.142,-1.858 -7.894,-6.814 -14.266,-7.964c-6.199,-1.12 -17.521,2.301 -20.575,2.832c-3.055,0.53 -4.294,-0.177 -4.294,-0.177c0,0 0.708,-0.177 2.744,-1.328c2.035,-1.15 8.223,-7.65 22.125,-10.266c7.508,-1.413 18.357,4.138 20.443,5.664c3.629,2.655 3.678,6.14 3.678,6.14c0,0 9.623,0.553 10.882,6.168c0.279,1.242 -3.218,8.489 -6.322,10.481c-3.229,2.071 -9.388,4.823 -9.388,4.823Z" style="fill:#ec1f27;"/><path d="M572.839,283.003c0,0 1.784,2.806 1.218,3.893c-0.565,1.088 -2.622,2.697 -8.923,2.719c-6.301,0.022 -9.194,-2.784 -8.998,-6.264c0.195,-3.48 2.131,-4.567 4.371,-5.416c1.689,-0.639 5.416,-0.543 5.416,-0.543c0,0 -2.264,0.5 -2.481,2.436c-0.216,1.935 -0.117,6.351 4.673,6.285c4.79,-0.065 4.724,-3.11 4.724,-3.11Z" style="fill:#ec1f27;"/><path d="M568.115,277.957c0,0 3.084,2.936 3.121,3.98c0.037,1.044 -1.43,2.241 -3.121,2.262c-1.692,0.022 -3.562,-2.327 -3.562,-3.11c0,-0.783 0.609,-1.283 1.348,-1.348c0.74,-0.066 1.066,0.826 1.849,0.87c0.783,0.043 1.109,-0.196 0.892,-0.979c-0.218,-0.783 -0.527,-1.675 -0.527,-1.675Z" style="fill:#ec1f27;"/><path d="M576.965,295.539c0,0 7.959,1.757 8.23,-8.364c0.076,-2.818 -2.761,-7.831 -7.487,-9.69c-4.726,-1.858 -9.593,-2.124 -9.593,-2.124c0,0 6.896,4.815 7.901,9.24c0.847,3.729 0.949,10.938 0.949,10.938" style="fill:#ec1f27;"/><path d="M564.525,457.32l7.964,0l0.109,53.972c0,0 0.949,10.527 9.449,10.455c7.637,-0.064 9.306,-10.418 9.306,-10.418l0.252,-54.009l7.611,0l1.239,152.396l16.992,190.284l-6.018,0l-20.419,-175.856c0,0 -1.13,-13.807 -8.963,-14.074c-8.296,-0.283 -10.186,14.907 -10.186,14.907l-19.018,175.023l-7.257,0l18.408,-190.992l0.531,-151.688Zm26.69,125.361c0.075,-4.859 -3.809,-8.864 -8.668,-8.939c-4.858,-0.075 -8.864,3.809 -8.938,8.668l-0.166,10.747c-0.075,4.858 3.809,8.864 8.668,8.938c4.859,0.075 8.864,-3.809 8.939,-8.667l0.165,-10.747Zm-3.007,-26.786c0.05,-3.215 -2.52,-5.865 -5.735,-5.914c-3.214,-0.05 -5.864,2.52 -5.914,5.735l-0.109,7.11c-0.05,3.215 2.52,5.865 5.735,5.915c3.215,0.049 5.865,-2.521 5.914,-5.735l0.109,-7.111Zm-1.011,-20.253c0,-2.687 -2.181,-4.868 -4.868,-4.868c-2.686,0 -4.867,2.181 -4.867,4.868l0,4.425c0,2.686 2.181,4.867 4.867,4.867c2.687,0 4.868,-2.181 4.868,-4.867l0,-4.425Z" style="fill:#fff;"/><path d="M565.871,356.537c0,0 -4.84,-1.192 -5.283,-1.812c-0.442,-0.619 -0.015,-11.93 0.029,-12.77c0.003,-0.063 1.646,3.257 5.254,4.143c3.267,0.803 0,10.439 0,10.439"/><path d="M530.491,339.771l-5.097,-6.414c0,0 3.908,1.487 4.757,1.359c0.85,-0.127 1.317,4.418 0.34,5.055Z"/><path d="M539.302,359.04l8.351,-6.499c0,0 -4.333,-2.153 -5.735,-2.172c-1.401,-0.02 -9.018,4.89 -9.018,4.89l6.402,3.781Z"/><path d="M531.681,353.067c0,0 7.663,-4.001 7.621,-4.044c-0.043,-0.042 -6.916,-4.732 -6.916,-4.732c0,0 -4.605,0.297 -5.76,1.13c-0.853,0.614 2.803,7.264 5.055,7.646Z"/><path d="M529.472,341.98l-3.569,1.468c0,0 -1.79,-2.958 -2.039,-8.59c-0.021,-0.486 3.229,5.89 5.608,7.122Z"/></g><rect x="527.412" y="411.356" width="10.882" height="10.758" style="fill:#ec1f27;"/><clipPath id="_clip5"><rect x="527.412" y="411.356" width="10.882" height="10.758"/></clipPath><g clip-path="url(#_clip5)"><path d="M538.193,406.938l-15.427,15.427l1.129,1.129l15.428,-15.427l-1.13,-1.129Z" style="fill:#fff;"/><path d="M542.322,411.067l-15.427,15.427l1.129,1.129l15.428,-15.427l-1.13,-1.129Z" style="fill:#fff;"/></g><rect x="539.986" y="411.356" width="10.882" height="10.758" style="fill:#ec1f27;"/><clipPath id="_clip6"><rect x="539.986" y="411.356" width="10.882" height="10.758"/></clipPath><g clip-path="url(#_clip6)"><path d="M550.767,406.938l-15.427,15.427l1.129,1.129l15.428,-15.427l-1.13,-1.129Z" style="fill:#fff;"/><path d="M554.896,411.067l-15.427,15.427l1.129,1.129l15.428,-15.427l-1.13,-1.129Z" style="fill:#fff;"/></g><rect x="552.56" y="411.356" width="10.882" height="10.758" style="fill:#ec1f27;"/><clipPath id="_clip7"><rect x="552.56" y="411.356" width="10.882" height="10.758"/></clipPath><g clip-path="url(#_clip7)"><path d="M563.341,406.938l-15.427,15.427l1.129,1.129l15.428,-15.427l-1.13,-1.129Z" style="fill:#fff;"/><path d="M567.47,411.067l-15.427,15.427l1.129,1.129l15.428,-15.427l-1.13,-1.129Z" style="fill:#fff;"/></g><rect x="565.134" y="411.356" width="10.882" height="10.758" style="fill:#ec1f27;"/><clipPath id="_clip8"><rect x="565.134" y="411.356" width="10.882" height="10.758"/></clipPath><g clip-path="url(#_clip8)"><path d="M575.915,406.938l-15.427,15.427l1.129,1.129l15.428,-15.427l-1.13,-1.129Z" style="fill:#fff;"/><path d="M580.044,411.067l-15.427,15.427l1.129,1.129l15.428,-15.427l-1.13,-1.129Z" style="fill:#fff;"/></g><rect x="577.708" y="411.356" width="10.882" height="10.758" style="fill:#ec1f27;"/><clipPath id="_clip9"><rect x="577.708" y="411.356" width="10.882" height="10.758"/></clipPath><g clip-path="url(#_clip9)"><path d="M588.489,406.938l-15.427,15.427l1.129,1.129l15.428,-15.427l-1.13,-1.129Z" style="fill:#fff;"/><path d="M592.618,411.067l-15.427,15.427l1.129,1.129l15.428,-15.427l-1.13,-1.129Z" style="fill:#fff;"/></g><rect x="590.282" y="411.356" width="10.882" height="10.758" style="fill:#ec1f27;"/><clipPath id="_clip10"><rect x="590.282" y="411.356" width="10.882" height="10.758"/></clipPath><g clip-path="url(#_clip10)"><path d="M601.063,406.938l-15.427,15.427l1.129,1.129l15.428,-15.427l-1.13,-1.129Z" style="fill:#fff;"/><path d="M605.192,411.067l-15.427,15.427l1.129,1.129l15.428,-15.427l-1.13,-1.129Z" style="fill:#fff;"/></g><rect x="602.856" y="411.356" width="10.882" height="10.758" style="fill:#ec1f27;"/><clipPath id="_clip11"><rect x="602.856" y="411.356" width="10.882" height="10.758"/></clipPath><g clip-path="url(#_clip11)"><path d="M613.637,406.938l-15.427,15.427l1.129,1.129l15.428,-15.427l-1.13,-1.129Z" style="fill:#fff;"/><path d="M617.766,411.067l-15.427,15.427l1.129,1.129l15.428,-15.427l-1.13,-1.129Z" style="fill:#fff;"/></g><rect id="waves" x="0.686" y="636.647" width="1920" height="163.353" style="fill:none;"/><clipPath id="_clip12"><rect x="0.686" y="636.647" width="1920" height="163.353"/></clipPath><g clip-path="url(#_clip12)"><path d="M0.034,683.647c114.073,-1 125.073,47 204.073,46c93.992,-1.19 58,-44.147 160,-45.073c102,-0.927 96,49.073 180,49.073c84,0 72,-49.073 174,-49.073c102,0 109.805,47.323 171.403,47.323c61.597,0 98.597,-50.25 164.597,-50.25c66,0 110,50 176,50c66,0 98,-50 170,-50c72,0 104,52 176,52c72,0 100.5,-51.25 168.5,-51.25c68,0 115.354,51.25 175.427,53.25c0.298,0.01 0.512,20.002 0,20c-66.947,-0.233 -114.677,-48.75 -173.177,-49.5c-68.024,-0.872 -94.75,47.5 -166.75,47.5c-72,0 -106,-52 -174,-52c-68,0 -100,52 -170,52c-70,0 -108,-48 -174,-48c-66,0 -114,52 -172,52c-58,0 -106,-48 -172,-48c-66,0 -116,46 -178,46c-62,0 -90,-48 -176,-48c-86,0 -96,50 -158,50c-62,0 -128.146,-50 -206.073,-50c-0.427,0 -0.573,-23.995 0,-24Z" style="stroke:#fff;stroke-width:2.67px;"/><path d="M0.034,705.314c114.073,-1 125.073,47 204.073,46c93.992,-1.19 58,-44.147 160,-45.074c102,-0.926 96,49.074 180,49.074c84,0 72,-49.074 174,-49.074c102,0 109.805,47.324 171.403,47.324c61.597,0 98.597,-50.25 164.597,-50.25c66,0 110,50 176,50c66,0 98,-50 170,-50c72,0 104,52 176,52c72,0 100.5,-51.25 168.5,-51.25c68,0 115.354,51.25 175.427,53.25c0.298,0.01 0.512,20.001 0,20c-66.947,-0.233 -114.677,-48.75 -173.177,-49.5c-68.024,-0.872 -94.75,47.5 -166.75,47.5c-72,0 -106,-52 -174,-52c-68,0 -100,52 -170,52c-70,0 -108,-48 -174,-48c-66,0 -114,52 -172,52c-58,0 -106,-48 -172,-48c-66,0 -116,46 -178,46c-62,0 -90,-48 -176,-48c-86,0 -96,50 -158,50c-62,0 -128.146,-50 -206.073,-50c-0.427,0 -0.573,-23.995 0,-24Z" style="stroke:#fff;stroke-width:2.67px;"/><path d="M0.034,726.98c114.073,-1 125.073,47 204.073,46c93.992,-1.189 58,-44.147 160,-45.073c102,-0.927 96,49.073 180,49.073c84,0 72,-49.073 174,-49.073c102,0 109.805,47.323 171.403,47.323c61.597,0 98.597,-50.25 164.597,-50.25c66,0 110,50 176,50c66,0 98,-50 170,-50c72,0 104,52 176,52c72,0 100.5,-51.25 168.5,-51.25c68,0 115.354,51.25 175.427,53.25c0.298,0.01 0.512,20.002 0,20c-66.947,-0.232 -114.677,-48.75 -173.177,-49.5c-68.024,-0.872 -94.75,47.5 -166.75,47.5c-72,0 -106,-52 -174,-52c-68,0 -100,52 -170,52c-70,0 -108,-48 -174,-48c-66,0 -114,52 -172,52c-58,0 -106,-48 -172,-48c-66,0 -116,46 -178,46c-62,0 -90,-48 -176,-48c-86,0 -96,50 -158,50c-62,0 -128.146,-50 -206.073,-50c-0.427,0 -0.573,-23.995 0,-24Z" style="stroke:#fff;stroke-width:2.67px;"/><path d="M0.034,748.647c114.073,-1 125.073,47 204.073,46c93.992,-1.19 58,-44.147 160,-45.073c102,-0.927 96,49.073 180,49.073c84,0 72,-49.073 174,-49.073c102,0 109.805,47.323 171.403,47.323c61.597,0 98.597,-50.25 164.597,-50.25c66,0 110,50 176,50c66,0 98,-50 170,-50c72,0 104,52 176,52c72,0 100.5,-51.25 168.5,-51.25c68,0 115.354,51.25 175.427,53.25c0.298,0.01 0.512,20.002 0,20c-66.947,-0.233 -114.677,-48.75 -173.177,-49.5c-68.024,-0.872 -94.75,47.5 -166.75,47.5c-72,0 -106,-52 -174,-52c-68,0 -100,52 -170,52c-70,0 -108,-48 -174,-48c-66,0 -114,52 -172,52c-58,0 -106,-48 -172,-48c-66,0 -116,46 -178,46c-62,0 -90,-48 -176,-48c-86,0 -96,50 -158,50c-62,0 -128.146,-50 -206.073,-50c-0.427,0 -0.573,-23.995 0,-24Z" style="stroke:#fff;stroke-width:2.67px;"/><path d="M0.034,770.314c114.073,-1 125.073,47 204.073,46c93.992,-1.19 58,-44.147 160,-45.074c102,-0.926 96,49.074 180,49.074c84,0 72,-49.074 174,-49.074c102,0 109.805,47.324 171.403,47.324c61.597,0 98.597,-50.25 164.597,-50.25c66,0 110,50 176,50c66,0 98,-50 170,-50c72,0 104,52 176,52c72,0 100.5,-51.25 168.5,-51.25c68,0 115.354,51.25 175.427,53.25c0.298,0.01 0.512,20.001 0,20c-66.947,-0.233 -114.677,-48.75 -173.177,-49.5c-68.024,-0.872 -94.75,47.5 -166.75,47.5c-72,0 -106,-52 -174,-52c-68,0 -100,52 -170,52c-70,0 -108,-48 -174,-48c-66,0 -114,52 -172,52c-58,0 -106,-48 -172,-48c-66,0 -116,46 -178,46c-62,0 -90,-48 -176,-48c-86,0 -96,50 -158,50c-62,0 -128.146,-50 -206.073,-50c-0.427,0 -0.573,-23.995 0,-24Z" style="stroke:#fff;stroke-width:2.67px;"/><path d="M0.034,791.98c114.073,-1 125.073,47 204.073,46c93.992,-1.189 58,-44.147 160,-45.073c102,-0.927 96,49.073 180,49.073c84,0 72,-49.073 174,-49.073c102,0 109.805,47.323 171.403,47.323c61.597,0 98.597,-50.25 164.597,-50.25c66,0 110,50 176,50c66,0 98,-50 170,-50c72,0 104,52 176,52c72,0 100.5,-51.25 168.5,-51.25c68,0 115.354,51.25 175.427,53.25c0.298,0.01 0.512,20.002 0,20c-66.947,-0.232 -114.677,-48.75 -173.177,-49.5c-68.024,-0.872 -94.75,47.5 -166.75,47.5c-72,0 -106,-52 -174,-52c-68,0 -100,52 -170,52c-70,0 -108,-48 -174,-48c-66,0 -114,52 -172,52c-58,0 -106,-48 -172,-48c-66,0 -116,46 -178,46c-62,0 -90,-48 -176,-48c-86,0 -96,50 -158,50c-62,0 -128.146,-50 -206.073,-50c-0.427,0 -0.573,-23.995 0,-24Z" style="stroke:#fff;stroke-width:2.67px;"/><path d="M0.034,661.98c114.073,-1 125.073,47 204.073,46c93.992,-1.189 58,-44.147 160,-45.073c102,-0.927 96,49.073 180,49.073c84,0 72,-49.073 174,-49.073c102,0 109.805,47.323 171.403,47.323c61.597,0 98.597,-50.25 164.597,-50.25c66,0 110,50 176,50c66,0 98,-50 170,-50c72,0 104,52 176,52c72,0 100.5,-51.25 168.5,-51.25c68,0 115.354,51.25 175.427,53.25c0.298,0.01 0.512,20.002 0,20c-66.947,-0.232 -114.677,-48.75 -173.177,-49.5c-68.024,-0.872 -94.75,47.5 -166.75,47.5c-72,0 -106,-52 -174,-52c-68,0 -100,52 -170,52c-70,0 -108,-48 -174,-48c-66,0 -114,52 -172,52c-58,0 -106,-48 -172,-48c-66,0 -116,46 -178,46c-62,0 -90,-48 -176,-48c-86,0 -96,50 -158,50c-62,0 -128.146,-50 -206.073,-50c-0.427,0 -0.573,-23.995 0,-24Z" style="stroke:#fff;stroke-width:2.67px;"/><path d="M0.034,642.314c114.073,-1 125.073,47 204.073,46c93.992,-1.19 58,-44.147 160,-45.074c102,-0.926 96,49.074 180,49.074c84,0 72,-49.074 174,-49.074c102,0 109.805,47.324 171.403,47.324c61.597,0 98.597,-50.25 164.597,-50.25c66,0 110,50 176,50c66,0 98,-50 170,-50c72,0 104,52 176,52c72,0 100.5,-51.25 168.5,-51.25c68,0 115.354,51.25 175.427,53.25c0.298,0.01 0.512,20.001 0,20c-66.947,-0.233 -114.677,-48.75 -173.177,-49.5c-68.024,-0.872 -94.75,47.5 -166.75,47.5c-72,0 -106,-52 -174,-52c-68,0 -100,52 -170,52c-70,0 -108,-48 -174,-48c-66,0 -114,52 -172,52c-58,0 -106,-48 -172,-48c-66,0 -116,46 -178,46c-62,0 -90,-48 -176,-48c-86,0 -96,50 -158,50c-62,0 -128.146,-50 -206.073,-50c-0.427,0 -0.573,-23.995 0,-24Z" style="stroke:#fff;stroke-width:2.67px;"/></g><path id="cloud" d="M984.413,432.693l29.078,0c-6.964,0 -12.618,-5.654 -12.618,-12.618c0,-6.965 5.654,-12.619 12.618,-12.619l31.292,0c-4.956,-1.703 -8.522,-6.407 -8.522,-11.938c0,-6.964 5.654,-12.619 12.619,-12.619l38.716,0c6.964,0 12.619,5.655 12.619,12.619c0,5.531 -3.567,10.235 -8.523,11.938l7.517,0c6.965,0 12.619,5.654 12.619,12.619c0,6.964 -5.654,12.618 -12.619,12.618l2.011,0c6.964,0 12.618,5.655 12.618,12.619c0,6.964 -5.654,12.619 -12.618,12.619l-116.807,0c-6.965,0 -12.619,-5.654 -12.619,-12.619c0,-6.964 5.654,-12.619 12.619,-12.619Z" style="fill:#c2c3c5;"/><path id="cloud1" serif:id="cloud" d="M1245.29,263.848l29.079,0c-6.965,0 -12.619,-5.654 -12.619,-12.619c0,-6.964 5.654,-12.618 12.619,-12.619l31.292,0c-4.957,-1.702 -8.523,-6.406 -8.523,-11.937c0,-6.965 5.654,-12.619 12.619,-12.619l38.716,0c6.965,0 12.619,5.654 12.619,12.619c0,5.531 -3.566,10.235 -8.523,11.937l7.518,0c6.964,0.001 12.618,5.655 12.618,12.619c0,6.965 -5.654,12.619 -12.618,12.619l2.01,0c6.964,0 12.619,5.654 12.619,12.619c0,6.964 -5.655,12.618 -12.619,12.618l-116.807,0c-6.965,0 -12.619,-5.654 -12.619,-12.618c0,-6.965 5.654,-12.619 12.619,-12.619Z" style="fill:#c2c3c5;"/></g></svg>