<?xml version="1.0" encoding="UTF-8" standalone="no"?><!DOCTYPE svg PUBLIC "-//W3C//DTD SVG 1.1//EN" "http://www.w3.org/Graphics/SVG/1.1/DTD/svg11.dtd"><svg width="100%" height="100%" viewBox="0 0 1440 600" version="1.1" xmlns="http://www.w3.org/2000/svg" xmlns:xlink="http://www.w3.org/1999/xlink" xml:space="preserve" xmlns:serif="http://www.serif.com/" style="fill-rule:evenodd;clip-rule:evenodd;stroke-linecap:round;stroke-linejoin:round;stroke-miterlimit:1.5;"><rect id="Artboard1" x="0" y="0" width="1440" height="600" style="fill:none;"/><clipPath id="_clip1"><rect x="0" y="0" width="1440" height="600"/></clipPath><g clip-path="url(#_clip1)"><rect x="0.514" y="0" width="1439.49" height="601.641" style="fill:#d5d7d9;"/><g id="trees"><path d="M98.654,440.693l30.75,31.625l-11.037,-0.344l24.188,25.875l-15.188,0l18.75,29.437l-9.375,-0.187l18,26.25c0,0 -105.562,-0.75 -106.5,-0.375c0.938,-0.375 19.688,-28.313 19.688,-28.313l-14.063,-0.187l21.563,-30.375l-13.5,-0.563l17.812,-21.187l-10.875,-0.188l29.787,-31.468Z" style="fill:#ec1f27;"/><path d="M28.154,401.505l30.75,31.625l-11.037,-0.344l24.188,25.875l-15.188,0l18.75,29.438l-9,0.187l17.625,25.875c0,0 -105.75,-0.937 -106.687,-0.562c0.937,-0.375 19.875,-28.125 19.875,-28.125l-14.063,-0.188l21.563,-30.375l-13.5,-0.562l17.812,-21.188l-10.875,-0.187l29.787,-31.469Z" style="fill:#ec1f27;"/></g><path id="mountain2" d="M978.156,397.5l247.48,202.5l-542.567,0l241.802,-201.517l53.285,-0.983Z" style="fill:#fff;"/><clipPath id="_clip2"><path d="M978.156,397.5l247.48,202.5l-542.567,0l241.802,-201.517l53.285,-0.983Z"/></clipPath><g clip-path="url(#_clip2)"><path d="M923.596,404.641l-339.918,278.136l1.275,1.043l339.918,-278.136l-1.275,-1.043Z" style="fill:#ec1f27;"/><path d="M910.978,423.325l-339.918,278.136l1.274,1.043l339.918,-278.136l-1.274,-1.043Z" style="fill:#ec1f27;"/><path d="M899.26,441.271l-339.918,278.136l1.275,1.043l339.918,-278.136l-1.275,-1.043Z" style="fill:#ec1f27;"/><path d="M883.036,462.905l-339.918,278.136l1.275,1.043l339.918,-278.136l-1.275,-1.043Z" style="fill:#ec1f27;"/></g><path id="mountain1" d="M840.551,445.193l-189.194,154.807l379.677,0l-190.483,-154.807Z" style="fill:#fff;"/><clipPath id="_clip3"><path d="M840.551,445.193l-189.194,154.807l379.677,0l-190.483,-154.807Z"/></clipPath><g clip-path="url(#_clip3)"><path d="M834.711,456.267l-339.918,278.137l1.275,1.043l339.918,-278.137l-1.275,-1.043Z" style="fill:#ec1f27;"/><path d="M822.092,474.951l-339.918,278.136l1.275,1.043l339.918,-278.136l-1.275,-1.043Z" style="fill:#ec1f27;"/><path d="M810.375,492.897l-339.918,278.137l1.275,1.043l339.917,-278.137l-1.274,-1.043Z" style="fill:#ec1f27;"/><path d="M794.151,514.531l-339.918,278.137l1.274,1.043l339.918,-278.137l-1.274,-1.043Z" style="fill:#ec1f27;"/></g><g id="spaceneedle"><path d="M405.957,342.99l5.973,0l0.082,40.479c0,0 0.711,7.895 7.087,7.842c5.727,-0.049 6.979,-7.814 6.979,-7.814l0.189,-40.507l5.708,0l0.93,114.297l12.744,142.713l-4.514,0l-15.315,-131.892c0,0 -0.847,-10.356 -6.721,-10.556c-6.223,-0.212 -7.64,11.18 -7.64,11.18l-14.264,131.268l-5.443,0l13.806,-143.244l0.399,-113.766Zm20.018,94.021c0.056,-3.644 -2.857,-6.648 -6.501,-6.704c-3.644,-0.056 -6.648,2.857 -6.704,6.501l-0.124,8.06c-0.057,3.644 2.856,6.648 6.5,6.704c3.644,0.056 6.648,-2.857 6.705,-6.501l0.124,-8.06Zm-2.255,-20.09c0.037,-2.411 -1.891,-4.398 -4.302,-4.435c-2.411,-0.037 -4.398,1.89 -4.435,4.301l-0.082,5.333c-0.038,2.411 1.89,4.398 4.301,4.435c2.411,0.038 4.398,-1.89 4.435,-4.301l0.083,-5.333Zm-0.759,-15.19c0,-2.014 -1.636,-3.65 -3.651,-3.65c-2.015,0 -3.651,1.636 -3.651,3.65l0,3.319c0,2.015 1.636,3.651 3.651,3.651c2.015,0 3.651,-1.636 3.651,-3.651l0,-3.319Z" style="fill:#ec1f27;"/><path d="M412.589,265.032l4.783,2.181c0,0 -4.277,4.712 -5.984,4.535c-1.706,-0.178 -4.096,-1.577 -4.608,-1.93c-0.512,-0.353 4.614,-3.25 5.809,-4.786Z"/><path d="M412.364,262.776c0.062,0.01 0.731,-9.089 0.594,-9.136c-3.765,-1.287 -7.09,-1.261 -7.092,-1.238c-0.186,1.754 0.628,5.852 1.062,7.445c0.434,1.593 3.409,2.622 5.436,2.929Z"/><path d="M404.954,259.569c0.489,0.04 -5.097,-2.101 -5.159,-3.732c-0.061,-1.631 -0.168,-4.319 -0.102,-4.363c0.375,-0.251 4.626,0.663 4.629,0.754c0.032,1.115 1.346,7.687 1.346,7.687"/><path d="M414.176,271.741c0,0 4.305,-3.552 4.897,-3.857c1.018,-0.524 5.313,2.428 5.098,2.833c-0.939,1.767 -8.743,1.081 -9.995,1.024Z"/><path d="M409.85,416.057c0,0 -6.917,-1.801 -7.405,-1.63c-0.488,0.171 -9.161,6.401 -11.936,6.374c-0.044,-0.001 5.683,3.409 7.513,3.524c1.83,0.115 9.822,-6.239 11.828,-8.268Z"/><path d="M384.248,402.919l-4.158,0.458c0,0 1.774,7.035 2.812,6.728c1.546,-0.458 6.351,-1.106 7.23,-1.204c0.813,-0.091 -5.884,-5.982 -5.884,-5.982Z"/><path d="M392.187,410.111c0,0 -7.98,1.816 -8.549,2.469c-0.569,0.654 3.47,6.936 4.892,7.009c1.423,0.074 11.599,-4.157 11.655,-5.857c0.013,-0.393 -5.593,-1.509 -7.998,-3.621Z"/><path d="M416.873,418.272c0,0 -3.696,-1.589 -4.735,-2.932c-1.171,-1.514 -2.288,-6.148 -2.288,-6.148c0,0 6.167,3.504 7.71,5.097c1.543,1.593 -0.687,3.983 -0.687,3.983Z"/><path d="M416.465,418.891c0,0 -2.767,-0.463 -4.694,-1.733c-0.037,-0.024 -2.405,2.295 -4.681,3.878c-2.275,1.584 -5.588,3.291 -5.588,3.291c0,0 5.717,-0.263 8.348,-0.957c2.632,-0.694 6.387,-1.239 6.387,-1.239l0.228,-3.24Z"/><path d="M409.85,414.847c0,0 -1.153,-6.93 -2.76,-8.284c-1.607,-1.354 -9.121,-3.186 -9.068,-3.186c0.054,0 3.16,7.806 3.16,8.841c0,1.036 6.743,0.877 8.668,2.629Z"/><path d="M396.403,402.74l-5.894,-0.637c0,0 1.513,6.213 2.469,7.009c0.956,0.797 3.753,2.708 6.217,2.788c2.465,0.08 -0.35,-0.845 -1.173,-4.644c-0.822,-3.799 -1.619,-4.516 -1.619,-4.516Z"/><path d="M390.509,406.663c0,0 -1.451,-3.035 -1.355,-4.56c0.095,-1.525 -2.766,-2.895 -3.47,-2.927c-0.704,-0.032 -0.258,2.358 0.443,3.6c0.701,1.243 4.382,3.887 4.382,3.887Z"/><path d="M384.248,400.45c0,0 -0.287,-1.911 -0.638,-2.453c-0.35,-0.542 -3.441,-2.804 -3.441,-2.804c0,0 1.848,2.9 2.262,3.409c0.415,0.51 1.817,1.848 1.817,1.848"/><path d="M382.463,401.067c0,0 -1.338,-1.318 -1.975,-2.847c-0.637,-1.529 -2.772,-4.174 -2.772,-4.174c0,0 0.46,6.05 1.69,7.021c1.05,0.828 3.057,0 3.057,0Z"/><path d="M419.073,255.507c0,0 0.083,10.124 -0.051,10.093c-2.718,-0.62 -5.195,-1.836 -5.174,-2.192c0.109,-1.836 0.142,-6.978 0.077,-9.226c-0.002,-0.046 1.682,-0.612 5.148,1.325Z"/><path d="M436.137,265.52c0,0 6.918,-1.801 7.406,-1.63c0.488,0.17 9.16,6.4 11.936,6.373c0.044,0 -5.684,3.41 -7.513,3.525c-1.83,0.115 -9.823,-6.24 -11.829,-8.268Z"/><path d="M461.74,252.382l4.158,0.458c0,0 -1.774,7.034 -2.813,6.727c-1.545,-0.457 -6.35,-1.106 -7.229,-1.204c-0.813,-0.09 5.884,-5.981 5.884,-5.981Z"/><path d="M453.801,259.574c0,0 7.98,1.815 8.549,2.469c0.569,0.653 -3.47,6.936 -4.893,7.009c-1.422,0.073 -11.598,-4.158 -11.654,-5.858c-0.013,-0.393 5.593,-1.509 7.998,-3.62Z"/><path d="M416.088,443.387l-4.017,-4.062c0,0 -0.042,0.557 4.017,0.239c4.059,-0.319 0.88,3.584 0,3.823Z"/><path d="M438.897,536.975c0,0 4.349,1.035 6.101,-0.478c1.752,-1.513 -4.077,3.823 -6.101,4.699c-2.023,0.876 0,-4.221 0,-4.221Z"/><path d="M416.088,485.203l-4.017,-4.54c0,0 1.392,0.637 4.017,0.557c2.283,-0.069 0,3.983 0,3.983Z"/><path d="M438.897,502.407c2.357,-1.035 4.646,-4.54 4.646,-4.54c0,0 -3.259,0.239 -4.646,0.08c-1.386,-0.16 0,4.46 0,4.46"/><rect x="416.088" y="342.99" width="22.809" height="257.01"/><path d="M429.115,267.734c0,0 3.696,-1.588 4.735,-2.932c1.17,-1.513 2.287,-6.148 2.287,-6.148c0,0 -6.166,3.505 -7.709,5.098c-1.544,1.593 0.687,3.982 0.687,3.982Z"/><path d="M429.523,268.354c0,0 2.767,-0.463 4.693,-1.734c0.037,-0.024 2.406,2.296 4.681,3.879c2.276,1.583 5.589,3.29 5.589,3.29c0,0 -5.717,-0.262 -8.349,-0.956c-2.631,-0.694 -6.386,-1.239 -6.386,-1.239l-0.228,-3.24Z"/><path d="M436.137,264.309c0,0 1.153,-6.929 2.76,-8.283c1.608,-1.354 9.122,-3.186 9.069,-3.186c-0.054,0 -3.16,7.806 -3.16,8.841c0,1.035 -6.744,0.876 -8.669,2.628Z"/><path d="M449.585,252.203l5.894,-0.638c0,0 -1.514,6.213 -2.47,7.01c-0.955,0.796 -3.752,2.708 -6.217,2.787c-2.464,0.08 0.351,-0.845 1.174,-4.644c0.822,-3.798 1.619,-4.515 1.619,-4.515Z"/><path d="M455.479,256.125c0,0 1.45,-3.034 1.355,-4.56c-0.096,-1.525 2.766,-2.895 3.47,-2.927c0.703,-0.031 0.257,2.358 -0.444,3.601c-0.7,1.242 -4.381,3.886 -4.381,3.886Z"/><path d="M461.74,249.913c0,0 0.287,-1.912 0.637,-2.453c0.351,-0.542 3.441,-2.804 3.441,-2.804c0,0 -1.848,2.899 -2.262,3.409c-0.414,0.51 -1.816,1.848 -1.816,1.848"/><path d="M463.524,250.529c0,0 1.338,-1.317 1.976,-2.846c0.637,-1.53 2.771,-4.174 2.771,-4.174c0,0 -0.46,6.05 -1.69,7.02c-1.05,0.828 -3.057,0 -3.057,0Z"/><path d="M473.182,338.145c0,-2.675 -2.171,-4.846 -4.846,-4.846l-80.047,0c-2.675,0 -4.846,2.171 -4.846,4.846c0,2.674 2.171,4.845 4.846,4.845l80.047,0c2.675,0 4.846,-2.171 4.846,-4.845Z" style="fill:#fff;"/><clipPath id="_clip4"><path d="M473.182,338.145c0,-2.675 -2.171,-4.846 -4.846,-4.846l-80.047,0c-2.675,0 -4.846,2.171 -4.846,4.846c0,2.674 2.171,4.845 4.846,4.845l80.047,0c2.675,0 4.846,-2.171 4.846,-4.845Z"/></clipPath><g clip-path="url(#_clip4)"><path d="M392.829,328.711l-18.023,18.022l0.845,0.845l18.022,-18.022l-0.844,-0.845Z" style="fill:#ec1f27;"/><path d="M398.902,328.711l-18.023,18.022l0.845,0.845l18.023,-18.022l-0.845,-0.845Z" style="fill:#ec1f27;"/><path d="M404.975,328.711l-18.022,18.022l0.844,0.845l18.023,-18.022l-0.845,-0.845Z" style="fill:#ec1f27;"/><path d="M411.048,328.711l-18.022,18.022l0.845,0.845l18.022,-18.022l-0.845,-0.845Z" style="fill:#ec1f27;"/><path d="M417.122,328.711l-18.023,18.022l0.845,0.845l18.023,-18.022l-0.845,-0.845Z" style="fill:#ec1f27;"/><path d="M423.195,328.711l-18.023,18.022l0.845,0.845l18.023,-18.022l-0.845,-0.845Z" style="fill:#ec1f27;"/><path d="M429.268,328.711l-18.022,18.022l0.845,0.845l18.022,-18.022l-0.845,-0.845Z" style="fill:#ec1f27;"/><path d="M435.342,328.711l-18.023,18.022l0.845,0.845l18.022,-18.022l-0.844,-0.845Z" style="fill:#ec1f27;"/><path d="M441.415,328.711l-18.023,18.022l0.845,0.845l18.023,-18.022l-0.845,-0.845Z" style="fill:#ec1f27;"/><path d="M447.488,328.711l-18.022,18.022l0.844,0.845l18.023,-18.022l-0.845,-0.845Z" style="fill:#ec1f27;"/><path d="M453.561,328.711l-18.022,18.022l0.845,0.845l18.022,-18.022l-0.845,-0.845Z" style="fill:#ec1f27;"/><path d="M459.635,328.711l-18.023,18.022l0.845,0.845l18.022,-18.022l-0.844,-0.845Z" style="fill:#ec1f27;"/><path d="M465.708,328.711l-18.023,18.022l0.845,0.845l18.023,-18.022l-0.845,-0.845Z" style="fill:#ec1f27;"/><path d="M471.781,328.711l-18.022,18.022l0.844,0.845l18.023,-18.022l-0.845,-0.845Z" style="fill:#ec1f27;"/><path d="M477.854,328.711l-18.022,18.022l0.845,0.845l18.022,-18.022l-0.845,-0.845Z" style="fill:#ec1f27;"/><path d="M483.928,328.711l-18.023,18.022l0.845,0.845l18.023,-18.022l-0.845,-0.845Z" style="fill:#ec1f27;"/></g><rect x="394.302" y="307.307" width="67.145" height="26.205"/><path d="M435.32,290.166c0,-0.527 -0.428,-0.955 -0.956,-0.955l-13.222,0c-0.527,0 -0.955,0.428 -0.955,0.955l0,1.912c0,0.527 0.428,0.956 0.955,0.956l13.222,0c0.528,0 0.956,-0.429 0.956,-0.956l0,-1.912Z"/><rect x="423.851" y="248.908" width="6.452" height="40.94"/><rect x="395.559" y="308.517" width="8.162" height="8.068" style="fill:#ec1f27;"/><clipPath id="_clip5"><rect x="395.559" y="308.517" width="8.162" height="8.068"/></clipPath><g clip-path="url(#_clip5)"><path d="M403.645,305.203l-11.57,11.571l0.847,0.847l11.57,-11.571l-0.847,-0.847Z" style="fill:#fff;"/><path d="M406.742,308.3l-11.571,11.571l0.847,0.847l11.571,-11.571l-0.847,-0.847Z" style="fill:#fff;"/></g><rect x="404.99" y="308.517" width="8.162" height="8.068" style="fill:#ec1f27;"/><clipPath id="_clip6"><rect x="404.99" y="308.517" width="8.162" height="8.068"/></clipPath><g clip-path="url(#_clip6)"><path d="M413.076,305.203l-11.571,11.571l0.847,0.847l11.571,-11.571l-0.847,-0.847Z" style="fill:#fff;"/><path d="M416.172,308.3l-11.57,11.571l0.847,0.847l11.57,-11.571l-0.847,-0.847Z" style="fill:#fff;"/></g><rect x="414.42" y="308.517" width="8.162" height="8.068" style="fill:#ec1f27;"/><clipPath id="_clip7"><rect x="414.42" y="308.517" width="8.162" height="8.068"/></clipPath><g clip-path="url(#_clip7)"><path d="M422.506,305.203l-11.57,11.571l0.847,0.847l11.57,-11.571l-0.847,-0.847Z" style="fill:#fff;"/><path d="M425.603,308.3l-11.571,11.571l0.847,0.847l11.571,-11.571l-0.847,-0.847Z" style="fill:#fff;"/></g><rect x="423.851" y="308.517" width="8.162" height="8.068" style="fill:#ec1f27;"/><clipPath id="_clip8"><rect x="423.851" y="308.517" width="8.162" height="8.068"/></clipPath><g clip-path="url(#_clip8)"><path d="M431.937,305.203l-11.571,11.571l0.847,0.847l11.571,-11.571l-0.847,-0.847Z" style="fill:#fff;"/><path d="M435.033,308.3l-11.57,11.571l0.847,0.847l11.57,-11.571l-0.847,-0.847Z" style="fill:#fff;"/></g><rect x="433.281" y="308.517" width="8.162" height="8.068" style="fill:#ec1f27;"/><clipPath id="_clip9"><rect x="433.281" y="308.517" width="8.162" height="8.068"/></clipPath><g clip-path="url(#_clip9)"><path d="M441.367,305.203l-11.57,11.571l0.847,0.847l11.57,-11.571l-0.847,-0.847Z" style="fill:#fff;"/><path d="M444.464,308.3l-11.571,11.571l0.847,0.847l11.571,-11.571l-0.847,-0.847Z" style="fill:#fff;"/></g><rect x="442.712" y="308.517" width="8.162" height="8.068" style="fill:#ec1f27;"/><clipPath id="_clip10"><rect x="442.712" y="308.517" width="8.162" height="8.068"/></clipPath><g clip-path="url(#_clip10)"><path d="M450.798,305.203l-11.571,11.571l0.847,0.847l11.571,-11.571l-0.847,-0.847Z" style="fill:#fff;"/><path d="M453.894,308.3l-11.57,11.571l0.847,0.847l11.57,-11.571l-0.847,-0.847Z" style="fill:#fff;"/></g><rect x="452.142" y="308.517" width="8.162" height="8.068" style="fill:#ec1f27;"/><clipPath id="_clip11"><rect x="452.142" y="308.517" width="8.162" height="8.068"/></clipPath><g clip-path="url(#_clip11)"><path d="M460.228,305.203l-11.57,11.571l0.847,0.847l11.57,-11.571l-0.847,-0.847Z" style="fill:#fff;"/><path d="M463.325,308.3l-11.571,11.571l0.847,0.847l11.571,-11.571l-0.847,-0.847Z" style="fill:#fff;"/></g><path d="M477.496,322.629c0,-2.472 -2.008,-4.48 -4.48,-4.48l-90.004,0c-2.473,0 -4.48,2.008 -4.48,4.48c0,2.473 2.007,4.481 4.48,4.481l90.004,0c2.472,0 4.48,-2.008 4.48,-4.481Z" style="fill:#ec1f27;"/><path d="M394.301,307.211c0,0 1.433,-6.053 5.814,-5.973c4.381,0.079 8.863,-0.239 13.036,-0.239c4.174,0 9.431,-7.965 9.431,-7.965l10.699,0c0,0 2.331,7.726 10.466,7.885c5.506,0.108 9.017,0.039 11.406,0.08c4.699,0.079 6.294,6.308 6.294,6.308l-67.146,-0.096Z" style="fill:#fff;"/><path d="M408.497,217.473l-0.067,8.844c0,0 -0.009,1.311 0.759,1.444c0.768,0.133 3.962,0 3.962,0c0,0 3.659,-1.493 7.036,-1.444c3.377,0.05 4.771,1.444 4.771,1.444c0,0 4.802,-4.798 5.973,-5.032c0.731,-0.145 -0.066,-5.853 -0.066,-5.853c0,0 -2.987,2.124 -7.567,2.057c-4.58,-0.066 -7.566,-2.987 -7.566,-6.505c0,-3.517 2.737,-4.579 4.455,-5.31c1.717,-0.73 5.103,-1.261 5.103,-1.261c0,0 -5.491,0.115 -6.789,0.399c-2.124,0.464 -4.346,2.124 -5.35,3.186c-1.004,1.062 -4.068,4.082 -3.962,5.94c0.11,1.924 4.551,5.905 6.41,5.956c1.858,0.051 6.082,-0.515 8.252,0c2.169,0.516 3.098,1.115 2.832,1.745c-0.265,0.629 -1.683,-0.208 -2.832,-0.354c-1.15,-0.145 -6.924,0.027 -8.186,0c-3.783,-0.079 -7.168,-5.256 -7.168,-5.256Z" style="fill:#ec1f27;"/><path d="M407.169,227.761c0,0 -13.142,-1.991 -15,-14.005c-0.548,-3.542 4.855,-7.946 7.471,-8.562c3.988,-0.94 8.013,0.796 8.567,0.464c0.555,-0.332 7.656,-2.592 13.365,-2.655c6.705,-0.073 10.44,3.253 10.44,3.253c0,0 -10.865,-3.671 -16.746,0.398c-5.602,3.876 -7.831,7.268 -7.964,11.449c-0.06,1.9 -0.133,9.658 -0.133,9.658Z" style="fill:#ec1f27;"/><path d="M434.842,222.729c0,0 5.277,-0.12 10.156,-3.705c4.878,-3.584 6.67,-8.811 6.67,-8.811c0,0 0.864,6.712 0.474,8.712c-0.276,1.415 -1.469,2.638 -2.565,3.584c-1.095,0.946 -2.568,1.424 -3.932,1.784c-2.216,0.584 -7.766,0.996 -10.803,-1.564Z" style="fill:#ec1f27;"/><path d="M426.214,250.527c-3.85,0.133 -13.525,-8.363 -19.706,-11.15c-5.964,-2.69 -13.062,-15.267 -10.949,-14.603c2.113,0.664 7.291,4.646 11.804,4.646c4.514,0 7.806,-1.46 11.138,-1.725c3.332,-0.266 4.181,-0.797 5.35,0.531c1.168,1.327 -1.184,2.256 -1.269,4.38c-0.085,2.124 1.823,14.603 2.354,14.735c0.531,0.133 1.456,0.006 1.075,-1.543c-0.33,-1.345 -0.838,-3.334 -1.258,-5.525c-0.431,-2.251 -0.796,-3.676 -0.504,-7.252c0.289,-3.534 2.074,-4.497 3.056,-5.426c0.983,-0.929 2.358,-3.302 4.259,-3.302c1.901,0 4.441,1.266 6.395,1.825c3.127,0.895 8.019,0.111 9.281,-0.166c1.559,-0.341 0.479,0.78 -2.041,5.194c-3.87,6.781 -14.738,19.514 -18.985,19.381" style="fill:#ec1f27;"/><path d="M439.09,220.128c0,0 2.191,-2.19 1.129,-5.974c-1.062,-3.783 -3.293,-4.912 -4.899,-6.305c-1.606,-1.394 -5.921,-5.111 -10.699,-5.974c-4.65,-0.84 -13.141,1.726 -15.432,2.124c-2.29,0.398 -3.22,-0.133 -3.22,-0.133c0,0 0.531,-0.133 2.058,-0.995c1.526,-0.863 6.167,-5.738 16.594,-7.7c5.631,-1.059 13.768,3.103 15.332,4.248c2.721,1.991 2.759,4.605 2.759,4.605c0,0 7.217,0.414 8.161,4.626c0.209,0.932 -2.413,6.367 -4.742,7.86c-2.421,1.554 -7.041,3.618 -7.041,3.618Z" style="fill:#ec1f27;"/><path d="M429.63,212.252c0,0 1.337,2.105 0.913,2.92c-0.424,0.816 -1.966,2.023 -6.692,2.039c-4.727,0.017 -6.896,-2.088 -6.749,-4.698c0.147,-2.61 1.598,-3.425 3.278,-4.061c1.267,-0.48 4.062,-0.408 4.062,-0.408c0,0 -1.698,0.375 -1.86,1.827c-0.162,1.452 -0.088,4.763 3.504,4.714c3.592,-0.049 3.544,-2.333 3.544,-2.333Z" style="fill:#ec1f27;"/><path d="M426.086,208.468c0,0 2.313,2.202 2.341,2.985c0.028,0.783 -1.072,1.68 -2.341,1.697c-1.269,0.016 -2.671,-1.746 -2.671,-2.333c0,-0.587 0.456,-0.963 1.011,-1.011c0.555,-0.049 0.799,0.619 1.386,0.652c0.588,0.033 0.832,-0.147 0.669,-0.734c-0.163,-0.587 -0.395,-1.256 -0.395,-1.256Z" style="fill:#ec1f27;"/><path d="M432.724,221.655c0,0 5.969,1.317 6.172,-6.273c0.057,-2.114 -2.071,-5.874 -5.615,-7.268c-3.544,-1.394 -7.195,-1.593 -7.195,-1.593c0,0 5.172,3.611 5.926,6.93c0.636,2.797 0.712,8.204 0.712,8.204" style="fill:#ec1f27;"/><path d="M423.393,342.99l5.974,0l0.082,40.479c0,0 0.711,7.895 7.087,7.842c5.727,-0.049 6.978,-7.814 6.978,-7.814l0.19,-40.507l5.708,0l0.929,114.297l12.744,142.713l-4.513,0l-15.315,-131.892c0,0 -0.847,-10.356 -6.721,-10.556c-6.223,-0.212 -7.641,11.18 -7.641,11.18l-14.263,131.268l-5.443,0l13.806,-143.244l0.398,-113.766Zm20.018,94.021c0.056,-3.644 -2.857,-6.648 -6.501,-6.704c-3.644,-0.056 -6.648,2.857 -6.704,6.501l-0.124,8.06c-0.056,3.644 2.857,6.648 6.501,6.704c3.644,0.056 6.648,-2.857 6.704,-6.501l0.124,-8.06Zm-2.255,-20.09c0.037,-2.411 -1.89,-4.398 -4.301,-4.435c-2.411,-0.037 -4.398,1.89 -4.436,4.301l-0.082,5.333c-0.037,2.411 1.891,4.398 4.302,4.435c2.411,0.038 4.398,-1.89 4.435,-4.301l0.082,-5.333Zm-0.759,-15.19c0,-2.014 -1.635,-3.65 -3.65,-3.65c-2.015,0 -3.651,1.636 -3.651,3.65l0,3.319c0,2.015 1.636,3.651 3.651,3.651c2.015,0 3.65,-1.636 3.65,-3.651l0,-3.319Z" style="fill:#fff;"/><path d="M424.403,267.403c0,0 -3.63,-0.894 -3.962,-1.359c-0.332,-0.465 -0.012,-8.948 0.022,-9.578c0.002,-0.047 1.234,2.443 3.94,3.108c2.45,0.601 0,7.829 0,7.829"/><path d="M397.868,254.828l-3.823,-4.81c0,0 2.931,1.115 3.569,1.019c0.637,-0.095 0.987,3.314 0.254,3.791Z"/><path d="M404.476,269.28l6.264,-4.875c0,0 -3.25,-1.614 -4.301,-1.629c-1.052,-0.015 -6.764,3.668 -6.764,3.668l4.801,2.836Z"/><path d="M398.761,264.801c0,0 5.747,-3.002 5.715,-3.034c-0.032,-0.031 -5.187,-3.549 -5.187,-3.549c0,0 -3.453,0.223 -4.32,0.848c-0.639,0.461 2.103,5.448 3.792,5.735Z"/><path d="M397.104,256.485l-2.676,1.101c0,0 -1.344,-2.218 -1.53,-6.443c-0.016,-0.364 2.422,4.418 4.206,5.342Z"/></g><rect id="waves" x="0.514" y="477.485" width="1440" height="122.515" style="fill:none;"/><clipPath id="_clip12"><rect x="0.514" y="477.485" width="1440" height="122.515"/></clipPath><g clip-path="url(#_clip12)"><path d="M0.025,512.735c85.555,-0.75 93.805,35.25 153.055,34.5c70.495,-0.892 43.5,-33.11 120,-33.805c76.5,-0.695 72,36.805 135,36.805c63,0 54,-36.805 130.5,-36.805c76.5,0 82.354,35.493 128.552,35.493c46.198,0 73.948,-37.688 123.448,-37.688c49.5,0 82.5,37.5 132,37.5c49.5,0 73.5,-37.5 127.5,-37.5c54,0 78,39 132,39c54,0 75.375,-38.437 126.375,-38.437c51,0 86.516,38.437 131.57,39.937c0.224,0.008 0.385,15.002 0,15c-50.21,-0.174 -86.007,-36.562 -129.882,-37.125c-51.018,-0.654 -71.063,35.625 -125.063,35.625c-54,0 -79.5,-39 -130.5,-39c-51,0 -75,39 -127.5,39c-52.5,0 -81,-36 -130.5,-36c-49.5,0 -85.5,39 -129,39c-43.5,0 -79.5,-36 -129,-36c-49.5,0 -87,34.5 -133.5,34.5c-46.5,0 -67.5,-36 -132,-36c-64.5,0 -72,37.5 -118.5,37.5c-46.5,0 -96.109,-37.5 -154.555,-37.5c-0.32,0 -0.429,-17.996 0,-18Z" style="stroke:#fff;stroke-width:2px;"/><path d="M0.025,528.985c85.555,-0.75 93.805,35.25 153.055,34.5c70.495,-0.892 43.5,-33.11 120,-33.805c76.5,-0.695 72,36.805 135,36.805c63,0 54,-36.805 130.5,-36.805c76.5,0 82.354,35.493 128.552,35.493c46.198,0 73.948,-37.688 123.448,-37.688c49.5,0 82.5,37.5 132,37.5c49.5,0 73.5,-37.5 127.5,-37.5c54,0 78,39 132,39c54,0 75.375,-38.437 126.375,-38.437c51,0 86.516,38.437 131.57,39.937c0.224,0.008 0.385,15.002 0,15c-50.21,-0.174 -86.007,-36.562 -129.882,-37.125c-51.018,-0.654 -71.063,35.625 -125.063,35.625c-54,0 -79.5,-39 -130.5,-39c-51,0 -75,39 -127.5,39c-52.5,0 -81,-36 -130.5,-36c-49.5,0 -85.5,39 -129,39c-43.5,0 -79.5,-36 -129,-36c-49.5,0 -87,34.5 -133.5,34.5c-46.5,0 -67.5,-36 -132,-36c-64.5,0 -72,37.5 -118.5,37.5c-46.5,0 -96.109,-37.5 -154.555,-37.5c-0.32,0 -0.429,-17.996 0,-18Z" style="stroke:#fff;stroke-width:2px;"/><path d="M0.025,545.235c85.555,-0.75 93.805,35.25 153.055,34.5c70.495,-0.892 43.5,-33.11 120,-33.805c76.5,-0.695 72,36.805 135,36.805c63,0 54,-36.805 130.5,-36.805c76.5,0 82.354,35.493 128.552,35.493c46.198,0 73.948,-37.688 123.448,-37.688c49.5,0 82.5,37.5 132,37.5c49.5,0 73.5,-37.5 127.5,-37.5c54,0 78,39 132,39c54,0 75.375,-38.437 126.375,-38.437c51,0 86.516,38.437 131.57,39.937c0.224,0.008 0.385,15.002 0,15c-50.21,-0.174 -86.007,-36.562 -129.882,-37.125c-51.018,-0.654 -71.063,35.625 -125.063,35.625c-54,0 -79.5,-39 -130.5,-39c-51,0 -75,39 -127.5,39c-52.5,0 -81,-36 -130.5,-36c-49.5,0 -85.5,39 -129,39c-43.5,0 -79.5,-36 -129,-36c-49.5,0 -87,34.5 -133.5,34.5c-46.5,0 -67.5,-36 -132,-36c-64.5,0 -72,37.5 -118.5,37.5c-46.5,0 -96.109,-37.5 -154.555,-37.5c-0.32,0 -0.429,-17.996 0,-18Z" style="stroke:#fff;stroke-width:2px;"/><path d="M0.025,561.485c85.555,-0.75 93.805,35.25 153.055,34.5c70.495,-0.892 43.5,-33.11 120,-33.805c76.5,-0.695 72,36.805 135,36.805c63,0 54,-36.805 130.5,-36.805c76.5,0 82.354,35.493 128.552,35.493c46.198,0 73.948,-37.688 123.448,-37.688c49.5,0 82.5,37.5 132,37.5c49.5,0 73.5,-37.5 127.5,-37.5c54,0 78,39 132,39c54,0 75.375,-38.437 126.375,-38.437c51,0 86.516,38.437 131.57,39.937c0.224,0.008 0.385,15.002 0,15c-50.21,-0.174 -86.007,-36.562 -129.882,-37.125c-51.018,-0.654 -71.063,35.625 -125.063,35.625c-54,0 -79.5,-39 -130.5,-39c-51,0 -75,39 -127.5,39c-52.5,0 -81,-36 -130.5,-36c-49.5,0 -85.5,39 -129,39c-43.5,0 -79.5,-36 -129,-36c-49.5,0 -87,34.5 -133.5,34.5c-46.5,0 -67.5,-36 -132,-36c-64.5,0 -72,37.5 -118.5,37.5c-46.5,0 -96.109,-37.5 -154.555,-37.5c-0.32,0 -0.429,-17.996 0,-18Z" style="stroke:#fff;stroke-width:2px;"/><path d="M0.025,577.735c85.555,-0.75 93.805,35.25 153.055,34.5c70.495,-0.892 43.5,-33.11 120,-33.805c76.5,-0.695 72,36.805 135,36.805c63,0 54,-36.805 130.5,-36.805c76.5,0 82.354,35.493 128.552,35.493c46.198,0 73.948,-37.688 123.448,-37.688c49.5,0 82.5,37.5 132,37.5c49.5,0 73.5,-37.5 127.5,-37.5c54,0 78,39 132,39c54,0 75.375,-38.437 126.375,-38.437c51,0 86.516,38.437 131.57,39.937c0.224,0.008 0.385,15.002 0,15c-50.21,-0.174 -86.007,-36.562 -129.882,-37.125c-51.018,-0.654 -71.063,35.625 -125.063,35.625c-54,0 -79.5,-39 -130.5,-39c-51,0 -75,39 -127.5,39c-52.5,0 -81,-36 -130.5,-36c-49.5,0 -85.5,39 -129,39c-43.5,0 -79.5,-36 -129,-36c-49.5,0 -87,34.5 -133.5,34.5c-46.5,0 -67.5,-36 -132,-36c-64.5,0 -72,37.5 -118.5,37.5c-46.5,0 -96.109,-37.5 -154.555,-37.5c-0.32,0 -0.429,-17.996 0,-18Z" style="stroke:#fff;stroke-width:2px;"/><path d="M0.025,593.985c85.555,-0.75 93.805,35.25 153.055,34.5c70.495,-0.892 43.5,-33.11 120,-33.805c76.5,-0.695 72,36.805 135,36.805c63,0 54,-36.805 130.5,-36.805c76.5,0 82.354,35.493 128.552,35.493c46.198,0 73.948,-37.688 123.448,-37.688c49.5,0 82.5,37.5 132,37.5c49.5,0 73.5,-37.5 127.5,-37.5c54,0 78,39 132,39c54,0 75.375,-38.437 126.375,-38.437c51,0 86.516,38.437 131.57,39.937c0.224,0.008 0.385,15.002 0,15c-50.21,-0.174 -86.007,-36.562 -129.882,-37.125c-51.018,-0.654 -71.063,35.625 -125.063,35.625c-54,0 -79.5,-39 -130.5,-39c-51,0 -75,39 -127.5,39c-52.5,0 -81,-36 -130.5,-36c-49.5,0 -85.5,39 -129,39c-43.5,0 -79.5,-36 -129,-36c-49.5,0 -87,34.5 -133.5,34.5c-46.5,0 -67.5,-36 -132,-36c-64.5,0 -72,37.5 -118.5,37.5c-46.5,0 -96.109,-37.5 -154.555,-37.5c-0.32,0 -0.429,-17.996 0,-18Z" style="stroke:#fff;stroke-width:2px;"/><path d="M0.025,496.485c85.555,-0.75 93.805,35.25 153.055,34.5c70.495,-0.892 43.5,-33.11 120,-33.805c76.5,-0.695 72,36.805 135,36.805c63,0 54,-36.805 130.5,-36.805c76.5,0 82.354,35.493 128.552,35.493c46.198,0 73.948,-37.688 123.448,-37.688c49.5,0 82.5,37.5 132,37.5c49.5,0 73.5,-37.5 127.5,-37.5c54,0 78,39 132,39c54,0 75.375,-38.437 126.375,-38.437c51,0 86.516,38.437 131.57,39.937c0.224,0.008 0.385,15.002 0,15c-50.21,-0.174 -86.007,-36.562 -129.882,-37.125c-51.018,-0.654 -71.063,35.625 -125.063,35.625c-54,0 -79.5,-39 -130.5,-39c-51,0 -75,39 -127.5,39c-52.5,0 -81,-36 -130.5,-36c-49.5,0 -85.5,39 -129,39c-43.5,0 -79.5,-36 -129,-36c-49.5,0 -87,34.5 -133.5,34.5c-46.5,0 -67.5,-36 -132,-36c-64.5,0 -72,37.5 -118.5,37.5c-46.5,0 -96.109,-37.5 -154.555,-37.5c-0.32,0 -0.429,-17.996 0,-18Z" style="stroke:#fff;stroke-width:2px;"/><path d="M0.025,481.735c85.555,-0.75 93.805,35.25 153.055,34.5c70.495,-0.892 43.5,-33.11 120,-33.805c76.5,-0.695 72,36.805 135,36.805c63,0 54,-36.805 130.5,-36.805c76.5,0 82.354,35.493 128.552,35.493c46.198,0 73.948,-37.688 123.448,-37.688c49.5,0 82.5,37.5 132,37.5c49.5,0 73.5,-37.5 127.5,-37.5c54,0 78,39 132,39c54,0 75.375,-38.437 126.375,-38.437c51,0 86.516,38.437 131.57,39.937c0.224,0.008 0.385,15.002 0,15c-50.21,-0.174 -86.007,-36.562 -129.882,-37.125c-51.018,-0.654 -71.063,35.625 -125.063,35.625c-54,0 -79.5,-39 -130.5,-39c-51,0 -75,39 -127.5,39c-52.5,0 -81,-36 -130.5,-36c-49.5,0 -85.5,39 -129,39c-43.5,0 -79.5,-36 -129,-36c-49.5,0 -87,34.5 -133.5,34.5c-46.5,0 -67.5,-36 -132,-36c-64.5,0 -72,37.5 -118.5,37.5c-46.5,0 -96.109,-37.5 -154.555,-37.5c-0.32,0 -0.429,-17.996 0,-18Z" style="stroke:#fff;stroke-width:2px;"/></g><path id="cloud" d="M738.309,324.52l21.81,0c-5.224,0 -9.464,-4.241 -9.464,-9.464c0,-5.223 4.24,-9.464 9.464,-9.464l23.468,0c-3.717,-1.277 -6.391,-4.805 -6.391,-8.953c0,-5.224 4.24,-9.464 9.464,-9.465l29.037,0c5.223,0.001 9.464,4.241 9.464,9.465c0,4.148 -2.675,7.676 -6.392,8.953l5.638,0c5.224,0 9.464,4.241 9.464,9.464c0,5.223 -4.241,9.464 -9.464,9.464l1.508,0c5.223,0 9.464,4.241 9.464,9.464c0,5.223 -4.241,9.464 -9.464,9.464l-87.606,0c-5.223,0 -9.464,-4.241 -9.464,-9.464c0,-5.223 4.241,-9.464 9.464,-9.464Z" style="fill:#c2c3c5;"/><path id="cloud1" serif:id="cloud" d="M933.965,197.886l21.809,0c-5.223,0 -9.464,-4.241 -9.464,-9.464c0,-5.223 4.241,-9.464 9.464,-9.464l23.469,0c-3.717,-1.277 -6.392,-4.805 -6.392,-8.953c0,-5.224 4.241,-9.464 9.464,-9.465l29.038,0c5.223,0.001 9.464,4.241 9.464,9.465c0,4.148 -2.675,7.676 -6.392,8.953l5.638,0c5.223,0 9.464,4.241 9.464,9.464c0,5.223 -4.241,9.464 -9.464,9.464l1.507,0c5.224,0 9.464,4.241 9.464,9.464c0,5.223 -4.24,9.464 -9.464,9.464l-87.605,0c-5.223,0 -9.464,-4.241 -9.464,-9.464c0,-5.223 4.241,-9.464 9.464,-9.464Z" style="fill:#c2c3c5;"/></g></svg>