<?xml version="1.0" encoding="UTF-8" standalone="no"?><!DOCTYPE svg PUBLIC "-//W3C//DTD SVG 1.1//EN" "http://www.w3.org/Graphics/SVG/1.1/DTD/svg11.dtd"><svg width="100%" height="100%" viewBox="0 0 1440 810" version="1.1" xmlns="http://www.w3.org/2000/svg" xmlns:xlink="http://www.w3.org/1999/xlink" xml:space="preserve" xmlns:serif="http://www.serif.com/" style="fill-rule:evenodd;clip-rule:evenodd;stroke-linejoin:round;stroke-miterlimit:1.41421;"><rect id="Artboard1" x="0" y="0" width="1440" height="810" style="fill:none;"/><g id="spaceneedle"><path d="M430.9,325.985l11.25,0l0.154,76.233c0,0 1.339,14.869 13.346,14.767c10.786,-0.091 13.143,-14.715 13.143,-14.715l0.357,-76.285l10.75,0l1.75,215.25l24,268.765l-8.5,0l-28.841,-248.386c0,0 -1.596,-19.502 -12.659,-19.879c-11.718,-0.399 -14.388,21.055 -14.388,21.055l-26.862,247.21l-10.25,0l26,-269.765l0.75,-214.25Zm37.699,177.065c0.105,-6.862 -5.381,-12.52 -12.243,-12.625c-6.863,-0.106 -12.52,5.38 -12.626,12.243l-0.233,15.179c-0.106,6.862 5.38,12.519 12.243,12.625c6.862,0.106 12.52,-5.38 12.625,-12.243l0.234,-15.179Zm-4.247,-37.833c0.07,-4.541 -3.56,-8.284 -8.1,-8.354c-4.541,-0.069 -8.284,3.56 -8.354,8.101l-0.154,10.043c-0.07,4.54 3.559,8.283 8.1,8.353c4.541,0.07 8.284,-3.559 8.353,-8.1l0.155,-10.043Zm-1.429,-28.607c0,-3.794 -3.081,-6.875 -6.875,-6.875c-3.795,0 -6.875,3.081 -6.875,6.875l0,6.25c0,3.795 3.08,6.875 6.875,6.875c3.794,0 6.875,-3.08 6.875,-6.875l0,-6.25Z" style="fill:#ec1f27;"/><path d="M443.391,179.17l9.006,4.108c0,0 -8.053,8.875 -11.268,8.54c-3.214,-0.334 -7.714,-2.969 -8.678,-3.634c-0.964,-0.664 8.69,-6.121 10.94,-9.014Z"/><path d="M442.967,174.923c0.117,0.018 1.377,-17.117 1.118,-17.205c-7.091,-2.424 -13.352,-2.377 -13.357,-2.333c-0.35,3.303 1.185,11.021 2.002,14.021c0.816,3 6.42,4.938 10.237,5.517Z"/><path d="M429.012,168.882c0.922,0.077 -9.6,-3.955 -9.715,-7.027c-0.115,-3.072 -0.317,-8.134 -0.192,-8.218c0.705,-0.472 8.712,1.249 8.717,1.421c0.06,2.1 2.534,14.477 2.534,14.477"/><path d="M446.379,191.805c0,0 8.107,-6.689 9.222,-7.263c1.917,-0.987 10.006,4.572 9.601,5.335c-1.768,3.329 -16.465,2.035 -18.823,1.928Z"/><path d="M438.233,463.589c0,0 -13.027,-3.391 -13.946,-3.07c-0.919,0.322 -17.252,12.055 -22.479,12.004c-0.083,-0.001 10.703,6.421 14.149,6.637c3.446,0.217 18.498,-11.751 22.276,-15.571Z"/><path d="M390.016,438.847l-7.83,0.863c0,0 3.342,13.247 5.297,12.669c2.911,-0.861 11.959,-2.082 13.615,-2.267c1.53,-0.17 -11.082,-11.265 -11.082,-11.265Z"/><path d="M404.968,452.392c0,0 -15.029,3.418 -16.1,4.649c-1.072,1.231 6.535,13.063 9.214,13.2c2.679,0.138 21.842,-7.83 21.948,-11.031c0.025,-0.74 -10.533,-2.842 -15.062,-6.818Z"/><path d="M451.458,467.76c0,0 -6.961,-2.992 -8.917,-5.522c-2.205,-2.85 -4.308,-11.578 -4.308,-11.578c0,0 11.613,6.6 14.519,9.6c2.906,3 -1.294,7.5 -1.294,7.5Z"/><path d="M450.689,468.927c0,0 -5.21,-0.872 -8.839,-3.265c-0.069,-0.045 -4.529,4.323 -8.815,7.304c-4.286,2.982 -10.524,6.197 -10.524,6.197c0,0 10.766,-0.494 15.722,-1.801c4.956,-1.307 12.028,-2.334 12.028,-2.334l0.428,-6.101Z"/><path d="M438.233,461.31c0,0 -2.172,-13.05 -5.198,-15.6c-3.027,-2.55 -17.179,-6 -17.078,-6c0.101,0 5.951,14.7 5.951,16.65c0,1.95 12.699,1.65 16.325,4.95Z"/><path d="M412.908,438.51l-11.1,-1.2c0,0 2.85,11.7 4.65,13.2c1.8,1.5 7.067,5.1 11.709,5.25c4.641,0.15 -0.661,-1.591 -2.21,-8.746c-1.549,-7.154 -3.049,-8.504 -3.049,-8.504Z"/><path d="M401.808,445.898c0,0 -2.732,-5.715 -2.552,-8.588c0.18,-2.872 -5.209,-5.452 -6.535,-5.512c-1.325,-0.06 -0.485,4.44 0.835,6.78c1.32,2.34 8.252,7.32 8.252,7.32Z"/><path d="M390.016,434.198c0,0 -0.54,-3.6 -1.2,-4.62c-0.66,-1.02 -6.48,-5.28 -6.48,-5.28c0,0 3.48,5.46 4.26,6.42c0.78,0.96 3.42,3.48 3.42,3.48"/><path d="M386.656,435.358c0,0 -2.52,-2.48 -3.72,-5.36c-1.2,-2.88 -5.22,-7.86 -5.22,-7.86c0,0 0.867,11.393 3.183,13.22c1.977,1.56 5.757,0 5.757,0Z"/><path d="M455.602,161.233c0,0 0.156,19.066 -0.096,19.008c-5.12,-1.168 -9.783,-3.458 -9.744,-4.128c0.204,-3.459 0.266,-13.142 0.144,-17.376c-0.002,-0.086 3.168,-1.152 9.696,2.496Z"/><path d="M487.738,180.089c0,0 13.027,-3.391 13.946,-3.07c0.919,0.322 17.252,12.055 22.478,12.004c0.084,-0.001 -10.703,6.421 -14.149,6.637c-3.446,0.217 -18.498,-11.751 -22.275,-15.571Z"/><path d="M535.954,155.347l7.83,0.863c0,0 -3.341,13.247 -5.296,12.669c-2.911,-0.861 -11.96,-2.082 -13.615,-2.267c-1.531,-0.17 11.081,-11.265 11.081,-11.265Z"/><path d="M521.003,168.892c0,0 15.029,3.418 16.1,4.649c1.071,1.231 -6.536,13.063 -9.214,13.2c-2.679,0.138 -21.843,-7.83 -21.949,-11.031c-0.024,-0.74 10.534,-2.842 15.063,-6.818Z"/><path d="M449.981,515.058l-7.566,-7.65c0,0 -0.078,1.05 7.566,0.45c7.643,-0.6 1.656,6.75 0,7.2Z"/><path d="M492.936,691.308c0,0 8.188,1.95 11.488,-0.9c3.3,-2.85 -7.677,7.2 -11.488,8.85c-3.812,1.65 0,-7.95 0,-7.95Z"/><path d="M449.981,593.808l-7.566,-8.55c0,0 2.622,1.2 7.566,1.05c4.299,-0.131 0,7.5 0,7.5Z"/><path d="M492.936,626.208c4.438,-1.95 8.748,-8.55 8.748,-8.55c0,0 -6.137,0.45 -8.748,0.15c-2.612,-0.3 0,8.4 0,8.4"/><rect x="449.981" y="325.985" width="42.955" height="484.015"/><path d="M474.512,184.26c0,0 6.961,-2.992 8.918,-5.522c2.204,-2.85 4.308,-11.578 4.308,-11.578c0,0 -11.613,6.6 -14.519,9.6c-2.907,3 1.293,7.5 1.293,7.5Z"/><path d="M475.282,185.427c0,0 5.209,-0.872 8.838,-3.265c0.07,-0.045 4.53,4.323 8.816,7.304c4.286,2.982 10.524,6.197 10.524,6.197c0,0 -10.766,-0.494 -15.722,-1.801c-4.956,-1.307 -12.028,-2.334 -12.028,-2.334l-0.428,-6.101Z"/><path d="M487.738,177.81c0,0 2.171,-13.05 5.198,-15.6c3.026,-2.55 17.178,-6 17.077,-6c-0.101,0 -5.951,14.7 -5.951,16.65c0,1.95 -12.699,1.65 -16.324,4.95Z"/><path d="M513.062,155.01l11.1,-1.2c0,0 -2.85,11.7 -4.65,13.2c-1.8,1.5 -7.067,5.1 -11.708,5.25c-4.642,0.15 0.66,-1.591 2.209,-8.746c1.549,-7.154 3.049,-8.504 3.049,-8.504Z"/><path d="M524.162,162.398c0,0 2.732,-5.715 2.552,-8.588c-0.18,-2.872 5.21,-5.452 6.535,-5.512c1.325,-0.06 0.485,4.44 -0.835,6.78c-1.32,2.34 -8.252,7.32 -8.252,7.32Z"/><path d="M535.954,150.698c0,0 0.54,-3.6 1.2,-4.62c0.66,-1.02 6.48,-5.28 6.48,-5.28c0,0 -3.48,5.46 -4.26,6.42c-0.78,0.96 -3.42,3.48 -3.42,3.48"/><path d="M539.314,151.858c0,0 2.52,-2.48 3.72,-5.36c1.2,-2.88 5.22,-7.86 5.22,-7.86c0,0 -0.866,11.393 -3.182,13.22c-1.978,1.56 -5.758,0 -5.758,0Z"/><path d="M557.502,316.86c0,-5.036 -4.089,-9.125 -9.125,-9.125l-150.75,0c-5.037,0 -9.125,4.089 -9.125,9.125c0,5.037 4.088,9.125 9.125,9.125l150.75,0c5.036,0 9.125,-4.088 9.125,-9.125Z" style="fill:#fff;"/><clipPath id="_clip1"><path d="M557.502,316.86c0,-5.036 -4.089,-9.125 -9.125,-9.125l-150.75,0c-5.037,0 -9.125,4.089 -9.125,9.125c0,5.037 4.088,9.125 9.125,9.125l150.75,0c5.036,0 9.125,-4.088 9.125,-9.125Z"/></clipPath><g clip-path="url(#_clip1)"><path d="M406.177,299.094l-33.941,33.941l1.591,1.591l33.941,-33.941l-1.591,-1.591Z" style="fill:#ec1f27;"/><path d="M417.614,299.094l-33.941,33.941l1.591,1.591l33.941,-33.941l-1.591,-1.591Z" style="fill:#ec1f27;"/><path d="M429.052,299.094l-33.941,33.941l1.591,1.591l33.941,-33.941l-1.591,-1.591Z" style="fill:#ec1f27;"/><path d="M440.489,299.094l-33.941,33.941l1.591,1.591l33.941,-33.941l-1.591,-1.591Z" style="fill:#ec1f27;"/><path d="M451.927,299.094l-33.941,33.941l1.591,1.591l33.941,-33.941l-1.591,-1.591Z" style="fill:#ec1f27;"/><path d="M463.364,299.094l-33.941,33.941l1.591,1.591l33.941,-33.941l-1.591,-1.591Z" style="fill:#ec1f27;"/><path d="M474.802,299.094l-33.941,33.941l1.591,1.591l33.941,-33.941l-1.591,-1.591Z" style="fill:#ec1f27;"/><path d="M486.239,299.094l-33.941,33.941l1.591,1.591l33.941,-33.941l-1.591,-1.591Z" style="fill:#ec1f27;"/><path d="M497.677,299.094l-33.941,33.941l1.591,1.591l33.941,-33.941l-1.591,-1.591Z" style="fill:#ec1f27;"/><path d="M509.114,299.094l-33.941,33.941l1.591,1.591l33.941,-33.941l-1.591,-1.591Z" style="fill:#ec1f27;"/><path d="M520.552,299.094l-33.941,33.941l1.591,1.591l33.941,-33.941l-1.591,-1.591Z" style="fill:#ec1f27;"/><path d="M531.989,299.094l-33.941,33.941l1.591,1.591l33.941,-33.941l-1.591,-1.591Z" style="fill:#ec1f27;"/><path d="M543.427,299.094l-33.941,33.941l1.591,1.591l33.941,-33.941l-1.591,-1.591Z" style="fill:#ec1f27;"/><path d="M554.864,299.094l-33.941,33.941l1.591,1.591l33.941,-33.941l-1.591,-1.591Z" style="fill:#ec1f27;"/><path d="M566.302,299.094l-33.941,33.941l1.591,1.591l33.941,-33.941l-1.591,-1.591Z" style="fill:#ec1f27;"/><path d="M577.739,299.094l-33.941,33.941l1.591,1.591l33.941,-33.941l-1.591,-1.591Z" style="fill:#ec1f27;"/></g><rect x="408.952" y="258.785" width="126.45" height="49.35"/><path d="M486.199,226.505c0,-0.993 -0.807,-1.8 -1.8,-1.8l-24.9,0c-0.994,0 -1.8,0.807 -1.8,1.8l0,3.6c0,0.994 0.806,1.8 1.8,1.8l24.9,0c0.993,0 1.8,-0.806 1.8,-1.8l0,-3.6Z"/><rect x="464.599" y="148.805" width="12.15" height="77.1"/><rect x="411.319" y="261.065" width="15.37" height="15.195" style="fill:#ec1f27;"/><clipPath id="_clip2"><rect x="411.319" y="261.065" width="15.37" height="15.195"/></clipPath><g clip-path="url(#_clip2)"><path d="M426.547,254.824l-21.791,21.79l1.596,1.595l21.79,-21.79l-1.595,-1.595Z" style="fill:#fff;"/><path d="M432.379,260.656l-21.791,21.79l1.596,1.595l21.79,-21.79l-1.595,-1.595Z" style="fill:#fff;"/></g><rect x="429.079" y="261.065" width="15.37" height="15.195" style="fill:#ec1f27;"/><clipPath id="_clip3"><rect x="429.079" y="261.065" width="15.37" height="15.195"/></clipPath><g clip-path="url(#_clip3)"><path d="M444.307,254.824l-21.791,21.79l1.596,1.595l21.79,-21.79l-1.595,-1.595Z" style="fill:#fff;"/><path d="M450.139,260.656l-21.791,21.79l1.596,1.595l21.79,-21.79l-1.595,-1.595Z" style="fill:#fff;"/></g><rect x="446.839" y="261.065" width="15.37" height="15.195" style="fill:#ec1f27;"/><clipPath id="_clip4"><rect x="446.839" y="261.065" width="15.37" height="15.195"/></clipPath><g clip-path="url(#_clip4)"><path d="M462.067,254.824l-21.791,21.79l1.596,1.595l21.79,-21.79l-1.595,-1.595Z" style="fill:#fff;"/><path d="M467.899,260.656l-21.791,21.79l1.596,1.595l21.79,-21.79l-1.595,-1.595Z" style="fill:#fff;"/></g><rect x="464.599" y="261.065" width="15.37" height="15.195" style="fill:#ec1f27;"/><clipPath id="_clip5"><rect x="464.599" y="261.065" width="15.37" height="15.195"/></clipPath><g clip-path="url(#_clip5)"><path d="M479.827,254.824l-21.791,21.79l1.596,1.595l21.79,-21.79l-1.595,-1.595Z" style="fill:#fff;"/><path d="M485.659,260.656l-21.791,21.79l1.596,1.595l21.79,-21.79l-1.595,-1.595Z" style="fill:#fff;"/></g><rect x="482.359" y="261.065" width="15.37" height="15.195" style="fill:#ec1f27;"/><clipPath id="_clip6"><rect x="482.359" y="261.065" width="15.37" height="15.195"/></clipPath><g clip-path="url(#_clip6)"><path d="M497.587,254.824l-21.791,21.79l1.596,1.595l21.79,-21.79l-1.595,-1.595Z" style="fill:#fff;"/><path d="M503.419,260.656l-21.791,21.79l1.596,1.595l21.79,-21.79l-1.595,-1.595Z" style="fill:#fff;"/></g><rect x="500.119" y="261.065" width="15.37" height="15.195" style="fill:#ec1f27;"/><clipPath id="_clip7"><rect x="500.119" y="261.065" width="15.37" height="15.195"/></clipPath><g clip-path="url(#_clip7)"><path d="M515.347,254.824l-21.791,21.79l1.596,1.595l21.79,-21.79l-1.595,-1.595Z" style="fill:#fff;"/><path d="M521.179,260.656l-21.791,21.79l1.596,1.595l21.79,-21.79l-1.595,-1.595Z" style="fill:#fff;"/></g><rect x="517.879" y="261.065" width="15.37" height="15.195" style="fill:#ec1f27;"/><clipPath id="_clip8"><rect x="517.879" y="261.065" width="15.37" height="15.195"/></clipPath><g clip-path="url(#_clip8)"><path d="M533.107,254.824l-21.791,21.79l1.596,1.595l21.79,-21.79l-1.595,-1.595Z" style="fill:#fff;"/><path d="M538.939,260.656l-21.791,21.79l1.596,1.595l21.79,-21.79l-1.595,-1.595Z" style="fill:#fff;"/></g><path d="M565.627,287.642c0,-4.657 -3.781,-8.438 -8.438,-8.438l-169.5,0c-4.657,0 -8.437,3.781 -8.437,8.438c0,4.656 3.78,8.437 8.437,8.437l169.5,0c4.657,0 8.438,-3.781 8.438,-8.437Z" style="fill:#ec1f27;"/><path d="M408.949,258.605c0,0 2.7,-11.4 10.95,-11.25c8.25,0.15 16.69,-0.45 24.55,-0.45c7.86,0 17.76,-15 17.76,-15l20.15,0c0,0 4.39,14.55 19.71,14.85c10.368,0.203 16.98,0.074 21.48,0.15c8.85,0.15 11.853,11.88 11.853,11.88l-126.453,-0.18Z" style="fill:#fff;"/><path d="M435.684,89.605l-0.125,16.657c0,0 -0.017,2.468 1.429,2.718c1.446,0.25 7.461,0 7.461,0c0,0 6.89,-2.812 13.25,-2.718c6.36,0.093 8.985,2.718 8.985,2.718c0,0 9.043,-9.035 11.25,-9.475c1.375,-0.275 -0.125,-11.025 -0.125,-11.025c0,0 -5.625,4 -14.25,3.875c-8.625,-0.125 -14.25,-5.625 -14.25,-12.25c0,-6.625 5.155,-8.625 8.39,-10c3.235,-1.375 9.61,-2.375 9.61,-2.375c0,0 -10.34,0.215 -12.785,0.75c-4,0.875 -8.184,4 -10.075,6c-1.89,2 -7.661,7.688 -7.461,11.187c0.206,3.624 8.571,11.122 12.071,11.218c3.5,0.095 11.455,-0.971 15.54,0c4.085,0.97 5.835,2.099 5.335,3.285c-0.5,1.185 -3.17,-0.391 -5.335,-0.665c-2.165,-0.275 -13.039,0.049 -15.415,0c-7.125,-0.15 -13.5,-9.9 -13.5,-9.9Z" style="fill:#ec1f27;"/><path d="M433.184,108.98c0,0 -24.75,-3.75 -28.25,-26.375c-1.032,-6.67 9.143,-14.964 14.07,-16.125c7.511,-1.769 15.09,1.5 16.135,0.875c1.045,-0.625 14.417,-4.882 25.168,-5c12.627,-0.138 19.662,6.125 19.662,6.125c0,0 -20.462,-6.913 -31.537,0.75c-10.55,7.301 -14.748,13.688 -14.998,21.563c-0.114,3.577 -0.25,18.187 -0.25,18.187Z" style="fill:#ec1f27;"/><path d="M485.299,99.505c0,0 9.937,-0.228 19.125,-6.978c9.187,-6.75 12.562,-16.594 12.562,-16.594c0,0 1.627,12.641 0.893,16.407c-0.52,2.665 -2.768,4.968 -4.83,6.75c-2.063,1.781 -4.838,2.682 -7.406,3.359c-4.172,1.1 -14.625,1.877 -20.344,-2.944Z" style="fill:#ec1f27;"/><path d="M469.049,151.855c-7.25,0.25 -25.469,-15.75 -37.11,-21c-11.232,-5.066 -24.6,-28.75 -20.62,-27.5c3.98,1.25 13.73,8.75 22.23,8.75c8.5,0 14.7,-2.75 20.975,-3.25c6.275,-0.5 7.875,-1.5 10.075,1c2.2,2.5 -2.229,4.25 -2.39,8.25c-0.16,4 3.434,27.5 4.434,27.75c1,0.25 2.741,0.011 2.025,-2.906c-0.623,-2.533 -1.579,-6.278 -2.369,-10.406c-0.812,-4.239 -1.501,-6.922 -0.95,-13.656c0.544,-6.657 3.906,-8.469 5.756,-10.219c1.85,-1.75 4.441,-6.219 8.02,-6.219c3.58,0 8.363,2.384 12.044,3.438c5.889,1.685 15.101,0.207 17.479,-0.313c2.935,-0.642 0.901,1.468 -3.844,9.781c-7.289,12.77 -27.755,36.75 -35.755,36.5" style="fill:#ec1f27;"/><path d="M493.299,94.605c0,0 4.125,-4.125 2.125,-11.25c-2,-7.125 -6.2,-9.25 -9.225,-11.875c-3.025,-2.625 -11.15,-9.625 -20.15,-11.25c-8.756,-1.581 -24.747,3.25 -29.061,4c-4.314,0.75 -6.064,-0.25 -6.064,-0.25c0,0 1,-0.25 3.875,-1.875c2.875,-1.625 11.614,-10.805 31.25,-14.5c10.605,-1.995 25.929,5.844 28.875,8c5.125,3.75 5.195,8.672 5.195,8.672c0,0 13.592,0.781 15.37,8.712c0.394,1.755 -4.545,11.991 -8.93,14.804c-4.561,2.925 -13.26,6.812 -13.26,6.812Z" style="fill:#ec1f27;"/><path d="M475.482,79.774c0,0 2.519,3.963 1.72,5.499c-0.798,1.536 -3.703,3.809 -12.603,3.84c-8.901,0.03 -12.986,-3.933 -12.71,-8.848c0.276,-4.915 3.011,-6.451 6.175,-7.649c2.384,-0.903 7.649,-0.768 7.649,-0.768c0,0 -3.198,0.706 -3.504,3.441c-0.305,2.734 -0.166,8.97 6.6,8.878c6.765,-0.093 6.673,-4.393 6.673,-4.393Z" style="fill:#ec1f27;"/><path d="M468.809,72.647c0,0 4.356,4.147 4.409,5.621c0.052,1.475 -2.02,3.165 -4.409,3.195c-2.389,0.031 -5.031,-3.287 -5.031,-4.393c0,-1.106 0.86,-1.812 1.904,-1.904c1.045,-0.092 1.506,1.167 2.611,1.228c1.106,0.062 1.567,-0.276 1.26,-1.382c-0.307,-1.106 -0.744,-2.365 -0.744,-2.365Z" style="fill:#ec1f27;"/><path d="M481.309,97.48c0,0 11.242,2.482 11.625,-11.813c0.106,-3.981 -3.9,-11.062 -10.575,-13.687c-6.675,-2.625 -13.55,-3 -13.55,-3c0,0 9.74,6.8 11.16,13.05c1.197,5.268 1.34,15.45 1.34,15.45" style="fill:#ec1f27;"/><path d="M463.738,325.985l11.25,0l0.154,76.233c0,0 1.339,14.869 13.346,14.767c10.786,-0.091 13.143,-14.715 13.143,-14.715l0.357,-76.285l10.75,0l1.75,215.25l24,268.765l-8.5,0l-28.842,-248.386c0,0 -1.595,-19.502 -12.658,-19.879c-11.718,-0.399 -14.388,21.055 -14.388,21.055l-26.862,247.21l-10.25,0l26,-269.765l0.75,-214.25Zm37.699,177.065c0.105,-6.862 -5.381,-12.52 -12.243,-12.625c-6.863,-0.106 -12.52,5.38 -12.626,12.243l-0.233,15.179c-0.106,6.862 5.38,12.519 12.243,12.625c6.862,0.106 12.52,-5.38 12.625,-12.243l0.234,-15.179Zm-4.247,-37.833c0.07,-4.541 -3.56,-8.284 -8.1,-8.354c-4.541,-0.069 -8.284,3.56 -8.354,8.101l-0.154,10.043c-0.07,4.54 3.559,8.283 8.1,8.353c4.541,0.07 8.284,-3.559 8.353,-8.1l0.155,-10.043Zm-1.429,-28.607c0,-3.794 -3.081,-6.875 -6.875,-6.875c-3.795,0 -6.875,3.081 -6.875,6.875l0,6.25c0,3.795 3.08,6.875 6.875,6.875c3.794,0 6.875,-3.08 6.875,-6.875l0,-6.25Z" style="fill:#fff;"/><path d="M465.639,183.636c0,0 -6.836,-1.684 -7.461,-2.559c-0.625,-0.875 -0.022,-16.851 0.04,-18.037c0.005,-0.09 2.325,4.6 7.421,5.852c4.615,1.133 0,14.744 0,14.744"/><path d="M415.668,159.955l-7.2,-9.06c0,0 5.52,2.1 6.72,1.92c1.2,-0.18 1.86,6.24 0.48,7.14Z"/><path d="M428.112,187.171l11.796,-9.18c0,0 -6.12,-3.04 -8.1,-3.068c-1.98,-0.028 -12.737,6.908 -12.737,6.908l9.041,5.34Z"/><path d="M417.348,178.735c0,0 10.824,-5.652 10.764,-5.712c-0.06,-0.06 -9.768,-6.684 -9.768,-6.684c0,0 -6.504,0.42 -8.136,1.596c-1.204,0.868 3.96,10.26 7.14,10.8Z"/><path d="M414.228,163.075l-5.04,2.073c0,0 -2.53,-4.177 -2.88,-12.133c-0.03,-0.686 4.56,8.32 7.92,10.06Z"/></g></svg>