<?xml version="1.0" encoding="UTF-8" standalone="no"?><!DOCTYPE svg PUBLIC "-//W3C//DTD SVG 1.1//EN" "http://www.w3.org/Graphics/SVG/1.1/DTD/svg11.dtd"><svg width="100%" height="100%" viewBox="0 0 960 415" version="1.1" xmlns="http://www.w3.org/2000/svg" xmlns:xlink="http://www.w3.org/1999/xlink" xml:space="preserve" xmlns:serif="http://www.serif.com/" style="fill-rule:evenodd;clip-rule:evenodd;stroke-linejoin:round;stroke-miterlimit:1.41421;"><path d="M67,311.398l36.381,-56.909l-25.203,0.667l39.339,-41.989l-18.937,-0.334l50.174,-52.333l47.14,52.667l-17.236,0.051l16.869,13.068l20.337,-33.738l-23.537,0.8l37.705,-39.973l-17.769,-0.333l48.24,-50.006l48.206,49.139l-19.636,-0.266l17.636,18.403l20.47,-34.439l-22.903,-1l37.705,-40.472l-18.669,-0.4l47.806,-47.907l49.074,48.107l-18.403,-0.567l20.703,20.703l20.37,-35.339l-21.17,-0.333l34.305,-37.038l-14.569,-0.233l38.572,-41.394l42.206,41.86l-15.469,-0.333l32.871,36.605l-19.736,0.167l23.003,32.204l15.97,-15.702l-18.836,-0.467l48.206,-48.939l49.007,48.739l-19.336,0.1l40.138,41.072l-26.237,-1.266l22.037,35.238l15.969,-16.336l-18.302,0.4l48.773,-49.973l49.573,48.906l-20.636,0.534l39.106,38.972l-22.237,0.767l21.636,36.472l14.769,-16.902l-18.268,0.382l47.54,-49.055l49.773,50.388l-19.836,0l38.672,38.456l-23.437,0.967l36.081,60.175c0,0 -259.645,6.436 -413,7.569c-153.355,1.133 -413,-9.602 -413,-9.602Z" style="fill:#ec2326;"/></svg>