<?xml version="1.0" encoding="UTF-8" standalone="no"?><!DOCTYPE svg PUBLIC "-//W3C//DTD SVG 1.1//EN" "http://www.w3.org/Graphics/SVG/1.1/DTD/svg11.dtd"><svg width="100%" height="100%" viewBox="0 0 1440 810" version="1.1" xmlns="http://www.w3.org/2000/svg" xmlns:xlink="http://www.w3.org/1999/xlink" xml:space="preserve" xmlns:serif="http://www.serif.com/" style="fill-rule:evenodd;clip-rule:evenodd;stroke-linecap:round;stroke-linejoin:round;stroke-miterlimit:1.5;"><rect id="Artboard1" x="0" y="0" width="1440" height="810" style="fill:none;"/><clipPath id="_clip1"><rect x="0" y="0" width="1440" height="810"/></clipPath><g clip-path="url(#_clip1)"><rect id="waves" x="0.514" y="687.485" width="1440" height="122.515" style="fill:none;"/><clipPath id="_clip2"><rect x="0.514" y="687.485" width="1440" height="122.515"/></clipPath><g clip-path="url(#_clip2)"><path d="M0.025,722.735c85.555,-0.75 93.805,35.25 153.055,34.5c70.495,-0.892 43.5,-33.11 120,-33.805c76.5,-0.695 72,36.805 135,36.805c63,0 54,-36.805 130.5,-36.805c76.5,0 82.354,35.493 128.552,35.493c46.198,0 73.948,-37.688 123.448,-37.688c49.5,0 82.5,37.5 132,37.5c49.5,0 73.5,-37.5 127.5,-37.5c54,0 78,39 132,39c54,0 75.375,-38.437 126.375,-38.437c51,0 86.516,38.437 131.57,39.937c0.224,0.008 0.385,15.002 0,15c-50.21,-0.174 -86.007,-36.562 -129.882,-37.125c-51.018,-0.654 -71.063,35.625 -125.063,35.625c-54,0 -79.5,-39 -130.5,-39c-51,0 -75,39 -127.5,39c-52.5,0 -81,-36 -130.5,-36c-49.5,0 -85.5,39 -129,39c-43.5,0 -79.5,-36 -129,-36c-49.5,0 -87,34.5 -133.5,34.5c-46.5,0 -67.5,-36 -132,-36c-64.5,0 -72,37.5 -118.5,37.5c-46.5,0 -96.109,-37.5 -154.555,-37.5c-0.32,0 -0.429,-17.996 0,-18Z" style="stroke:#fff;stroke-width:2px;"/><path d="M0.025,738.985c85.555,-0.75 93.805,35.25 153.055,34.5c70.495,-0.892 43.5,-33.11 120,-33.805c76.5,-0.695 72,36.805 135,36.805c63,0 54,-36.805 130.5,-36.805c76.5,0 82.354,35.493 128.552,35.493c46.198,0 73.948,-37.688 123.448,-37.688c49.5,0 82.5,37.5 132,37.5c49.5,0 73.5,-37.5 127.5,-37.5c54,0 78,39 132,39c54,0 75.375,-38.437 126.375,-38.437c51,0 86.516,38.437 131.57,39.937c0.224,0.008 0.385,15.002 0,15c-50.21,-0.174 -86.007,-36.562 -129.882,-37.125c-51.018,-0.654 -71.063,35.625 -125.063,35.625c-54,0 -79.5,-39 -130.5,-39c-51,0 -75,39 -127.5,39c-52.5,0 -81,-36 -130.5,-36c-49.5,0 -85.5,39 -129,39c-43.5,0 -79.5,-36 -129,-36c-49.5,0 -87,34.5 -133.5,34.5c-46.5,0 -67.5,-36 -132,-36c-64.5,0 -72,37.5 -118.5,37.5c-46.5,0 -96.109,-37.5 -154.555,-37.5c-0.32,0 -0.429,-17.996 0,-18Z" style="stroke:#fff;stroke-width:2px;"/><path d="M0.025,755.235c85.555,-0.75 93.805,35.25 153.055,34.5c70.495,-0.892 43.5,-33.11 120,-33.805c76.5,-0.695 72,36.805 135,36.805c63,0 54,-36.805 130.5,-36.805c76.5,0 82.354,35.493 128.552,35.493c46.198,0 73.948,-37.688 123.448,-37.688c49.5,0 82.5,37.5 132,37.5c49.5,0 73.5,-37.5 127.5,-37.5c54,0 78,39 132,39c54,0 75.375,-38.437 126.375,-38.437c51,0 86.516,38.437 131.57,39.937c0.224,0.008 0.385,15.002 0,15c-50.21,-0.174 -86.007,-36.562 -129.882,-37.125c-51.018,-0.654 -71.063,35.625 -125.063,35.625c-54,0 -79.5,-39 -130.5,-39c-51,0 -75,39 -127.5,39c-52.5,0 -81,-36 -130.5,-36c-49.5,0 -85.5,39 -129,39c-43.5,0 -79.5,-36 -129,-36c-49.5,0 -87,34.5 -133.5,34.5c-46.5,0 -67.5,-36 -132,-36c-64.5,0 -72,37.5 -118.5,37.5c-46.5,0 -96.109,-37.5 -154.555,-37.5c-0.32,0 -0.429,-17.996 0,-18Z" style="stroke:#fff;stroke-width:2px;"/><path d="M0.025,771.485c85.555,-0.75 93.805,35.25 153.055,34.5c70.495,-0.892 43.5,-33.11 120,-33.805c76.5,-0.695 72,36.805 135,36.805c63,0 54,-36.805 130.5,-36.805c76.5,0 82.354,35.493 128.552,35.493c46.198,0 73.948,-37.688 123.448,-37.688c49.5,0 82.5,37.5 132,37.5c49.5,0 73.5,-37.5 127.5,-37.5c54,0 78,39 132,39c54,0 75.375,-38.437 126.375,-38.437c51,0 86.516,38.437 131.57,39.937c0.224,0.008 0.385,15.002 0,15c-50.21,-0.174 -86.007,-36.562 -129.882,-37.125c-51.018,-0.654 -71.063,35.625 -125.063,35.625c-54,0 -79.5,-39 -130.5,-39c-51,0 -75,39 -127.5,39c-52.5,0 -81,-36 -130.5,-36c-49.5,0 -85.5,39 -129,39c-43.5,0 -79.5,-36 -129,-36c-49.5,0 -87,34.5 -133.5,34.5c-46.5,0 -67.5,-36 -132,-36c-64.5,0 -72,37.5 -118.5,37.5c-46.5,0 -96.109,-37.5 -154.555,-37.5c-0.32,0 -0.429,-17.996 0,-18Z" style="stroke:#fff;stroke-width:2px;"/><path d="M0.025,787.735c85.555,-0.75 93.805,35.25 153.055,34.5c70.495,-0.892 43.5,-33.11 120,-33.805c76.5,-0.695 72,36.805 135,36.805c63,0 54,-36.805 130.5,-36.805c76.5,0 82.354,35.493 128.552,35.493c46.198,0 73.948,-37.688 123.448,-37.688c49.5,0 82.5,37.5 132,37.5c49.5,0 73.5,-37.5 127.5,-37.5c54,0 78,39 132,39c54,0 75.375,-38.437 126.375,-38.437c51,0 86.516,38.437 131.57,39.937c0.224,0.008 0.385,15.002 0,15c-50.21,-0.174 -86.007,-36.562 -129.882,-37.125c-51.018,-0.654 -71.063,35.625 -125.063,35.625c-54,0 -79.5,-39 -130.5,-39c-51,0 -75,39 -127.5,39c-52.5,0 -81,-36 -130.5,-36c-49.5,0 -85.5,39 -129,39c-43.5,0 -79.5,-36 -129,-36c-49.5,0 -87,34.5 -133.5,34.5c-46.5,0 -67.5,-36 -132,-36c-64.5,0 -72,37.5 -118.5,37.5c-46.5,0 -96.109,-37.5 -154.555,-37.5c-0.32,0 -0.429,-17.996 0,-18Z" style="stroke:#fff;stroke-width:2px;"/><path d="M0.025,803.985c85.555,-0.75 93.805,35.25 153.055,34.5c70.495,-0.892 43.5,-33.11 120,-33.805c76.5,-0.695 72,36.805 135,36.805c63,0 54,-36.805 130.5,-36.805c76.5,0 82.354,35.493 128.552,35.493c46.198,0 73.948,-37.688 123.448,-37.688c49.5,0 82.5,37.5 132,37.5c49.5,0 73.5,-37.5 127.5,-37.5c54,0 78,39 132,39c54,0 75.375,-38.437 126.375,-38.437c51,0 86.516,38.437 131.57,39.937c0.224,0.008 0.385,15.002 0,15c-50.21,-0.174 -86.007,-36.562 -129.882,-37.125c-51.018,-0.654 -71.063,35.625 -125.063,35.625c-54,0 -79.5,-39 -130.5,-39c-51,0 -75,39 -127.5,39c-52.5,0 -81,-36 -130.5,-36c-49.5,0 -85.5,39 -129,39c-43.5,0 -79.5,-36 -129,-36c-49.5,0 -87,34.5 -133.5,34.5c-46.5,0 -67.5,-36 -132,-36c-64.5,0 -72,37.5 -118.5,37.5c-46.5,0 -96.109,-37.5 -154.555,-37.5c-0.32,0 -0.429,-17.996 0,-18Z" style="stroke:#fff;stroke-width:2px;"/><path d="M0.025,706.485c85.555,-0.75 93.805,35.25 153.055,34.5c70.495,-0.892 43.5,-33.11 120,-33.805c76.5,-0.695 72,36.805 135,36.805c63,0 54,-36.805 130.5,-36.805c76.5,0 82.354,35.493 128.552,35.493c46.198,0 73.948,-37.688 123.448,-37.688c49.5,0 82.5,37.5 132,37.5c49.5,0 73.5,-37.5 127.5,-37.5c54,0 78,39 132,39c54,0 75.375,-38.437 126.375,-38.437c51,0 86.516,38.437 131.57,39.937c0.224,0.008 0.385,15.002 0,15c-50.21,-0.174 -86.007,-36.562 -129.882,-37.125c-51.018,-0.654 -71.063,35.625 -125.063,35.625c-54,0 -79.5,-39 -130.5,-39c-51,0 -75,39 -127.5,39c-52.5,0 -81,-36 -130.5,-36c-49.5,0 -85.5,39 -129,39c-43.5,0 -79.5,-36 -129,-36c-49.5,0 -87,34.5 -133.5,34.5c-46.5,0 -67.5,-36 -132,-36c-64.5,0 -72,37.5 -118.5,37.5c-46.5,0 -96.109,-37.5 -154.555,-37.5c-0.32,0 -0.429,-17.996 0,-18Z" style="stroke:#fff;stroke-width:2px;"/><path d="M0.025,691.735c85.555,-0.75 93.805,35.25 153.055,34.5c70.495,-0.892 43.5,-33.11 120,-33.805c76.5,-0.695 72,36.805 135,36.805c63,0 54,-36.805 130.5,-36.805c76.5,0 82.354,35.493 128.552,35.493c46.198,0 73.948,-37.688 123.448,-37.688c49.5,0 82.5,37.5 132,37.5c49.5,0 73.5,-37.5 127.5,-37.5c54,0 78,39 132,39c54,0 75.375,-38.437 126.375,-38.437c51,0 86.516,38.437 131.57,39.937c0.224,0.008 0.385,15.002 0,15c-50.21,-0.174 -86.007,-36.562 -129.882,-37.125c-51.018,-0.654 -71.063,35.625 -125.063,35.625c-54,0 -79.5,-39 -130.5,-39c-51,0 -75,39 -127.5,39c-52.5,0 -81,-36 -130.5,-36c-49.5,0 -85.5,39 -129,39c-43.5,0 -79.5,-36 -129,-36c-49.5,0 -87,34.5 -133.5,34.5c-46.5,0 -67.5,-36 -132,-36c-64.5,0 -72,37.5 -118.5,37.5c-46.5,0 -96.109,-37.5 -154.555,-37.5c-0.32,0 -0.429,-17.996 0,-18Z" style="stroke:#fff;stroke-width:2px;"/></g></g></svg>