<?xml version="1.0" encoding="UTF-8" standalone="no"?><!DOCTYPE svg PUBLIC "-//W3C//DTD SVG 1.1//EN" "http://www.w3.org/Graphics/SVG/1.1/DTD/svg11.dtd"><svg width="100%" height="100%" viewBox="0 0 625 625" version="1.1" xmlns="http://www.w3.org/2000/svg" xmlns:xlink="http://www.w3.org/1999/xlink" xml:space="preserve" style="fill-rule:evenodd;clip-rule:evenodd;stroke-linejoin:round;stroke-miterlimit:1.41421;"><circle cx="312.5" cy="312.5" r="308.333" style="fill:#fff;"/><path id="r" d="M417.41,177.616l0,19.983l54.953,0l0,249.785l-319.726,0l0,-249.785l54.953,0l0,-19.983l39.966,0l0,19.983l129.888,0l0,-19.983l39.966,0Zm-29.974,9.991l0,29.974l19.983,0l0,-29.974l-19.983,0Zm-169.855,0l0,29.974l19.983,0l0,-29.974l-19.983,0Zm-54.952,249.786l299.742,0l0,-189.837l-299.742,0l0,189.837Zm299.742,-229.803l-44.961,0l0,19.983l-39.966,0l0,-19.983l-129.888,0l0,19.983l-39.966,0l0,-19.983l-44.961,0l0,29.974l299.742,0l0,-29.974Zm-264.772,119.897l0,-59.948l59.948,0l0,59.948l-59.948,0Zm9.991,-49.957l0,39.966l39.966,0l0,-39.966l-39.966,0Zm-9.991,139.88l0,-59.949l59.948,0l0,59.949l-59.948,0Zm9.991,-49.957l0,39.966l39.966,0l0,-39.966l-39.966,0Zm159.863,-39.966l0,-59.948l59.948,0l0,59.948l-59.948,0Zm9.991,-49.957l0,39.966l39.966,0l0,-39.966l-39.966,0Zm-9.991,139.88l0,-59.949l59.948,0l0,59.949l-59.948,0Zm9.991,-49.957l0,39.966l39.966,0l0,-39.966l-39.966,0Zm-94.918,-39.966l0,-59.948l59.948,0l0,59.948l-59.948,0Zm9.991,-49.957l0,39.966l39.966,0l0,-39.966l-39.966,0Zm-9.991,139.88l0,-59.949l59.948,0l0,59.949l-59.948,0Zm9.991,-49.957l0,39.966l39.966,0l0,-39.966l-39.966,0Z" style="fill:#231f20;"/></svg>