<?xml version="1.0" encoding="UTF-8" standalone="no"?>
<!DOCTYPE svg PUBLIC "-//W3C//DTD SVG 1.1//EN" "http://www.w3.org/Graphics/SVG/1.1/DTD/svg11.dtd">
<svg width="100%" height="100%" viewBox="0 0 150 150" version="1.1" xmlns="http://www.w3.org/2000/svg" xmlns:xlink="http://www.w3.org/1999/xlink" xml:space="preserve" style="fill-rule:evenodd;clip-rule:evenodd;stroke-linejoin:round;stroke-miterlimit:1.41421;">
    <g transform="matrix(0.991957,0,0,0.991957,1,1)">
        <circle cx="74.6" cy="74.6" r="74.6" style="fill:rgb(236,31,39);"/>
    </g>
    <g id="dsa.-rose.-mark" transform="matrix(0.360577,0,0,0.360577,75,75)">
        <g transform="matrix(1,0,0,1,-133.5,-129)">
            <g>
                <path d="M233.428,195.74C230.179,195.819 201.516,196.541 195.615,198.004C191.427,199.047 183.815,197.201 181.232,196.403C179.913,195.987 178.505,196.729 178.096,198.053C177.684,199.376 178.423,200.781 179.745,201.192C180.091,201.299 186.684,203.323 192.591,203.323C194.084,203.323 195.531,203.195 196.825,202.872C201.364,201.748 224.872,200.963 233.551,200.756C234.933,200.723 236.031,199.573 235.996,198.188C235.964,196.801 234.8,195.72 233.428,195.74Z" style="fill:rgb(36,31,31);fill-rule:nonzero;"/>
                <path d="M228.973,112.449L136.889,116.568" style="fill:rgb(237,31,39);fill-rule:nonzero;"/>
                <path d="M152.344,115.176L165.152,87.66" style="fill:rgb(237,31,39);fill-rule:nonzero;"/>
                <path d="M165.152,115.303L186.641,88.283" style="fill:rgb(237,31,39);fill-rule:nonzero;"/>
                <path d="M186.641,114.341L201.52,92.785" style="fill:rgb(237,31,39);fill-rule:nonzero;"/>
                <path d="M203.893,113.571L212.287,98.337" style="fill:rgb(237,31,39);fill-rule:nonzero;"/>
                <path d="M203.893,113.571L214.163,127.372" style="fill:rgb(237,31,39);fill-rule:nonzero;"/>
                <path d="M186.641,114.341L200.125,136.351" style="fill:rgb(237,31,39);fill-rule:nonzero;"/>
                <path d="M165.152,115.303L174.941,132.797" style="fill:rgb(237,31,39);fill-rule:nonzero;"/>
                <path d="M152.344,115.176L158.619,135.091" style="fill:rgb(237,31,39);fill-rule:nonzero;"/>
                <path d="M48.548,116.568L129.403,116.568" style="fill:rgb(237,31,39);fill-rule:nonzero;"/>
                <path d="M111.435,116.568L101.655,90.421" style="fill:rgb(237,31,39);fill-rule:nonzero;"/>
                <path d="M94.589,116.568L88.976,90.08" style="fill:rgb(237,31,39);fill-rule:nonzero;"/>
                <path d="M78.496,116.568L65.541,99.78" style="fill:rgb(237,31,39);fill-rule:nonzero;"/>
                <path d="M78.496,116.568L65.541,135.429" style="fill:rgb(237,31,39);fill-rule:nonzero;"/>
                <path d="M94.589,116.568L80.301,138.436" style="fill:rgb(237,31,39);fill-rule:nonzero;"/>
                <path d="M111.435,116.568L100.431,135.429" style="fill:rgb(237,31,39);fill-rule:nonzero;"/>
                <path d="M156.355,89.771L158.039,90.163" style="fill:rgb(237,31,39);fill-rule:nonzero;"/>
                <path d="M214.6,123.757L208.729,115.867L223.444,115.208C221.367,117.528 218.393,120.568 214.6,123.757ZM191.004,116.659L202.677,116.137L210.668,126.879C207.8,129.017 204.576,131.125 201.039,133.039L191.004,116.659L191.004,116.659ZM139.397,108.232L139.397,105.599C142.019,103.273 150.831,95.839 160.423,91.883L150.381,113.455L139.397,113.945L139.397,108.232L139.397,108.232ZM133.145,101.981C132.369,101.981 131.635,102.141 130.948,102.4C128.997,100.016 120.921,91.411 104.717,88.401C96.532,75.291 93.823,63.369 96.68,52.964C99.023,44.428 104.707,38.681 108.721,35.527C107.973,43.356 108.605,50.504 110.508,56.975C110.532,57.129 110.589,57.269 110.643,57.417C112.167,62.42 114.44,67.023 117.556,71.155C127.403,84.209 142.492,89.337 150.56,91.236C142.704,95.855 136.693,101.252 135.425,102.424C134.716,102.145 133.952,101.981 133.145,101.981L133.145,101.981ZM122.347,138.497C124.168,137.181 125.669,135.821 126.895,134.515L126.895,141.724C125.995,140.94 124.489,139.756 122.347,138.497ZM52.729,119.077L73.729,119.077L64.887,131.952C58.608,127.492 54.763,122.377 52.729,119.077L52.729,119.077ZM65.065,103.269L73.391,114.06L53.761,114.06C56.253,111.171 60.129,107.108 65.065,103.269L65.065,103.269ZM126.895,108.232L126.895,114.06L113.175,114.06L105.549,93.672C118.56,96.541 125.151,103.299 126.895,105.363L126.895,108.232ZM99.841,92.731L107.819,114.06L96.623,114.06L92.025,92.38C92.375,92.369 92.72,92.349 93.071,92.349C95.475,92.349 97.716,92.496 99.841,92.731ZM87.004,92.88L91.496,114.06L79.728,114.06L69.141,100.34C74.317,96.911 80.364,94.023 87.004,92.88L87.004,92.88ZM76.048,137.841L75.371,137.533C73.104,136.677 71.043,135.689 69.137,134.625L79.816,119.077L89.955,119.077L78.2,137.065C78.175,137.108 78.172,137.156 78.148,137.2C77.453,137.411 76.753,137.623 76.048,137.841ZM85.476,135.103L95.948,119.077L107.068,119.077L98.963,132.972C94.395,133.123 89.999,133.929 85.476,135.103ZM117.099,135.952C113.755,134.631 109.609,133.54 104.683,133.12L112.875,119.077L126.895,119.077L126.895,125.905C126.271,127.255 123.683,132.085 117.111,135.94C117.107,135.944 117.103,135.949 117.099,135.952L117.099,135.952ZM73.892,68.932C73.892,60.012 78.223,53.036 86.759,48.196C89.477,46.655 92.215,45.579 94.513,44.841C93.464,46.888 92.541,49.111 91.861,51.565C88.857,62.427 91.067,74.52 98.392,87.555C96.687,87.42 94.925,87.333 93.071,87.333C88.893,87.333 84.908,87.981 81.151,89.079C76.355,82.928 73.892,76.161 73.892,68.932L73.892,68.932ZM93.356,23.347C97.441,18.323 102.815,15.824 107.743,16.675C110.099,17.083 112.111,18.224 113.673,19.969C113.696,19.999 113.724,20.019 113.747,20.047C114.344,20.727 114.88,21.489 115.336,22.345C114.415,22.897 113.353,23.605 112.479,24.38C110.997,25.699 110.204,27.503 109.807,28.688C107.747,29.895 102.853,33.121 98.499,38.631C96.548,39.021 92.148,40.076 87.307,42.351C87.113,38.055 87.721,30.277 93.356,23.347L93.356,23.347ZM140.072,9.303C151.545,9.303 158.173,15.549 161.107,19.264C155.115,19.161 150.484,20.104 150.092,20.188C150.031,20.2 149.984,20.243 149.924,20.261C149.836,20.287 149.748,20.297 149.661,20.333C149.609,20.355 149.571,20.397 149.52,20.424C149.496,20.436 149.476,20.453 149.455,20.465C149.305,20.545 149.165,20.627 149.039,20.731C148.989,20.772 148.927,20.787 148.879,20.833C147.503,22.157 146.153,23.293 144.824,24.308C142.723,18.931 138.817,15.887 133.707,15.887C126.819,15.887 122.812,19.38 120.715,22.143C120.193,20.784 119.555,19.527 118.791,18.399C121.009,15.589 127.38,9.303 140.072,9.303L140.072,9.303ZM186.129,44.648C186.016,48.113 184.715,51.313 182.372,54.099C179.555,36.901 167.896,29.689 165.44,28.355C164.951,27.217 164.281,26.175 163.421,25.229C163.139,24.919 162.844,24.625 162.535,24.351C167.975,24.621 174.273,25.911 178.868,29.844C183.656,33.945 186.304,39.341 186.129,44.648ZM193.711,70.237C193.711,76.385 190.055,82.277 184.388,85.324C181.677,84.899 178.851,84.6 175.908,84.445C179.761,80.048 183.008,73.027 183.008,61.819C183.008,61.369 182.964,60.961 182.952,60.521C184.561,59.189 185.968,57.735 187.121,56.164C189.613,58.504 193.711,63.389 193.711,70.237ZM213.156,101.959C217.663,104.967 221.116,107.943 223.432,110.185L208.248,110.865L213.156,101.959ZM202.367,95.973C204.696,97.029 206.881,98.147 208.892,99.304L202.377,111.129L191.573,111.611L202.367,95.973L202.367,95.973ZM187.637,91.061C191.207,91.84 194.523,92.857 197.625,94.013L185.285,111.893L170.547,112.552L187.637,91.061ZM132.327,65.587C137.525,65.587 141.908,64.224 145.311,62.571C157.816,56.495 165.44,42.815 166.293,35.013C170.78,38.673 177.992,46.873 177.992,61.819C177.992,72.664 174.601,80.513 168.188,84.52C168.173,84.528 168.168,84.545 168.153,84.552C166.911,84.713 165.669,84.972 164.429,85.284C164.367,85.301 164.305,85.309 164.244,85.333C162.077,85.888 159.928,86.641 157.829,87.54L156.923,87.329C156.876,87.317 156.832,87.333 156.788,87.325C156.735,87.315 156.689,87.285 156.637,87.279C156.411,87.253 133.884,84.508 121.537,68.103C120.135,66.239 118.919,64.264 117.877,62.185C123.189,64.637 128.039,65.587 132.327,65.587L132.327,65.587ZM113.441,41.143C117.313,44.38 123.488,48.519 129.989,48.757C134.217,48.896 137.947,47.449 141.119,44.412C149.635,36.259 152.127,29.173 152.844,25.396C154.899,25.745 157.881,26.588 159.709,28.603C161.011,30.035 161.545,31.879 161.343,34.236C160.861,39.843 154.359,52.599 143.117,58.06C134.453,62.272 125.039,61.227 115.128,54.988C113.941,50.719 113.373,46.101 113.441,41.143L113.441,41.143ZM124.096,26.053C125.228,24.229 128.063,20.903 133.707,20.903C137.6,20.903 139.54,23.965 140.517,27.097C137.107,28.901 133.868,29.64 130.844,29.215C128.027,28.819 125.763,27.467 124.096,26.053L124.096,26.053ZM115.809,28.131C116.359,27.643 117.095,27.149 117.792,26.725C119.788,29.24 123.877,33.273 130.077,34.172C130.911,34.292 131.749,34.353 132.596,34.353C136.969,34.353 141.519,32.705 146.185,29.505C144.727,32.565 142.169,36.464 137.652,40.788C135.467,42.879 133.007,43.844 130.185,43.745C123.229,43.496 116.14,37.012 113.863,34.739C114.009,33.456 114.18,32.161 114.4,30.841C114.487,30.432 114.951,28.897 115.809,28.131L115.809,28.131ZM156.029,113.201L166.903,89.844C168.459,89.527 170.005,89.336 171.515,89.336C175.192,89.336 178.688,89.607 182.016,90.068L163.9,112.848L156.029,113.201ZM231.335,113.253C231.433,112.965 231.484,112.665 231.473,112.365C231.473,112.355 231.48,112.347 231.477,112.339C231.476,112.291 231.449,112.252 231.445,112.204C231.421,111.957 231.363,111.717 231.265,111.484C231.223,111.384 231.167,111.296 231.111,111.201C231.056,111.105 231.023,111 230.953,110.912C230.268,110.029 216.753,93.009 191.124,86.671C195.848,82.472 198.729,76.469 198.729,70.237C198.729,60.643 192.631,54.249 189.657,51.699C190.556,49.512 191.064,47.199 191.143,44.815C191.367,37.975 188.084,31.131 182.131,26.033C177.833,22.356 172.504,20.573 167.427,19.789C167.403,19.731 167.407,19.671 167.377,19.615C167.049,18.989 159.156,4.287 140.072,4.287C126.128,4.287 118.528,10.948 115.333,14.723C113.387,13.213 111.121,12.168 108.593,11.731C101.86,10.563 94.708,13.729 89.463,20.183C81.576,29.884 81.973,40.813 82.491,44.996C75.436,49.508 68.876,56.927 68.876,68.932C68.876,76.791 71.328,84.147 76.168,90.847C58.599,98.123 47.107,114.253 46.493,115.129C46.409,115.248 46.353,115.379 46.292,115.507C46.272,115.549 46.247,115.585 46.228,115.629C46.117,115.903 46.068,116.187 46.057,116.479C46.056,116.511 46.04,116.536 46.04,116.568C46.04,116.603 46.057,116.633 46.06,116.667C46.069,116.952 46.112,117.235 46.22,117.505C46.223,117.509 46.232,117.529 46.235,117.536C46.236,117.541 46.239,117.548 46.24,117.552C46.609,118.455 52.408,132.003 68.681,140.061C58.94,142.887 47.751,145.452 33.177,145.452C31.793,145.452 30.669,146.576 30.669,147.961C30.669,149.347 31.793,150.469 33.177,150.469C52.021,150.469 65.283,146.396 76.983,142.8C85.475,140.192 92.805,137.939 100.431,137.939C116.239,137.939 124.167,146.024 124.291,146.151L129.557,151.416C130.047,151.905 130.689,152.151 131.329,152.151C131.972,152.151 132.616,151.905 133.105,151.416C134.083,150.437 134.083,148.848 133.103,147.871L131.911,146.679L131.911,108.232C131.911,107.551 132.465,106.995 133.145,106.995C133.828,106.995 134.38,107.551 134.38,108.232L134.38,144.815C134.38,146.201 135.503,147.323 136.889,147.323C138.275,147.323 139.397,146.201 139.397,144.815L139.397,134.519C141.091,136.325 143.303,138.241 146.169,139.985C147.356,140.701 148.896,140.329 149.617,139.144C150.335,137.96 149.96,136.419 148.776,135.697C142.575,131.927 140.017,127.213 139.397,125.897L139.397,118.968L150.751,118.459L156.227,135.845C156.564,136.917 157.553,137.599 158.619,137.599C158.867,137.599 159.121,137.563 159.373,137.484C160.693,137.069 161.425,135.661 161.011,134.336L155.937,118.228L163.721,117.879L172.751,134.021C173.209,134.843 174.064,135.305 174.944,135.305C175.359,135.305 175.779,135.203 176.165,134.987C177.376,134.311 177.805,132.781 177.131,131.572L169.329,117.628L185.279,116.916L196.521,135.268C195.885,135.556 195.257,135.849 194.605,136.12C193.325,136.652 192.719,138.119 193.251,139.399C193.651,140.361 194.585,140.944 195.568,140.944C195.885,140.944 196.215,140.884 196.525,140.753C198.183,140.065 199.763,139.319 201.307,138.547C201.349,138.524 201.396,138.513 201.437,138.489C201.448,138.484 201.453,138.472 201.464,138.465C220,129.148 230.54,114.572 231.016,113.904C231.104,113.781 231.147,113.641 231.211,113.508C231.251,113.423 231.303,113.347 231.335,113.253L231.335,113.253Z" style="fill:white;fill-rule:nonzero;"/>
                <path d="M73.999,210.312C59.257,191.333 33.764,196.2 32.687,196.412C31.328,196.685 30.447,198.008 30.72,199.367C30.992,200.723 32.323,201.601 33.672,201.331C33.908,201.288 57.181,196.84 70.037,213.389C71.141,214.811 72.409,216.175 73.8,217.443C74.281,217.883 74.888,218.099 75.489,218.099C76.172,218.099 76.851,217.823 77.345,217.279C78.276,216.257 78.204,214.669 77.181,213.739C75.999,212.66 74.928,211.505 73.999,210.312L73.999,210.312Z" style="fill:white;fill-rule:nonzero;"/>
                <path d="M180.273,195.021L179.591,194.352C177.963,192.727 160.196,174.96 146.712,161.479C145.732,160.5 144.145,160.5 143.165,161.479C142.185,162.457 142.185,164.045 143.165,165.024C156.648,178.511 174.42,196.279 176.045,197.9L176.765,198.608C179.344,201.132 186.196,207.833 186.224,212.875C186.231,214.12 185.801,215.133 184.869,216.064C183.52,217.415 182.027,218.019 180.469,218.043C177.007,218.005 173.76,215.041 173.063,214.363C171.619,212.856 170.153,211.553 169.023,210.555C168.523,210.113 168.117,209.756 167.864,209.505L157.023,198.664L153.476,202.212L164.319,213.053C164.621,213.356 165.101,213.785 165.697,214.313C168.033,216.377 173.505,221.213 173.617,224.863C173.641,225.768 173.304,226.54 172.552,227.295C171.393,228.451 170.211,228.999 168.941,228.924C166.36,228.807 163.749,226.313 162.96,225.367C162.956,225.361 162.951,225.36 162.947,225.355C162.251,224.436 161.472,223.507 160.519,222.553L147.473,209.503L143.928,213.051L156.973,226.103C159.097,228.224 160.387,230.16 160.8,231.852C161.215,233.549 160.737,234.967 159.251,236.451C156.779,238.923 153.095,237.139 151.847,236.417C151.243,235.392 150.524,234.411 149.645,233.533C146.615,230.501 138.841,221.751 138.764,221.663C137.843,220.624 136.257,220.529 135.224,221.452C134.187,222.371 134.092,223.956 135.013,224.993C135.336,225.357 142.961,233.945 146.1,237.081C147.392,238.373 148.272,239.995 148.513,241.528C148.772,243.165 148.307,244.549 147.099,245.761C146.597,246.263 146.027,246.443 145.283,246.477C143.601,246.465 139.639,245.272 132.032,237.421C131.068,236.425 129.481,236.405 128.487,237.365C127.491,238.331 127.467,239.919 128.429,240.913C135.296,247.999 140.796,251.46 145.245,251.493C145.267,251.493 145.289,251.493 145.311,251.493C147.369,251.493 149.212,250.74 150.644,249.307C152.56,247.392 153.561,244.987 153.577,242.412C154.415,242.595 155.285,242.713 156.175,242.713C158.437,242.713 160.792,242.007 162.797,239.999C164.776,238.02 165.829,235.764 165.936,233.367C166.803,233.657 167.708,233.887 168.679,233.935C168.829,233.943 168.98,233.947 169.128,233.947C171.661,233.947 174.063,232.879 176.099,230.84C177.825,229.117 178.7,226.995 178.629,224.708C178.609,224.08 178.509,223.459 178.36,222.84C179.017,222.967 179.691,223.049 180.383,223.059C180.433,223.059 180.485,223.059 180.537,223.059C183.477,223.059 186.128,221.9 188.417,219.611C190.304,217.725 191.255,215.448 191.24,212.847C191.2,205.713 183.544,198.22 180.273,195.021L180.273,195.021Z" style="fill:white;fill-rule:nonzero;"/>
                <path d="M129.407,233.816C126.695,240.576 117.901,249.204 113.728,249.204C113.199,249.204 112.953,249.045 112.749,248.811C110.831,246.607 114.037,240.524 120.547,234.025C123.465,231.109 126.345,229.368 128.244,229.368C128.892,229.368 129.391,229.568 129.864,230.024C130.236,230.377 130.249,231.716 129.407,233.816ZM97.763,241.771C94.621,238.632 100.384,230.055 107.485,222.945C108.551,221.88 109.96,220.473 111.489,219.127C111.553,219.064 111.635,219.031 111.693,218.957C111.701,218.948 111.708,218.94 111.716,218.929C114.237,216.737 117.055,214.759 119.204,214.759C119.952,214.759 120.544,215.017 121.123,215.599C122.049,216.531 122.479,217.535 122.475,218.765C122.456,223.677 115.655,230.417 112.751,233.296L112.048,233.991C111.693,234.348 111.308,234.744 110.895,235.167C108.109,238.027 103.447,242.812 100.048,242.812C99.199,242.809 98.472,242.48 97.763,241.771L97.763,241.771ZM86.227,232.185C83.309,229.268 88.769,221.181 95.475,214.465C102.183,207.768 106.296,205.819 108.816,208.151C109.767,209.029 111.716,210.849 108.009,215.525C106.633,216.749 105.272,218.063 103.939,219.397C100.911,222.427 97.183,226.611 94.667,230.933C92.563,232.703 88.952,234.908 86.227,232.185L86.227,232.185ZM77.023,221.803C75.744,220.527 77.181,217.597 78.152,215.964C80.039,212.789 82.945,209.692 84.507,208.129L85.151,207.484C87.264,205.353 90.808,201.791 92.951,201.791C93.221,201.791 93.556,201.844 93.985,202.253C94.429,202.675 94.629,203.168 94.637,203.853C94.676,206.941 90.929,212.084 87.2,215.813L86.307,216.724C84.363,218.719 80.743,222.435 78.371,222.433C78.036,222.433 77.58,222.363 77.023,221.803L77.023,221.803ZM128.244,224.352C127.477,224.352 126.715,224.492 125.956,224.687C126.883,222.755 127.483,220.76 127.491,218.781C127.499,216.205 126.553,213.944 124.68,212.061C123.169,210.544 121.277,209.741 119.204,209.741C117.872,209.741 116.535,210.067 115.203,210.621C115.128,207.764 113.564,205.707 112.221,204.467C108.224,200.771 103.607,201.979 99.62,204.449C99.635,204.229 99.656,204.009 99.655,203.792C99.631,201.761 98.865,199.972 97.445,198.621C96.175,197.412 94.62,196.773 92.951,196.773C88.719,196.773 84.765,200.752 81.592,203.949L80.961,204.581C79.233,206.311 76.007,209.756 73.84,213.401C70.044,219.784 71.547,223.423 73.475,225.351C74.849,226.723 76.543,227.449 78.371,227.449C79.213,227.449 80.044,227.257 80.861,226.988C79.96,230.223 80.247,233.299 82.681,235.732C84.521,237.572 86.743,238.484 89.136,238.481C90.053,238.481 90.999,238.331 91.953,238.064C91.592,240.745 92.153,243.257 94.216,245.317C95.88,246.983 97.843,247.825 100.048,247.828C102.577,247.828 105.073,246.664 107.381,245.055C106.844,247.597 107.171,250.041 108.963,252.104C110.167,253.488 111.813,254.221 113.728,254.221C121.087,254.221 131.135,242.976 134.063,235.684C136.121,230.556 134.803,227.803 133.333,226.399C131.933,225.057 130.173,224.352 128.244,224.352L128.244,224.352Z" style="fill:rgb(36,31,31);fill-rule:nonzero;"/>
                <path d="M113.943,176.163C113.943,165.225 131.127,152.759 139.388,146.769C141.177,145.468 142.592,144.445 143.537,143.661C149.208,138.968 161.127,136.167 175.421,136.167C186.453,136.167 195.567,141.255 201.267,145.521C208.419,150.883 231.008,150.968 233.495,150.972C234.88,150.968 236,149.845 235.996,148.46C235.992,147.076 234.871,145.956 233.488,145.956C233.388,145.955 233.329,145.956 233.249,145.956C224.241,145.956 208.615,144.76 204.275,141.505C197.963,136.78 187.833,131.149 175.421,131.149C159.764,131.149 146.979,134.3 140.341,139.796C139.516,140.476 138.092,141.512 136.44,142.708C126.851,149.664 109.025,162.595 108.927,176.051C108.812,177.469 107.997,189.729 113.536,195.795C115.636,198.096 118.331,199.261 121.541,199.261C124.369,199.261 126.652,198.369 128.332,196.605C131.944,192.813 131.616,186.091 131.356,180.691C131.253,178.588 131.113,175.711 131.384,175.085C134.307,171.327 140.636,165.761 144.94,165.761C146.324,165.761 147.448,164.637 147.448,163.252C147.448,161.868 146.324,160.744 144.94,160.744C137.752,160.744 129.856,168.873 127.425,172.005C126,173.833 126.144,176.811 126.345,180.935C126.549,185.144 126.829,190.911 124.7,193.144C124.251,193.616 123.432,194.245 121.541,194.245C119.752,194.245 118.385,193.664 117.244,192.417C113.7,188.543 113.652,179.533 113.933,176.387C113.939,176.313 113.943,176.237 113.943,176.163L113.943,176.163Z" style="fill:rgb(36,31,31);fill-rule:nonzero;"/>
            </g>
        </g>
    </g>
</svg>
